<svg width="112" height="87" viewBox="0 0 112 87" fill="none" xmlns="http://www.w3.org/2000/svg">
<g clip-path="url(#clip0_1186_70259)">
<path opacity="0.3" d="M99.2587 72.4824C105.464 69.1622 107.803 61.4404 104.482 55.2353C101.162 49.0303 93.4404 46.6916 87.2353 50.0117C81.0302 53.3319 78.6915 61.0537 82.0117 67.2588C85.3319 73.4638 93.0536 75.8025 99.2587 72.4824Z" fill="#1E62A1"/>
<path opacity="0.1" d="M0 58.17L49.06 86.19C49.22 86.3 49.42 86.33 49.62 86.34C49.83 86.34 50.03 86.31 50.19 86.21L111.07 51.07C111.39 50.89 111.4 50.58 111.1 50.38L62.01 22.36L0 58.17Z" fill="black"/>
<path d="M107.44 50.29C107.42 50.59 107.18 50.97 106.89 51.13L50.05 83.92C49.76 84.09 49.31 84.08 49.04 83.9L4.69 58.58L4.74 57.5L62.61 24.1L106.98 49.43C107.25 49.61 107.46 49.99 107.44 50.29Z" fill="#0CBBE2"/>
<path opacity="0.1" d="M49.6 82.9699L49.55 84.0399C49.74 84.0399 49.92 83.9999 50.07 83.9299L106.9 51.1399C107.19 50.9699 107.44 50.5899 107.46 50.2999C107.47 50.0099 107.26 49.6099 106.99 49.4399C107.26 49.6199 107.24 49.8999 106.96 50.0599L50.13 82.8599C49.98 82.9499 49.8 82.9799 49.61 82.9699H49.6Z" fill="black"/>
<path opacity="0.25" d="M4.75 57.51L49.1 82.84C49.24 82.94 49.43 82.97 49.61 82.97C49.8 82.97 49.98 82.95 50.13 82.86L106.96 50.06C107.25 49.89 107.26 49.61 106.99 49.44L62.6 24.1L4.75 57.51Z" fill="black"/>
<path opacity="0.15" d="M4.75 57.51L4.7 58.59L49.05 83.92C49.19 84.02 49.38 84.05 49.56 84.05L49.61 82.98C49.43 82.98 49.25 82.94 49.1 82.85L4.75 57.51Z" fill="black"/>
<path d="M5.42 57.95L63.3 24.55L64.02 10.39L6.13 43.95L5.42 57.95Z" fill="#0CBBE2"/>
<path opacity="0.3" d="M5.42 57.95L63.3 24.55L64.02 10.39L6.13 43.95L5.42 57.95Z" fill="black"/>
<path d="M107.2 42.66C107.54 42.88 107.8 43.41 107.77 43.84L107.62 46.71C107.6 47.14 107.29 47.66 106.93 47.86L50.35 80.5C49.99 80.71 49.42 80.7 49.08 80.48L11.57 57.57L11.79 53.15L69.66 19.74L107.2 42.66Z" fill="#EBEBEB"/>
<path d="M69.66 19.74L107.2 42.66C107.54 42.88 107.52 43.23 107.16 43.44L50.59 76.08C50.23 76.29 49.66 76.28 49.32 76.06L11.8 53.15L69.66 19.74Z" fill="#FAFAFA"/>
<path d="M16.71 53.5999C16.57 53.6699 16.43 53.7199 16.27 53.7499C16.04 53.7999 15.78 53.7999 15.58 53.7199C15.5 53.6999 15.43 53.6799 15.37 53.6299C15.03 53.4199 15.09 53.0499 15.51 52.8199C15.69 52.7199 15.91 52.6599 16.12 52.6499C16.39 52.6299 16.66 52.6699 16.84 52.7899C16.87 52.7999 16.89 52.8199 16.9 52.8499C17.16 53.0699 17.09 53.3799 16.7 53.5999H16.71Z" fill="#E0E0E0"/>
<path d="M49.94 76.2201L49.71 80.6501C49.94 80.6501 50.18 80.6101 50.36 80.5101L106.93 47.87C107.29 47.66 107.6 47.1401 107.62 46.7201L107.77 43.85C107.79 43.49 107.61 43.05 107.34 42.8C107.52 43.01 107.46 43.2701 107.16 43.4501L50.59 76.09C50.41 76.2 50.17 76.2501 49.94 76.2301V76.2201Z" fill="#0CBBE2"/>
<path d="M10.25 47.34C11.02 46.88 11.95 46.95 12.86 47.55C14.39 48.55 15.64 50.81 16.15 53.25C15.84 53.29 15.45 53.34 15.28 53.37C14.8 51.21 13.7 49.19 12.39 48.34C12.1 48.15 11.72 47.97 11.32 47.96C11.1 47.96 10.87 48.01 10.65 48.14C9.93999 48.57 9.48999 49.73 9.44999 51.26C9.37999 54.2 10.8 57.54 12.6 58.72C12.94 58.94 13.41 59.15 13.89 59.08L14.8 59.67C14.8 59.67 14.76 59.7 14.74 59.71C14.39 59.92 14.02 60.01 13.63 60.01C13.15 60.01 12.64 59.83 12.13 59.5C10.07 58.16 8.50999 54.54 8.58999 51.27C8.62999 49.38 9.23999 47.95 10.24 47.35L10.25 47.34Z" fill="#E0E0E0"/>
<g opacity="0.35">
<path d="M10.25 47.34C11.02 46.88 11.95 46.95 12.86 47.55C14.39 48.55 15.64 50.81 16.15 53.25C15.84 53.29 15.45 53.34 15.28 53.37C14.8 51.21 13.7 49.19 12.39 48.34C12.1 48.15 11.72 47.97 11.32 47.96C11.1 47.96 10.87 48.01 10.65 48.14C9.93999 48.57 9.48999 49.73 9.44999 51.26C9.37999 54.2 10.8 57.54 12.6 58.72C12.94 58.94 13.41 59.15 13.89 59.08L14.8 59.67C14.8 59.67 14.76 59.7 14.74 59.71C14.39 59.92 14.02 60.01 13.63 60.01C13.15 60.01 12.64 59.83 12.13 59.5C10.07 58.16 8.50999 54.54 8.58999 51.27C8.62999 49.38 9.23999 47.95 10.24 47.35L10.25 47.34Z" fill="black"/>
</g>
<path d="M107.9 41.3C107.88 41.6 107.64 41.98 107.35 42.14L50.51 74.93C50.22 75.1 49.77 75.09 49.5 74.91L5.41 44.49L5.46 43.41L63.33 10L107.44 40.44C107.71 40.62 107.92 41 107.9 41.3Z" fill="#0CBBE2"/>
<path opacity="0.1" d="M50.06 73.9801L50.01 75.0501C50.2 75.0501 50.38 75.0101 50.53 74.9301L107.36 42.1401C107.65 41.9701 107.9 41.5901 107.92 41.2901C107.93 40.9901 107.72 40.6001 107.45 40.4301C107.72 40.6101 107.7 40.8901 107.42 41.0501L50.59 73.8501C50.44 73.9401 50.26 73.9701 50.07 73.9601L50.06 73.9801Z" fill="black"/>
<path d="M5.47 43.41L49.56 73.84C49.7 73.94 49.89 73.97 50.07 73.97C50.26 73.97 50.44 73.95 50.59 73.86L107.42 41.06C107.71 40.89 107.72 40.61 107.45 40.44L63.32 10L5.47 43.41Z" fill="#0CBBE2"/>
<path opacity="0.15" d="M5.47 43.41L5.42 44.49L49.51 74.92C49.65 75.02 49.84 75.05 50.02 75.05L50.07 73.98C49.89 73.98 49.71 73.94 49.56 73.85L5.47 43.41Z" fill="black"/>
<path d="M4.75 57.5101L5.46 43.4301L6.13 43.9501L5.42 57.9501L4.75 57.5101Z" fill="#0CBBE2"/>
<path opacity="0.15" d="M4.75 57.5101L5.46 43.4301L6.13 43.9501L5.42 57.9501L4.75 57.5101Z" fill="black"/>
<path d="M7.11999 43.23C6.80999 43.03 6.65999 42.77 6.66999 42.51C6.67999 42.25 6.72999 41.41 6.72999 41.41L62.66 9.78001C63.32 9.40001 64.37 9.42001 64.99 9.82001L108.55 38.21L50.67 71.6L7.11999 43.23Z" fill="#0CBBE2"/>
<path opacity="0.15" d="M7.11999 43.23C6.80999 43.03 6.65999 42.77 6.66999 42.51C6.67999 42.25 6.72999 41.41 6.72999 41.41L62.66 9.78001C63.32 9.40001 64.37 9.42001 64.99 9.82001L108.55 38.21L50.67 71.6L7.11999 43.23Z" fill="black"/>
<path d="M7.18 42.1501C6.56 41.7401 6.59 41.1001 7.25 40.7201L62.71 8.71007C63.37 8.33007 64.42 8.35007 65.04 8.75007L108.6 37.1401L50.72 70.5401L7.18 42.1501Z" fill="#0CBBE2"/>
<path opacity="0.25" d="M7.18 42.1501C6.56 41.7401 6.59 41.1001 7.25 40.7201L62.71 8.71007C63.37 8.33007 64.42 8.35007 65.04 8.75007L108.6 37.1401L50.72 70.5401L7.18 42.1501Z" fill="black"/>
<path d="M98.61 29.74L66.36 8.74001C65.74 8.33001 64.69 8.32001 64.03 8.70001L12.54 38.42L8.34999 35.66L8.06999 41.11L8.14999 41.16C7.98999 41.49 8.08999 41.86 8.49999 42.14L45.43 66.2L103.31 32.81L103.61 26.86L98.6 29.75L98.61 29.74Z" fill="#EBEBEB"/>
<path d="M8.80999 36.19C8.18999 35.78 8.21999 35.14 8.87999 34.76L64.34 2.73997C65 2.35997 66.05 2.37997 66.67 2.77997L103.62 26.85L45.74 60.25L8.80999 36.19Z" fill="#FAFAFA"/>
<path d="M45.74 60.25L45.43 66.2L103.32 32.81L103.62 26.86L45.74 60.25Z" fill="#0CBBE2"/>
<path d="M46.47 57.94C46.33 58.01 46.19 58.06 46.03 58.09C45.8 58.14 45.54 58.14 45.35 58.06C45.27 58.04 45.2 58.01 45.14 57.97C44.8 57.76 44.86 57.39 45.28 57.16C45.46 57.06 45.68 57 45.89 56.99C46.16 56.97 46.43 57.01 46.61 57.13C46.64 57.14 46.66 57.16 46.67 57.19C46.93 57.41 46.86 57.72 46.47 57.94Z" fill="#E0E0E0"/>
<path d="M49.2 56.7299C48.65 56.3799 48.12 56.1999 47.6 56.1899C46.91 56.1799 46.32 56.47 45.89 56.99C45.65 57.27 45.47 57.6399 45.35 58.0699C45.55 58.1499 45.8 58.1499 46.03 58.0999C46.17 57.6899 46.39 57.3799 46.67 57.1999C47.22 56.7799 47.99 56.8099 48.83 57.3499C50.37 58.3499 51.54 60.7599 51.44 62.6999C51.34 64.6399 50.04 65.4199 48.5 64.4499L47.82 64.8399C47.91 64.9099 48.02 64.9699 48.11 65.0299C48.64 65.3799 49.19 65.5599 49.7 65.5699H49.71C50.38 65.5799 50.99 65.29 51.42 64.76C51.84 64.25 52.07 63.5599 52.12 62.7099C52.23 60.4999 50.95 57.87 49.21 56.74L49.2 56.7299Z" fill="#E0E0E0"/>
<path opacity="0.35" d="M49.2 56.7299C48.65 56.3799 48.12 56.1999 47.6 56.1899C46.91 56.1799 46.32 56.47 45.89 56.99C45.65 57.27 45.47 57.6399 45.35 58.0699C45.55 58.1499 45.8 58.1499 46.03 58.0999C46.17 57.6899 46.39 57.3799 46.67 57.1999C47.22 56.7799 47.99 56.8099 48.83 57.3499C50.37 58.3499 51.54 60.7599 51.44 62.6999C51.34 64.6399 50.04 65.4199 48.5 64.4499L47.82 64.8399C47.91 64.9099 48.02 64.9699 48.11 65.0299C48.64 65.3799 49.19 65.5599 49.7 65.5699H49.71C50.38 65.5799 50.99 65.29 51.42 64.76C51.84 64.25 52.07 63.5599 52.12 62.7099C52.23 60.4999 50.95 57.87 49.21 56.74L49.2 56.7299Z" fill="black"/>
<path d="M50.73 57.05L7.16 33.01L7.12 33.79C7.1 34.18 7.34 34.67 7.65 34.87L50.67 58.13L50.72 57.05H50.73Z" fill="#0CBBE2"/>
<path opacity="0.15" d="M50.73 57.05L7.16 33.01L7.12 33.79C7.1 34.18 7.34 34.67 7.65 34.87L50.67 58.13L50.72 57.05H50.73Z" fill="black"/>
<path d="M7.60999 33.72C6.98999 33.31 7.01999 32.67 7.67999 32.29L63.14 0.280013C63.8 -0.0999874 64.85 -0.0799874 65.47 0.320013L109.26 24.07L51.38 57.46L7.60999 33.72Z" fill="#0CBBE2"/>
<path d="M50.66 71.6L108.54 38.21L109.26 24.04L51.38 57.46L50.66 71.6Z" fill="#0CBBE2"/>
<path opacity="0.1" d="M50.66 71.6L108.54 38.21L109.26 24.04L51.38 57.46L50.66 71.6Z" fill="black"/>
<path d="M61.36 62.7C60.69 62.69 60.11 62.38 59.73 61.83C59.37 61.31 59.2 60.59 59.24 59.76C59.35 57.55 60.9 54.97 62.76 53.9C63.33 53.57 63.89 53.41 64.41 53.42C65.77 53.44 66.62 54.63 66.53 56.36C66.42 58.57 64.87 61.15 63.01 62.22C62.44 62.55 61.88 62.71 61.36 62.7Z" fill="#E0E0E0"/>
<path d="M59.91 59.7701C59.81 61.7201 61.06 62.5401 62.7 61.5901C64.34 60.6401 65.75 58.2901 65.85 56.3401C65.95 54.3901 64.7 53.5701 63.06 54.5201C61.42 55.4701 60.01 57.8201 59.91 59.7701Z" fill="#F5F5F5"/>
<path d="M70.74 52.85L70.69 53.92C70.58 56.06 71.95 56.96 73.76 55.92L101.32 40.01C103.12 38.97 104.67 36.39 104.78 34.24L104.83 33.17C104.94 31.03 103.57 30.13 101.76 31.17L74.2 47.08C72.4 48.12 70.85 50.7 70.74 52.85Z" fill="#F5F5F5"/>
<path d="M49.99 71.1701L50.7 57.0901L51.38 57.4601L50.66 71.6001L49.99 71.1701Z" fill="#0CBBE2"/>
<path opacity="0.15" d="M49.99 71.1701L50.7 57.0901L51.38 57.4601L50.66 71.6001L49.99 71.1701Z" fill="black"/>
<path opacity="0.3" d="M103.844 16.3521C103.087 15.5935 102.504 14.6792 102.135 13.6726C101.767 12.6661 101.622 11.5913 101.711 10.5232C101.8 9.45497 102.12 8.41891 102.649 7.48694C103.179 6.55497 103.905 5.74943 104.777 5.12628C105.536 5.88375 106.12 6.7976 106.489 7.8041C106.858 8.8106 107.003 9.8855 106.914 10.9538C106.825 12.0222 106.504 13.0582 105.973 13.9896C105.442 14.9211 104.715 15.7255 103.841 16.3469L103.844 16.3521Z" fill="#5A8FD3"/>
<path opacity="0.3" d="M17 80.0735C15.8811 80.3724 14.7106 80.424 13.5697 80.2249C12.4289 80.0259 11.345 79.5808 10.3935 78.9207C9.44193 78.2606 8.64549 77.4012 8.05948 76.4023C7.47347 75.4035 7.11194 74.289 7 73.1363C8.11858 72.8357 9.28929 72.7827 10.4304 72.9811C11.5716 73.1794 12.6558 73.6244 13.6072 74.2849C14.5587 74.9454 15.3547 75.8056 15.9395 76.8053C16.5244 77.8051 16.8841 78.9205 16.9935 80.0735H17Z" fill="#5A8FD3"/>
</g>
<defs>
<clipPath id="clip0_1186_70259">
<rect width="111.32" height="86.35" fill="white"/>
</clipPath>
</defs>
</svg>
