<svg width="126" height="131" viewBox="0 0 126 131" fill="none" xmlns="http://www.w3.org/2000/svg">
<path d="M28.9071 112.582C28.9071 112.582 30.9348 96.9913 16.0422 83.5815C16.0422 83.5815 14.5772 100.236 28.9039 112.582H28.9071Z" fill="#7DC4F9"/>
<path d="M28.3979 109.951C28.3979 109.951 37.4603 98.0918 31.6213 80.02C31.6213 80.02 22.5151 93.0197 28.3953 109.949L28.3979 109.951Z" fill="#1E62A1"/>
<path d="M96.2124 105.631C96.2124 105.631 88.7062 89.5858 95.8901 88.6913C101.27 88.0228 96.9659 79.7781 100.513 80.0249C104.056 80.2692 103.711 81.963 105.279 77.6059C106.846 73.2525 110.549 74.2305 114.165 71.1273C117.778 68.0278 122.255 72.991 118.197 78.2828C114.139 83.5745 119.646 78.7646 119.894 82.2805C120.141 85.7965 108.272 90.883 111.034 91.6021C113.796 92.3212 114.403 95.1858 111.832 97.3815C105.83 102.514 96.2111 105.625 96.2111 105.625L96.2124 105.631Z" fill="#1E62A1"/>
<g style="mix-blend-mode:multiply" opacity="0.39">
<path d="M94.8158 108.702C94.8009 108.676 94.7983 108.648 94.8117 108.62C96.7907 103.777 99.4966 97.445 102.857 91.4433L102.887 91.3988L102.869 91.3447C102.301 89.3733 102.033 87.3018 101.773 85.3055C101.686 84.6466 101.601 83.984 101.506 83.3301C101.498 83.2932 101.51 83.2746 101.54 83.2621C101.582 83.2471 101.648 83.2591 101.677 83.3046C101.686 83.3156 101.688 83.3279 101.688 83.3439C101.781 83.9855 101.866 84.6321 101.951 85.2787C102.192 87.1248 102.439 89.0337 102.926 90.8711L103.008 91.1751L103.163 90.8995C104.595 88.3793 106.172 85.8744 107.973 83.2402L108.019 83.1697L107.976 83.0985C107.976 83.0985 107.961 83.0727 107.964 83.0591C107.957 80.8667 108.162 78.6659 108.568 76.517C108.576 76.48 108.595 76.4602 108.626 76.4539C108.669 76.445 108.718 76.4669 108.734 76.4989C108.744 76.5161 108.748 76.5346 108.743 76.558C108.369 78.5305 108.165 80.5514 108.146 82.5665L108.139 82.988L108.379 82.6404C110.096 80.1644 111.956 77.6593 114.063 74.9878C114.085 74.9544 114.108 74.9592 114.114 74.9579C114.144 74.9615 114.177 74.9835 114.196 75.0117C114.22 75.0486 114.217 75.0843 114.189 75.119C111.308 78.7705 108.847 82.1722 106.671 85.5059L106.531 85.7173L106.783 85.7074C109.607 85.5894 112.343 84.9345 114.91 83.7531C114.939 83.7406 114.962 83.7392 114.982 83.7736C115 83.8019 115.005 83.8425 114.993 83.8771C114.986 83.9042 114.961 83.9253 114.936 83.9402C112.271 85.1641 109.43 85.8244 106.496 85.9073L106.419 85.904L106.377 85.967C105.163 87.849 104.086 89.6192 103.09 91.3891L103.07 91.4188L103.072 91.457C103.072 91.489 103.057 91.5113 103.025 91.5275L102.993 91.5437L102.974 91.5733C102.099 93.1417 101.223 94.8099 100.3 96.6867L100.151 96.993L100.467 96.8608C103.452 95.6353 106.527 94.5708 109.606 93.6948C109.652 93.6822 109.686 93.6943 109.708 93.7349C109.726 93.7632 109.728 93.8013 109.717 93.8261C109.709 93.8372 109.7 93.852 109.666 93.8621C106.418 94.7857 103.194 95.9127 100.077 97.2103L100.033 97.229L100.006 97.2698C98.4084 100.565 96.8003 104.199 94.9588 108.711C94.9418 108.753 94.9196 108.755 94.9098 108.753C94.8716 108.755 94.8283 108.732 94.8047 108.695L94.8158 108.702Z" fill="#020305"/>
</g>
<path d="M114.566 25.467C113.132 22.7107 111.008 20.2765 108.615 18.4074C105.243 15.777 101.304 13.984 97.3248 12.419C84.4736 7.35364 68.0762 7.3857 60.1588 20.6119C54.8498 29.4868 54.8593 40.6543 56.5572 50.5308C59.0518 65.0423 72.7135 88.2123 90.576 76.6911C100.178 70.4963 100.921 56.5379 107.546 47.9485C110.649 43.9269 115.274 40.5936 116.246 35.3176C116.877 31.874 116.135 28.4816 114.566 25.467Z" fill="#101840" fill-opacity="0.04"/>
<path d="M7.0265 53.3657C9.05107 48.0993 14.2906 44.1154 19.9191 44.0026C25.8662 43.8852 31.1104 47.7046 35.6048 51.6086C40.0991 55.5127 44.6497 59.8489 50.4516 61.1643C57.4204 62.7428 64.6142 59.5905 71.7517 59.9757C81.5278 60.5019 90.2212 68.169 92.9581 77.5931C95.6951 87.0125 92.8597 97.6111 86.5611 105.128C80.2624 112.64 70.8519 117.183 61.1602 118.559C50.3251 120.1 38.6276 117.648 30.37 110.446C25.8334 106.49 22.5716 101.041 21.1891 95.1823C20.0925 90.5313 21.0251 85.434 19.6472 80.8911C18.1804 76.0615 13.5782 74.2951 10.4617 70.7435C6.37976 66.0925 4.76761 59.2428 7.0265 53.3751V53.3657Z" fill="#101840" fill-opacity="0.04"/>
<path d="M84.5855 103.672C81.487 105.59 78.0541 107.066 74.3163 107.971C64.6569 110.331 54.968 108.521 47.1382 103.662C39.4855 98.9309 33.5935 91.2879 31.2819 81.845C26.6293 62.7328 38.315 43.4632 57.4271 38.8106C76.5196 34.1383 95.7892 45.8436 100.462 64.9558C104.209 80.3302 97.3532 95.8029 84.5855 103.682V103.672Z" fill="#C1C4D6"/>
<path d="M76.7065 69.3133C76.7065 75.2939 71.8572 80.1432 65.8766 80.1432C59.8961 80.1432 55.0467 75.2939 55.0467 69.3133C55.0467 63.3328 59.8961 58.4834 65.8766 58.4834C71.8572 58.4834 76.7065 63.3328 76.7065 69.3133Z" fill="white"/>
<path d="M84.5856 99.1963V103.662C81.4871 105.58 78.0542 107.056 74.3164 107.961C64.657 110.321 54.9681 108.511 47.1383 103.652V99.1963C47.1383 88.8877 55.5189 80.4775 65.857 80.4775C76.1951 80.4775 84.5758 88.8877 84.5758 99.1963H84.5856Z" fill="white"/>
<path d="M81.5558 19.6498C80.7788 11.8101 75.3687 4 65.8766 4C56.3844 4 50.9842 11.8003 50.2072 19.6498C49.0071 31.7486 57.1713 42.7162 65.8766 52.7198C74.5917 42.7162 82.7559 31.7584 81.5558 19.6498ZM65.8766 28.355C61.1354 28.355 57.2894 24.509 57.2894 19.7678C57.2894 15.0266 61.1354 11.1806 65.8766 11.1806C70.6177 11.1806 74.4736 15.0266 74.4736 19.7678C74.4736 24.509 70.6276 28.355 65.8766 28.355Z" fill="#0CBBE2"/>
<path d="M83.769 79.0087L77.4075 83.7764L94.9313 107.158L101.293 102.391L83.769 79.0087Z" fill="#003972"/>
<path d="M91.0217 100.999L96.4791 96.9086C97.6291 96.0467 99.263 96.2807 100.125 97.4307L116.438 119.197C117.3 120.347 117.066 121.981 115.916 122.843L110.459 126.933C109.309 127.795 107.675 127.561 106.813 126.411L90.4996 104.644C89.6377 103.494 89.8717 101.861 91.0217 100.999Z" fill="#0C3157"/>
<g opacity="0.2">
<path d="M85.9082 34.996C96.5328 49.1719 93.6545 69.2831 79.4744 79.9119C65.2985 90.5366 45.1831 87.654 34.5585 73.4781C23.9297 59.2939 26.8122 39.1785 40.9881 28.5539C55.1681 17.9251 75.2794 20.8118 85.9082 34.996Z" fill="white"/>
<path d="M90.2732 42.9541C95.1661 55.9629 91.1579 71.1564 79.47 79.9119C77.0527 81.7229 74.4692 83.1392 71.7777 84.1776L90.2732 42.9541Z" fill="#EBEBEB"/>
<path d="M65.1445 22.5272L39.8123 78.9858C37.8851 77.3991 36.1198 75.555 34.554 73.4741C32.7555 71.0816 31.3475 68.5106 30.3174 65.8482L49.0206 24.1596C54.2374 22.2157 59.7906 21.6965 65.1486 22.5272H65.1445Z" fill="#EBEBEB"/>
<path d="M83.8601 32.5334L59.7283 86.3129C57.6225 86.2797 55.5291 86.0346 53.4731 85.5944L79.1667 28.3301C80.8447 29.5471 82.4147 30.9509 83.856 32.5334H83.8601Z" fill="#EBEBEB"/>
<path d="M69.4268 23.499L43.3886 81.5442C43.0563 81.3406 42.7281 81.133 42.4042 80.917L68.3095 23.1875C68.6834 23.2789 69.0572 23.3786 69.431 23.499H69.4268Z" fill="#EBEBEB"/>
<path d="M39.721 29.5549L28.1618 55.3149C28.1285 54.3555 28.141 53.3919 28.195 52.4324L37.5944 31.478C38.2631 30.8093 38.9733 30.1655 39.7168 29.5508L39.721 29.5549Z" fill="#EBEBEB"/>
</g>
<path d="M60.231 90.4619C40.2526 90.4619 24 74.2093 24 54.231C24 34.2526 40.2526 18 60.231 18C80.2093 18 96.4619 34.2526 96.4619 54.231C96.4619 74.2093 80.2093 90.4619 60.231 90.4619ZM60.231 22.1535C42.5454 22.1535 28.1535 36.5412 28.1535 54.231C28.1535 71.9207 42.5454 86.3084 60.231 86.3084C77.9166 86.3084 92.3084 71.9166 92.3084 54.231C92.3084 36.5454 77.9207 22.1535 60.231 22.1535Z" fill="#0C3157"/>
</svg>
