<svg width="36" height="36" viewBox="0 0 36 36" fill="none" xmlns="http://www.w3.org/2000/svg">
<path d="M22.4136 17.908C22.4136 18.7421 23.0876 19.4161 23.9217 19.4161C24.7557 19.4161 25.4298 18.7421 25.4298 17.908C25.4298 17.0739 24.7557 16.3999 23.9217 16.3999C23.0876 16.3999 22.4136 17.0739 22.4136 17.908Z" fill="#003972"/>
<path d="M17.8843 19.4161C18.7172 19.4161 19.3924 18.7409 19.3924 17.908C19.3924 17.0751 18.7172 16.3999 17.8843 16.3999C17.0514 16.3999 16.3762 17.0751 16.3762 17.908C16.3762 18.7409 17.0514 19.4161 17.8843 19.4161Z" fill="#003972"/>
<path d="M10.3486 17.1514C9.93158 17.874 10.1789 18.7953 10.9014 19.2123C11.624 19.6294 12.5453 19.3821 12.9623 18.6595C13.3794 17.937 13.1321 17.0156 12.4095 16.5986C11.687 16.1816 10.7656 16.4289 10.3486 17.1514Z" fill="#003972"/>
<path d="M17.7873 0.276227C17.7873 0.276227 17.6855 0.266528 17.4818 0.271377C17.2587 0.276227 16.9629 0.285925 16.5847 0.295623C16.3859 0.305322 16.1677 0.305322 15.9252 0.324719C15.6827 0.358663 15.4209 0.397457 15.1348 0.436251C14.8487 0.479894 14.5383 0.523537 14.2134 0.56718C13.8885 0.649617 13.5442 0.732054 13.1805 0.824189C11.7306 1.19758 9.9752 1.83283 8.18099 3.00149C6.38678 4.15076 4.52468 5.79949 3.01172 8.03499C1.52786 10.285 0.38344 13.1024 0.0779384 16.269C0.0488431 17.0594 -0.0481414 17.8692 0.0294462 18.6839C0.0585416 19.0912 0.0488431 19.5082 0.111883 19.9204C0.174923 20.3326 0.237963 20.7497 0.301003 21.1667C0.640448 22.8203 1.13022 24.5078 1.97883 26.0838C2.80805 27.6646 3.88458 29.1679 5.19387 30.5063C6.52741 31.8156 8.08886 32.9551 9.82488 33.8329C11.5561 34.7154 13.4715 35.3264 15.4694 35.564C15.964 35.661 16.4683 35.661 16.9726 35.6901C17.477 35.7241 17.9861 35.7435 18.4953 35.7192C19.5136 35.6756 20.532 35.5495 21.5406 35.3361C23.7325 34.8706 25.7934 33.9783 27.607 32.7854L27.4227 32.8048C29.5273 33.6486 31.5882 34.4778 33.6006 35.2828L33.9643 35.4283L33.8576 35.05C33.2321 32.7806 32.6259 30.579 32.0392 28.4454L32.0101 28.6102C33.7461 26.3069 34.8517 23.6737 35.3075 21.06C35.5355 19.7556 35.6324 18.4511 35.55 17.1903C35.5209 16.5599 35.4918 15.9392 35.3754 15.3331C35.3269 15.0276 35.2833 14.7269 35.2348 14.4311C35.1815 14.1353 35.0893 13.8444 35.0166 13.5583C33.8237 8.90785 30.9578 5.47459 28.121 3.50581C26.7002 2.50687 25.2988 1.78918 24.0186 1.34306C23.6985 1.22667 23.393 1.11999 23.0924 1.01331C22.7869 0.935721 22.4959 0.862983 22.2146 0.790244C21.9334 0.722355 21.6667 0.654466 21.4097 0.591426C21.1527 0.542934 20.9054 0.513839 20.6726 0.479894C20.2071 0.421703 19.7949 0.339266 19.436 0.31987C19.082 0.310171 18.7814 0.295623 18.5292 0.290774C18.3013 0.285925 18.1171 0.281076 17.9764 0.276227C17.8503 0.276227 17.7873 0.276227 17.7873 0.281076C17.7873 0.285925 17.8503 0.295623 17.9764 0.305322C18.1171 0.31502 18.3013 0.329568 18.5292 0.348965C18.7814 0.363513 19.0772 0.387759 19.4312 0.412005C19.79 0.4411 20.1925 0.528386 20.658 0.596275C22.4765 0.930872 25.2018 1.65341 27.9901 3.69008C30.7735 5.65887 33.5618 9.05817 34.7111 13.631C34.779 13.9171 34.8663 14.1983 34.9196 14.4893C34.9633 14.7851 35.0069 15.0809 35.0505 15.3767C35.1621 15.9683 35.1912 16.5793 35.2154 17.2C35.2979 18.4366 35.196 19.7119 34.9633 20.9921C34.5074 23.5525 33.4164 26.1226 31.7094 28.3775L31.6561 28.4502L31.6803 28.5375C32.2622 30.6712 32.8635 32.8776 33.4842 35.147L33.7461 34.9142C31.7337 34.1044 29.6728 33.2752 27.5682 32.4266L27.4712 32.3878L27.3839 32.446C25.6091 33.6098 23.5967 34.4827 21.4533 34.9385C20.4689 35.1518 19.47 35.2731 18.4759 35.3167C17.9764 35.341 17.4818 35.3216 16.9872 35.2876C16.4926 35.2585 15.9979 35.2585 15.5179 35.1615C13.5685 34.9288 11.6918 34.3372 9.99945 33.474C8.30222 32.6206 6.77472 31.5101 5.46543 30.2299C4.18038 28.9206 3.1281 27.4513 2.30858 25.9092C1.46967 24.3672 0.984743 22.7136 0.645298 21.0939C0.582258 20.6866 0.519218 20.2793 0.456178 19.8719C0.397987 19.4695 0.402836 19.0621 0.373741 18.6596C0.296154 17.8547 0.388289 17.0642 0.412535 16.2884C0.69379 13.18 1.80426 10.4063 3.24933 8.19016C4.72349 5.97891 6.5468 4.33988 8.30707 3.18576C10.0673 2.01225 11.7937 1.36245 13.2242 0.969666C13.583 0.872681 13.9225 0.785395 14.2425 0.698109C14.5674 0.644768 14.8729 0.596275 15.1542 0.547783C15.4354 0.499291 15.6973 0.460497 15.9397 0.416854C16.1822 0.392608 16.4004 0.382909 16.5944 0.368362C16.9726 0.339266 17.2684 0.31987 17.4867 0.305322C17.6855 0.290774 17.7922 0.276227 17.7922 0.271377L17.7873 0.276227Z" fill="#003972"/>
</svg>
