<svg width="212" height="174" viewBox="0 0 212 174" fill="none" xmlns="http://www.w3.org/2000/svg">
<g clip-path="url(#clip0_34_61092)">
<path opacity="0.9" d="M9.95042 35.5593C15.858 2.75883 65.6405 -6.17922 89.9516 9.26503C114.263 24.7093 123.867 36.2057 138.773 24.0185C153.68 11.8314 175.848 8.0763 183.58 32.0594C191.312 56.0425 179.194 90.0921 149.936 107.044C120.678 123.996 128.756 154.083 85.3983 159.194C61.759 161.978 54.6651 137.566 52.4371 116.399C50.2091 95.2321 3.12161 73.6275 9.95042 35.5593Z" fill="#74A4D1" fill-opacity="0.08"/>
<path d="M157.728 173.618C164.494 173.618 169.979 168.134 169.979 161.368C169.979 154.602 164.494 149.117 157.728 149.117C150.962 149.117 145.478 154.602 145.478 161.368C145.478 168.134 150.962 173.618 157.728 173.618Z" fill="#1E62A1" fill-opacity="0.3"/>
<path d="M204.689 104.709C208.354 104.709 211.324 101.738 211.324 98.0732C211.324 94.4084 208.354 91.4375 204.689 91.4375C201.024 91.4375 198.053 94.4084 198.053 98.0732C198.053 101.738 201.024 104.709 204.689 104.709Z" fill="#1E62A1" fill-opacity="0.3"/>
<path d="M30.8766 19.3807C34.4005 19.3807 37.2571 16.524 37.2571 13.0002C37.2571 9.47629 34.4005 6.61963 30.8766 6.61963C27.3527 6.61963 24.4961 9.47629 24.4961 13.0002C24.4961 16.524 27.3527 19.3807 30.8766 19.3807Z" fill="#1E62A1" fill-opacity="0.3"/>
<path d="M13.018 136.356C16.5418 136.356 19.3985 133.5 19.3985 129.976C19.3985 126.452 16.5418 123.595 13.018 123.595C9.49411 123.595 6.63745 126.452 6.63745 129.976C6.63745 133.5 9.49411 136.356 13.018 136.356Z" fill="#1E62A1" fill-opacity="0.3"/>
<path d="M154.382 70.2112C154.382 85.2289 147.952 98.4077 137.847 107.909C128.661 116.49 116.412 121.7 102.939 121.7C92.2217 121.7 82.1167 118.329 73.8491 112.506C60.3759 103.311 51.802 87.9872 51.802 70.5177C51.802 42.3212 74.7677 19.335 102.939 19.335C131.11 19.335 154.382 42.0147 154.382 70.2112Z" fill="#FBFBFB"/>
<path d="M140.299 105.459C139.687 106.379 138.768 106.992 137.85 107.605C128.663 116.186 116.415 121.397 102.942 121.397C92.2245 121.397 82.1196 118.025 73.852 112.202C71.4023 110.67 69.2588 108.524 67.1154 106.685C68.3402 105.153 70.1775 104.233 74.1582 102.701L75.6892 102.088C78.7513 100.862 83.0382 99.3297 88.55 96.8779C89.4686 96.5714 90.0811 95.9584 90.6935 95.3455C90.9997 95.039 91.3059 94.7325 91.3059 94.1195C91.6121 93.5065 91.9183 92.5871 91.9183 91.9741V81.5537C91.6121 81.2472 91.6121 81.2472 91.3059 80.9407C90.3873 79.7148 89.7749 78.1824 89.7749 76.3435L89.1624 76.037C86.4066 76.65 86.7128 73.8916 86.1003 68.3749C85.7941 66.2295 86.1003 65.6166 87.3252 65.3101L88.2438 64.0841C86.4065 59.7934 85.4879 55.8091 85.4879 52.7443C85.4879 47.534 87.6314 44.1627 90.6935 42.6303C88.8562 38.9525 88.8562 37.7266 88.8562 37.7266C88.8562 37.7266 99.5736 39.5655 103.248 38.9525C107.841 38.0331 115.19 39.259 117.946 45.3886C122.539 47.2275 124.07 49.9859 124.683 53.0507C125.295 57.9545 122.539 63.1647 121.927 65.3101V65.6165C122.539 65.923 122.845 66.536 122.539 68.6814C121.927 73.8916 121.927 76.9564 119.477 76.3435L117.027 80.6342C117.027 81.2472 117.027 81.2472 116.721 81.5537C116.721 82.4731 116.721 84.0056 116.721 92.2806C116.721 93.2001 117.027 94.426 117.64 95.039C117.946 95.3454 117.946 95.6519 118.252 95.6519C118.865 96.2649 119.477 96.8779 120.09 96.8779C126.214 99.3297 130.501 101.169 133.869 102.395C136.931 103.62 139.075 104.54 140.299 105.459Z" fill="white"/>
<path d="M140.297 105.459C139.685 106.379 138.766 106.992 137.847 107.605C128.661 116.186 116.413 121.396 102.94 121.396C92.2222 121.396 82.1173 118.025 73.8497 112.202C71.4 110.669 69.2565 108.524 67.113 106.685C68.3379 105.153 70.1751 104.233 74.1559 102.701L75.6869 102.088C78.749 100.862 83.0359 99.3295 88.5477 96.8776C89.4663 96.5711 90.0788 95.9582 90.6912 95.3452C93.7533 99.636 98.6526 102.394 104.471 102.394C109.982 102.394 114.882 99.636 117.944 95.6517C118.556 96.2647 119.169 96.8776 119.781 96.8776C125.905 99.3295 130.192 101.168 133.56 102.394C136.929 103.62 139.072 104.54 140.297 105.459Z" fill="#9BACC2"/>
<path d="M121.618 65.0036C121.924 63.7777 121.312 61.9388 120.7 61.0193C120.7 60.7128 120.393 60.7128 120.393 60.4063C118.25 56.1156 113.657 54.5832 109.37 54.2767C98.0401 53.6637 97.1215 55.8091 93.7532 52.7443C94.9781 54.2767 94.978 57.035 93.1408 60.0999C91.9159 62.2452 89.7725 63.4712 87.629 64.0841C82.4235 52.4378 85.1793 45.0822 90.0787 42.6303C88.2414 38.9525 88.2414 37.7266 88.2414 37.7266C88.2414 37.7266 98.9588 39.5655 102.633 38.9525C107.226 38.0331 114.575 39.259 117.331 45.3886C121.924 47.2276 123.456 49.9859 124.068 53.0507C124.987 57.648 122.231 62.8582 121.618 65.0036Z" fill="#B5C4D1"/>
<path d="M92.2221 91.974V81.5536C91.9158 81.2471 91.9158 81.2471 91.6096 80.9406V80.3276C92.222 81.2471 92.8345 82.1665 93.7531 82.7795L102.021 88.6027C103.858 90.1351 106.614 90.1351 108.451 88.6027L116.106 81.8601C116.413 81.5536 116.719 81.5536 117.025 81.2471C117.025 82.1665 117.025 83.6989 117.025 91.974C117.025 92.587 117.025 92.8934 117.331 93.5064H92.2221C91.9158 92.8934 92.2221 92.587 92.2221 91.974Z" fill="url(#paint0_linear_34_61092)"/>
<g filter="url(#filter0_d_34_61092)">
<path d="M104.504 105.907H107.302C107.422 105.933 107.541 105.976 107.662 105.984C111.397 106.252 114.891 107.337 118.078 109.321C124.264 113.171 128.071 118.721 129.406 125.982C129.573 126.891 129.656 127.816 129.778 128.733V131.574C129.74 131.915 129.702 132.255 129.664 132.596C129.092 137.814 127.13 142.417 123.667 146.319C119.99 150.462 115.434 153.049 110.015 154.023C109.117 154.185 108.206 154.276 107.301 154.4H104.503C104.383 154.374 104.264 154.331 104.143 154.323C100.408 154.055 96.9141 152.97 93.7263 150.986C87.542 147.137 83.735 141.588 82.3995 134.326C82.2316 133.418 82.1495 132.493 82.0273 131.575V128.734C82.0656 128.393 82.1048 128.053 82.1421 127.712C82.7138 122.494 84.676 117.891 88.1389 113.989C91.8144 109.845 96.3703 107.258 101.79 106.284C102.688 106.122 103.598 106.031 104.504 105.907Z" fill="#B51E1E"/>
<path d="M104.504 104.48H107.302C107.422 104.507 107.541 104.549 107.662 104.557C111.397 104.821 114.891 105.89 118.078 107.845C124.264 111.637 128.071 117.106 129.406 124.26C129.573 125.155 129.656 126.067 129.778 126.97V129.77C129.74 130.106 129.702 130.441 129.664 130.777C129.092 135.918 127.13 140.452 123.667 144.297C119.99 148.379 115.434 150.927 110.015 151.888C109.117 152.047 108.206 152.137 107.301 152.259H104.503C104.383 152.233 104.264 152.191 104.143 152.183C100.408 151.919 96.9141 150.85 93.7263 148.895C87.542 145.103 83.735 139.636 82.3995 132.481C82.2316 131.586 82.1495 130.675 82.0273 129.771V126.971C82.0656 126.635 82.1048 126.3 82.1421 125.964C82.7138 120.823 84.676 116.288 88.1389 112.444C91.8144 108.361 96.3703 105.812 101.79 104.852C102.688 104.692 103.598 104.603 104.504 104.48Z" fill="#D14343"/>
<path fill-rule="evenodd" clip-rule="evenodd" d="M94.7098 115.574C93.7964 115.794 93.0079 116.581 92.7973 117.48C92.6462 118.126 92.7596 118.878 93.092 119.433C93.1641 119.553 95.3442 121.761 97.9368 124.339L102.651 129.027L97.8694 133.796C92.7215 138.931 92.8648 138.773 92.6661 139.532C92.5061 140.143 92.5921 140.782 92.9156 141.386C93.425 142.338 94.6156 142.799 95.875 142.533C96.6255 142.375 96.43 142.55 101.549 137.462C104.155 134.871 106.311 132.752 106.34 132.752C106.369 132.752 108.525 134.871 111.131 137.461C115.525 141.827 115.895 142.181 116.22 142.332C117.333 142.848 118.681 142.638 119.451 141.827C120.176 141.065 120.343 139.9 119.87 138.917C119.713 138.592 119.338 138.206 114.878 133.787L110.055 129.01L114.746 124.331C117.668 121.416 119.489 119.561 119.574 119.41C119.812 118.99 119.896 118.598 119.868 118.023C119.839 117.407 119.71 117.033 119.371 116.584C118.709 115.708 117.507 115.339 116.462 115.691C115.866 115.892 115.594 116.143 110.919 120.798L106.346 125.352L101.632 120.68C96.5705 115.664 96.6939 115.775 95.9465 115.581C95.5751 115.485 95.0885 115.482 94.7098 115.574Z" fill="white"/>
</g>
</g>
<defs>
<filter id="filter0_d_34_61092" x="75.166" y="104.48" width="61.4736" height="63.6426" filterUnits="userSpaceOnUse" color-interpolation-filters="sRGB">
<feFlood flood-opacity="0" result="BackgroundImageFix"/>
<feColorMatrix in="SourceAlpha" type="matrix" values="0 0 0 0 0 0 0 0 0 0 0 0 0 0 0 0 0 0 127 0" result="hardAlpha"/>
<feOffset dy="6.86133"/>
<feGaussianBlur stdDeviation="3.43067"/>
<feComposite in2="hardAlpha" operator="out"/>
<feColorMatrix type="matrix" values="0 0 0 0 0 0 0 0 0 0 0 0 0 0 0 0 0 0 0.2 0"/>
<feBlend mode="normal" in2="BackgroundImageFix" result="effect1_dropShadow_34_61092"/>
<feBlend mode="normal" in="SourceGraphic" in2="effect1_dropShadow_34_61092" result="shape"/>
</filter>
<linearGradient id="paint0_linear_34_61092" x1="104.421" y1="93.096" x2="104.421" y2="86.1929" gradientUnits="userSpaceOnUse">
<stop stop-color="white"/>
<stop offset="0.9913" stop-color="#EDEDED"/>
</linearGradient>
<clipPath id="clip0_34_61092">
<rect width="211" height="173.765" fill="white" transform="translate(0.5)"/>
</clipPath>
</defs>
</svg>
