<svg width="212" height="174" viewBox="0 0 212 174" fill="none" xmlns="http://www.w3.org/2000/svg">
<g clip-path="url(#clip0_1828_36692)">
<path opacity="0.9" d="M9.95042 35.5596C15.858 2.75908 65.6405 -6.17898 89.9516 9.26528C114.263 24.7095 123.867 36.2059 138.773 24.0188C153.68 11.8316 175.848 8.07654 183.58 32.0596C191.312 56.0427 179.194 90.0924 149.936 107.044C120.678 123.996 128.756 154.084 85.3983 159.194C61.759 161.978 54.6651 137.567 52.4371 116.399C50.2091 95.2324 3.12161 73.6278 9.95042 35.5596Z" fill="#74A4D1" fill-opacity="0.08"/>
<path d="M157.728 173.618C164.494 173.618 169.979 168.134 169.979 161.368C169.979 154.602 164.494 149.117 157.728 149.117C150.962 149.117 145.478 154.602 145.478 161.368C145.478 168.134 150.962 173.618 157.728 173.618Z" fill="#1E62A1" fill-opacity="0.3"/>
<path d="M204.689 104.709C208.354 104.709 211.325 101.738 211.325 98.073C211.325 94.4082 208.354 91.4373 204.689 91.4373C201.024 91.4373 198.053 94.4082 198.053 98.073C198.053 101.738 201.024 104.709 204.689 104.709Z" fill="#1E62A1" fill-opacity="0.3"/>
<path d="M30.8766 19.3807C34.4005 19.3807 37.2571 16.524 37.2571 13.0002C37.2571 9.47629 34.4005 6.61963 30.8766 6.61963C27.3527 6.61963 24.4961 9.47629 24.4961 13.0002C24.4961 16.524 27.3527 19.3807 30.8766 19.3807Z" fill="#1E62A1" fill-opacity="0.3"/>
<path d="M13.0177 136.356C16.5416 136.356 19.3983 133.499 19.3983 129.975C19.3983 126.452 16.5416 123.595 13.0177 123.595C9.49386 123.595 6.63721 126.452 6.63721 129.975C6.63721 133.499 9.49386 136.356 13.0177 136.356Z" fill="#1E62A1" fill-opacity="0.3"/>
<g clip-path="url(#clip1_1828_36692)">
<path d="M150.845 69.0022L129.512 45.0386C127.813 43.1315 125.387 42.0307 122.831 42.0115L52.5972 41.4995C47.5766 41.4611 43.4872 45.5313 43.5 50.5519L43.6184 100.284C43.6312 105.279 47.695 109.317 52.69 109.295L122.677 109C125.295 108.991 127.781 107.842 129.49 105.855L150.948 80.8929C153.898 77.4626 153.853 72.3781 150.845 68.999V69.0022ZM138.977 77.629C137.428 81.44 133.083 83.2735 129.272 81.7248C125.461 80.1761 123.627 75.8307 125.176 72.0197C126.725 68.2087 131.07 66.3752 134.881 67.9239C138.692 69.4726 140.526 73.818 138.977 77.629Z" fill="#DCE2EB"/>
<g opacity="0.4">
<path d="M150.845 69.0022L129.512 45.0386C127.813 43.1315 125.387 42.0307 122.831 42.0115L52.5972 41.4995C47.5766 41.4611 43.4872 45.5313 43.5 50.5519L43.6184 100.284C43.6312 105.279 47.695 109.317 52.69 109.295L122.677 109C125.295 108.991 127.781 107.842 129.49 105.855L150.948 80.8929C153.898 77.4626 153.853 72.3781 150.845 68.999V69.0022ZM138.977 77.629C137.428 81.44 133.083 83.2735 129.272 81.7248C125.461 80.1761 123.627 75.8307 125.176 72.0197C126.725 68.2087 131.07 66.3752 134.881 67.9239C138.692 69.4726 140.526 73.818 138.977 77.629Z" fill="#B4B4B4"/>
</g>
<path d="M154.541 69.0022L133.208 45.0385C131.509 43.1314 129.083 42.0307 126.526 42.0115L56.293 41.4995C51.2692 41.4643 47.183 45.5313 47.1958 50.5519L47.3142 100.284C47.327 105.279 51.3908 109.317 56.3858 109.295L126.373 109C128.99 108.991 131.477 107.842 133.185 105.855L154.644 80.8928C157.594 77.4626 157.549 72.378 154.541 68.999V69.0022ZM142.673 77.629C141.124 81.44 136.779 83.2735 132.968 81.7248C129.157 80.1761 127.323 75.8307 128.872 72.0196C130.421 68.2086 134.766 66.3751 138.577 67.9238C142.388 69.4726 144.222 73.818 142.673 77.629Z" fill="#DCE2EB"/>
<path d="M70.5576 67.3351C70.6152 61.3066 74.327 57.5084 79.5364 57.5596C84.7489 57.6076 88.3391 61.4218 88.2815 67.5015C88.2239 73.5812 84.5633 77.3283 79.3508 77.2803C74.1414 77.2323 70.4968 73.3668 70.5544 67.3383L70.5576 67.3351ZM83.1746 67.4535C83.2098 63.6233 81.7474 61.7706 79.498 61.7482C77.3029 61.729 75.7509 63.6041 75.7157 67.3831C75.6805 71.1621 77.1941 73.0661 79.3924 73.0885C81.6419 73.1109 83.1394 71.2837 83.1746 67.4535ZM100.835 58.1676L106.914 58.2252L82.1634 93.7563L76.0837 93.6987L100.835 58.1676ZM94.7164 84.4223C94.7708 78.3938 98.4859 74.5956 103.644 74.6468C108.853 74.6948 112.498 78.5602 112.44 84.5887C112.383 90.6172 108.671 94.4154 103.458 94.3642C98.3003 94.3162 94.6556 90.4508 94.7132 84.4223H94.7164ZM107.282 84.5407C107.317 80.7617 105.852 78.8578 103.606 78.8354C101.411 78.8162 99.8586 80.6401 99.8234 84.4703C99.7882 88.3005 101.302 90.1564 103.5 90.1756C105.75 90.198 107.247 88.3197 107.282 84.5407Z" fill="white"/>
<path d="M152.205 83.7983C152.224 83.7759 152.464 83.9487 152.903 84.3007C153.341 84.6526 153.981 85.1774 154.791 85.8718C155.6 86.563 156.586 87.4237 157.696 88.4573C158.806 89.4908 160.045 90.7036 161.325 92.1275C162.601 93.5546 163.939 95.1897 165.142 97.1097C165.292 97.3496 165.443 97.5928 165.596 97.836C165.737 98.0856 165.881 98.3384 166.025 98.5944C166.32 99.0968 166.592 99.6375 166.838 100.194C167.324 101.311 167.724 102.543 167.763 103.884C167.782 104.549 167.692 105.24 167.468 105.9C167.248 106.559 166.886 107.186 166.416 107.714C165.478 108.779 164.166 109.496 162.755 109.807C161.337 110.117 159.849 110.027 158.432 109.704C157.008 109.381 155.638 108.84 154.307 108.188C151.645 106.872 149.364 105.039 147.424 103.058C146.455 102.066 145.569 101.023 144.762 99.9639C143.959 98.9112 143.194 97.8648 142.471 96.8281C139.585 92.6747 137.351 88.6685 135.943 85.091C135.591 84.1983 135.284 83.3407 135.022 82.5151C134.894 82.1024 134.772 81.6992 134.673 81.2992C134.577 80.8992 134.471 80.5216 134.443 80.1153C134.337 79.3217 134.539 78.5217 134.967 77.9682C135.393 77.4082 135.963 77.0882 136.487 76.9122C136.75 76.8162 137.009 76.7778 137.249 76.7362C137.492 76.7234 137.723 76.6946 137.934 76.7202C138.359 76.7362 138.705 76.845 138.974 76.9474C139.236 77.069 139.428 77.181 139.53 77.2898C139.639 77.389 139.69 77.4434 139.681 77.453C139.671 77.4626 139.601 77.4306 139.482 77.357C139.367 77.277 139.172 77.1938 138.919 77.1042C138.657 77.0338 138.327 76.9538 137.927 76.9666C137.729 76.9538 137.518 76.9954 137.291 77.0178C137.07 77.069 136.833 77.117 136.596 77.2162C136.126 77.3986 135.633 77.709 135.291 78.2018C134.942 78.6881 134.795 79.3537 134.907 80.0577C134.939 80.4064 135.054 80.7872 135.156 81.168C135.262 81.552 135.393 81.9424 135.527 82.3456C135.806 83.1487 136.126 83.9935 136.491 84.867C137.943 88.3549 140.206 92.2939 143.098 96.3833C143.825 97.4072 144.589 98.4376 145.393 99.4775C146.189 100.511 147.056 101.522 148.007 102.485C149.904 104.405 152.119 106.175 154.679 107.439C155.955 108.066 157.277 108.584 158.614 108.891C159.949 109.199 161.312 109.275 162.582 109.003C163.84 108.731 165.011 108.095 165.82 107.18C166.646 106.274 167.024 105.077 166.998 103.893C166.976 102.706 166.624 101.548 166.169 100.482C165.939 99.9479 165.689 99.4295 165.404 98.9336C165.267 98.684 165.129 98.4344 164.995 98.188C164.848 97.948 164.704 97.708 164.56 97.4712C163.408 95.5801 162.118 93.9482 160.886 92.5147C159.648 91.0811 158.448 89.8524 157.376 88.7901C156.304 87.7277 155.354 86.8381 154.579 86.1086C153.808 85.379 153.21 84.8126 152.797 84.4223C152.394 84.0319 152.192 83.8175 152.211 83.7951L152.205 83.7983Z" fill="#263238"/>
</g>
<g filter="url(#filter0_d_1828_36692)">
<path d="M104.504 105.907H107.302C107.422 105.933 107.541 105.976 107.662 105.984C111.397 106.252 114.891 107.337 118.078 109.321C124.264 113.171 128.071 118.721 129.406 125.982C129.573 126.891 129.656 127.816 129.778 128.733V131.574C129.74 131.915 129.702 132.255 129.664 132.596C129.092 137.814 127.13 142.417 123.667 146.319C119.99 150.462 115.434 153.049 110.015 154.023C109.117 154.185 108.206 154.276 107.301 154.4H104.503C104.383 154.374 104.264 154.331 104.143 154.323C100.408 154.055 96.9141 152.97 93.7263 150.986C87.542 147.137 83.735 141.588 82.3995 134.326C82.2316 133.418 82.1495 132.493 82.0273 131.575V128.734C82.0656 128.393 82.1048 128.053 82.1421 127.712C82.7138 122.494 84.676 117.891 88.1389 113.989C91.8144 109.845 96.3703 107.258 101.79 106.284C102.688 106.122 103.598 106.031 104.504 105.907Z" fill="#B51E1E"/>
<path d="M104.504 104.48H107.302C107.422 104.507 107.541 104.549 107.662 104.557C111.397 104.821 114.891 105.89 118.078 107.845C124.264 111.637 128.071 117.106 129.406 124.26C129.573 125.155 129.656 126.067 129.778 126.97V129.77C129.74 130.106 129.702 130.441 129.664 130.777C129.092 135.918 127.13 140.452 123.667 144.297C119.99 148.379 115.434 150.927 110.015 151.888C109.117 152.047 108.206 152.137 107.301 152.259H104.503C104.383 152.233 104.264 152.191 104.143 152.183C100.408 151.919 96.9141 150.85 93.7263 148.895C87.542 145.103 83.735 139.636 82.3995 132.481C82.2316 131.586 82.1495 130.675 82.0273 129.771V126.971C82.0656 126.635 82.1048 126.3 82.1421 125.964C82.7138 120.823 84.676 116.288 88.1389 112.444C91.8144 108.361 96.3703 105.812 101.79 104.852C102.688 104.692 103.598 104.603 104.504 104.48Z" fill="#D14343"/>
<path fill-rule="evenodd" clip-rule="evenodd" d="M94.7099 115.574C93.7965 115.794 93.008 116.581 92.7975 117.48C92.6463 118.126 92.7597 118.878 93.0921 119.433C93.1642 119.553 95.3443 121.761 97.937 124.339L102.651 129.027L97.8695 133.796C92.7217 138.931 92.8649 138.773 92.6663 139.532C92.5062 140.143 92.5922 140.782 92.9157 141.386C93.4251 142.338 94.6158 142.799 95.8751 142.533C96.6256 142.375 96.4301 142.55 101.549 137.462C104.155 134.871 106.311 132.752 106.34 132.752C106.369 132.752 108.525 134.871 111.131 137.461C115.525 141.827 115.895 142.181 116.22 142.332C117.333 142.848 118.681 142.638 119.451 141.827C120.176 141.065 120.343 139.9 119.87 138.917C119.713 138.592 119.338 138.206 114.878 133.787L110.055 129.01L114.746 124.331C117.668 121.416 119.489 119.561 119.574 119.41C119.813 118.99 119.896 118.598 119.868 118.023C119.839 117.407 119.71 117.033 119.371 116.584C118.709 115.708 117.508 115.339 116.462 115.691C115.866 115.892 115.594 116.143 110.919 120.798L106.346 125.352L101.632 120.68C96.5707 115.664 96.694 115.775 95.9466 115.581C95.5753 115.485 95.0886 115.482 94.7099 115.574Z" fill="white"/>
</g>
</g>
<defs>
<filter id="filter0_d_1828_36692" x="75.166" y="104.48" width="61.4736" height="63.6426" filterUnits="userSpaceOnUse" color-interpolation-filters="sRGB">
<feFlood flood-opacity="0" result="BackgroundImageFix"/>
<feColorMatrix in="SourceAlpha" type="matrix" values="0 0 0 0 0 0 0 0 0 0 0 0 0 0 0 0 0 0 127 0" result="hardAlpha"/>
<feOffset dy="6.86133"/>
<feGaussianBlur stdDeviation="3.43067"/>
<feComposite in2="hardAlpha" operator="out"/>
<feColorMatrix type="matrix" values="0 0 0 0 0 0 0 0 0 0 0 0 0 0 0 0 0 0 0.2 0"/>
<feBlend mode="normal" in2="BackgroundImageFix" result="effect1_dropShadow_1828_36692"/>
<feBlend mode="normal" in="SourceGraphic" in2="effect1_dropShadow_1828_36692" result="shape"/>
</filter>
<clipPath id="clip0_1828_36692">
<rect width="211" height="173.765" fill="white" transform="translate(0.5)"/>
</clipPath>
<clipPath id="clip1_1828_36692">
<rect width="124" height="67.9999" fill="white" transform="translate(43.5 41.8823)"/>
</clipPath>
</defs>
</svg>
