<svg width="162" height="136" viewBox="0 0 162 136" fill="none" xmlns="http://www.w3.org/2000/svg">
<path d="M81 0C36.2649 0 0 36.5622 0 81.6639C0 102.05 7.40902 120.691 19.6604 135H142.34C154.591 120.691 162 102.05 162 81.6639C162 36.5622 125.735 0 81 0Z" fill="#F1F1F1"/>
<path opacity="0.8" d="M116.717 109.439C116.717 111.399 101.11 112.987 81.8586 112.987C62.6067 112.987 47 111.399 47 109.439C47 107.48 62.6067 105.892 81.8586 105.892C101.11 105.892 116.717 107.48 116.717 109.439Z" fill="#DADADA"/>
<path d="M82.1669 21.621H95.0684C95.0684 21.621 98.0933 20.538 97.7018 17.6681C97.3103 14.7982 92.7433 17.1898 92.7433 17.1898C92.7433 17.1898 94.1289 13.185 89.7042 14.3222C85.2819 15.457 84.8502 19.428 84.8502 19.428C84.8502 19.428 79.04 18.4646 82.1669 21.6233V21.621Z" fill="white"/>
<path d="M116.71 52.97H130.908C130.908 52.97 134.238 51.7998 133.807 48.699C133.376 45.5982 128.349 48.1822 128.349 48.1822C128.349 48.1822 129.872 43.8558 125.004 45.0851C120.135 46.3106 119.661 50.6001 119.661 50.6001C119.661 50.6001 113.265 49.5591 116.706 52.97H116.71Z" fill="white"/>
<path d="M30.4624 38.8595H55.0645C58.2164 38.8595 58.9759 34.7685 56.0003 33.8105C55.9623 33.7979 55.9243 33.7854 55.8864 33.7753C59.1793 31.2332 51.9533 25.87 44.1088 33.2951C44.7192 30.8209 37.7454 31.7135 35.6134 35.0904C34.8566 32.8726 28.203 36.7247 30.4679 38.862L30.4624 38.8595Z" fill="white"/>
<path d="M114.536 73.3565L114.618 73.448C116.406 75.5311 116.406 78.6042 114.6 80.6879L114.6 80.6879L100.663 96.773C99.6001 97.9987 98.0538 98.7077 96.4257 98.7136L96.4256 98.7136L50.968 98.9033H50.9679C47.8601 98.9171 45.3349 96.4249 45.3269 93.3463C45.3269 93.3463 45.3269 93.3463 45.3269 93.3463L45.25 61.2998L45.25 61.2998C45.2421 58.2055 47.7831 55.6935 50.9069 55.7172L50.9069 55.7172L96.5245 56.0471C96.5245 56.0471 96.5246 56.0471 96.5246 56.0471C98.1151 56.059 99.6235 56.7383 100.68 57.9147L114.536 73.3565ZM100.617 81.6196C103.218 82.6685 106.186 81.4275 107.245 78.8432C108.304 76.258 107.05 73.3121 104.447 72.2628C101.845 71.2139 98.877 72.4548 97.8185 75.0391C96.7595 77.6244 98.014 80.5703 100.617 81.6196Z" fill="#CDBB52" stroke="#5C5C5C" stroke-width="0.5"/>
<g opacity="0.4">
<path d="M114.536 73.3565L114.618 73.448C116.406 75.5311 116.406 78.6042 114.6 80.6879L114.6 80.6879L100.663 96.773C99.6001 97.9987 98.0538 98.7077 96.4257 98.7136L96.4256 98.7136L50.968 98.9033H50.9679C47.8601 98.9171 45.3349 96.4249 45.3269 93.3463C45.3269 93.3463 45.3269 93.3463 45.3269 93.3463L45.25 61.2998L45.25 61.2998C45.2421 58.2055 47.7831 55.6935 50.9069 55.7172L50.9069 55.7172L96.5245 56.0471C96.5245 56.0471 96.5246 56.0471 96.5246 56.0471C98.1151 56.059 99.6235 56.7383 100.68 57.9147L114.536 73.3565ZM100.617 81.6196C103.218 82.6685 106.186 81.4275 107.245 78.8432C108.304 76.258 107.05 73.3121 104.447 72.2628C101.845 71.2139 98.877 72.4548 97.8185 75.0391C96.7595 77.6244 98.014 80.5703 100.617 81.6196Z" fill="#CDBB52" stroke="#5C5C5C" stroke-width="0.5"/>
</g>
<path d="M117.198 73.448L117.116 73.3564L103.26 57.9147C102.204 56.7383 100.695 56.059 99.1047 56.0471L117.198 73.448ZM117.198 73.448C118.986 75.531 118.986 78.6042 117.18 80.6878L117.18 80.6879L103.243 96.773C102.18 97.9987 100.634 98.7077 99.0058 98.7136L99.0057 98.7136L53.5481 98.9033H53.548C50.4402 98.9171 47.915 96.4249 47.907 93.3463C47.907 93.3463 47.907 93.3462 47.907 93.3462L47.8301 61.2998L47.8301 61.2997C47.8221 58.2056 50.3611 55.6955 53.487 55.7172C53.4871 55.7172 53.4871 55.7172 53.4871 55.7172L99.1046 56.0471L117.198 73.448ZM103.197 81.6196C105.798 82.6684 108.767 81.4275 109.825 78.8432C110.884 76.2579 109.63 73.312 107.027 72.2627C104.425 71.2138 101.457 72.4548 100.399 75.0391C99.3396 77.6243 100.594 80.5702 103.197 81.6196Z" fill="#E6D050" stroke="#5C5C5C" stroke-width="0.5"/>
<path d="M63.8826 71.5599C63.9228 67.3861 66.5131 64.7564 70.1485 64.7919C73.7861 64.8251 76.2916 67.4659 76.2514 71.6751C76.2112 75.8844 73.6566 78.4786 70.019 78.4454C66.3836 78.4122 63.8402 75.736 63.8804 71.5621L63.8826 71.5599ZM72.6875 71.6419C72.712 68.9901 71.6915 67.7073 70.1217 67.6918C68.5898 67.6785 67.5068 68.9768 67.4823 71.5932C67.4577 74.2095 68.5139 75.5277 70.048 75.5432C71.6179 75.5587 72.6629 74.2937 72.6875 71.6419ZM85.0117 65.2128L89.2544 65.2527L71.9818 89.8525L67.7391 89.8127L85.0117 65.2128ZM80.7421 83.3902C80.78 79.2164 83.3726 76.5867 86.9723 76.6221C90.6077 76.6554 93.1511 79.3316 93.1109 83.5054C93.0707 87.6792 90.4804 90.3089 86.8428 90.2735C83.2431 90.2402 80.6997 87.564 80.7398 83.3902H80.7421ZM89.5113 83.4722C89.5358 80.8558 88.5131 79.5376 86.9455 79.5221C85.4136 79.5088 84.3306 80.7716 84.306 83.4234C84.2815 86.0753 85.3377 87.3602 86.8718 87.3735C88.4416 87.389 89.4867 86.0886 89.5113 83.4722Z" fill="white"/>
<path d="M115.861 82.9579C115.875 82.9424 116.042 83.062 116.348 83.3057C116.654 83.5494 117.101 83.9127 117.666 84.3935C118.23 84.872 118.918 85.4679 119.693 86.1835C120.468 86.8991 121.332 87.7387 122.225 88.7246C123.116 89.7126 124.05 90.8447 124.889 92.174C124.994 92.3401 125.099 92.5085 125.207 92.6769C125.305 92.8497 125.405 93.0247 125.506 93.2019C125.711 93.5497 125.901 93.9241 126.073 94.3096C126.412 95.0828 126.691 95.9357 126.718 96.864C126.732 97.3248 126.669 97.8033 126.513 98.2597C126.359 98.7161 126.106 99.1503 125.778 99.5158C125.124 100.254 124.208 100.75 123.224 100.965C122.234 101.18 121.196 101.118 120.207 100.894C119.213 100.67 118.257 100.296 117.328 99.8437C115.47 98.9332 113.878 97.6637 112.525 96.2924C111.848 95.6056 111.23 94.8834 110.667 94.1501C110.107 93.4212 109.573 92.6968 109.068 91.979C107.054 89.1034 105.495 86.3297 104.513 83.8529C104.267 83.2348 104.053 82.6411 103.87 82.0695C103.78 81.7837 103.696 81.5046 103.626 81.2276C103.559 80.9507 103.486 80.6893 103.466 80.4079C103.392 79.8585 103.533 79.3047 103.832 78.9214C104.129 78.5337 104.526 78.3122 104.893 78.1903C105.076 78.1239 105.256 78.0973 105.424 78.0685C105.594 78.0596 105.754 78.0397 105.902 78.0574C106.199 78.0685 106.44 78.1438 106.628 78.2147C106.811 78.2989 106.945 78.3764 107.016 78.4517C107.092 78.5204 107.128 78.5581 107.121 78.5647C107.114 78.5714 107.065 78.5492 106.983 78.4983C106.902 78.4429 106.766 78.3853 106.59 78.3232C106.407 78.2745 106.177 78.2191 105.897 78.228C105.759 78.2191 105.612 78.2479 105.453 78.2634C105.299 78.2989 105.134 78.3321 104.968 78.4008C104.64 78.5271 104.296 78.742 104.057 79.0831C103.814 79.4199 103.711 79.8807 103.789 80.3681C103.812 80.6095 103.892 80.8732 103.964 81.1368C104.037 81.4027 104.129 81.6729 104.223 81.9521C104.417 82.5081 104.64 83.093 104.895 83.6978C105.909 86.1126 107.487 88.8398 109.506 91.6711C110.013 92.38 110.547 93.0934 111.107 93.8134C111.663 94.5289 112.268 95.229 112.931 95.8958C114.256 97.2251 115.801 98.4502 117.587 99.3253C118.478 99.7595 119.401 100.118 120.334 100.331C121.265 100.544 122.216 100.597 123.103 100.409C123.981 100.22 124.798 99.7795 125.363 99.1458C125.939 98.5189 126.202 97.6903 126.185 96.8706C126.169 96.0487 125.923 95.2467 125.606 94.509C125.445 94.139 125.271 93.7801 125.073 93.4367C124.977 93.2639 124.88 93.0911 124.787 92.9206C124.684 92.7544 124.583 92.5882 124.483 92.4243C123.679 91.115 122.779 89.9851 121.919 88.9926C121.055 88.0001 120.218 87.1494 119.47 86.4139C118.722 85.6784 118.059 85.0625 117.518 84.5574C116.98 84.0523 116.562 83.6602 116.274 83.3899C115.993 83.1196 115.852 82.9712 115.866 82.9557L115.861 82.9579Z" fill="#263238"/>
<g filter="url(#filter0_d_3134_53159)">
<path d="M109.489 85.5483H111.417C111.5 85.5668 111.581 85.5964 111.665 85.6023C114.239 85.7886 116.646 86.5423 118.843 87.9213C123.105 90.5965 125.729 94.4538 126.649 99.4999C126.764 100.131 126.821 100.774 126.905 101.411V103.386C126.879 103.623 126.853 103.86 126.826 104.096C126.432 107.723 125.08 110.921 122.694 113.633C120.16 116.512 117.021 118.31 113.286 118.987C112.667 119.1 112.04 119.163 111.416 119.249H109.488C109.405 119.231 109.324 119.201 109.24 119.195C106.666 119.009 104.259 118.255 102.062 116.876C97.8002 114.202 95.1768 110.345 94.2564 105.298C94.1407 104.667 94.0842 104.025 94 103.387V101.412C94.0264 101.175 94.0533 100.939 94.0791 100.702C94.473 97.0756 95.8252 93.8772 98.2115 91.1652C100.744 88.2853 103.884 86.4877 107.618 85.8103C108.237 85.6978 108.865 85.6346 109.489 85.5483Z" fill="#B51E1E"/>
<path d="M109.489 84.5566H111.417C111.5 84.5748 111.581 84.604 111.665 84.6098C114.239 84.7934 116.646 85.5359 118.843 86.8946C123.105 89.5303 125.729 93.3308 126.649 98.3025C126.764 98.9245 126.821 99.5581 126.905 100.186V102.132C126.879 102.365 126.853 102.598 126.826 102.831C126.432 106.404 125.08 109.555 122.694 112.227C120.16 115.064 117.021 116.835 113.286 117.503C112.667 117.614 112.04 117.676 111.416 117.761H109.488C109.405 117.743 109.324 117.713 109.24 117.708C106.666 117.524 104.259 116.781 102.062 115.423C97.8002 112.788 95.1768 108.988 94.2564 104.016C94.1407 103.394 94.0842 102.761 94 102.132V100.187C94.0264 99.9531 94.0533 99.7203 94.0791 99.4868C94.473 95.9139 95.8252 92.7627 98.2115 90.0907C100.744 87.2533 103.884 85.4821 107.618 84.8148C108.237 84.7039 108.865 84.6416 109.489 84.5566Z" fill="#D14343"/>
<path fill-rule="evenodd" clip-rule="evenodd" d="M102.739 92.2668C102.11 92.4203 101.566 92.9667 101.421 93.5918C101.317 94.0409 101.395 94.5632 101.624 94.9489C101.674 95.0325 103.176 96.5668 104.963 98.3585L108.211 101.616L104.916 104.931C101.369 108.499 101.468 108.389 101.331 108.917C101.221 109.342 101.28 109.786 101.503 110.206C101.854 110.867 102.674 111.187 103.542 111.003C104.059 110.893 103.925 111.014 107.452 107.478C109.248 105.678 110.733 104.205 110.753 104.205C110.773 104.205 112.259 105.678 114.055 107.477C117.083 110.512 117.338 110.758 117.562 110.863C118.329 111.222 119.258 111.075 119.789 110.512C120.288 109.982 120.403 109.173 120.077 108.489C119.969 108.263 119.71 107.995 116.637 104.925L113.314 101.604L116.546 98.3526C118.56 96.3271 119.815 95.0377 119.873 94.9333C120.038 94.6412 120.095 94.3688 120.076 93.9694C120.056 93.541 119.967 93.2808 119.733 92.9689C119.277 92.36 118.449 92.1038 117.729 92.3487C117.318 92.4882 117.13 92.6626 113.909 95.8975L110.758 99.0626L107.509 95.8157C104.021 92.3298 104.106 92.4068 103.591 92.2721C103.335 92.2052 103 92.2031 102.739 92.2668Z" fill="white"/>
</g>
<path d="M19.8 135.457C19.8496 135.515 19.9384 135.53 20.0037 135.489C25.5708 132.09 28.8636 126.161 28.5973 120.017C28.5947 119.94 28.5242 119.88 28.438 119.882C28.3544 119.885 28.2892 119.95 28.2918 120.029C28.5529 126.076 25.3123 131.912 19.8339 135.255C19.7634 135.299 19.7451 135.385 19.7921 135.45C19.7921 135.453 19.7974 135.455 19.8 135.46V135.457Z" fill="#5A8FD3"/>
<path d="M22.31 130.01L22.31 130.01L22.3129 130.012C23.0233 130.469 23.0892 131.284 22.9497 132.019C22.8806 132.384 22.7623 132.718 22.6566 132.961C22.6037 133.082 22.5546 133.179 22.5172 133.244C22.5012 133.272 22.4882 133.293 22.4786 133.307L22.4578 133.326C22.3122 133.463 22.1644 133.598 22.0135 133.73C22.016 133.704 22.0178 133.677 22.0189 133.649C22.0254 133.481 22.0074 133.284 21.9624 133.064C21.8726 132.624 21.6739 132.088 21.3396 131.51C21.1928 131.233 21.1017 130.938 21.0684 130.667C21.0349 130.394 21.061 130.154 21.1396 129.983C21.216 129.817 21.3398 129.718 21.5164 129.704C21.7017 129.69 21.9636 129.769 22.31 130.01Z" fill="#5A8FD3" stroke="#5C5C5C" stroke-width="0.2"/>
<path d="M25.4065 132.753C25.837 132.743 26.243 132.82 26.5756 133.033L22.1941 133.901C22.3404 133.788 22.4851 133.673 22.628 133.557C22.6382 133.554 22.6481 133.551 22.6565 133.548C22.6811 133.539 22.7141 133.526 22.7522 133.509C22.7854 133.495 22.8248 133.477 22.869 133.458C22.8763 133.455 22.8837 133.451 22.8913 133.448C22.9449 133.424 23.0056 133.397 23.0725 133.369C23.3402 133.253 23.7074 133.104 24.1168 132.981C24.5268 132.858 24.9755 132.762 25.4065 132.753Z" fill="#5A8FD3" stroke="#5C5C5C" stroke-width="0.2"/>
<path d="M23.8203 127.875L23.8215 127.873L23.8207 127.877C24.6056 128.219 24.8222 129.009 24.8235 129.749C24.8241 130.116 24.7711 130.461 24.7135 130.714C24.6847 130.841 24.655 130.943 24.6309 131.013C24.6201 131.044 24.611 131.066 24.6042 131.081L24.5904 131.099C24.4738 131.253 24.3551 131.407 24.2341 131.559C24.2314 131.531 24.2278 131.504 24.2233 131.475C24.1975 131.311 24.1419 131.12 24.0559 130.912C23.8841 130.496 23.588 130.002 23.1521 129.487C22.9554 129.237 22.8101 128.962 22.7265 128.701C22.6422 128.439 22.6231 128.2 22.668 128.022C22.7115 127.849 22.8129 127.735 22.9825 127.696C23.1618 127.654 23.4343 127.692 23.8203 127.875Z" fill="#5A8FD3" stroke="#5C5C5C" stroke-width="0.2"/>
<path d="M24.5227 131.689C24.4943 131.692 24.4666 131.695 24.4398 131.698C24.5608 131.567 24.6801 131.434 24.7976 131.299C24.8068 131.295 24.8155 131.291 24.8227 131.287C24.8454 131.275 24.8752 131.256 24.9094 131.235C24.9399 131.215 24.976 131.192 25.0166 131.166C25.0224 131.162 25.0282 131.158 25.0342 131.154C25.0823 131.123 25.1366 131.088 25.1968 131.05C25.4374 130.897 25.7695 130.696 26.148 130.514C26.9125 130.148 27.8338 129.877 28.5745 130.196C28.9631 130.382 29.1157 130.599 29.1401 130.797C29.165 130.999 29.0616 131.222 28.8512 131.427C28.4294 131.838 27.6403 132.117 26.9688 131.949L26.9689 131.949L26.9656 131.948C26.261 131.797 25.6459 131.71 25.1581 131.684C24.9143 131.671 24.7006 131.672 24.5227 131.689Z" fill="#5A8FD3" stroke="#5C5C5C" stroke-width="0.2"/>
<path d="M24.9103 125.55L24.9103 125.55L24.9133 125.551C25.752 125.769 26.1105 126.516 26.2471 127.242C26.3149 127.602 26.326 127.95 26.3155 128.207C26.3103 128.336 26.2998 128.44 26.2887 128.511C26.2841 128.541 26.2796 128.563 26.2758 128.578L26.2643 128.602C26.18 128.771 26.0912 128.939 25.9994 129.106C25.9912 129.078 25.9818 129.049 25.9713 129.019C25.9154 128.862 25.8255 128.684 25.7025 128.493C25.4565 128.112 25.0738 127.672 24.5497 127.233C24.3091 127.018 24.1149 126.769 23.9846 126.525C23.8531 126.28 23.7908 126.048 23.8026 125.867C23.8139 125.691 23.8923 125.565 24.0509 125.501C24.2198 125.433 24.4955 125.428 24.9103 125.55Z" fill="#5A8FD3" stroke="#5C5C5C" stroke-width="0.2"/>
<path d="M26.3858 128.77C26.2852 128.935 26.1813 129.1 26.0749 129.263C26.1218 129.244 26.1731 129.227 26.2282 129.21M26.3858 128.77L28.7591 129.172C27.5233 129.1 26.5892 129.175 26.1412 129.345C26.1704 129.3 26.1994 129.255 26.2282 129.21M26.3858 128.77C26.4135 128.787 26.4425 128.786 26.4556 128.784C26.4731 128.781 26.4866 128.775 26.4925 128.772C26.4973 128.769 26.5019 128.767 26.5063 128.764M26.3858 128.77L26.5063 128.764M26.2282 129.21C26.3232 129.062 26.4161 128.914 26.5063 128.764M26.2282 129.21C26.2555 129.202 26.2837 129.195 26.3127 129.187C26.4845 129.144 26.6943 129.11 26.9367 129.086C27.4215 129.038 28.0432 129.03 28.7649 129.072L28.7681 129.073L28.7681 129.073C29.4596 129.135 30.1845 128.741 30.5236 128.274C30.6925 128.041 30.7537 127.807 30.6921 127.611C30.6314 127.419 30.44 127.228 30.0225 127.104M26.5063 128.764L30.0243 127.104C30.0237 127.104 30.0231 127.104 30.0225 127.104M26.5063 128.764C26.5144 128.759 26.5218 128.753 26.5278 128.749C26.548 128.733 26.5741 128.711 26.6037 128.684C26.63 128.661 26.6611 128.632 26.696 128.6C26.7011 128.596 26.7063 128.591 26.7116 128.586C26.7531 128.548 26.8002 128.506 26.8523 128.459C27.061 128.272 27.351 128.024 27.6904 127.788C28.3754 127.311 29.2333 126.904 30.0225 127.104M26.5063 128.764L30.0225 127.104" fill="#5A8FD3" stroke="#5C5C5C" stroke-width="0.2"/>
<path d="M25.6821 123.103V123.101C26.4822 123.232 26.9409 123.887 27.1954 124.553C27.3275 124.899 27.4013 125.24 27.4377 125.496C27.4559 125.624 27.4646 125.729 27.4668 125.801C27.4678 125.833 27.4674 125.857 27.4664 125.873L27.4604 125.893C27.4066 126.073 27.3507 126.251 27.2919 126.428C27.2786 126.401 27.264 126.374 27.2483 126.347C27.1646 126.201 27.0437 126.039 26.8877 125.87C26.5758 125.533 26.1185 125.158 25.522 124.807C25.2457 124.631 25.0089 124.415 24.836 124.195C24.6616 123.972 24.5578 123.753 24.5363 123.571C24.5156 123.396 24.5701 123.261 24.7131 123.174C24.8665 123.08 25.1373 123.033 25.5692 123.089L25.6821 123.103Z" fill="#5A8FD3" stroke="#5C5C5C" stroke-width="0.2"/>
<path d="M27.5279 126.495C27.477 126.52 27.43 126.545 27.3875 126.571C27.4629 126.394 27.5355 126.216 27.6039 126.036L30.8556 123.824M27.5279 126.495C27.5077 126.544 27.4872 126.592 27.4666 126.64C27.8778 126.404 28.7851 126.187 30.0181 126.067C31.483 125.973 32.7103 123.967 30.9007 123.729L30.8981 123.727L30.8976 123.733L30.8913 123.801L30.8889 123.826C30.8886 123.826 30.8883 123.826 30.8879 123.826C30.8771 123.825 30.8664 123.824 30.8556 123.824M27.5279 126.495C27.5951 126.335 27.6598 126.172 27.721 126.009C27.7277 126.003 27.7336 125.997 27.7384 125.992C27.7556 125.973 27.7773 125.947 27.8017 125.917C27.8237 125.889 27.8497 125.855 27.879 125.818C27.8827 125.813 27.8865 125.808 27.8903 125.803C27.9244 125.76 27.9631 125.71 28.006 125.656C28.178 125.44 28.419 125.15 28.7109 124.864C29.2924 124.295 30.0523 123.766 30.8556 123.824M27.5279 126.495C27.5548 126.483 27.5827 126.47 27.6117 126.458C27.7735 126.388 27.9743 126.323 28.2089 126.262C28.6782 126.141 29.2894 126.038 30.0084 125.968L30.0117 125.967L30.0117 125.967C30.7053 125.923 31.348 125.422 31.5974 124.909C31.7215 124.653 31.74 124.413 31.6436 124.228C31.548 124.045 31.3228 123.886 30.8877 123.828L30.8562 123.824L30.8556 123.824" fill="#5A8FD3" stroke="#5C5C5C" stroke-width="0.2"/>
<path d="M28.1359 122.935C28.1425 122.966 28.1464 122.989 28.1483 123.005L28.1459 123.027C28.1259 123.211 28.1026 123.396 28.0768 123.58C28.0588 123.555 28.0394 123.53 28.0189 123.506C27.9102 123.374 27.7622 123.234 27.5781 123.091C27.21 122.805 26.6921 122.505 26.0403 122.25C25.736 122.119 25.4631 121.941 25.2522 121.749C25.0396 121.555 24.8968 121.352 24.8422 121.173C24.7893 121.001 24.8192 120.858 24.9425 120.75C25.0754 120.634 25.3321 120.544 25.7673 120.533L25.8646 120.53V120.527C26.6871 120.526 27.2654 121.11 27.6408 121.737C27.8343 122.061 27.9693 122.389 28.0518 122.637C28.093 122.761 28.1207 122.864 28.1359 122.935Z" fill="#5A8FD3" stroke="#5C5C5C" stroke-width="0.2"/>
<path d="M28.4014 123.563C28.3739 123.581 28.3475 123.598 28.3224 123.616C28.3598 123.445 28.3944 123.273 28.4262 123.1C28.4317 123.093 28.4364 123.086 28.4401 123.08C28.4539 123.059 28.4705 123.029 28.4889 122.995C28.5058 122.964 28.5255 122.926 28.5478 122.884C28.5504 122.879 28.553 122.874 28.5557 122.869C28.5814 122.82 28.6104 122.765 28.6429 122.705C28.773 122.463 28.9578 122.137 29.1935 121.808C29.6691 121.143 30.332 120.49 31.1483 120.434C31.586 120.424 31.838 120.547 31.9669 120.716C32.097 120.887 32.1221 121.13 32.0468 121.404C31.8951 121.953 31.3541 122.551 30.6805 122.702L30.6805 122.702L30.6771 122.703C29.9804 122.886 29.3961 123.083 28.9551 123.277C28.7347 123.373 28.5485 123.47 28.4014 123.563Z" fill="#5A8FD3" stroke="#5C5C5C" stroke-width="0.2"/>
<path d="M28.5158 120.953C28.5012 120.995 28.4874 121.034 28.4745 121.069C28.4634 121.038 28.4513 121.003 28.4384 120.967C28.3601 120.749 28.2488 120.453 28.1259 120.135C27.8813 119.503 27.5889 118.781 27.4186 118.417C27.2822 118.05 27.1867 117.644 27.1864 117.29C27.1861 116.932 27.2822 116.653 27.5 116.505L27.5 116.505L27.5011 116.505C27.7215 116.351 28.0901 116.319 28.4211 116.488C28.7456 116.653 29.0388 117.015 29.0937 117.658L29.0937 117.658L29.0941 117.661C29.1726 118.323 29.0024 119.243 28.8029 120.003C28.7037 120.381 28.5984 120.716 28.5158 120.953Z" fill="#5A8FD3" stroke="#5C5C5C" stroke-width="0.2"/>
<mask id="path-26-inside-1_3134_53159" fill="white">
<path d="M19.9438 135.463C21.7259 134.495 22.2383 131.555 21.4939 129.786C20.7495 128.018 19.449 126.402 19.2476 124.518C19.0943 123.069 19.611 121.581 19.2476 120.165C18.7484 118.253 16.7035 116.773 16.7298 114.804C16.7429 113.7 17.4304 112.664 17.3735 111.564C17.3078 110.212 16.1693 109.139 15.4687 107.951C14.3915 106.127 14.3215 103.975 13.9537 101.93C13.5858 99.8861 12.732 97.6978 10.7528 96.6936C10.4594 98.4299 9.96025 99.618 10.1179 101.966C10.1748 102.81 11.2476 104.427 11.3921 106.275C11.4797 107.379 11.541 108.487 11.6154 109.595C11.6855 110.672 11.7643 111.768 12.1846 112.776C12.5087 113.548 13.0297 114.248 13.2706 115.044C13.7216 116.545 13.1305 118.169 13.4939 119.685C13.8048 120.973 14.7769 122.077 14.9783 123.386C15.2585 125.218 13.958 127.122 14.6236 128.874C14.952 129.742 15.7358 130.439 15.9547 131.335C16.1255 132.031 15.9372 132.767 16.0949 133.463C16.3445 134.587 18.6958 135.463 19.9482 135.391"/>
</mask>
<path d="M19.9438 135.463C21.7259 134.495 22.2383 131.555 21.4939 129.786C20.7495 128.018 19.449 126.402 19.2476 124.518C19.0943 123.069 19.611 121.581 19.2476 120.165C18.7484 118.253 16.7035 116.773 16.7298 114.804C16.7429 113.7 17.4304 112.664 17.3735 111.564C17.3078 110.212 16.1693 109.139 15.4687 107.951C14.3915 106.127 14.3215 103.975 13.9537 101.93C13.5858 99.8861 12.732 97.6978 10.7528 96.6936C10.4594 98.4299 9.96025 99.618 10.1179 101.966C10.1748 102.81 11.2476 104.427 11.3921 106.275C11.4797 107.379 11.541 108.487 11.6154 109.595C11.6855 110.672 11.7643 111.768 12.1846 112.776C12.5087 113.548 13.0297 114.248 13.2706 115.044C13.7216 116.545 13.1305 118.169 13.4939 119.685C13.8048 120.973 14.7769 122.077 14.9783 123.386C15.2585 125.218 13.958 127.122 14.6236 128.874C14.952 129.742 15.7358 130.439 15.9547 131.335C16.1255 132.031 15.9372 132.767 16.0949 133.463C16.3445 134.587 18.6958 135.463 19.9482 135.391" fill="#DEC73F"/>
<path d="M19.2476 124.518L18.9493 124.55L18.9492 124.549L19.2476 124.518ZM19.2476 120.165L19.5378 120.089L19.5382 120.09L19.2476 120.165ZM16.7298 114.804L17.0298 114.808L17.0298 114.808L16.7298 114.804ZM17.3735 111.564L17.0739 111.579L17.0738 111.578L17.3735 111.564ZM15.4687 107.951L15.727 107.799L15.7271 107.799L15.4687 107.951ZM10.7528 96.6936L10.457 96.6436L10.5249 96.2416L10.8885 96.4261L10.7528 96.6936ZM10.1179 101.966L9.81856 101.987L9.81855 101.986L10.1179 101.966ZM11.3921 106.275L11.093 106.299L11.093 106.298L11.3921 106.275ZM11.6154 109.595L11.9147 109.575L11.9148 109.576L11.6154 109.595ZM12.1846 112.776L11.908 112.892L11.9078 112.891L12.1846 112.776ZM13.2706 115.044L13.5577 114.957L13.5579 114.958L13.2706 115.044ZM13.4939 119.685L13.2023 119.755L13.2022 119.755L13.4939 119.685ZM14.9783 123.386L15.2748 123.34L15.2748 123.34L14.9783 123.386ZM14.6236 128.874L14.9041 128.768L14.9042 128.768L14.6236 128.874ZM15.9547 131.335L15.6634 131.406L15.6633 131.406L15.9547 131.335ZM16.0949 133.463L16.3875 133.397L16.3877 133.398L16.0949 133.463ZM19.8006 135.2C20.5904 134.771 21.1282 133.884 21.3745 132.855C21.6204 131.828 21.5603 130.718 21.2174 129.903L21.7704 129.67C22.1718 130.624 22.2278 131.868 21.958 132.995C21.6888 134.12 21.0794 135.188 20.087 135.727L19.8006 135.2ZM21.2174 129.903C20.8507 129.032 20.357 128.219 19.9004 127.333C19.4527 126.464 19.056 125.548 18.9493 124.55L19.5459 124.486C19.6405 125.371 19.9948 126.206 20.4338 127.058C20.8639 127.893 21.3926 128.773 21.7704 129.67L21.2174 129.903ZM18.9492 124.549C18.8687 123.788 18.9644 123.017 19.0276 122.303C19.092 121.574 19.1248 120.893 18.957 120.24L19.5382 120.09C19.7338 120.853 19.6899 121.624 19.6252 122.356C19.5592 123.102 19.4732 123.799 19.5459 124.486L18.9492 124.549ZM18.9573 120.241C18.7239 119.347 18.1289 118.552 17.5421 117.672C16.9735 116.82 16.4153 115.887 16.4298 114.8L17.0298 114.808C17.018 115.69 17.4691 116.481 18.0412 117.339C18.595 118.17 19.2721 119.071 19.5378 120.089L18.9573 120.241ZM16.4298 114.801C16.437 114.196 16.6289 113.616 16.7915 113.093C16.9596 112.553 17.0992 112.068 17.0739 111.579L17.6731 111.548C17.7047 112.159 17.529 112.743 17.3643 113.272C17.1941 113.819 17.0357 114.308 17.0298 114.808L16.4298 114.801ZM17.0738 111.578C17.0449 110.983 16.779 110.431 16.4076 109.859C16.2221 109.574 16.0175 109.294 15.8086 109.001C15.6019 108.712 15.3927 108.413 15.2103 108.104L15.7271 107.799C15.895 108.084 16.0908 108.364 16.2968 108.652C16.5004 108.937 16.7159 109.233 16.9108 109.533C17.3002 110.132 17.6364 110.793 17.6731 111.549L17.0738 111.578ZM15.2104 108.104C14.6471 107.15 14.3519 106.118 14.1507 105.08C14.0501 104.562 13.9723 104.038 13.8972 103.52C13.8218 103 13.7492 102.488 13.6584 101.983L14.2489 101.877C14.342 102.394 14.4161 102.918 14.491 103.434C14.5661 103.952 14.6421 104.463 14.7397 104.966C14.9348 105.972 15.2132 106.928 15.727 107.799L15.2104 108.104ZM13.6584 101.983C13.2947 99.9618 12.4647 97.8986 10.6171 96.9611L10.8885 96.4261C12.9993 97.497 13.877 99.8103 14.2489 101.877L13.6584 101.983ZM11.0486 96.7436C10.7465 98.5314 10.2627 99.6449 10.4172 101.946L9.81855 101.986C9.65777 99.5912 10.1723 98.3283 10.457 96.6436L11.0486 96.7436ZM10.4172 101.946C10.4283 102.11 10.4919 102.335 10.602 102.632C10.7116 102.927 10.8501 103.253 11.0011 103.634C11.2965 104.379 11.6152 105.28 11.6912 106.252L11.093 106.298C11.0244 105.421 10.7346 104.59 10.4432 103.855C10.3008 103.495 10.1514 103.142 10.0394 102.84C9.92773 102.539 9.83594 102.244 9.81856 101.987L10.4172 101.946ZM11.6912 106.251C11.7789 107.358 11.8406 108.472 11.9147 109.575L11.3161 109.616C11.2413 108.502 11.1804 107.401 11.093 106.299L11.6912 106.251ZM11.9148 109.576C11.9853 110.659 12.0634 111.706 12.4615 112.66L11.9078 112.891C11.4652 111.83 11.3857 110.684 11.316 109.615L11.9148 109.576ZM12.4613 112.66C12.6159 113.028 12.8166 113.378 13.0226 113.758C13.2244 114.131 13.4278 114.528 13.5577 114.957L12.9834 115.131C12.8725 114.764 12.695 114.413 12.495 114.044C12.2993 113.682 12.0775 113.296 11.908 112.892L12.4613 112.66ZM13.5579 114.958C13.8008 115.766 13.7602 116.599 13.7146 117.376C13.6679 118.172 13.6163 118.909 13.7856 119.615L13.2022 119.755C13.008 118.945 13.0703 118.112 13.1156 117.341C13.1619 116.552 13.1913 115.823 12.9833 115.131L13.5579 114.958ZM13.7855 119.615C13.9308 120.216 14.2313 120.779 14.5443 121.391C14.8498 121.989 15.1658 122.632 15.2748 123.34L14.6818 123.431C14.5894 122.831 14.3186 122.268 14.01 121.664C13.7089 121.075 13.3679 120.442 13.2023 119.755L13.7855 119.615ZM15.2748 123.34C15.4256 124.326 15.1502 125.328 14.9492 126.225C14.7415 127.153 14.6067 127.985 14.9041 128.768L14.3432 128.981C13.975 128.011 14.1576 127.015 14.3637 126.094C14.5765 125.144 14.8112 124.277 14.6817 123.431L15.2748 123.34ZM14.9042 128.768C15.0532 129.162 15.3064 129.519 15.5795 129.927C15.8427 130.32 16.1226 130.758 16.2462 131.263L15.6633 131.406C15.5679 131.015 15.3465 130.657 15.081 130.261C14.8253 129.879 14.5224 129.455 14.343 128.98L14.9042 128.768ZM16.2461 131.263C16.3422 131.655 16.3356 132.051 16.3297 132.404C16.3235 132.77 16.3181 133.09 16.3875 133.397L15.8023 133.529C15.714 133.14 15.7239 132.744 15.7298 132.394C15.7359 132.03 15.7381 131.711 15.6634 131.406L16.2461 131.263ZM16.3877 133.398C16.4307 133.592 16.5729 133.805 16.8229 134.022C17.0698 134.237 17.3991 134.435 17.7691 134.602C18.5152 134.94 19.367 135.124 19.9309 135.092L19.9654 135.691C19.277 135.73 18.3269 135.513 17.5219 135.149C17.1163 134.966 16.7327 134.739 16.4293 134.475C16.1292 134.214 15.8838 133.896 15.802 133.528L16.3877 133.398Z" fill="#5C5C5C" mask="url(#path-26-inside-1_3134_53159)"/>
<path d="M146.87 134.712L144.195 134.799L155.72 111.768C155.769 113.61 155.297 115.465 154.358 117.098C154.284 117.226 154.205 117.358 154.125 117.49C153.991 117.712 153.855 117.939 153.734 118.165C153.539 118.531 153.373 118.916 153.302 119.332L153.302 119.333C153.195 119.962 153.319 120.598 153.437 121.201C153.445 121.242 153.453 121.282 153.461 121.323C153.586 121.973 153.687 122.585 153.523 123.175L153.523 123.175C153.353 123.798 152.91 124.33 152.444 124.888C152.401 124.94 152.357 124.992 152.314 125.044C151.816 125.646 151.318 126.292 151.271 127.088L151.271 127.089C151.234 127.75 151.525 128.364 151.796 128.935L151.809 128.963C152.09 129.557 152.345 130.107 152.304 130.686L152.304 130.686C152.27 131.178 152.017 131.645 151.721 132.1C150.683 133.674 149.175 134.749 146.877 134.712L146.877 134.712L146.87 134.712ZM153.45 119.358C153.348 119.959 153.467 120.57 153.585 121.179C153.719 121.865 153.852 122.549 153.668 123.215C153.488 123.871 153.023 124.428 152.562 124.981C152.013 125.639 151.468 126.291 151.42 127.097C151.386 127.72 151.663 128.304 151.939 128.887C152.219 129.478 152.498 130.068 152.454 130.696C152.417 131.23 152.143 131.725 151.847 132.182C150.786 133.791 149.233 134.9 146.874 134.862L153.45 119.358Z" fill="#5A8FD3" stroke="#5C5C5C" stroke-width="0.3"/>
<path d="M143.393 135.022C143.393 135.022 143.12 135.081 142.596 135.005C142.337 134.971 142.017 134.908 141.655 134.789C141.299 134.671 140.886 134.497 140.497 134.209C140.307 134.061 140.122 133.875 140.02 133.629C139.922 133.384 139.904 133.117 139.885 132.842C139.871 132.567 139.871 132.279 139.816 131.986C139.765 131.694 139.644 131.411 139.463 131.14C139.121 130.594 138.555 130.077 138.374 129.332C138.175 128.604 138.319 127.812 138.453 127.02C138.588 126.228 138.717 125.365 138.384 124.539C138.073 123.713 137.438 122.968 137.123 122.037C136.808 121.097 136.956 120.085 136.887 119.09C136.854 118.59 136.753 118.087 136.512 117.625C136.28 117.159 135.955 116.719 135.701 116.224C135.186 115.229 135.098 114.102 134.959 112.997C134.89 112.443 134.82 111.88 134.751 111.312C134.681 110.741 134.625 110.173 134.431 109.623C134.255 109.068 133.995 108.535 133.74 107.989C133.615 107.713 133.485 107.438 133.407 107.138C133.351 106.829 133.333 106.536 133.314 106.232C133.282 105.626 133.309 105.012 133.393 104.407C133.472 103.797 133.592 103.196 133.662 102.582L133.675 102.476L133.689 102.353L133.81 102.408C134.426 102.692 134.959 103.111 135.367 103.607C135.779 104.098 136.081 104.652 136.322 105.215C136.803 106.35 136.98 107.536 137.221 108.67C137.457 109.805 137.772 110.918 138.407 111.863C138.722 112.333 139.107 112.76 139.44 113.222C139.774 113.679 140.071 114.179 140.159 114.725C140.33 115.843 139.658 116.821 139.797 117.811C139.848 118.302 140.061 118.76 140.325 119.179C140.59 119.602 140.895 119.992 141.187 120.386C141.479 120.779 141.757 121.177 141.961 121.605C142.17 122.028 142.286 122.486 142.318 122.926C142.388 123.815 142.249 124.662 142.318 125.458C142.378 126.258 142.684 126.978 143.032 127.626C143.379 128.273 143.769 128.862 144.098 129.429C144.26 129.713 144.413 129.992 144.533 130.272C144.663 130.551 144.728 130.835 144.788 131.106C144.881 131.652 144.872 132.164 144.811 132.613C144.686 133.519 144.315 134.167 143.986 134.535C143.912 134.633 143.824 134.7 143.755 134.768C143.685 134.836 143.62 134.878 143.565 134.916C143.458 134.988 143.398 135.022 143.398 135.022C143.384 135.01 143.634 134.887 143.959 134.518C144.278 134.15 144.631 133.502 144.742 132.609C144.802 132.164 144.802 131.66 144.705 131.123C144.644 130.856 144.58 130.577 144.45 130.31C144.325 130.039 144.176 129.759 144.01 129.48C143.681 128.917 143.287 128.333 142.93 127.676C142.578 127.024 142.258 126.288 142.193 125.47C142.119 124.658 142.253 123.811 142.179 122.939C142.147 122.503 142.035 122.071 141.832 121.66C141.632 121.249 141.359 120.856 141.067 120.466C140.775 120.076 140.464 119.683 140.191 119.251C139.922 118.823 139.695 118.345 139.64 117.824C139.501 116.77 140.168 115.783 139.996 114.746C139.913 114.234 139.635 113.755 139.306 113.306C138.977 112.858 138.592 112.426 138.263 111.943C137.605 110.974 137.29 109.839 137.049 108.7C136.803 107.561 136.627 106.384 136.155 105.275C135.918 104.724 135.626 104.182 135.223 103.708C134.829 103.23 134.324 102.827 133.736 102.557L133.87 102.489L133.856 102.595C133.782 103.213 133.662 103.818 133.587 104.419C133.504 105.021 133.481 105.622 133.509 106.219C133.527 106.511 133.546 106.82 133.597 107.099C133.666 107.379 133.796 107.65 133.921 107.921C134.176 108.463 134.435 109.009 134.616 109.572C134.815 110.135 134.876 110.724 134.941 111.287C135.01 111.854 135.08 112.417 135.144 112.976C135.283 114.085 135.372 115.195 135.867 116.152C136.113 116.63 136.433 117.07 136.674 117.553C136.924 118.036 137.031 118.565 137.063 119.073C137.128 120.093 136.98 121.088 137.281 121.99C137.582 122.888 138.212 123.637 138.527 124.488C138.87 125.348 138.727 126.241 138.588 127.029C138.449 127.825 138.31 128.595 138.495 129.298C138.662 130.005 139.213 130.522 139.561 131.08C139.742 131.36 139.871 131.66 139.918 131.961C139.969 132.262 139.964 132.55 139.978 132.825C139.992 133.096 140.01 133.363 140.103 133.591C140.196 133.82 140.372 133.998 140.553 134.146C140.928 134.429 141.331 134.607 141.683 134.73C142.04 134.853 142.355 134.921 142.61 134.959C142.865 135.001 143.064 135.005 143.199 135.01C143.333 135.005 143.402 135.01 143.402 135.01L143.393 135.022Z" fill="#5A8FD3"/>
<path d="M134.264 103.932C134.264 103.932 134.278 103.958 134.292 104.013C134.311 104.076 134.329 104.153 134.357 104.25C134.413 104.457 134.482 104.771 134.589 105.164C134.7 105.554 134.964 105.999 135.186 106.545C135.418 107.087 135.654 107.713 135.872 108.416C136.095 109.119 136.289 109.902 136.493 110.741C136.702 111.575 136.915 112.472 137.42 113.319C137.656 113.747 137.925 114.183 138.134 114.657C138.352 115.131 138.467 115.652 138.551 116.173C138.69 117.218 138.898 118.281 139.172 119.365C139.751 121.529 140.303 123.586 140.803 125.462C141.317 127.329 141.781 129.014 142.17 130.437C142.55 131.842 142.861 132.986 143.078 133.794C143.18 134.18 143.259 134.489 143.315 134.709L143.37 134.946C143.384 135.001 143.389 135.026 143.384 135.031C143.384 135.031 143.37 135.005 143.352 134.95L143.278 134.717C143.213 134.497 143.12 134.192 143.004 133.811C142.773 133.007 142.444 131.868 142.04 130.466C141.637 129.048 141.16 127.367 140.632 125.5C140.126 123.624 139.566 121.562 138.982 119.399C138.708 118.315 138.495 117.235 138.361 116.194C138.282 115.677 138.171 115.178 137.962 114.716C137.758 114.255 137.494 113.823 137.258 113.387C136.748 112.527 136.54 111.6 136.336 110.77C136.136 109.932 135.951 109.153 135.738 108.45C135.529 107.747 135.302 107.121 135.08 106.579C134.867 106.037 134.612 105.588 134.505 105.186C134.403 104.783 134.352 104.474 134.306 104.263C134.287 104.165 134.274 104.085 134.26 104.021C134.25 103.966 134.246 103.937 134.25 103.937L134.264 103.932Z" fill="#5A8FD3"/>
<mask id="path-31-inside-2_3134_53159" fill="white">
<path d="M142.883 135.031C140.997 134.006 140.455 130.894 141.243 129.023C142.03 127.152 143.407 125.441 143.62 123.447C143.782 121.914 143.235 120.339 143.62 118.84C144.148 116.817 146.312 115.25 146.285 113.167C146.271 111.998 145.543 110.902 145.603 109.737C145.673 108.306 146.878 107.172 147.619 105.914C148.759 103.984 148.833 101.706 149.223 99.5422C149.612 97.3787 150.516 95.0627 152.61 94C152.921 95.8375 153.449 97.095 153.282 99.5803C153.222 100.474 152.087 102.184 151.934 104.14C151.841 105.309 151.776 106.482 151.697 107.654C151.623 108.793 151.54 109.953 151.095 111.02C150.752 111.838 150.2 112.578 149.946 113.421C149.468 115.009 150.094 116.728 149.709 118.332C149.38 119.696 148.351 120.864 148.138 122.249C147.842 124.188 149.218 126.203 148.514 128.058C148.166 128.976 147.337 129.713 147.105 130.662C146.924 131.398 147.123 132.177 146.957 132.914C146.692 134.104 144.204 135.031 142.879 134.955"/>
</mask>
<path d="M142.883 135.031C140.997 134.006 140.455 130.894 141.243 129.023C142.03 127.152 143.407 125.441 143.62 123.447C143.782 121.914 143.235 120.339 143.62 118.84C144.148 116.817 146.312 115.25 146.285 113.167C146.271 111.998 145.543 110.902 145.603 109.737C145.673 108.306 146.878 107.172 147.619 105.914C148.759 103.984 148.833 101.706 149.223 99.5422C149.612 97.3787 150.516 95.0627 152.61 94C152.921 95.8375 153.449 97.095 153.282 99.5803C153.222 100.474 152.087 102.184 151.934 104.14C151.841 105.309 151.776 106.482 151.697 107.654C151.623 108.793 151.54 109.953 151.095 111.02C150.752 111.838 150.2 112.578 149.946 113.421C149.468 115.009 150.094 116.728 149.709 118.332C149.38 119.696 148.351 120.864 148.138 122.249C147.842 124.188 149.218 126.203 148.514 128.058C148.166 128.976 147.337 129.713 147.105 130.662C146.924 131.398 147.123 132.177 146.957 132.914C146.692 134.104 144.204 135.031 142.879 134.955" fill="#DEC73F"/>
<path d="M143.62 123.447L143.918 123.479L143.918 123.478L143.62 123.447ZM143.62 118.84L143.33 118.765L143.329 118.766L143.62 118.84ZM146.285 113.167L145.985 113.171L145.985 113.171L146.285 113.167ZM145.603 109.737L145.903 109.753L145.903 109.752L145.603 109.737ZM147.619 105.914L147.361 105.762L147.361 105.762L147.619 105.914ZM152.61 94L152.906 93.95L152.838 93.548L152.475 93.7325L152.61 94ZM153.282 99.5803L153.582 99.6005L153.582 99.6004L153.282 99.5803ZM151.934 104.14L152.233 104.164L152.233 104.164L151.934 104.14ZM151.697 107.654L151.398 107.634L151.398 107.635L151.697 107.654ZM151.095 111.02L151.372 111.136L151.372 111.136L151.095 111.02ZM149.946 113.421L149.658 113.334L149.658 113.335L149.946 113.421ZM149.709 118.332L150.001 118.403L150.001 118.402L149.709 118.332ZM148.138 122.249L147.842 122.203L147.842 122.203L148.138 122.249ZM148.514 128.058L148.233 127.951L148.233 127.952L148.514 128.058ZM147.105 130.662L147.396 130.733L147.396 130.733L147.105 130.662ZM146.957 132.914L146.664 132.848L146.664 132.849L146.957 132.914ZM143.026 134.767C142.185 134.31 141.613 133.367 141.352 132.275C141.091 131.185 141.155 130.006 141.519 129.139L140.966 128.907C140.543 129.912 140.484 131.224 140.768 132.414C141.053 133.602 141.696 134.727 142.74 135.295L143.026 134.767ZM141.519 129.139C141.908 128.217 142.431 127.355 142.914 126.418C143.387 125.499 143.806 124.533 143.918 123.479L143.322 123.415C143.221 124.355 142.845 125.241 142.38 126.144C141.924 127.029 141.366 127.958 140.966 128.907L141.519 129.139ZM143.918 123.478C144.003 122.675 143.902 121.861 143.835 121.105C143.767 120.333 143.732 119.61 143.911 118.915L143.329 118.766C143.123 119.569 143.169 120.383 143.238 121.157C143.308 121.947 143.399 122.686 143.322 123.415L143.918 123.478ZM143.91 118.916C144.158 117.966 144.79 117.122 145.41 116.192C146.012 115.29 146.6 114.307 146.585 113.163L145.985 113.171C145.997 114.11 145.517 114.952 144.911 115.859C144.324 116.74 143.61 117.691 143.33 118.765L143.91 118.916ZM146.585 113.163C146.577 112.526 146.375 111.915 146.203 111.361C146.025 110.79 145.876 110.274 145.903 109.753L145.304 109.722C145.271 110.365 145.455 110.98 145.63 111.54C145.81 112.118 145.978 112.639 145.985 113.171L146.585 113.163ZM145.903 109.752C145.934 109.117 146.217 108.53 146.611 107.924C146.808 107.622 147.024 107.325 147.245 107.015C147.464 106.709 147.685 106.393 147.878 106.067L147.361 105.762C147.183 106.064 146.975 106.361 146.757 106.666C146.542 106.968 146.314 107.28 146.108 107.597C145.696 108.231 145.342 108.927 145.304 109.723L145.903 109.752ZM147.878 106.067C148.472 105.06 148.784 103.97 148.997 102.873C149.103 102.324 149.186 101.77 149.265 101.222C149.345 100.672 149.422 100.13 149.518 99.5953L148.927 99.4891C148.829 100.036 148.751 100.59 148.671 101.136C148.592 101.684 148.511 102.226 148.408 102.758C148.201 103.824 147.906 104.838 147.361 105.762L147.878 106.067ZM149.518 99.5953C149.903 97.4544 150.783 95.2635 152.746 94.2675L152.475 93.7325C150.248 94.8619 149.321 97.3029 148.927 99.4891L149.518 99.5953ZM152.314 94.05C152.634 95.939 153.147 97.1218 152.983 99.5602L153.582 99.6004C153.751 97.0682 153.208 95.736 152.906 93.95L152.314 94.05ZM152.983 99.5601C152.971 99.7367 152.903 99.976 152.786 100.29C152.67 100.604 152.523 100.949 152.364 101.351C152.051 102.14 151.715 103.092 151.635 104.117L152.233 104.164C152.306 103.233 152.613 102.351 152.922 101.572C153.073 101.191 153.23 100.819 153.349 100.499C153.467 100.18 153.563 99.8706 153.582 99.6005L152.983 99.5601ZM151.635 104.117C151.542 105.287 151.476 106.466 151.398 107.634L151.997 107.675C152.076 106.497 152.14 105.33 152.233 104.164L151.635 104.117ZM151.398 107.635C151.323 108.781 151.241 109.891 150.818 110.905L151.372 111.136C151.839 110.016 151.923 108.806 151.997 107.674L151.398 107.635ZM150.818 110.904C150.654 111.295 150.441 111.666 150.223 112.068C150.01 112.463 149.795 112.881 149.658 113.334L150.233 113.508C150.351 113.118 150.539 112.745 150.751 112.354C150.958 111.971 151.193 111.563 151.372 111.136L150.818 110.904ZM149.658 113.335C149.402 114.187 149.445 115.065 149.493 115.888C149.543 116.729 149.597 117.512 149.418 118.262L150.001 118.402C150.206 117.548 150.14 116.669 150.092 115.853C150.043 115.019 150.012 114.243 150.233 113.507L149.658 113.335ZM149.418 118.262C149.263 118.901 148.944 119.499 148.613 120.146C148.29 120.779 147.957 121.457 147.842 122.203L148.435 122.294C148.533 121.656 148.821 121.058 149.147 120.419C149.467 119.795 149.826 119.127 150.001 118.403L149.418 118.262ZM147.842 122.203C147.683 123.243 147.973 124.299 148.186 125.25C148.406 126.232 148.55 127.117 148.233 127.951L148.794 128.164C149.182 127.144 148.99 126.094 148.772 125.119C148.547 124.115 148.297 123.194 148.435 122.294L147.842 122.203ZM148.233 127.952C148.074 128.371 147.805 128.751 147.517 129.181C147.238 129.597 146.943 130.059 146.813 130.59L147.396 130.733C147.498 130.316 147.734 129.935 148.015 129.515C148.286 129.111 148.605 128.663 148.794 128.164L148.233 127.952ZM146.814 130.59C146.712 131.002 146.719 131.419 146.726 131.793C146.732 132.179 146.738 132.521 146.664 132.848L147.249 132.98C147.342 132.57 147.332 132.154 147.325 131.783C147.319 131.398 147.317 131.058 147.396 130.733L146.814 130.59ZM146.664 132.849C146.617 133.059 146.464 133.288 146.198 133.519C145.935 133.748 145.585 133.958 145.192 134.136C144.401 134.493 143.496 134.69 142.896 134.655L142.861 135.254C143.586 135.296 144.589 135.067 145.439 134.682C145.867 134.489 146.272 134.249 146.591 133.972C146.907 133.697 147.164 133.364 147.249 132.979L146.664 132.849Z" fill="#003972" mask="url(#path-31-inside-2_3134_53159)"/>
<defs>
<filter id="filter0_d_3134_53159" x="87.6966" y="84.5566" width="45.5121" height="47.2997" filterUnits="userSpaceOnUse" color-interpolation-filters="sRGB">
<feFlood flood-opacity="0" result="BackgroundImageFix"/>
<feColorMatrix in="SourceAlpha" type="matrix" values="0 0 0 0 0 0 0 0 0 0 0 0 0 0 0 0 0 0 127 0" result="hardAlpha"/>
<feOffset dy="6.30339"/>
<feGaussianBlur stdDeviation="3.1517"/>
<feComposite in2="hardAlpha" operator="out"/>
<feColorMatrix type="matrix" values="0 0 0 0 0 0 0 0 0 0 0 0 0 0 0 0 0 0 0.2 0"/>
<feBlend mode="normal" in2="BackgroundImageFix" result="effect1_dropShadow_3134_53159"/>
<feBlend mode="normal" in="SourceGraphic" in2="effect1_dropShadow_3134_53159" result="shape"/>
</filter>
</defs>
</svg>
