<svg width="162" height="135" viewBox="0 0 162 135" fill="none" xmlns="http://www.w3.org/2000/svg">
<path d="M81 0C36.2649 0 0 36.2543 0 80.9762C0 101.19 7.40902 119.675 19.6604 133.863H142.34C154.591 119.675 162 101.19 162 80.9762C162 36.2543 125.735 0 81 0Z" fill="#F1F1F1"/>
<path opacity="0.8" d="M113.562 112C113.562 113.657 99.0108 115 81.0615 115C63.1123 115 48.5615 113.657 48.5615 112C48.5615 110.343 63.1123 109 81.0615 109C99.0108 109 113.562 110.343 113.562 112Z" fill="#DADADA"/>
<path d="M79.7284 20.439H92.6299C92.6299 20.439 95.6548 19.3651 95.2633 16.5194C94.8719 13.6736 90.3049 16.0451 90.3049 16.0451C90.3049 16.0451 91.6904 12.074 87.2657 13.2016C82.8435 14.3269 82.4117 18.2644 82.4117 18.2644C82.4117 18.2644 76.6015 17.3091 79.7284 20.4412V20.439Z" fill="white"/>
<path d="M114.272 51.5238H128.47C128.47 51.5238 131.8 50.3635 131.369 47.2888C130.938 44.2141 125.911 46.7763 125.911 46.7763C125.911 46.7763 127.434 42.4864 122.565 43.7053C117.697 44.9205 117.222 49.1739 117.222 49.1739C117.222 49.1739 110.827 48.1416 114.268 51.5238H114.272Z" fill="white"/>
<path d="M28.024 37.5322H52.626C55.7779 37.5322 56.5374 33.4757 53.5618 32.5258C53.5238 32.5133 53.4859 32.5009 53.4479 32.4909C56.7408 29.9702 49.5148 24.6521 41.6704 32.0147C42.2807 29.5613 35.3069 30.4464 33.1749 33.7949C32.4182 31.5958 25.7645 35.4155 28.0294 37.5347L28.024 37.5322Z" fill="white"/>
<path d="M62.2411 101.913C54.9875 97.6261 49.4065 90.7034 47.2171 82.1539C42.8118 64.8547 53.8738 47.3981 71.9941 43.1812L71.9944 43.1811C90.0995 38.9456 108.358 49.5591 112.783 66.8625C116.295 80.6341 109.976 94.4996 98.1174 101.705V101.699L97.74 101.922C94.8032 103.66 91.5494 104.997 88.0063 105.817L88.0058 105.817C78.8477 107.957 69.663 106.316 62.2415 101.913L62.2411 101.913Z" fill="#CDBB52" stroke="#5C5C5C" stroke-width="0.5"/>
<path d="M64.7671 100.063C57.7282 95.9087 52.3127 89.2005 50.1883 80.9161C45.914 64.1541 56.6474 47.2387 74.2312 43.1524L74.2314 43.1523C91.8008 39.0479 109.518 49.3331 113.812 66.0996C117.218 79.4395 111.092 92.8706 99.5918 99.8548V99.8488L99.2147 100.072C96.3648 101.756 93.2074 103.051 89.7692 103.846L89.7687 103.846C80.8818 105.919 71.9691 104.33 64.7674 100.063L64.7671 100.063Z" fill="#E5D050" stroke="#5C5C5C" stroke-width="0.5"/>
<path d="M92.8454 66.351C92.8454 71.5244 88.3646 75.7192 82.8385 75.7192C77.3124 75.7192 72.8315 71.5244 72.8315 66.351C72.8315 61.1776 77.3124 56.9828 82.8385 56.9828C88.3646 56.9828 92.8454 61.1776 92.8454 66.351Z" fill="white"/>
<path d="M100.085 93.6963V99.25C97.2138 100.897 93.9641 102.723 90.5 103.5C81.548 105.527 72.6368 104.306 65.3804 100.133V93.6963C65.3804 84.8438 73.1473 77.6215 82.7283 77.6215C92.3093 77.6215 100.076 84.8438 100.076 93.6963H100.085Z" fill="white"/>
<g filter="url(#filter0_d_2490_116824)">
<path d="M106.751 79.6995H108.752C108.839 79.7184 108.923 79.7488 109.01 79.7549C111.682 79.9463 114.181 80.7205 116.461 82.1372C120.885 84.8853 123.608 88.8479 124.564 94.0318C124.683 94.6803 124.742 95.3409 124.83 95.9955V98.0241C124.802 98.2676 124.775 98.5103 124.748 98.7537C124.339 102.479 122.935 105.765 120.458 108.551C117.828 111.508 114.57 113.355 110.693 114.051C110.051 114.167 109.4 114.232 108.752 114.32H106.75C106.664 114.301 106.58 114.271 106.493 114.265C103.821 114.073 101.322 113.299 99.042 111.882C94.6184 109.135 91.8953 105.173 90.94 99.9885C90.8199 99.34 90.7612 98.68 90.6738 98.0248V95.9962C90.7012 95.7527 90.7292 95.51 90.7559 95.2665C91.1648 91.5413 92.5684 88.2556 95.0454 85.4696C97.6745 82.5112 100.933 80.6644 104.81 79.9686C105.452 79.853 106.103 79.788 106.751 79.6995Z" fill="#B51E1E"/>
<path d="M106.751 78.6807H108.752C108.839 78.6993 108.923 78.7293 109.01 78.7353C111.682 78.9238 114.181 79.6867 116.461 81.0825C120.885 83.7901 123.608 87.6942 124.564 92.8016C124.683 93.4406 124.742 94.0915 124.83 94.7364V96.7351C124.802 96.975 124.775 97.2142 124.748 97.454C124.339 101.124 122.935 104.362 120.458 107.107C117.828 110.021 114.57 111.84 110.693 112.526C110.051 112.64 109.4 112.704 108.752 112.791H106.75C106.664 112.772 106.58 112.742 106.493 112.736C103.821 112.548 101.322 111.785 99.042 110.389C94.6184 107.682 91.8953 103.779 90.94 98.6706C90.8199 98.0316 90.7612 97.3814 90.6738 96.7358V94.7371C90.7012 94.4972 90.7292 94.258 90.7559 94.0182C91.1648 90.3479 92.5684 87.1106 95.0454 84.3657C97.6745 81.4509 100.933 79.6314 104.81 78.9458C105.452 78.8319 106.103 78.7679 106.751 78.6807Z" fill="#D14343"/>
<path fill-rule="evenodd" clip-rule="evenodd" d="M99.7454 86.6009C99.0921 86.7587 98.528 87.3199 98.3774 87.9621C98.2693 88.4234 98.3504 88.96 98.5882 89.3563C98.6398 89.4421 100.199 91.0183 102.054 92.8589L105.426 96.2054L102.005 99.6103C98.3232 103.276 98.4257 103.163 98.2836 103.705C98.1691 104.142 98.2306 104.598 98.462 105.029C98.8264 105.708 99.6781 106.038 100.579 105.848C101.116 105.735 100.976 105.86 104.637 102.227C106.501 100.378 108.043 98.8649 108.064 98.8649C108.085 98.8649 109.627 100.378 111.491 102.227C114.635 105.344 114.899 105.597 115.131 105.704C115.928 106.073 116.892 105.923 117.443 105.344C117.961 104.8 118.081 103.968 117.742 103.266C117.63 103.034 117.362 102.759 114.171 99.6042L110.722 96.1932L114.077 92.8528C116.167 90.772 117.47 89.4474 117.531 89.3402C117.701 89.0402 117.761 88.7603 117.741 88.35C117.72 87.9099 117.628 87.6426 117.385 87.3222C116.912 86.6966 116.052 86.4335 115.305 86.6851C114.878 86.8284 114.684 87.0075 111.34 90.3307L108.069 93.5822L104.697 90.2467C101.076 86.6657 101.165 86.7447 100.63 86.6064C100.364 86.5377 100.016 86.5355 99.7454 86.6009Z" fill="white"/>
</g>
<path d="M19.5564 134.179C19.6053 134.236 19.6929 134.251 19.7574 134.21C25.2513 130.856 28.5008 125.005 28.2379 118.942C28.2353 118.866 28.1658 118.807 28.0807 118.809C27.9983 118.812 27.9339 118.876 27.9364 118.954C28.1941 124.922 24.9962 130.681 19.5899 133.98C19.5203 134.023 19.5022 134.108 19.5486 134.172C19.5486 134.175 19.5538 134.177 19.5564 134.182V134.179Z" fill="#5A8FD3"/>
<path d="M22.0324 128.803L22.0323 128.804L22.0353 128.805C22.7356 129.256 22.8008 130.059 22.6631 130.785C22.5949 131.144 22.4782 131.475 22.3739 131.714C22.3218 131.834 22.2733 131.929 22.2365 131.994C22.2208 132.021 22.208 132.041 22.1985 132.055L22.1781 132.074C22.0352 132.209 21.8902 132.34 21.7422 132.47C21.7445 132.445 21.7461 132.42 21.7471 132.394C21.7536 132.228 21.7358 132.033 21.6914 131.816C21.6027 131.382 21.4066 130.852 21.0766 130.282C20.9319 130.009 20.842 129.718 20.8092 129.451C20.7761 129.181 20.8019 128.945 20.8793 128.776C20.9546 128.613 21.0763 128.515 21.25 128.502C21.4325 128.488 21.6906 128.566 22.0324 128.803Z" fill="#5A8FD3" stroke="#5C5C5C" stroke-width="0.2"/>
<path d="M25.089 131.51C25.5137 131.501 25.9141 131.576 26.242 131.786L21.9226 132.64C22.0659 132.53 22.2076 132.418 22.3477 132.303C22.3577 132.301 22.3674 132.298 22.3756 132.295C22.3999 132.286 22.4325 132.273 22.4701 132.257C22.503 132.242 22.5418 132.225 22.5854 132.206C22.5926 132.203 22.6 132.2 22.6074 132.196C22.6603 132.173 22.7202 132.146 22.7862 132.118C23.0504 132.004 23.4127 131.857 23.8167 131.735C24.2211 131.614 24.6638 131.52 25.089 131.51Z" fill="#5A8FD3" stroke="#5C5C5C" stroke-width="0.2"/>
<path d="M22.8654 128.286C22.6713 128.039 22.5281 127.767 22.4456 127.51C22.3624 127.251 22.3436 127.016 22.3879 126.841C22.4307 126.671 22.5304 126.559 22.6972 126.52C22.8738 126.479 23.1423 126.516 23.5232 126.697L23.5244 126.694L23.5236 126.698C24.2974 127.036 24.5111 127.815 24.5124 128.544C24.513 128.906 24.4608 129.247 24.4039 129.497C24.3755 129.622 24.3462 129.723 24.3224 129.791C24.3118 129.822 24.3029 129.844 24.2962 129.859L24.2827 129.877C24.1683 130.028 24.0517 130.178 23.9331 130.327C23.9304 130.301 23.927 130.275 23.9227 130.248C23.8972 130.086 23.8423 129.898 23.7575 129.692C23.5878 129.282 23.2956 128.794 22.8654 128.286Z" fill="#5A8FD3" stroke="#5C5C5C" stroke-width="0.2"/>
<path d="M24.2166 130.458C24.1899 130.461 24.1638 130.464 24.1384 130.467C24.2569 130.338 24.3738 130.208 24.4888 130.076C24.4979 130.072 24.5065 130.068 24.5135 130.064C24.5359 130.052 24.5654 130.034 24.5991 130.012C24.6292 129.993 24.6648 129.97 24.7049 129.944C24.7106 129.94 24.7164 129.937 24.7223 129.933C24.7697 129.902 24.8233 129.868 24.8827 129.83C25.1202 129.679 25.4478 129.481 25.8213 129.301C26.5757 128.94 27.4844 128.673 28.2147 128.987C28.598 129.17 28.7481 129.384 28.7721 129.579C28.7966 129.778 28.6949 129.998 28.4874 130.2C28.0715 130.606 27.2932 130.88 26.6311 130.715L26.6311 130.715L26.6278 130.714C25.9324 130.565 25.3253 130.479 24.8439 130.453C24.6032 130.44 24.3923 130.442 24.2166 130.458Z" fill="#5A8FD3" stroke="#5C5C5C" stroke-width="0.2"/>
<path d="M24.5991 124.402L24.5991 124.402L24.6021 124.403C25.429 124.619 25.7826 125.355 25.9174 126.071C25.9843 126.427 25.9952 126.769 25.9849 127.023C25.9798 127.15 25.9693 127.253 25.9584 127.323C25.9539 127.353 25.9495 127.374 25.9458 127.389L25.9345 127.412C25.8518 127.578 25.7647 127.743 25.6746 127.907C25.6667 127.88 25.6577 127.852 25.6477 127.824C25.5925 127.669 25.5038 127.493 25.3823 127.305C25.1395 126.928 24.7617 126.495 24.2444 126.061C24.0071 125.849 23.8156 125.603 23.6871 125.363C23.5574 125.121 23.4961 124.893 23.5076 124.714C23.5188 124.541 23.5959 124.417 23.7519 124.354C23.9181 124.287 24.1899 124.282 24.5991 124.402Z" fill="#5A8FD3" stroke="#5C5C5C" stroke-width="0.2"/>
<path d="M25.9831 127.989C25.9556 127.996 25.9289 128.003 25.903 128.011C25.9961 127.866 26.087 127.72 26.1754 127.574C26.1834 127.569 26.1906 127.563 26.1965 127.559C26.2164 127.543 26.2422 127.521 26.2714 127.495C26.2974 127.472 26.328 127.444 26.3626 127.412C26.3676 127.408 26.3727 127.403 26.3779 127.398C26.4189 127.361 26.4653 127.319 26.5168 127.273C26.7227 127.089 27.0088 126.844 27.3437 126.611C28.0197 126.14 28.8658 125.738 29.644 125.936C30.0558 126.058 30.2442 126.246 30.3039 126.436C30.3645 126.628 30.3044 126.859 30.1378 127.088C29.8035 127.549 29.0884 127.938 28.4066 127.876L28.4066 127.876L28.4034 127.876C27.6912 127.834 27.0775 127.842 26.599 127.889C26.3598 127.913 26.1527 127.946 25.9831 127.989Z" fill="#5A8FD3" stroke="#5C5C5C" stroke-width="0.2"/>
<path d="M25.362 121.988V121.986C26.15 122.116 26.602 122.761 26.8529 123.418C26.9832 123.759 27.056 124.096 27.0919 124.348C27.1099 124.474 27.1185 124.578 27.1206 124.649C27.1216 124.681 27.1212 124.704 27.1202 124.719L27.1143 124.739C27.0616 124.915 27.0067 125.09 26.9491 125.264C26.9364 125.239 26.9224 125.213 26.9074 125.187C26.8248 125.042 26.7055 124.883 26.5514 124.716C26.2435 124.383 25.7922 124.014 25.2034 123.667C24.9309 123.493 24.6973 123.28 24.5268 123.063C24.3548 122.843 24.2525 122.627 24.2313 122.448C24.2109 122.275 24.2645 122.143 24.4052 122.057C24.5562 121.965 24.823 121.918 25.2491 121.973L25.362 121.988Z" fill="#5A8FD3" stroke="#5C5C5C" stroke-width="0.2"/>
<path d="M27.1848 125.332C27.1339 125.356 27.087 125.381 27.0446 125.406C27.1185 125.233 27.1897 125.058 27.2568 124.882L30.4656 122.699M27.1848 125.332C27.1646 125.38 27.1442 125.428 27.1236 125.476C27.5303 125.243 28.4248 125.03 29.6397 124.912C31.0853 124.819 32.2964 122.839 30.5107 122.604L30.5081 122.602L30.5075 122.608L30.5014 122.675L30.4989 122.701C30.4986 122.701 30.4982 122.701 30.4979 122.701C30.4871 122.7 30.4763 122.699 30.4656 122.699M27.1848 125.332C27.2506 125.174 27.314 125.015 27.3739 124.855C27.3805 124.849 27.3863 124.843 27.3909 124.838C27.408 124.82 27.4294 124.794 27.4534 124.764C27.4752 124.736 27.5008 124.703 27.5297 124.666C27.5334 124.662 27.5371 124.657 27.5409 124.652C27.5746 124.609 27.6127 124.56 27.6551 124.507C27.8248 124.293 28.0625 124.007 28.3506 123.726C28.9243 123.164 29.6736 122.642 30.4656 122.699M27.1848 125.332C27.2104 125.319 27.2369 125.307 27.2644 125.296C27.4242 125.227 27.6224 125.162 27.854 125.103C28.3172 124.983 28.9204 124.881 29.63 124.812L29.6333 124.812L29.6333 124.812C30.3172 124.768 30.9511 124.274 31.197 123.768C31.3193 123.516 31.3375 123.279 31.2426 123.097C31.1486 122.917 30.9268 122.76 30.4976 122.703L30.4662 122.699L30.4656 122.699" fill="#5A8FD3" stroke="#5C5C5C" stroke-width="0.2"/>
<path d="M27.7811 121.821C27.7875 121.852 27.7914 121.874 27.7932 121.89L27.7909 121.911C27.7712 122.092 27.7485 122.273 27.7232 122.454C27.7059 122.43 27.6874 122.407 27.6679 122.383C27.5606 122.253 27.4144 122.114 27.2327 121.973C26.8694 121.691 26.3581 121.396 25.7148 121.143C25.4146 121.014 25.1454 120.839 24.9375 120.649C24.7278 120.458 24.587 120.258 24.5332 120.082C24.4811 119.912 24.5106 119.772 24.6318 119.666C24.7626 119.552 25.0156 119.463 25.445 119.451L25.5422 119.449V119.446C26.3525 119.445 26.9224 120.021 27.2926 120.64C27.4835 120.959 27.6167 121.282 27.6981 121.527C27.7388 121.65 27.766 121.751 27.7811 121.821Z" fill="#5A8FD3" stroke="#5C5C5C" stroke-width="0.2"/>
<path d="M28.0436 122.44C28.0175 122.456 27.9924 122.473 27.9684 122.49C28.005 122.322 28.0389 122.154 28.0701 121.984C28.0755 121.977 28.0801 121.97 28.0837 121.964C28.0973 121.944 28.1137 121.914 28.1319 121.881C28.1485 121.85 28.168 121.813 28.19 121.771C28.1926 121.766 28.1952 121.761 28.1978 121.756C28.2232 121.708 28.2518 121.654 28.2839 121.594C28.4123 121.355 28.5945 121.034 28.8271 120.709C29.2964 120.053 29.9503 119.409 30.7552 119.354C31.1868 119.344 31.4351 119.466 31.5619 119.632C31.69 119.799 31.7148 120.039 31.6405 120.309C31.4909 120.851 30.9574 121.441 30.2932 121.59L30.2932 121.59L30.2898 121.591C29.6022 121.771 29.0255 121.966 28.5903 122.157C28.3727 122.252 28.1889 122.347 28.0436 122.44Z" fill="#5A8FD3" stroke="#5C5C5C" stroke-width="0.2"/>
<path d="M28.1562 119.864C28.1422 119.904 28.129 119.942 28.1166 119.976C28.106 119.945 28.0945 119.913 28.0822 119.878C28.005 119.663 27.8952 119.37 27.7739 119.057C27.5325 118.433 27.244 117.721 27.0759 117.361C26.9413 117 26.8471 116.599 26.8468 116.25C26.8465 115.897 26.9413 115.622 27.1557 115.477L27.1557 115.477L27.1568 115.476C27.3738 115.324 27.7371 115.293 28.0633 115.459C28.3832 115.622 28.6723 115.979 28.7264 116.613L28.7264 116.613L28.7268 116.616C28.8042 117.269 28.6363 118.177 28.4394 118.927C28.3416 119.3 28.2376 119.63 28.1562 119.864Z" fill="#5A8FD3" stroke="#5C5C5C" stroke-width="0.2"/>
<path d="M28.0157 115.332C27.6979 115.205 27.3458 115.232 27.1074 115.389L27.1584 115.464M28.0157 115.332C28.0158 115.332 28.0159 115.332 28.0161 115.332M28.0157 115.332L27.983 115.412M28.0157 115.332L28.0249 115.336C28.0219 115.335 28.019 115.334 28.0161 115.332M27.1584 115.464L27.1061 115.389C27.1013 115.393 27.0965 115.396 27.0918 115.399L27.0908 115.4L27.0908 115.4C27.0001 115.461 26.93 115.539 26.8772 115.63M27.1584 115.464C27.3723 115.315 27.697 115.293 27.983 115.412M27.1584 115.464C26.6946 115.778 26.8131 116.651 27.0734 117.359C27.2538 117.738 27.5527 118.484 27.7743 119.056L27.983 115.412M26.8772 115.63C26.9287 115.537 26.9971 115.457 27.086 115.393C27.0863 115.393 27.0866 115.392 27.0869 115.392C27.0918 115.389 27.0968 115.385 27.1018 115.382C27.349 115.209 27.7105 115.191 28.0214 115.32L28.0161 115.332M26.8772 115.63C26.7563 115.838 26.7262 116.111 26.7473 116.398C26.777 116.803 26.9062 117.2 26.975 117.386C27.1391 117.736 27.4071 118.396 27.6385 118.992C27.7548 119.291 27.8622 119.575 27.9431 119.796C27.9835 119.907 28.0174 120.002 28.0425 120.076C28.0668 120.148 28.085 120.206 28.0914 120.237L28.0933 120.247V120.253L28.096 120.257L28.0963 120.252L28.1046 120.238L28.0226 120.003C27.9588 119.819 27.8512 119.536 27.681 119.092C27.4592 118.519 27.1616 117.777 26.9831 117.401L26.9791 117.393L26.9795 117.393C26.8471 117.033 26.7487 116.626 26.7444 116.265C26.7416 116.034 26.7774 115.81 26.8772 115.63ZM28.0161 115.332L27.983 115.412M26.8827 117.425C26.7435 117.05 26.3441 115.785 27.0347 115.317C27.3079 115.127 27.7099 115.099 28.0629 115.243L26.8827 117.425ZM26.8827 117.425C27.2074 118.116 27.9547 120.065 27.9933 120.257L26.8827 117.425ZM28.3324 119.667C28.2837 119.816 28.2377 119.942 28.1972 120.042L28.211 120.004C28.3232 119.695 28.5027 119.134 28.6421 118.516C28.6289 118.577 28.6153 118.637 28.6014 118.697C28.5173 119.058 28.4216 119.396 28.3324 119.667ZM28.082 120.269C28.0819 120.27 28.0822 120.269 28.0828 120.269L28.082 120.269Z" fill="#5A8FD3" stroke="#5C5C5C" stroke-width="0.2"/>
<mask id="path-26-inside-1_2490_116824" fill="white">
<path d="M19.7278 134.185C21.4865 133.23 21.9921 130.328 21.2575 128.583C20.5229 126.838 19.2395 125.243 19.0407 123.384C18.8895 121.954 19.3994 120.486 19.0407 119.088C18.5481 117.201 16.5302 115.74 16.5561 113.798C16.5691 112.708 17.2475 111.686 17.1913 110.6C17.1265 109.266 16.003 108.208 15.3116 107.035C14.2486 105.235 14.1795 103.111 13.8165 101.094C13.4535 99.0761 12.6109 96.9166 10.6578 95.9257C10.3682 97.6391 9.87563 98.8116 10.0312 101.129C10.0874 101.962 11.146 103.557 11.2886 105.381C11.3751 106.471 11.4356 107.564 11.509 108.658C11.5782 109.72 11.6559 110.802 12.0708 111.796C12.3905 112.558 12.9047 113.249 13.1424 114.035C13.5875 115.515 13.0041 117.118 13.3628 118.615C13.6696 119.886 14.6289 120.975 14.8276 122.266C15.1042 124.075 13.8208 125.954 14.4776 127.683C14.8017 128.54 15.5752 129.227 15.7913 130.111C15.9598 130.798 15.774 131.524 15.9295 132.211C16.1758 133.321 18.4963 134.185 19.7321 134.114"/>
</mask>
<path d="M19.7278 134.185C21.4865 133.23 21.9921 130.328 21.2575 128.583C20.5229 126.838 19.2395 125.243 19.0407 123.384C18.8895 121.954 19.3994 120.486 19.0407 119.088C18.5481 117.201 16.5302 115.74 16.5561 113.798C16.5691 112.708 17.2475 111.686 17.1913 110.6C17.1265 109.266 16.003 108.208 15.3116 107.035C14.2486 105.235 14.1795 103.111 13.8165 101.094C13.4535 99.0761 12.6109 96.9166 10.6578 95.9257C10.3682 97.6391 9.87563 98.8116 10.0312 101.129C10.0874 101.962 11.146 103.557 11.2886 105.381C11.3751 106.471 11.4356 107.564 11.509 108.658C11.5782 109.72 11.6559 110.802 12.0708 111.796C12.3905 112.558 12.9047 113.249 13.1424 114.035C13.5875 115.515 13.0041 117.118 13.3628 118.615C13.6696 119.886 14.6289 120.975 14.8276 122.266C15.1042 124.075 13.8208 125.954 14.4776 127.683C14.8017 128.54 15.5752 129.227 15.7913 130.111C15.9598 130.798 15.774 131.524 15.9295 132.211C16.1758 133.321 18.4963 134.185 19.7321 134.114" fill="#DEC73F"/>
<path d="M19.0407 123.384L18.7424 123.416L18.7424 123.415L19.0407 123.384ZM19.0407 119.088L19.331 119.012L19.3313 119.014L19.0407 119.088ZM16.5561 113.798L16.8561 113.802L16.8561 113.802L16.5561 113.798ZM17.1913 110.6L16.8917 110.616L16.8917 110.615L17.1913 110.6ZM15.3116 107.035L15.5699 106.883L15.57 106.883L15.3116 107.035ZM10.6578 95.9257L10.3619 95.8757L10.4299 95.4736L10.7935 95.6581L10.6578 95.9257ZM10.0312 101.129L9.73187 101.149L9.73186 101.149L10.0312 101.129ZM11.2886 105.381L10.9896 105.405L10.9895 105.404L11.2886 105.381ZM11.509 108.658L11.8083 108.638L11.8084 108.638L11.509 108.658ZM12.0708 111.796L11.7941 111.912L11.7939 111.912L12.0708 111.796ZM13.1424 114.035L13.4296 113.948L13.4297 113.949L13.1424 114.035ZM13.3628 118.615L13.0712 118.685L13.071 118.684L13.3628 118.615ZM14.8276 122.266L15.1241 122.221L15.1242 122.221L14.8276 122.266ZM14.4776 127.683L14.7581 127.576L14.7582 127.577L14.4776 127.683ZM15.7913 130.111L15.4999 130.182L15.4998 130.182L15.7913 130.111ZM15.9295 132.211L16.2221 132.145L16.2224 132.146L15.9295 132.211ZM19.5846 133.922C20.3626 133.499 20.8929 132.625 21.1359 131.61C21.3783 130.597 21.3191 129.503 20.981 128.699L21.534 128.467C21.9305 129.409 21.9858 130.637 21.7194 131.75C21.4535 132.861 20.8517 133.916 19.871 134.449L19.5846 133.922ZM20.981 128.699C20.6192 127.84 20.1323 127.039 19.6815 126.164C19.2396 125.306 18.8479 124.402 18.7424 123.416L19.339 123.352C19.4324 124.225 19.7817 125.048 20.2149 125.889C20.6391 126.712 21.1612 127.581 21.534 128.467L20.981 128.699ZM18.7424 123.415C18.6629 122.664 18.7574 121.902 18.8197 121.198C18.8833 120.478 18.9156 119.807 18.7502 119.163L19.3313 119.014C19.5246 119.767 19.4812 120.529 19.4174 121.251C19.3522 121.987 19.2674 122.674 19.3391 123.352L18.7424 123.415ZM18.7505 119.164C18.5204 118.282 17.9338 117.499 17.3544 116.63C16.7933 115.789 16.2418 114.868 16.2561 113.794L16.8561 113.802C16.8445 114.67 17.289 115.451 17.8536 116.297C18.3998 117.116 19.0685 118.007 19.331 119.012L18.7505 119.164ZM16.2561 113.794C16.2632 113.197 16.4528 112.624 16.6132 112.108C16.7791 111.575 16.9166 111.097 16.8917 110.616L17.4909 110.585C17.5222 111.189 17.3486 111.765 17.1861 112.287C17.018 112.827 16.8619 113.309 16.8561 113.802L16.2561 113.794ZM16.8917 110.615C16.8632 110.028 16.6012 109.484 16.2348 108.92C16.0518 108.639 15.85 108.362 15.6438 108.074C15.4399 107.788 15.2333 107.493 15.0532 107.188L15.57 106.883C15.7356 107.164 15.9287 107.44 16.132 107.725C16.3329 108.006 16.5456 108.297 16.738 108.594C17.1224 109.185 17.4546 109.838 17.491 110.586L16.8917 110.615ZM15.0533 107.188C14.4971 106.246 14.2056 105.227 14.007 104.203C13.9078 103.691 13.831 103.174 13.7569 102.663C13.6825 102.15 13.6109 101.645 13.5212 101.147L14.1118 101.04C14.2036 101.551 14.2768 102.068 14.3506 102.577C14.4248 103.088 14.4998 103.592 14.5961 104.089C14.7885 105.081 15.0632 106.024 15.5699 106.883L15.0533 107.188ZM13.5212 101.147C13.1623 99.1519 12.3436 97.1174 10.522 96.1932L10.7935 95.6581C12.8782 96.7158 13.7447 99.0004 14.1118 101.04L13.5212 101.147ZM10.9536 95.9756C10.6553 97.7406 10.1781 98.8384 10.3305 101.109L9.73186 101.149C9.57315 98.7848 10.0811 97.5376 10.3619 95.8757L10.9536 95.9756ZM10.3305 101.109C10.3414 101.27 10.404 101.491 10.5126 101.784C10.6208 102.076 10.7574 102.397 10.9064 102.773C11.1979 103.509 11.5127 104.398 11.5877 105.358L10.9895 105.404C10.9219 104.54 10.6361 103.72 10.3486 102.994C10.2081 102.639 10.0606 102.291 9.95 101.993C9.83982 101.695 9.74906 101.404 9.73187 101.149L10.3305 101.109ZM11.5877 105.357C11.6743 106.449 11.7352 107.549 11.8083 108.638L11.2097 108.678C11.1359 107.579 11.0758 106.492 10.9896 105.405L11.5877 105.357ZM11.8084 108.638C11.878 109.707 11.955 110.739 12.3477 111.681L11.7939 111.912C11.3569 110.864 11.2783 109.732 11.2096 108.677L11.8084 108.638ZM12.3474 111.68C12.4998 112.044 12.6978 112.388 12.9012 112.764C13.1003 113.132 13.3012 113.524 13.4296 113.948L12.8553 114.122C12.7459 113.76 12.5709 113.414 12.3735 113.05C12.1805 112.693 11.9614 112.311 11.7941 111.912L12.3474 111.68ZM13.4297 113.949C13.6697 114.747 13.6295 115.569 13.5845 116.336C13.5384 117.122 13.4876 117.848 13.6545 118.545L13.071 118.684C12.8793 117.885 12.9409 117.062 12.9855 116.301C13.0312 115.523 13.0602 114.803 12.8551 114.121L13.4297 113.949ZM13.6544 118.544C13.7976 119.137 14.0939 119.692 14.4028 120.296C14.7044 120.886 15.0165 121.521 15.1241 122.221L14.5311 122.312C14.4401 121.72 14.1731 121.165 13.8686 120.57C13.5715 119.988 13.2347 119.363 13.0712 118.685L13.6544 118.544ZM15.1242 122.221C15.2731 123.195 15.0011 124.184 14.8028 125.07C14.5978 125.985 14.4651 126.805 14.7581 127.576L14.1972 127.789C13.8334 126.832 14.0139 125.847 14.2173 124.939C14.4274 124 14.6587 123.146 14.5311 122.312L15.1242 122.221ZM14.7582 127.577C14.9051 127.965 15.1546 128.317 15.4242 128.72C15.6839 129.107 15.9606 129.54 16.0827 130.04L15.4998 130.182C15.4059 129.798 15.1878 129.445 14.9257 129.054C14.6735 128.677 14.3743 128.258 14.197 127.789L14.7582 127.577ZM16.0826 130.039C16.1776 130.426 16.1711 130.818 16.1652 131.166C16.1591 131.527 16.1538 131.843 16.2221 132.145L15.6369 132.277C15.5497 131.892 15.5595 131.502 15.5653 131.156C15.5713 130.797 15.5735 130.482 15.4999 130.182L16.0826 130.039ZM16.2224 132.146C16.2646 132.336 16.4042 132.546 16.6506 132.76C16.8939 132.972 17.2185 133.167 17.5833 133.332C18.3193 133.665 19.1592 133.847 19.7149 133.815L19.7494 134.414C19.0692 134.453 18.131 134.238 17.3362 133.879C16.9357 133.698 16.5567 133.473 16.257 133.213C15.9604 132.955 15.7176 132.641 15.6367 132.276L16.2224 132.146Z" fill="#5C5C5C" mask="url(#path-26-inside-1_2490_116824)"/>
<path d="M145.862 133.643L143.226 133.728L154.595 111.007C154.641 112.823 154.176 114.652 153.251 116.262C153.178 116.388 153.1 116.518 153.021 116.649C152.889 116.868 152.754 117.091 152.635 117.314C152.442 117.675 152.279 118.056 152.208 118.467L152.208 118.467C152.102 119.089 152.225 119.717 152.341 120.312C152.349 120.352 152.357 120.392 152.364 120.432C152.489 121.074 152.587 121.677 152.427 122.259L152.426 122.259C152.258 122.874 151.821 123.398 151.362 123.949C151.319 124 151.276 124.051 151.233 124.103C150.742 124.697 150.25 125.335 150.203 126.121L150.203 126.122C150.167 126.775 150.455 127.381 150.722 127.945L150.734 127.972C151.012 128.559 151.264 129.101 151.223 129.671L151.223 129.671C151.19 130.156 150.94 130.617 150.648 131.066C149.624 132.619 148.137 133.68 145.869 133.643L145.869 133.643L145.862 133.643ZM152.356 118.492C152.255 119.086 152.373 119.688 152.49 120.289C152.621 120.966 152.753 121.641 152.571 122.299C152.394 122.947 151.935 123.496 151.48 124.041C150.937 124.691 150.4 125.335 150.353 126.13C150.319 126.745 150.592 127.321 150.865 127.897C151.141 128.48 151.417 129.062 151.373 129.682C151.336 130.208 151.067 130.697 150.774 131.148C149.727 132.736 148.195 133.831 145.867 133.793L152.356 118.492Z" fill="#5A8FD3" stroke="#5C5C5C" stroke-width="0.3"/>
<path d="M142.431 133.95C142.431 133.95 142.162 134.009 141.645 133.934C141.389 133.9 141.073 133.838 140.716 133.721C140.364 133.604 139.957 133.432 139.573 133.148C139.386 133.002 139.203 132.818 139.102 132.576C139.006 132.333 138.988 132.07 138.969 131.799C138.956 131.527 138.956 131.243 138.901 130.955C138.851 130.666 138.732 130.386 138.553 130.119C138.215 129.58 137.657 129.07 137.479 128.335C137.282 127.616 137.424 126.835 137.556 126.054C137.689 125.272 137.817 124.42 137.488 123.605C137.181 122.79 136.555 122.055 136.244 121.136C135.933 120.208 136.079 119.21 136.011 118.228C135.979 117.735 135.878 117.238 135.64 116.782C135.412 116.323 135.091 115.888 134.84 115.399C134.332 114.417 134.245 113.306 134.108 112.215C134.04 111.668 133.971 111.112 133.902 110.552C133.834 109.988 133.779 109.428 133.587 108.885C133.413 108.338 133.157 107.811 132.905 107.273C132.782 107.001 132.654 106.729 132.576 106.433C132.521 106.128 132.503 105.839 132.485 105.539C132.453 104.941 132.48 104.335 132.562 103.738C132.64 103.136 132.759 102.543 132.828 101.937L132.841 101.832L132.855 101.711L132.974 101.766C133.582 102.046 134.108 102.459 134.511 102.948C134.918 103.433 135.215 103.98 135.453 104.536C135.928 105.656 136.102 106.825 136.34 107.945C136.573 109.065 136.884 110.164 137.511 111.096C137.822 111.559 138.201 111.981 138.53 112.437C138.86 112.888 139.152 113.381 139.239 113.92C139.408 115.023 138.745 115.988 138.883 116.966C138.933 117.451 139.143 117.902 139.404 118.316C139.665 118.733 139.966 119.118 140.255 119.506C140.543 119.895 140.817 120.288 141.018 120.71C141.224 121.127 141.338 121.579 141.37 122.013C141.439 122.891 141.302 123.726 141.37 124.512C141.43 125.301 141.732 126.012 142.075 126.651C142.418 127.29 142.802 127.871 143.126 128.431C143.287 128.711 143.437 128.987 143.556 129.262C143.684 129.538 143.748 129.818 143.808 130.086C143.899 130.625 143.89 131.13 143.831 131.573C143.707 132.467 143.341 133.106 143.017 133.47C142.944 133.566 142.857 133.633 142.788 133.7C142.719 133.767 142.655 133.808 142.601 133.846C142.495 133.917 142.436 133.95 142.436 133.95C142.422 133.938 142.669 133.817 142.989 133.453C143.305 133.09 143.652 132.45 143.762 131.569C143.822 131.13 143.822 130.633 143.726 130.102C143.666 129.839 143.602 129.563 143.474 129.3C143.351 129.033 143.204 128.757 143.04 128.481C142.715 127.925 142.326 127.349 141.974 126.701C141.626 126.058 141.311 125.331 141.247 124.524C141.174 123.722 141.306 122.886 141.233 122.026C141.201 121.595 141.091 121.169 140.89 120.764C140.694 120.359 140.424 119.97 140.136 119.586C139.847 119.201 139.541 118.813 139.271 118.387C139.006 117.965 138.782 117.492 138.727 116.978C138.59 115.938 139.248 114.965 139.079 113.941C138.997 113.435 138.722 112.963 138.398 112.52C138.073 112.077 137.694 111.651 137.369 111.175C136.719 110.218 136.408 109.098 136.171 107.974C135.928 106.851 135.755 105.689 135.288 104.594C135.055 104.051 134.767 103.516 134.369 103.048C133.98 102.576 133.482 102.179 132.901 101.912L133.033 101.845L133.02 101.949C132.947 102.559 132.828 103.157 132.755 103.75C132.672 104.344 132.649 104.937 132.677 105.526C132.695 105.814 132.713 106.119 132.764 106.395C132.832 106.671 132.96 106.938 133.084 107.206C133.335 107.74 133.591 108.279 133.77 108.835C133.966 109.391 134.026 109.972 134.09 110.527C134.158 111.087 134.227 111.643 134.291 112.194C134.428 113.289 134.515 114.384 135.005 115.328C135.247 115.8 135.562 116.235 135.8 116.711C136.047 117.187 136.152 117.71 136.184 118.211C136.248 119.218 136.102 120.2 136.399 121.09C136.697 121.976 137.319 122.715 137.63 123.555C137.968 124.403 137.826 125.285 137.689 126.062C137.552 126.847 137.415 127.608 137.597 128.301C137.762 128.999 138.306 129.509 138.649 130.06C138.828 130.336 138.956 130.633 139.001 130.93C139.052 131.226 139.047 131.51 139.061 131.782C139.075 132.049 139.093 132.313 139.184 132.538C139.276 132.764 139.45 132.939 139.628 133.085C139.998 133.365 140.396 133.541 140.744 133.662C141.096 133.783 141.407 133.85 141.658 133.888C141.91 133.929 142.107 133.934 142.239 133.938C142.372 133.934 142.44 133.938 142.44 133.938L142.431 133.95Z" fill="#5A8FD3"/>
<path d="M133.422 103.27C133.422 103.27 133.436 103.295 133.45 103.349C133.468 103.412 133.486 103.487 133.514 103.583C133.569 103.788 133.637 104.097 133.742 104.486C133.852 104.87 134.113 105.309 134.332 105.848C134.561 106.382 134.794 107.001 135.009 107.694C135.229 108.388 135.421 109.161 135.622 109.988C135.828 110.811 136.038 111.697 136.537 112.533C136.77 112.955 137.035 113.385 137.241 113.853C137.456 114.321 137.57 114.835 137.652 115.349C137.79 116.381 137.995 117.43 138.265 118.499C138.837 120.634 139.381 122.665 139.875 124.516C140.383 126.358 140.84 128.021 141.224 129.425C141.599 130.812 141.905 131.941 142.12 132.739C142.221 133.119 142.299 133.424 142.354 133.641L142.409 133.875C142.422 133.929 142.427 133.954 142.422 133.959C142.422 133.959 142.409 133.934 142.39 133.879L142.317 133.649C142.253 133.432 142.162 133.131 142.047 132.755C141.819 131.961 141.494 130.837 141.096 129.455C140.698 128.055 140.227 126.396 139.706 124.553C139.207 122.703 138.654 120.668 138.078 118.533C137.808 117.463 137.598 116.398 137.465 115.37C137.387 114.86 137.277 114.367 137.072 113.912C136.87 113.456 136.61 113.03 136.377 112.6C135.873 111.751 135.668 110.836 135.466 110.017C135.27 109.19 135.087 108.421 134.877 107.728C134.671 107.034 134.447 106.416 134.227 105.881C134.017 105.346 133.765 104.903 133.66 104.506C133.559 104.109 133.509 103.804 133.463 103.596C133.445 103.499 133.431 103.42 133.418 103.357C133.409 103.303 133.404 103.274 133.409 103.274L133.422 103.27Z" fill="#5A8FD3"/>
<mask id="path-31-inside-2_2490_116824" fill="white">
<path d="M141.929 133.959C140.067 132.948 139.532 129.877 140.31 128.03C141.087 126.184 142.445 124.496 142.656 122.528C142.816 121.015 142.276 119.461 142.656 117.982C143.177 115.985 145.313 114.439 145.285 112.383C145.272 111.23 144.554 110.148 144.613 108.999C144.682 107.586 145.871 106.467 146.602 105.226C147.727 103.32 147.8 101.073 148.185 98.9375C148.569 96.8025 149.461 94.517 151.528 93.4683C151.834 95.2816 152.355 96.5225 152.191 98.9751C152.131 99.8567 151.011 101.545 150.86 103.475C150.768 104.628 150.704 105.786 150.627 106.943C150.554 108.067 150.471 109.212 150.032 110.265C149.694 111.071 149.15 111.802 148.898 112.634C148.427 114.201 149.044 115.897 148.665 117.48C148.34 118.826 147.325 119.979 147.114 121.345C146.822 123.259 148.18 125.248 147.485 127.078C147.142 127.984 146.323 128.711 146.095 129.647C145.916 130.374 146.113 131.143 145.948 131.87C145.688 133.044 143.232 133.959 141.924 133.884"/>
</mask>
<path d="M141.929 133.959C140.067 132.948 139.532 129.877 140.31 128.03C141.087 126.184 142.445 124.496 142.656 122.528C142.816 121.015 142.276 119.461 142.656 117.982C143.177 115.985 145.313 114.439 145.285 112.383C145.272 111.23 144.554 110.148 144.613 108.999C144.682 107.586 145.871 106.467 146.602 105.226C147.727 103.32 147.8 101.073 148.185 98.9375C148.569 96.8025 149.461 94.517 151.528 93.4683C151.834 95.2816 152.355 96.5225 152.191 98.9751C152.131 99.8567 151.011 101.545 150.86 103.475C150.768 104.628 150.704 105.786 150.627 106.943C150.554 108.067 150.471 109.212 150.032 110.265C149.694 111.071 149.15 111.802 148.898 112.634C148.427 114.201 149.044 115.897 148.665 117.48C148.34 118.826 147.325 119.979 147.114 121.345C146.822 123.259 148.18 125.248 147.485 127.078C147.142 127.984 146.323 128.711 146.095 129.647C145.916 130.374 146.113 131.143 145.948 131.87C145.688 133.044 143.232 133.959 141.924 133.884" fill="#DEC73F"/>
<path d="M142.656 122.528L142.954 122.56L142.954 122.559L142.656 122.528ZM142.656 117.982L142.365 117.906L142.365 117.907L142.656 117.982ZM145.285 112.383L144.985 112.387L144.985 112.387L145.285 112.383ZM144.613 108.999L144.913 109.014L144.913 109.013L144.613 108.999ZM146.602 105.226L146.344 105.073L146.344 105.073L146.602 105.226ZM151.528 93.4683L151.823 93.4183L151.755 93.0162L151.392 93.2007L151.528 93.4683ZM152.191 98.9751L152.49 98.9953L152.49 98.9952L152.191 98.9751ZM150.86 103.475L151.159 103.499L151.159 103.498L150.86 103.475ZM150.627 106.943L150.327 106.923L150.327 106.924L150.627 106.943ZM150.032 110.265L150.309 110.381L150.309 110.38L150.032 110.265ZM148.898 112.634L148.611 112.547L148.611 112.547L148.898 112.634ZM148.665 117.48L148.956 117.551L148.957 117.55L148.665 117.48ZM147.114 121.345L146.818 121.3L146.818 121.3L147.114 121.345ZM147.485 127.078L147.204 126.971L147.204 126.972L147.485 127.078ZM146.095 129.647L146.386 129.719L146.386 129.719L146.095 129.647ZM145.948 131.87L145.656 131.804L145.655 131.805L145.948 131.87ZM142.072 133.696C141.242 133.245 140.679 132.315 140.421 131.238C140.164 130.163 140.227 129.001 140.586 128.147L140.033 127.914C139.615 128.907 139.557 130.203 139.838 131.378C140.119 132.551 140.753 133.662 141.785 134.223L142.072 133.696ZM140.586 128.147C140.969 127.237 141.486 126.387 141.962 125.462C142.429 124.555 142.843 123.6 142.954 122.56L142.357 122.496C142.258 123.423 141.887 124.297 141.429 125.187C140.979 126.06 140.427 126.978 140.033 127.914L140.586 128.147ZM142.954 122.559C143.038 121.766 142.938 120.962 142.872 120.216C142.805 119.455 142.77 118.742 142.946 118.056L142.365 117.907C142.161 118.701 142.207 119.505 142.275 120.269C142.343 121.048 142.433 121.777 142.357 122.496L142.954 122.559ZM142.946 118.058C143.19 117.121 143.814 116.289 144.426 115.371C145.02 114.48 145.6 113.51 145.585 112.379L144.985 112.387C144.998 113.312 144.524 114.142 143.927 115.038C143.348 115.906 142.642 116.845 142.365 117.906L142.946 118.058ZM145.585 112.379C145.578 111.75 145.378 111.146 145.208 110.6C145.033 110.036 144.886 109.528 144.913 109.014L144.313 108.983C144.28 109.619 144.463 110.226 144.635 110.778C144.813 111.349 144.979 111.863 144.985 112.387L145.585 112.379ZM144.913 109.013C144.943 108.387 145.222 107.809 145.611 107.211C145.805 106.913 146.018 106.62 146.237 106.315C146.452 106.013 146.671 105.701 146.861 105.378L146.344 105.073C146.168 105.371 145.963 105.665 145.748 105.966C145.536 106.264 145.311 106.572 145.107 106.885C144.701 107.51 144.352 108.198 144.313 108.984L144.913 109.013ZM146.861 105.378C147.448 104.384 147.756 103.308 147.966 102.225C148.071 101.684 148.152 101.136 148.23 100.596C148.309 100.053 148.385 99.5183 148.48 98.9907L147.889 98.8844C147.792 99.4243 147.715 99.971 147.637 100.51C147.558 101.051 147.479 101.585 147.377 102.111C147.173 103.162 146.882 104.162 146.344 105.073L146.861 105.378ZM148.48 98.9907C148.86 96.8782 149.728 94.7178 151.663 93.7358L151.392 93.2007C149.193 94.3162 148.278 96.7267 147.889 98.8844L148.48 98.9907ZM151.232 93.5182C151.547 95.3831 152.053 96.5494 151.891 98.955L152.49 98.9952C152.658 96.4957 152.121 95.1801 151.823 93.4183L151.232 93.5182ZM151.891 98.955C151.88 99.1286 151.813 99.3643 151.698 99.6745C151.583 99.9836 151.438 100.324 151.281 100.721C150.972 101.5 150.64 102.439 150.561 103.452L151.159 103.498C151.231 102.58 151.534 101.711 151.839 100.942C151.987 100.566 152.143 100.199 152.26 99.883C152.377 99.5684 152.472 99.2624 152.49 98.9953L151.891 98.955ZM150.561 103.451C150.469 104.607 150.405 105.771 150.327 106.923L150.926 106.963C151.004 105.801 151.068 104.65 151.159 103.499L150.561 103.451ZM150.327 106.924C150.254 108.054 150.172 109.149 149.755 110.149L150.309 110.38C150.77 109.274 150.853 108.08 150.926 106.962L150.327 106.924ZM149.756 110.149C149.594 110.534 149.384 110.9 149.169 111.297C148.958 111.686 148.746 112.1 148.611 112.547L149.185 112.721C149.301 112.336 149.487 111.969 149.696 111.583C149.901 111.205 150.132 110.802 150.309 110.381L149.756 110.149ZM148.611 112.547C148.358 113.389 148.4 114.256 148.448 115.068C148.496 115.899 148.55 116.671 148.373 117.411L148.957 117.55C149.159 116.707 149.094 115.839 149.047 115.033C148.998 114.21 148.967 113.445 149.185 112.72L148.611 112.547ZM148.373 117.41C148.221 118.041 147.906 118.63 147.58 119.268C147.26 119.893 146.931 120.563 146.818 121.3L147.411 121.391C147.508 120.762 147.792 120.172 148.114 119.542C148.429 118.926 148.784 118.266 148.956 117.551L148.373 117.41ZM146.818 121.3C146.661 122.326 146.948 123.37 147.158 124.308C147.375 125.277 147.517 126.149 147.204 126.971L147.765 127.184C148.148 126.176 147.959 125.139 147.743 124.177C147.521 123.186 147.275 122.278 147.411 121.391L146.818 121.3ZM147.204 126.972C147.048 127.385 146.782 127.76 146.498 128.185C146.223 128.595 145.932 129.051 145.803 129.576L146.386 129.719C146.486 129.308 146.719 128.932 146.996 128.519C147.264 128.12 147.579 127.677 147.766 127.184L147.204 126.972ZM145.803 129.576C145.703 129.983 145.71 130.395 145.716 130.764C145.723 131.146 145.729 131.482 145.656 131.804L146.241 131.936C146.333 131.531 146.322 131.12 146.316 130.754C146.31 130.374 146.308 130.039 146.386 129.719L145.803 129.576ZM145.655 131.805C145.61 132.011 145.459 132.236 145.197 132.464C144.938 132.69 144.592 132.897 144.205 133.072C143.425 133.425 142.533 133.619 141.941 133.585L141.907 134.184C142.623 134.225 143.613 133.998 144.452 133.619C144.875 133.428 145.275 133.191 145.59 132.917C145.903 132.646 146.157 132.316 146.241 131.935L145.655 131.805Z" fill="#5C5C5C" mask="url(#path-31-inside-2_2490_116824)"/>
<defs>
<filter id="filter0_d_2490_116824" x="83.8125" y="78.6807" width="47.8787" height="49.3622" filterUnits="userSpaceOnUse" color-interpolation-filters="sRGB">
<feFlood flood-opacity="0" result="BackgroundImageFix"/>
<feColorMatrix in="SourceAlpha" type="matrix" values="0 0 0 0 0 0 0 0 0 0 0 0 0 0 0 0 0 0 127 0" result="hardAlpha"/>
<feOffset dy="6.86133"/>
<feGaussianBlur stdDeviation="3.43067"/>
<feComposite in2="hardAlpha" operator="out"/>
<feColorMatrix type="matrix" values="0 0 0 0 0 0 0 0 0 0 0 0 0 0 0 0 0 0 0.2 0"/>
<feBlend mode="normal" in2="BackgroundImageFix" result="effect1_dropShadow_2490_116824"/>
<feBlend mode="normal" in="SourceGraphic" in2="effect1_dropShadow_2490_116824" result="shape"/>
</filter>
</defs>
</svg>
