<svg width="212" height="174" viewBox="0 0 212 174" fill="none" xmlns="http://www.w3.org/2000/svg">
<g clip-path="url(#clip0_2061_29149)">
<path opacity="0.9" d="M9.95042 35.5593C15.858 2.75883 65.6405 -6.17922 89.9516 9.26503C114.263 24.7093 123.867 36.2057 138.773 24.0185C153.68 11.8314 175.848 8.0763 183.58 32.0594C191.312 56.0425 179.194 90.0921 149.936 107.044C120.678 123.996 128.756 154.083 85.3983 159.194C61.759 161.978 54.6651 137.566 52.4371 116.399C50.2091 95.2321 3.12161 73.6275 9.95042 35.5593Z" fill="#74A4D1" fill-opacity="0.08"/>
<path d="M157.728 173.618C164.494 173.618 169.979 168.134 169.979 161.368C169.979 154.602 164.494 149.117 157.728 149.117C150.962 149.117 145.478 154.602 145.478 161.368C145.478 168.134 150.962 173.618 157.728 173.618Z" fill="#1E62A1" fill-opacity="0.3"/>
<path d="M204.688 104.709C208.353 104.709 211.324 101.738 211.324 98.0732C211.324 94.4084 208.353 91.4375 204.688 91.4375C201.024 91.4375 198.053 94.4084 198.053 98.0732C198.053 101.738 201.024 104.709 204.688 104.709Z" fill="#1E62A1" fill-opacity="0.3"/>
<path d="M30.8766 19.3807C34.4005 19.3807 37.2571 16.524 37.2571 13.0002C37.2571 9.47629 34.4005 6.61963 30.8766 6.61963C27.3527 6.61963 24.4961 9.47629 24.4961 13.0002C24.4961 16.524 27.3527 19.3807 30.8766 19.3807Z" fill="#1E62A1" fill-opacity="0.3"/>
<path d="M13.0177 136.356C16.5416 136.356 19.3983 133.5 19.3983 129.976C19.3983 126.452 16.5416 123.595 13.0177 123.595C9.49386 123.595 6.63721 126.452 6.63721 129.976C6.63721 133.5 9.49386 136.356 13.0177 136.356Z" fill="#1E62A1" fill-opacity="0.3"/>
<path d="M53.8623 43.8694V109.848L121.388 70.8592V10.8823L71.1764 39.8712L69.4458 34.8714L53.8623 43.8694Z" fill="#DCE2EB"/>
<path opacity="0.5" d="M53.8623 43.8694V109.848L121.388 70.8592V10.8823L71.1764 39.8712L69.4458 34.8714L53.8623 43.8694Z" fill="#718BA9"/>
<path d="M53.8623 109.848L57.3234 49.8666L124.849 10.8823L121.388 70.8592L53.8623 109.848Z" fill="#FAFAFA"/>
<path d="M53.8623 109.848L59.054 50.8685L126.58 11.8799L121.388 70.8593L53.8623 109.848Z" fill="#DCE2EB"/>
<path opacity="0.5" d="M53.8623 109.848L59.054 50.8685L126.58 11.8799L121.388 70.8593L53.8623 109.848Z" fill="#718BA9"/>
<path d="M110.984 130.84C98.8612 123.841 87.6168 116.233 82.4849 107.307L98.0854 98.3008L110.984 130.84Z" fill="#E0E0E0"/>
<path d="M65.9805 50.8684V116.843L133.506 77.8582V17.8813L83.2945 46.8702L81.564 41.8704L65.9805 50.8684Z" fill="#DCE2EB"/>
<path opacity="0.2" d="M65.9805 50.8684V116.843L133.506 77.8582V17.8813L83.2945 46.8702L81.564 41.8704L65.9805 50.8684Z" fill="#9DB4C1"/>
<path d="M65.9805 116.842L78.0986 63.8646L145.624 24.876L133.506 77.8582L65.9805 116.842Z" fill="#DCE2EB"/>
<path d="M82.502 68.0118V107.307L98.0854 98.3093V59.0181L82.502 68.0118Z" fill="#DCE2EB"/>
<path opacity="0.2" d="M82.502 68.0118V107.307L98.0854 98.3093V59.0181L82.502 68.0118Z" fill="black"/>
<path d="M111.013 130.585C109.688 129.596 96.9089 119.83 90.413 105.862C83.4993 91.0121 83.5078 73.6895 83.5078 67.1723V66.9677L129.832 40.2251C129.832 46.802 129.832 64.1502 136.776 79.0517C143.122 92.6915 155.411 102.333 157.359 103.808L111.013 130.585Z" fill="white"/>
<path d="M129.619 40.6087C129.619 47.4627 129.751 64.4784 136.584 79.1583C142.717 92.3292 154.379 101.8 156.975 103.799L111.026 130.329C109.232 128.978 96.9344 119.374 90.6089 105.79C83.7037 90.9823 83.7037 73.6938 83.7037 67.1851V67.1041L129.602 40.6045M130.028 39.8671L83.2775 66.8611C83.2775 72.9948 83.1496 90.8161 90.204 105.969C97.1475 120.841 110.983 130.84 110.983 130.84L157.747 103.842C157.747 103.842 143.894 93.8424 136.972 78.9707C129.913 63.8177 130.045 45.9965 130.045 39.8628L130.028 39.8671Z" fill="#DCE2EB"/>
<path opacity="0.7" d="M129.619 40.6087C129.619 47.4627 129.751 64.4784 136.584 79.1583C142.717 92.3292 154.379 101.8 156.975 103.799L111.026 130.329C109.232 128.978 96.9344 119.374 90.6089 105.79C83.7037 90.9823 83.7037 73.6938 83.7037 67.1851V67.1041L129.602 40.6045M130.028 39.8671L83.2775 66.8611C83.2775 72.9948 83.1496 90.8161 90.204 105.969C97.1475 120.841 110.983 130.84 110.983 130.84L157.747 103.842C157.747 103.842 143.894 93.8424 136.972 78.9707C129.913 63.8177 130.045 45.9965 130.045 39.8628L130.028 39.8671Z" fill="white"/>
<path d="M124.755 48.9204L109.973 57.4453C109.677 57.6082 109.425 57.8401 109.238 58.1214C109.051 58.4026 108.935 58.7249 108.899 59.0608C108.92 59.6021 109.436 59.7555 110.046 59.4018L124.832 50.8769C125.124 50.7155 125.374 50.4867 125.56 50.2094C125.746 49.9321 125.863 49.6144 125.902 49.2827C125.876 48.7201 125.369 48.5666 124.755 48.9204Z" fill="#ACB7D6"/>
<path d="M125.071 54.7387L110.289 63.2636C109.996 63.4209 109.749 63.6495 109.568 63.9282C109.388 64.2069 109.281 64.5266 109.257 64.8578C109.304 65.3821 109.841 65.5227 110.451 65.1689L125.237 56.644C125.528 56.4875 125.774 56.2593 125.953 55.9811C126.131 55.7029 126.235 55.3839 126.256 55.0541C126.213 54.5256 125.685 54.3977 125.071 54.7387Z" fill="#ACB7D6"/>
<path d="M125.664 60.3948L110.877 68.9197C110.268 69.2735 109.824 69.9768 109.897 70.484C109.969 70.9912 110.528 71.1234 111.142 70.7696L125.928 62.2447C126.537 61.8909 126.972 61.1919 126.896 60.6846C126.819 60.1774 126.273 60.041 125.664 60.3948Z" fill="#ACB7D6"/>
<path d="M126.55 65.8806L111.763 74.4055C111.154 74.7593 110.732 75.4498 110.834 75.9442C110.936 76.4387 111.516 76.5495 112.113 76.1957L126.895 67.6708C127.509 67.317 127.918 66.6308 127.816 66.1363C127.713 65.6419 127.181 65.5268 126.55 65.8806Z" fill="#ACB7D6"/>
<path d="M127.752 71.183L112.966 79.7079C112.356 80.0616 111.96 80.7351 112.113 81.2082C112.267 81.6814 112.851 81.7879 113.46 81.4342L128.247 72.9093C128.86 72.5555 129.244 71.8863 129.099 71.4089C128.954 70.9315 128.362 70.8292 127.752 71.183Z" fill="#ACB7D6"/>
<path d="M129.312 76.2935L93.2772 97.0985C92.6677 97.4523 92.2969 98.1087 92.4631 98.5648C92.6293 99.0209 93.2644 99.1061 93.874 98.7523L129.909 77.9474C130.522 77.5936 130.876 76.9414 130.71 76.4811C130.544 76.0207 129.9 75.9397 129.312 76.2935Z" fill="#ACB7D6"/>
<path d="M131.209 81.1746L95.1784 101.98C94.5646 102.333 94.2279 102.973 94.4325 103.408C94.6371 103.842 95.285 103.911 95.9073 103.557L131.942 82.7517C132.556 82.398 132.884 81.7586 132.679 81.3238C132.475 80.8891 131.823 80.8251 131.209 81.1746Z" fill="#ACB7D6"/>
<path d="M133.574 85.8249L97.5396 106.63C96.9258 106.984 96.6232 107.606 96.8662 108.019C97.1091 108.433 97.8039 108.475 98.4177 108.122L134.427 87.3167C135.036 86.9672 135.33 86.3491 135.087 85.9357C134.845 85.5222 134.171 85.4711 133.574 85.8249Z" fill="#ACB7D6"/>
<path d="M136.332 90.2234L100.302 111.024C99.688 111.378 99.4152 111.987 99.6923 112.375C99.9694 112.763 100.698 112.802 101.312 112.444L137.342 91.6385C137.956 91.2847 138.221 90.6837 137.943 90.2916C137.666 89.8994 136.946 89.8696 136.332 90.2234Z" fill="#ACB7D6"/>
<path d="M139.478 94.4051L103.443 115.206C102.833 115.56 102.591 116.152 102.897 116.523C103.204 116.894 103.959 116.911 104.573 116.557L140.607 95.7435C141.217 95.3897 141.46 94.8057 141.144 94.4349C140.829 94.0641 140.091 94.0385 139.478 94.4051Z" fill="#ACB7D6"/>
<path d="M142.952 98.386L106.93 119.187C106.316 119.541 106.077 120.12 106.435 120.465C106.793 120.811 107.552 120.819 108.162 120.465L144.196 99.6605C144.81 99.3067 145.023 98.7355 144.682 98.3817C144.341 98.028 143.574 98.0365 142.952 98.386Z" fill="#ACB7D6"/>
<path d="M146.788 102.192L110.753 122.993C110.144 123.347 109.943 123.914 110.327 124.251C110.711 124.587 111.495 124.575 112.109 124.221L148.114 103.416C148.723 103.062 148.915 102.508 148.54 102.167C148.165 101.826 147.385 101.839 146.788 102.192Z" fill="#ACB7D6"/>
<path d="M104.615 60.5527L87.6167 70.3564C87.8042 76.5156 88.5076 85.3985 91.0821 94.3454L108.085 84.5418C105.506 75.5949 104.803 66.7077 104.615 60.5527Z" fill="#DCE2EB"/>
<path opacity="0.8" d="M104.615 60.5527L87.6167 70.3564C87.8042 76.5156 88.5076 85.3985 91.0821 94.3454L108.085 84.5418C105.506 75.5949 104.803 66.7077 104.615 60.5527Z" fill="white"/>
<path d="M94.5474 69.001C94.5704 68.6035 94.5085 68.2055 94.3659 67.8337C94.2234 67.4619 94.0034 67.1246 93.7205 66.8442L87.6167 70.365C87.6678 71.9933 87.7531 73.8133 87.9023 75.7741C88.6963 75.8654 89.4994 75.7169 90.2083 75.3478C92.608 74.2481 94.5474 71.3965 94.5474 69.001Z" fill="#DCE2EB"/>
<path opacity="0.6" d="M94.5474 69.001C94.5704 68.6035 94.5085 68.2055 94.3659 67.8337C94.2234 67.4619 94.0034 67.1246 93.7205 66.8442L87.6167 70.365C87.6678 71.9933 87.7531 73.8133 87.9023 75.7741C88.6963 75.8654 89.4994 75.7169 90.2083 75.3478C92.608 74.2481 94.5474 71.3965 94.5474 69.001Z" fill="white"/>
<path d="M106.64 78.6593C105.506 77.2314 103.2 72.8197 102.216 70.8974C102.177 70.8214 102.116 70.7588 102.042 70.7176C101.967 70.6764 101.882 70.6585 101.797 70.6663C101.712 70.6741 101.631 70.7072 101.565 70.7613C101.499 70.8154 101.451 70.8881 101.427 70.9698C100.362 74.611 99.7434 78.3682 99.5856 82.1588C98.166 81.0318 96.9456 79.6745 95.9753 78.1435C95.9339 78.0842 95.8765 78.038 95.8097 78.0102C95.7429 77.9825 95.6696 77.9744 95.5983 77.9869C95.5271 77.9995 95.461 78.0321 95.4077 78.081C95.3544 78.1299 95.3162 78.193 95.2976 78.2629C93.4391 85.4195 94.3726 92.4611 94.3726 92.4611L108.085 84.5415C107.514 82.5637 107.041 80.5944 106.64 78.6593Z" fill="#DCE2EB"/>
<path opacity="0.6" d="M106.64 78.6593C105.506 77.2314 103.2 72.8197 102.216 70.8974C102.177 70.8214 102.116 70.7588 102.042 70.7176C101.967 70.6764 101.882 70.6585 101.797 70.6663C101.712 70.6741 101.631 70.7072 101.565 70.7613C101.499 70.8154 101.451 70.8881 101.427 70.9698C100.362 74.611 99.7434 78.3682 99.5856 82.1588C98.166 81.0318 96.9456 79.6745 95.9753 78.1435C95.9339 78.0842 95.8765 78.038 95.8097 78.0102C95.7429 77.9825 95.6696 77.9744 95.5983 77.9869C95.5271 77.9995 95.461 78.0321 95.4077 78.081C95.3544 78.1299 95.3162 78.193 95.2976 78.2629C93.4391 85.4195 94.3726 92.4611 94.3726 92.4611L108.085 84.5415C107.514 82.5637 107.041 80.5944 106.64 78.6593Z" fill="white"/>
<g filter="url(#filter0_d_2061_29149)">
<path d="M104.504 105.907H107.302C107.422 105.933 107.541 105.976 107.662 105.984C111.397 106.252 114.891 107.337 118.078 109.321C124.264 113.171 128.071 118.721 129.406 125.982C129.573 126.891 129.656 127.816 129.778 128.733V131.574C129.74 131.915 129.702 132.255 129.664 132.596C129.092 137.814 127.13 142.417 123.667 146.319C119.99 150.462 115.434 153.049 110.015 154.023C109.117 154.185 108.206 154.276 107.301 154.4H104.503C104.383 154.374 104.264 154.331 104.143 154.323C100.408 154.055 96.9141 152.97 93.7263 150.986C87.542 147.137 83.735 141.588 82.3995 134.326C82.2316 133.418 82.1495 132.493 82.0273 131.575V128.734C82.0656 128.393 82.1048 128.053 82.1421 127.712C82.7138 122.494 84.676 117.891 88.1389 113.989C91.8144 109.845 96.3703 107.258 101.79 106.284C102.688 106.122 103.598 106.031 104.504 105.907Z" fill="#B51E1E"/>
<path d="M104.504 104.48H107.302C107.422 104.507 107.541 104.549 107.662 104.557C111.397 104.821 114.891 105.89 118.078 107.845C124.264 111.637 128.071 117.106 129.406 124.26C129.573 125.155 129.656 126.067 129.778 126.97V129.77C129.74 130.106 129.702 130.441 129.664 130.777C129.092 135.918 127.13 140.452 123.667 144.297C119.99 148.379 115.434 150.927 110.015 151.888C109.117 152.047 108.206 152.137 107.301 152.259H104.503C104.383 152.233 104.264 152.191 104.143 152.183C100.408 151.919 96.9141 150.85 93.7263 148.895C87.542 145.103 83.735 139.636 82.3995 132.481C82.2316 131.586 82.1495 130.675 82.0273 129.771V126.971C82.0656 126.635 82.1048 126.3 82.1421 125.964C82.7138 120.823 84.676 116.288 88.1389 112.444C91.8144 108.361 96.3703 105.812 101.79 104.852C102.688 104.692 103.598 104.603 104.504 104.48Z" fill="#D14343"/>
<path fill-rule="evenodd" clip-rule="evenodd" d="M94.7099 115.574C93.7965 115.794 93.008 116.581 92.7975 117.48C92.6463 118.126 92.7597 118.878 93.0921 119.433C93.1642 119.553 95.3443 121.761 97.937 124.339L102.651 129.027L97.8695 133.796C92.7217 138.931 92.8649 138.773 92.6663 139.532C92.5062 140.143 92.5922 140.782 92.9157 141.386C93.4251 142.338 94.6158 142.799 95.8751 142.533C96.6256 142.375 96.4301 142.55 101.549 137.462C104.155 134.871 106.311 132.752 106.34 132.752C106.369 132.752 108.525 134.871 111.131 137.461C115.525 141.827 115.895 142.181 116.22 142.332C117.333 142.848 118.681 142.638 119.451 141.827C120.176 141.065 120.343 139.9 119.87 138.917C119.713 138.592 119.338 138.206 114.878 133.787L110.055 129.01L114.746 124.331C117.668 121.416 119.489 119.561 119.574 119.41C119.813 118.99 119.896 118.598 119.868 118.023C119.839 117.407 119.71 117.033 119.371 116.584C118.709 115.708 117.508 115.339 116.462 115.691C115.866 115.892 115.594 116.143 110.919 120.798L106.346 125.352L101.632 120.68C96.5707 115.664 96.694 115.775 95.9466 115.581C95.5753 115.485 95.0886 115.482 94.7099 115.574Z" fill="white"/>
</g>
</g>
<defs>
<filter id="filter0_d_2061_29149" x="75.166" y="104.48" width="61.4736" height="63.6426" filterUnits="userSpaceOnUse" color-interpolation-filters="sRGB">
<feFlood flood-opacity="0" result="BackgroundImageFix"/>
<feColorMatrix in="SourceAlpha" type="matrix" values="0 0 0 0 0 0 0 0 0 0 0 0 0 0 0 0 0 0 127 0" result="hardAlpha"/>
<feOffset dy="6.86133"/>
<feGaussianBlur stdDeviation="3.43067"/>
<feComposite in2="hardAlpha" operator="out"/>
<feColorMatrix type="matrix" values="0 0 0 0 0 0 0 0 0 0 0 0 0 0 0 0 0 0 0.2 0"/>
<feBlend mode="normal" in2="BackgroundImageFix" result="effect1_dropShadow_2061_29149"/>
<feBlend mode="normal" in="SourceGraphic" in2="effect1_dropShadow_2061_29149" result="shape"/>
</filter>
<clipPath id="clip0_2061_29149">
<rect width="211" height="173.765" fill="white" transform="translate(0.5)"/>
</clipPath>
</defs>
</svg>
