<svg width="162" height="137" viewBox="0 0 162 137" fill="none" xmlns="http://www.w3.org/2000/svg">
<path d="M81 0C36.2649 0 0 36.2543 0 80.9762C0 101.19 7.40902 119.675 19.6604 133.863H142.34C154.591 119.675 162 101.19 162 80.9762C162 36.2543 125.735 0 81 0Z" fill="#F1F1F1"/>
<path d="M131 110C131 111.105 109.286 112 82.5 112C55.7142 112 34 111.105 34 110C34 108.895 55.7142 108 82.5 108C109.286 108 131 108.895 131 110Z" fill="#DADADA"/>
<path d="M80.1669 21.439H93.0684C93.0684 21.439 96.0933 20.3651 95.7018 17.5194C95.3103 14.6736 90.7433 17.0451 90.7433 17.0451C90.7433 17.0451 92.1289 13.074 87.7042 14.2016C83.2819 15.3269 82.8502 19.2644 82.8502 19.2644C82.8502 19.2644 77.04 18.3091 80.1669 21.4412V21.439Z" fill="white"/>
<path d="M114.71 52.5238H128.908C128.908 52.5238 132.238 51.3635 131.807 48.2888C131.376 45.2141 126.349 47.7763 126.349 47.7763C126.349 47.7763 127.872 43.4864 123.004 44.7053C118.135 45.9205 117.661 50.1739 117.661 50.1739C117.661 50.1739 111.265 49.1416 114.706 52.5238H114.71Z" fill="white"/>
<path d="M28.4624 38.5322H53.0645C56.2164 38.5322 56.9759 34.4757 54.0003 33.5258C53.9623 33.5133 53.9243 33.5009 53.8864 33.4909C57.1793 30.9702 49.9533 25.6521 42.1088 33.0147C42.7192 30.5613 35.7454 31.4464 33.6134 34.7949C32.8566 32.5958 26.203 36.4155 28.4679 38.5347L28.4624 38.5322Z" fill="white"/>
<path d="M40.6486 107.166V106.163H121.423V107.166H40.6486Z" fill="#CDBB52" stroke="#5C5C5C" stroke-width="0.1"/>
<path d="M39.8195 108.269V107.266H122.251V108.269H39.8195Z" fill="#CDBB52" stroke="#5C5C5C" stroke-width="0.1"/>
<path d="M38.6823 109.371V108.368H123.39V109.371H38.6823Z" fill="#CDBB52" stroke="#5C5C5C" stroke-width="0.1"/>
<path d="M118.121 63.9526H42.4856V106.113H80.3033H118.121V63.9526Z" fill="#E5D050"/>
<path d="M76 92C76 89.7909 77.7909 88 80 88H81C83.2091 88 85 89.7909 85 92V106H76V92Z" fill="#CDBB52"/>
<path d="M106.023 68.2093V64.8344H113.723L114.875 67.4635L113.758 68.2093H106.023Z" fill="#A99B48" stroke="#5C5C5C" stroke-width="0.2"/>
<path d="M89.5932 67.9V64.1H97.4179L98.3808 67.4475L97.4697 67.9H89.5932Z" fill="#A99B48" stroke="#5C5C5C" stroke-width="0.2"/>
<path d="M91.5932 106.9V68.1H96.3932V106.9H91.5932Z" fill="#A99B48" stroke="#5C5C5C" stroke-width="0.2"/>
<path d="M107.819 106.348V68.2216H112.029V106.348H107.819Z" fill="#A99B48" stroke="#5C5C5C" stroke-width="0.2"/>
<path d="M45.5932 67.9V64.1H53.4066L53.8938 67.4643L53.4521 67.9H45.5932Z" fill="#A99B48" stroke="#5C5C5C" stroke-width="0.2"/>
<path d="M47.1 105.9V68.1H51.9V105.9H47.1Z" fill="#A99B48" stroke="#5C5C5C" stroke-width="0.2"/>
<path d="M90.8185 67.3296V64.8573H98.6186V67.3296H90.8185Z" fill="white" stroke="#5C5C5C" stroke-width="0.2"/>
<path d="M92.6139 106.013V67.5292H96.8239V106.013H92.6139Z" fill="white" stroke="#5C5C5C" stroke-width="0.2"/>
<path d="M81.4024 44.1112L122.83 64.6569H38.4409L81.4024 44.1112Z" fill="#CDBB52" stroke="#5C5C5C" stroke-width="0.2"/>
<path d="M50.9399 61.9869L110.314 61.8688L81.3725 47.6694L50.9399 61.9869Z" fill="#E5D050"/>
<path d="M62.5932 67.9V65.1H70.4256L71.3727 67.4516L70.4697 67.9H62.5932Z" fill="#A99B48" stroke="#5C5C5C" stroke-width="0.2"/>
<path d="M64.5932 105.9V67.6H68.3932V105.9H64.5932Z" fill="#A99B48" stroke="#5C5C5C" stroke-width="0.2"/>
<path d="M46.3556 67.3586V64.8573H54.1558V67.3586H46.3556Z" fill="white" stroke="#5C5C5C" stroke-width="0.2"/>
<path d="M48.151 105.9V67.5585H52.361V105.9H48.151Z" fill="white" stroke="#5C5C5C" stroke-width="0.2"/>
<path d="M63.5932 67.4V65.1H71.3932V67.4H63.5932Z" fill="white" stroke="#5C5C5C" stroke-width="0.2"/>
<path d="M65.4374 106.013V67.5292H69.6474V106.013H65.4374Z" fill="white" stroke="#5C5C5C" stroke-width="0.2"/>
<path d="M107.097 67.3586V64.8573H114.897V67.3586H107.097Z" fill="white" stroke="#5C5C5C" stroke-width="0.2"/>
<path d="M108.892 106.462V67.5585H113.102V106.462H108.892Z" fill="white" stroke="#5C5C5C" stroke-width="0.2"/>
<path d="M82.2958 57.3163C82.2978 57.1782 82.2791 57.0564 82.2397 56.9505C82.1997 56.8447 82.1339 56.7485 82.0417 56.6615C81.9495 56.5744 81.8295 56.4941 81.6824 56.4193C81.5354 56.345 81.3554 56.2714 81.1426 56.1996C80.7762 56.073 80.444 55.9409 80.146 55.8034C79.8474 55.6658 79.5932 55.5088 79.3817 55.3311C79.1701 55.154 79.0075 54.9477 78.8927 54.7122C78.7779 54.4767 78.7231 54.1979 78.7283 53.8754C78.7328 53.596 78.7889 53.3417 78.8979 53.1122C79.0063 52.8834 79.1598 52.685 79.3578 52.5164C79.5558 52.3478 79.7912 52.2121 80.0654 52.1087C80.3395 52.0058 80.6452 51.9413 80.9839 51.9164L81 50.8599L81.9011 50.872L81.8843 51.9431C82.2062 51.987 82.4977 52.0715 82.759 52.1969C83.0196 52.3223 83.2408 52.4836 83.422 52.6801C83.6027 52.8767 83.7413 53.1086 83.8368 53.3745C83.9323 53.6411 83.9774 53.9387 83.9722 54.2673L82.3449 54.2448C82.3507 53.8498 82.2623 53.5534 82.0798 53.355C81.8972 53.1566 81.6495 53.0556 81.338 53.0514C81.169 53.0489 81.0232 53.069 80.9007 53.1122C80.7781 53.1548 80.6769 53.2145 80.5969 53.2905C80.5169 53.3666 80.4569 53.4573 80.4182 53.562C80.3789 53.6666 80.3589 53.7798 80.3569 53.9016C80.355 54.0233 80.3724 54.1334 80.4079 54.2326C80.444 54.3318 80.5072 54.4243 80.5982 54.5095C80.6891 54.5947 80.8097 54.6751 80.9607 54.7511C81.1116 54.8272 81.2993 54.9063 81.5231 54.9885C81.885 55.1218 82.2146 55.2581 82.5113 55.3968C82.8073 55.5362 83.0615 55.695 83.2724 55.874C83.484 56.0529 83.6465 56.2604 83.7613 56.4953C83.8761 56.7308 83.931 57.0078 83.9258 57.3273C83.9213 57.6169 83.8639 57.8762 83.7536 58.105C83.6433 58.3338 83.4885 58.531 83.2911 58.696C83.0931 58.8609 82.8557 58.9929 82.5784 59.0909C82.301 59.1889 81.9927 59.251 81.6547 59.2759L81.6392 60.2582L80.7439 60.246L80.7588 59.2686C80.4472 59.2345 80.1473 59.1664 79.8577 59.0635C79.5681 58.9607 79.3126 58.8152 79.0901 58.626C78.8676 58.4373 78.6908 58.2 78.5606 57.9151C78.4296 57.6303 78.367 57.2907 78.3735 56.8958L80.0009 56.9183C79.997 57.152 80.0286 57.3473 80.0963 57.5044C80.1634 57.6614 80.2544 57.788 80.3692 57.8835C80.484 57.979 80.6156 58.0466 80.7633 58.0862C80.911 58.1263 81.0619 58.147 81.2154 58.1488C81.3922 58.1513 81.547 58.1318 81.6811 58.091C81.8153 58.0503 81.9275 57.9924 82.0191 57.9182C82.1101 57.8439 82.1791 57.7551 82.2262 57.6522C82.2726 57.5494 82.2971 57.4368 82.2991 57.3151L82.2958 57.3163Z" fill="white"/>
<path d="M52.3617 67.5292V68.8635C52.2859 68.7761 52.185 68.6751 52.0548 68.5733C51.6985 68.2951 51.127 68.0147 50.2598 67.9847L50.2598 67.9847C49.4552 67.957 48.8814 68.2399 48.5091 68.5314C48.3566 68.6508 48.238 68.7715 48.1511 68.8725L48.1516 67.5292H52.3617Z" fill="#A99B48" stroke="#5C5C5C" stroke-width="0.2"/>
<path d="M69.648 67.5292V68.8635C69.5723 68.7761 69.4714 68.6751 69.3411 68.5733C68.9849 68.2951 68.4133 68.0147 67.5462 67.9847L67.5462 67.9847C66.7416 67.957 66.1678 68.2399 65.7955 68.5314C65.643 68.6508 65.5244 68.7715 65.4375 68.8725L65.438 67.5292H69.648Z" fill="#A99B48" stroke="#5C5C5C" stroke-width="0.2"/>
<path d="M92.972 68.5314C92.8198 68.6506 92.7014 68.771 92.6146 68.8718V67.5292H96.8245V68.8635C96.7488 68.7761 96.6479 68.6751 96.5177 68.5733C96.1614 68.2951 95.5898 68.0147 94.7227 67.9847L94.7227 67.9847C93.9181 67.957 93.3443 68.2399 92.972 68.5314Z" fill="#A99B48" stroke="#5C5C5C" stroke-width="0.2"/>
<path d="M113.1 67.5292V68.8634C113.025 68.7759 112.924 68.675 112.794 68.5733C112.438 68.2951 111.866 68.0147 110.999 67.9847L110.999 67.9847C110.194 67.957 109.621 68.2399 109.248 68.5314C109.096 68.6509 108.977 68.7716 108.89 68.8726V67.5292H113.1Z" fill="#A99B48" stroke="#5C5C5C" stroke-width="0.2"/>
<path d="M118.256 64.7529H42.2556V65.2185H118.256V64.7529Z" fill="#A99B48"/>
<path d="M71.5441 64.7529H63.5439V65.2185H71.5441V64.7529Z" fill="#A99B48"/>
<path d="M90.8185 65.1185V64.8529H98.6186V65.1185H90.8185Z" fill="#A99B48" stroke="#5C5C5C" stroke-width="0.2"/>
<path d="M107.097 65.1185V64.8529H114.897V65.1185H107.097Z" fill="#A99B48" stroke="#5C5C5C" stroke-width="0.2"/>
<path d="M80.4587 48.0997L108.105 61.8737L110.315 61.8768L81.3734 47.6694L80.4587 48.0997Z" fill="black" fill-opacity="0.15"/>
<g filter="url(#filter0_d_2621_53790)">
<path d="M108.207 89H110.288C110.378 89.0187 110.466 89.0487 110.556 89.0547C113.335 89.2435 115.935 90.0073 118.307 91.4049C122.909 94.116 125.742 98.0252 126.735 103.139C126.86 103.779 126.921 104.431 127.012 105.077V107.078C126.984 107.318 126.955 107.557 126.927 107.798C126.501 111.473 125.041 114.714 122.465 117.463C119.729 120.38 116.339 122.202 112.307 122.889C111.639 123.003 110.961 123.067 110.288 123.154H108.206C108.116 123.136 108.028 123.106 107.938 123.1C105.159 122.911 102.559 122.147 100.187 120.749C95.5859 118.039 92.7533 114.13 91.7595 109.016C91.6346 108.376 91.5736 107.725 91.4827 107.078V105.077C91.5111 104.837 91.5403 104.598 91.568 104.357C91.9934 100.682 93.4534 97.4408 96.03 94.6924C98.7648 91.7738 102.155 89.952 106.187 89.2655C106.855 89.1514 107.533 89.0874 108.207 89Z" fill="#B51E1E"/>
<path d="M108.207 87.9961H110.289C110.378 88.0145 110.466 88.0441 110.556 88.05C113.336 88.236 115.935 88.9886 118.307 90.3655C122.909 93.0367 125.742 96.8883 126.736 101.927C126.86 102.557 126.922 103.199 127.012 103.836V105.807C126.984 106.044 126.956 106.28 126.927 106.517C126.502 110.137 125.042 113.331 122.465 116.039C119.73 118.914 116.34 120.709 112.307 121.385C111.639 121.498 110.962 121.561 110.288 121.647H108.206C108.117 121.628 108.028 121.599 107.938 121.593C105.159 121.407 102.56 120.654 100.188 119.277C95.5862 116.607 92.7535 112.756 91.7598 107.717C91.6349 107.086 91.5738 106.445 91.4829 105.808V103.836C91.5114 103.6 91.5405 103.364 91.5683 103.127C91.9936 99.5061 93.4537 96.3125 96.0303 93.6045C98.7651 90.729 102.155 88.934 106.187 88.2577C106.856 88.1453 107.533 88.0822 108.207 87.9961Z" fill="#D14343"/>
<path fill-rule="evenodd" clip-rule="evenodd" d="M100.919 95.8092C100.239 95.9648 99.6522 96.5185 99.4955 97.152C99.383 97.6071 99.4674 98.1365 99.7148 98.5274C99.7684 98.6121 101.391 100.167 103.32 101.983L106.827 105.284L103.269 108.643C99.4391 112.26 99.5457 112.149 99.3979 112.683C99.2789 113.114 99.3428 113.564 99.5835 113.989C99.9625 114.659 100.848 114.984 101.786 114.797C102.344 114.686 102.198 114.809 106.007 111.225C107.946 109.401 109.55 107.908 109.572 107.908C109.593 107.908 111.198 109.4 113.137 111.224C116.406 114.3 116.682 114.549 116.923 114.655C117.751 115.019 118.754 114.871 119.328 114.3C119.867 113.763 119.991 112.942 119.639 112.25C119.523 112.021 119.243 111.749 115.925 108.637L112.336 105.272L115.827 101.977C118.001 99.9241 119.356 98.6173 119.419 98.5115C119.596 98.2155 119.658 97.9394 119.638 97.5347C119.616 97.1005 119.52 96.8368 119.268 96.5207C118.775 95.9036 117.881 95.644 117.103 95.8921C116.66 96.0335 116.457 96.2103 112.979 99.4887L109.576 102.696L106.069 99.4058C102.303 95.8731 102.395 95.951 101.839 95.8146C101.562 95.7468 101.2 95.7446 100.919 95.8092Z" fill="white"/>
</g>
<path d="M18.9956 134.09C19.0445 134.147 19.1322 134.162 19.1966 134.121C24.6905 130.767 27.94 124.916 27.6771 118.853C27.6746 118.777 27.605 118.718 27.5199 118.72C27.4375 118.723 27.3731 118.787 27.3756 118.865C27.6333 124.833 24.4354 130.591 19.0291 133.891C18.9595 133.934 18.9415 134.019 18.9878 134.083C18.9878 134.086 18.993 134.088 18.9956 134.093V134.09Z" fill="#5A8FD3"/>
<path d="M21.4716 128.715L21.4715 128.715L21.4745 128.717C22.1748 129.168 22.24 129.971 22.1024 130.696C22.0341 131.056 21.9174 131.386 21.8131 131.626C21.761 131.745 21.7126 131.841 21.6757 131.905C21.66 131.932 21.6472 131.953 21.6377 131.966L21.6173 131.985C21.4744 132.12 21.3294 132.252 21.1814 132.382C21.1837 132.357 21.1853 132.331 21.1863 132.305C21.1928 132.14 21.175 131.944 21.1306 131.727C21.0419 131.293 20.8459 130.764 20.5158 130.194C20.3711 129.92 20.2812 129.629 20.2484 129.362C20.2153 129.093 20.2411 128.856 20.3185 128.688C20.3938 128.524 20.5155 128.427 20.6892 128.414C20.8717 128.4 21.1298 128.477 21.4716 128.715Z" fill="#5A8FD3" stroke="#5C5C5C" stroke-width="0.2"/>
<path d="M24.5282 131.422C24.9529 131.413 25.3533 131.488 25.6812 131.698L21.3618 132.552C21.5051 132.442 21.6469 132.33 21.7869 132.215C21.7969 132.213 21.8066 132.209 21.8148 132.207C21.8392 132.198 21.8717 132.184 21.9093 132.168C21.9422 132.154 21.981 132.137 22.0246 132.118C22.0318 132.114 22.0392 132.111 22.0466 132.108C22.0996 132.084 22.1594 132.058 22.2254 132.03C22.4896 131.916 22.8519 131.768 23.2559 131.647C23.6603 131.526 24.103 131.431 24.5282 131.422Z" fill="#5A8FD3" stroke="#5C5C5C" stroke-width="0.2"/>
<path d="M22.3046 128.197C22.1105 127.951 21.9673 127.679 21.8848 127.422C21.8016 127.163 21.7829 126.928 21.8271 126.753C21.8699 126.583 21.9696 126.471 22.1364 126.432C22.313 126.39 22.5815 126.427 22.9624 126.609L22.9636 126.606L22.9628 126.61C23.7366 126.948 23.9503 127.727 23.9516 128.456C23.9522 128.818 23.9 129.159 23.8431 129.409C23.8147 129.534 23.7854 129.635 23.7616 129.703C23.751 129.734 23.7421 129.756 23.7354 129.77L23.7219 129.788C23.6075 129.94 23.491 130.09 23.3723 130.239C23.3696 130.213 23.3662 130.187 23.362 130.16C23.3364 129.997 23.2815 129.809 23.1967 129.604C23.027 129.193 22.7348 128.706 22.3046 128.197Z" fill="#5A8FD3" stroke="#5C5C5C" stroke-width="0.2"/>
<path d="M23.6558 130.37C23.6291 130.372 23.603 130.375 23.5776 130.378C23.6962 130.25 23.813 130.119 23.928 129.987C23.9371 129.983 23.9457 129.979 23.9527 129.975C23.9751 129.963 24.0046 129.945 24.0383 129.924C24.0684 129.905 24.104 129.882 24.1441 129.856C24.1498 129.852 24.1556 129.848 24.1615 129.844C24.2089 129.814 24.2626 129.779 24.3219 129.741C24.5594 129.59 24.887 129.392 25.2605 129.213C26.0149 128.851 26.9236 128.584 27.6539 128.899C28.0372 129.082 28.1873 129.296 28.2113 129.491C28.2358 129.69 28.1341 129.909 27.9266 130.111C27.5107 130.517 26.7324 130.791 26.0703 130.626L26.0703 130.626L26.067 130.625C25.3716 130.476 24.7645 130.39 24.2831 130.364C24.0424 130.351 23.8315 130.353 23.6558 130.37Z" fill="#5A8FD3" stroke="#5C5C5C" stroke-width="0.2"/>
<path d="M24.0383 124.314L24.0383 124.314L24.0414 124.315C24.8683 124.53 25.2218 125.266 25.3566 125.983C25.4235 126.338 25.4344 126.681 25.4241 126.935C25.419 127.062 25.4086 127.165 25.3976 127.235C25.3931 127.264 25.3887 127.286 25.385 127.301L25.3737 127.324C25.291 127.49 25.2039 127.655 25.1138 127.819C25.1059 127.792 25.0969 127.764 25.0869 127.736C25.0317 127.58 24.943 127.405 24.8216 127.216C24.5787 126.84 24.201 126.406 23.6837 125.973C23.4463 125.76 23.2548 125.515 23.1263 125.275C22.9967 125.033 22.9353 124.804 22.9468 124.625C22.958 124.453 23.0352 124.329 23.1911 124.266C23.3573 124.199 23.6291 124.194 24.0383 124.314Z" fill="#5A8FD3" stroke="#5C5C5C" stroke-width="0.2"/>
<path d="M25.4223 127.901C25.3948 127.908 25.3681 127.915 25.3422 127.923C25.4353 127.778 25.5263 127.632 25.6146 127.485C25.6226 127.48 25.6298 127.475 25.6357 127.47C25.6556 127.455 25.6814 127.433 25.7106 127.407C25.7366 127.383 25.7673 127.355 25.8018 127.324C25.8068 127.319 25.8119 127.315 25.8171 127.31C25.8581 127.273 25.9045 127.23 25.956 127.184C26.1619 127 26.448 126.755 26.7829 126.522C27.4589 126.052 28.305 125.65 29.0832 125.847C29.495 125.969 29.6834 126.158 29.7431 126.347C29.8037 126.54 29.7436 126.77 29.577 127C29.2427 127.461 28.5277 127.849 27.8458 127.788L27.8458 127.788L27.8426 127.787C27.1304 127.746 26.5168 127.753 26.0382 127.8C25.799 127.824 25.5919 127.858 25.4223 127.901Z" fill="#5A8FD3" stroke="#5C5C5C" stroke-width="0.2"/>
<path d="M24.8012 121.9V121.897C25.5892 122.027 26.0412 122.672 26.2921 123.329C26.4224 123.671 26.4952 124.007 26.5311 124.26C26.5491 124.386 26.5577 124.489 26.5598 124.561C26.5608 124.592 26.5604 124.616 26.5594 124.631L26.5535 124.651C26.5008 124.827 26.4459 125.002 26.3883 125.176C26.3756 125.15 26.3616 125.124 26.3466 125.098C26.264 124.954 26.1447 124.795 25.9906 124.628C25.6828 124.294 25.2314 123.925 24.6426 123.578C24.3701 123.405 24.1365 123.192 23.966 122.974C23.794 122.755 23.6917 122.538 23.6705 122.359C23.6501 122.187 23.7038 122.054 23.8444 121.969C23.9954 121.877 24.2622 121.83 24.6883 121.885L24.8012 121.9Z" fill="#5A8FD3" stroke="#5C5C5C" stroke-width="0.2"/>
<path d="M26.624 125.243C26.5731 125.267 26.5262 125.292 26.4838 125.318C26.5577 125.145 26.6289 124.97 26.696 124.793L29.9048 122.61M26.624 125.243C26.6038 125.291 26.5834 125.339 26.5629 125.387C26.9695 125.155 27.864 124.941 29.0789 124.823C30.5245 124.73 31.7356 122.751 29.9499 122.516L29.9473 122.513L29.9468 122.519L29.9406 122.586L29.9381 122.613C29.9378 122.613 29.9374 122.613 29.9371 122.613C29.9263 122.612 29.9155 122.611 29.9048 122.61M26.624 125.243C26.6898 125.085 26.7532 124.926 26.8131 124.766C26.8197 124.76 26.8255 124.754 26.8301 124.749C26.8472 124.731 26.8686 124.705 26.8926 124.675C26.9144 124.648 26.9401 124.615 26.9689 124.578C26.9726 124.573 26.9764 124.568 26.9801 124.563C27.0138 124.52 27.0519 124.471 27.0943 124.418C27.264 124.205 27.5018 123.919 27.7898 123.637C28.3635 123.076 29.1128 122.553 29.9048 122.61M26.624 125.243C26.6496 125.231 26.6761 125.219 26.7036 125.207C26.8634 125.139 27.0616 125.074 27.2932 125.014C27.7564 124.894 28.3596 124.793 29.0692 124.723L29.0725 124.723L29.0725 124.723C29.7564 124.679 30.3903 124.185 30.6362 123.679C30.7585 123.427 30.7767 123.19 30.6818 123.009C30.5878 122.829 30.366 122.671 29.9368 122.615L29.9054 122.611L29.9048 122.61" fill="#5A8FD3" stroke="#5C5C5C" stroke-width="0.2"/>
<path d="M27.2203 121.733C27.2268 121.763 27.2306 121.786 27.2324 121.801L27.2301 121.823C27.2104 122.003 27.1877 122.184 27.1624 122.365C27.1451 122.342 27.1266 122.318 27.1071 122.294C26.9998 122.165 26.8536 122.026 26.6719 121.885C26.3086 121.602 25.7973 121.307 25.154 121.055C24.8538 120.926 24.5846 120.75 24.3767 120.56C24.167 120.369 24.0262 120.169 23.9724 119.993C23.9203 119.823 23.9498 119.683 24.0711 119.577C24.2018 119.463 24.4548 119.374 24.8842 119.363L24.9815 119.36V119.357C25.7917 119.356 26.3616 119.932 26.7319 120.551C26.9227 120.87 27.0559 121.194 27.1373 121.438C27.178 121.561 27.2053 121.662 27.2203 121.733Z" fill="#5A8FD3" stroke="#5C5C5C" stroke-width="0.2"/>
<path d="M27.4828 122.351C27.4567 122.368 27.4316 122.384 27.4076 122.401C27.4442 122.233 27.4781 122.065 27.5093 121.895C27.5147 121.888 27.5193 121.881 27.5229 121.876C27.5365 121.855 27.5529 121.826 27.5711 121.792C27.5878 121.761 27.6072 121.724 27.6292 121.682C27.6318 121.678 27.6344 121.673 27.6371 121.668C27.6624 121.619 27.691 121.565 27.7231 121.505C27.8515 121.267 28.0337 120.946 28.2663 120.621C28.7356 119.964 29.3895 119.32 30.1944 119.266C30.6261 119.255 30.8743 119.377 31.0011 119.543C31.1292 119.711 31.154 119.951 31.0797 120.22C30.9301 120.763 30.3966 121.352 29.7324 121.501L29.7324 121.501L29.729 121.502C29.0414 121.682 28.4647 121.877 28.0295 122.068C27.812 122.163 27.6281 122.258 27.4828 122.351Z" fill="#5A8FD3" stroke="#5C5C5C" stroke-width="0.2"/>
<path d="M27.5954 119.776C27.5815 119.816 27.5682 119.853 27.5558 119.887C27.5452 119.857 27.5337 119.824 27.5214 119.79C27.4442 119.574 27.3344 119.282 27.2131 118.968C26.9717 118.345 26.6832 117.632 26.5151 117.273C26.3805 116.911 26.2863 116.51 26.286 116.162C26.2857 115.809 26.3805 115.534 26.5949 115.388L26.5949 115.388L26.596 115.388C26.8131 115.236 27.1763 115.204 27.5025 115.371C27.8224 115.534 28.1115 115.891 28.1656 116.525L28.1656 116.525L28.166 116.528C28.2434 117.181 28.0755 118.088 27.8786 118.838C27.7808 119.211 27.6768 119.542 27.5954 119.776Z" fill="#5A8FD3" stroke="#5C5C5C" stroke-width="0.2"/>
<path d="M27.4549 115.244C27.1371 115.117 26.785 115.144 26.5466 115.3L26.5976 115.376M27.4549 115.244C27.455 115.244 27.4551 115.244 27.4553 115.244M27.4549 115.244L27.4222 115.324M27.4549 115.244L27.4641 115.248C27.4612 115.246 27.4582 115.245 27.4553 115.244M26.5976 115.376L26.5454 115.301C26.5405 115.304 26.5358 115.308 26.531 115.311L26.53 115.312L26.53 115.311C26.4393 115.373 26.3692 115.451 26.3164 115.542M26.5976 115.376C26.8115 115.226 27.1362 115.205 27.4222 115.324M26.5976 115.376C26.1338 115.689 26.2523 116.563 26.5126 117.27C26.693 117.65 26.9919 118.395 27.2135 118.967L27.4222 115.324M26.3164 115.542C26.3679 115.449 26.4363 115.368 26.5252 115.304C26.5255 115.304 26.5258 115.304 26.5261 115.304C26.531 115.3 26.536 115.297 26.541 115.293C26.7882 115.121 27.1497 115.102 27.4606 115.231L27.4553 115.244M26.3164 115.542C26.1955 115.749 26.1654 116.022 26.1865 116.31C26.2162 116.715 26.3455 117.112 26.4142 117.298C26.5784 117.648 26.8463 118.308 27.0777 118.903C27.194 119.202 27.3014 119.486 27.3823 119.708C27.4227 119.818 27.4566 119.914 27.4817 119.988C27.506 120.059 27.5242 120.117 27.5306 120.149L27.5325 120.159V120.165L27.5352 120.168L27.5355 120.164L27.5438 120.15L27.4618 119.914C27.398 119.731 27.2904 119.448 27.1202 119.003C26.8984 118.431 26.6008 117.689 26.4223 117.313L26.4184 117.305L26.4187 117.305C26.2863 116.945 26.188 116.538 26.1836 116.176C26.1808 115.945 26.2166 115.721 26.3164 115.542ZM27.4553 115.244L27.4222 115.324M26.3219 117.337C26.1827 116.962 25.7833 115.696 26.4739 115.229C26.7471 115.039 27.1491 115.01 27.5021 115.155L26.3219 117.337ZM26.3219 117.337C26.6466 118.027 27.3939 119.976 27.4325 120.168L26.3219 117.337ZM27.7717 119.579C27.7229 119.728 27.6769 119.854 27.6364 119.953L27.6502 119.915C27.7624 119.607 27.9419 119.046 28.0813 118.427C28.0681 118.488 28.0545 118.549 28.0406 118.609C27.9565 118.97 27.8608 119.307 27.7717 119.579ZM27.5212 120.181C27.5211 120.181 27.5214 120.181 27.522 120.18L27.5212 120.181Z" fill="#5A8FD3" stroke="#5C5C5C" stroke-width="0.2"/>
<mask id="path-55-inside-1_2621_53790" fill="white">
<path d="M19.1658 134.096C20.9245 133.141 21.4301 130.239 20.6955 128.494C19.9609 126.749 18.6775 125.154 18.4787 123.294C18.3275 121.865 18.8374 120.397 18.4787 118.999C17.9861 117.112 15.9682 115.651 15.9941 113.709C16.007 112.619 16.6855 111.597 16.6293 110.511C16.5645 109.177 15.441 108.118 14.7496 106.946C13.6866 105.146 13.6175 103.022 13.2545 101.004C12.8915 98.9869 12.0489 96.8274 10.0957 95.8364C9.80622 97.5498 9.31361 98.7224 9.46918 101.04C9.52535 101.873 10.584 103.468 10.7266 105.292C10.813 106.381 10.8735 107.475 10.947 108.569C11.0161 109.631 11.0939 110.712 11.5087 111.707C11.8285 112.469 12.3427 113.16 12.5804 113.946C13.0255 115.426 12.4421 117.029 12.8008 118.525C13.1076 119.797 14.0669 120.886 14.2656 122.177C14.5422 123.985 13.2588 125.864 13.9156 127.594C14.2397 128.45 15.0132 129.137 15.2292 130.022C15.3978 130.709 15.212 131.435 15.3675 132.122C15.6138 133.231 17.9343 134.096 19.1701 134.025"/>
</mask>
<path d="M19.1658 134.096C20.9245 133.141 21.4301 130.239 20.6955 128.494C19.9609 126.749 18.6775 125.154 18.4787 123.294C18.3275 121.865 18.8374 120.397 18.4787 118.999C17.9861 117.112 15.9682 115.651 15.9941 113.709C16.007 112.619 16.6855 111.597 16.6293 110.511C16.5645 109.177 15.441 108.118 14.7496 106.946C13.6866 105.146 13.6175 103.022 13.2545 101.004C12.8915 98.9869 12.0489 96.8274 10.0957 95.8364C9.80622 97.5498 9.31361 98.7224 9.46918 101.04C9.52535 101.873 10.584 103.468 10.7266 105.292C10.813 106.381 10.8735 107.475 10.947 108.569C11.0161 109.631 11.0939 110.712 11.5087 111.707C11.8285 112.469 12.3427 113.16 12.5804 113.946C13.0255 115.426 12.4421 117.029 12.8008 118.525C13.1076 119.797 14.0669 120.886 14.2656 122.177C14.5422 123.985 13.2588 125.864 13.9156 127.594C14.2397 128.45 15.0132 129.137 15.2292 130.022C15.3978 130.709 15.212 131.435 15.3675 132.122C15.6138 133.231 17.9343 134.096 19.1701 134.025" fill="#DEC73F"/>
<path d="M18.4787 123.294L18.1804 123.326L18.1804 123.326L18.4787 123.294ZM18.4787 118.999L18.769 118.923L18.7693 118.924L18.4787 118.999ZM15.9941 113.709L16.2941 113.712L16.2941 113.713L15.9941 113.709ZM16.6293 110.511L16.3297 110.526L16.3296 110.525L16.6293 110.511ZM14.7496 106.946L15.0079 106.793L15.008 106.794L14.7496 106.946ZM10.0957 95.8364L9.79993 95.7864L9.86787 95.3844L10.2315 95.5689L10.0957 95.8364ZM9.46918 101.04L9.16986 101.06L9.16985 101.06L9.46918 101.04ZM10.7266 105.292L10.4276 105.315L10.4275 105.315L10.7266 105.292ZM10.947 108.569L11.2463 108.548L11.2464 108.549L10.947 108.569ZM11.5087 111.707L11.2321 111.823L11.2319 111.823L11.5087 111.707ZM12.5804 113.946L12.8675 113.859L12.8677 113.859L12.5804 113.946ZM12.8008 118.525L12.5091 118.596L12.509 118.595L12.8008 118.525ZM14.2656 122.177L14.5621 122.131L14.5622 122.132L14.2656 122.177ZM13.9156 127.594L14.1961 127.487L14.1962 127.488L13.9156 127.594ZM15.2292 130.022L14.9379 130.093L14.9378 130.093L15.2292 130.022ZM15.3675 132.122L15.6601 132.056L15.6604 132.057L15.3675 132.122ZM19.0226 133.832C19.8006 133.41 20.3309 132.536 20.5739 131.521C20.8163 130.508 20.7571 129.413 20.419 128.61L20.972 128.377C21.3685 129.319 21.4237 130.548 21.1574 131.661C20.8915 132.772 20.2897 133.827 19.309 134.36L19.0226 133.832ZM20.419 128.61C20.0572 127.751 19.5703 126.949 19.1195 126.074C18.6776 125.217 18.2859 124.313 18.1804 123.326L18.777 123.262C18.8704 124.135 19.2197 124.959 19.6529 125.8C20.0771 126.623 20.5992 127.492 20.972 128.377L20.419 128.61ZM18.1804 123.326C18.1009 122.575 18.1954 121.812 18.2577 121.108C18.3213 120.389 18.3536 119.718 18.1882 119.074L18.7693 118.924C18.9626 119.677 18.9192 120.44 18.8553 121.161C18.7902 121.898 18.7053 122.585 18.7771 123.263L18.1804 123.326ZM18.1885 119.075C17.9583 118.193 17.3717 117.41 16.7924 116.541C16.2313 115.7 15.6798 114.779 15.6941 113.705L16.2941 113.713C16.2825 114.581 16.727 115.362 17.2915 116.208C17.8378 117.027 18.5065 117.918 18.769 118.923L18.1885 119.075ZM15.6941 113.705C15.7012 113.108 15.8908 112.534 16.0512 112.019C16.2171 111.486 16.3546 111.008 16.3297 110.526L16.9289 110.495C16.9601 111.099 16.7866 111.675 16.6241 112.198C16.456 112.737 16.2999 113.22 16.2941 113.712L15.6941 113.705ZM16.3296 110.525C16.3011 109.939 16.0392 109.395 15.6728 108.831C15.4898 108.549 15.288 108.273 15.0818 107.984C14.8779 107.699 14.6713 107.404 14.4912 107.098L15.008 106.794C15.1736 107.074 15.3667 107.351 15.57 107.636C15.7709 107.917 15.9836 108.208 16.176 108.504C16.5604 109.096 16.8926 109.749 16.9289 110.496L16.3296 110.525ZM14.4913 107.098C13.935 106.156 13.6436 105.138 13.445 104.114C13.3457 103.602 13.269 103.084 13.1949 102.574C13.1204 102.061 13.0489 101.556 12.9592 101.057L13.5497 100.951C13.6416 101.462 13.7148 101.978 13.7886 102.488C13.8628 102.999 13.9378 103.503 14.034 103.999C14.2265 104.992 14.5012 105.935 15.0079 106.793L14.4913 107.098ZM12.9592 101.057C12.6003 99.0626 11.7816 97.0282 9.96 96.104L10.2315 95.5689C12.3162 96.6266 13.1827 98.9111 13.5497 100.951L12.9592 101.057ZM10.3915 95.8864C10.0933 97.6514 9.61609 98.7492 9.7685 101.02L9.16985 101.06C9.01114 98.6955 9.51912 97.4483 9.79993 95.7864L10.3915 95.8864ZM9.7685 101.02C9.77939 101.181 9.84203 101.402 9.95061 101.695C10.0588 101.987 10.1954 102.308 10.3444 102.684C10.6359 103.42 10.9507 104.309 11.0257 105.268L10.4275 105.315C10.3599 104.45 10.0741 103.63 9.78658 102.905C9.64605 102.55 9.49857 102.202 9.38799 101.903C9.27781 101.606 9.18705 101.315 9.16986 101.06L9.7685 101.02ZM11.0257 105.268C11.1123 106.36 11.1732 107.46 11.2463 108.548L10.6477 108.589C10.5739 107.49 10.5138 106.403 10.4276 105.315L11.0257 105.268ZM11.2464 108.549C11.316 109.618 11.393 110.65 11.7856 111.592L11.2319 111.823C10.7949 110.775 10.7163 109.643 10.6476 108.588L11.2464 108.549ZM11.7854 111.591C11.9378 111.954 12.1358 112.299 12.3392 112.675C12.5383 113.042 12.7392 113.435 12.8675 113.859L12.2932 114.033C12.1839 113.671 12.0089 113.325 11.8115 112.96C11.6184 112.604 11.3994 112.222 11.2321 111.823L11.7854 111.591ZM12.8677 113.859C13.1077 114.658 13.0675 115.48 13.0225 116.247C12.9764 117.032 12.9256 117.759 13.0925 118.455L12.509 118.595C12.3173 117.795 12.3789 116.972 12.4235 116.212C12.4692 115.434 12.4982 114.714 12.2931 114.032L12.8677 113.859ZM13.0924 118.455C13.2356 119.048 13.5319 119.603 13.8408 120.207C14.1424 120.797 14.4545 121.432 14.5621 122.131L13.9691 122.223C13.878 121.631 13.6111 121.076 13.3066 120.48C13.0095 119.899 12.6727 119.274 12.5091 118.596L13.0924 118.455ZM14.5622 122.132C14.7111 123.106 14.4391 124.095 14.2408 124.981C14.0358 125.896 13.9031 126.716 14.1961 127.487L13.6352 127.7C13.2713 126.742 13.4519 125.758 13.6553 124.849C13.8654 123.911 14.0967 123.057 13.9691 122.222L14.5622 122.132ZM14.1962 127.488C14.3431 127.876 14.5926 128.228 14.8622 128.63C15.1219 129.018 15.3986 129.451 15.5207 129.95L14.9378 130.093C14.8439 129.708 14.6257 129.355 14.3637 128.964C14.1115 128.588 13.8122 128.168 13.635 127.7L14.1962 127.488ZM15.5206 129.95C15.6155 130.337 15.6091 130.729 15.6032 131.077C15.5971 131.438 15.5917 131.754 15.6601 132.056L15.0749 132.188C14.9877 131.803 14.9975 131.412 15.0033 131.067C15.0093 130.708 15.0115 130.393 14.9379 130.093L15.5206 129.95ZM15.6604 132.057C15.7026 132.247 15.8422 132.457 16.0886 132.671C16.3319 132.882 16.6565 133.078 17.0213 133.243C17.7573 133.575 18.5972 133.757 19.1529 133.725L19.1873 134.324C18.5072 134.364 17.569 134.149 16.7742 133.789C16.3736 133.608 15.9947 133.384 15.695 133.124C15.3984 132.866 15.1556 132.552 15.0747 132.187L15.6604 132.057Z" fill="#5C5C5C" mask="url(#path-55-inside-1_2621_53790)"/>
<path d="M146.301 133.555L143.665 133.64L155.034 110.919C155.081 112.735 154.615 114.563 153.69 116.173C153.617 116.3 153.539 116.429 153.46 116.56C153.328 116.78 153.193 117.003 153.074 117.226C152.881 117.587 152.718 117.968 152.648 118.379L152.648 118.379C152.542 119 152.664 119.629 152.78 120.223C152.788 120.264 152.796 120.304 152.804 120.344C152.928 120.986 153.027 121.589 152.866 122.171L152.866 122.171C152.698 122.786 152.26 123.31 151.801 123.861C151.758 123.912 151.715 123.963 151.673 124.015C151.181 124.608 150.689 125.246 150.643 126.033L150.643 126.034C150.606 126.687 150.894 127.293 151.161 127.857L151.174 127.883C151.452 128.47 151.703 129.013 151.663 129.583L151.663 129.583C151.629 130.068 151.379 130.528 151.088 130.978C150.063 132.531 148.576 133.591 146.309 133.555L146.309 133.555L146.301 133.555ZM152.795 118.404C152.694 118.998 152.812 119.6 152.929 120.201C153.061 120.878 153.192 121.553 153.01 122.211C152.833 122.858 152.374 123.408 151.919 123.953C151.377 124.603 150.84 125.247 150.792 126.042C150.758 126.657 151.031 127.233 151.304 127.809C151.58 128.391 151.856 128.973 151.812 129.593C151.776 130.12 151.506 130.609 151.213 131.06C150.166 132.648 148.634 133.742 146.306 133.705L152.795 118.404Z" fill="#5A8FD3" stroke="#5C5C5C" stroke-width="0.3"/>
<mask id="path-58-inside-2_2621_53790" fill="white">
<path d="M142.871 133.862C142.871 133.862 142.601 133.92 142.084 133.845C141.828 133.812 141.513 133.749 141.156 133.632C140.804 133.515 140.397 133.344 140.013 133.059C139.825 132.913 139.642 132.729 139.542 132.487C139.445 132.245 139.427 131.981 139.409 131.71C139.395 131.438 139.395 131.154 139.34 130.866C139.29 130.578 139.171 130.298 138.993 130.03C138.654 129.491 138.096 128.981 137.918 128.246C137.721 127.527 137.863 126.746 137.996 125.965C138.128 125.183 138.256 124.331 137.927 123.516C137.621 122.702 136.994 121.966 136.683 121.047C136.372 120.12 136.519 119.121 136.45 118.139C136.418 117.646 136.317 117.149 136.08 116.693C135.851 116.234 135.531 115.799 135.279 115.31C134.772 114.329 134.685 113.217 134.548 112.127C134.479 111.579 134.41 111.024 134.342 110.464C134.273 109.9 134.218 109.34 134.026 108.797C133.853 108.249 133.596 107.723 133.345 107.184C133.221 106.912 133.093 106.641 133.016 106.344C132.961 106.039 132.942 105.751 132.924 105.45C132.892 104.852 132.92 104.246 133.002 103.649C133.08 103.047 133.199 102.454 133.267 101.848L133.281 101.744L133.295 101.623L133.413 101.677C134.022 101.957 134.548 102.37 134.95 102.859C135.357 103.344 135.654 103.891 135.892 104.447C136.368 105.567 136.542 106.737 136.779 107.856C137.013 108.976 137.324 110.075 137.95 111.007C138.261 111.471 138.641 111.893 138.97 112.348C139.299 112.799 139.592 113.292 139.679 113.831C139.848 114.934 139.185 115.9 139.322 116.877C139.372 117.362 139.583 117.813 139.843 118.227C140.104 118.645 140.406 119.029 140.694 119.418C140.982 119.806 141.256 120.199 141.458 120.621C141.663 121.039 141.778 121.49 141.81 121.924C141.878 122.802 141.741 123.638 141.81 124.423C141.869 125.213 142.171 125.923 142.514 126.562C142.857 127.202 143.241 127.782 143.566 128.342C143.726 128.622 143.877 128.898 143.996 129.174C144.124 129.449 144.188 129.729 144.247 129.997C144.339 130.536 144.33 131.041 144.27 131.484C144.147 132.378 143.781 133.018 143.456 133.381C143.383 133.477 143.296 133.544 143.227 133.611C143.159 133.678 143.095 133.72 143.04 133.757C142.935 133.828 142.875 133.862 142.875 133.862C142.862 133.849 143.109 133.728 143.429 133.364C143.744 133.001 144.092 132.362 144.202 131.48C144.261 131.041 144.261 130.544 144.165 130.014C144.106 129.75 144.042 129.475 143.913 129.211C143.79 128.944 143.644 128.668 143.479 128.392C143.154 127.837 142.766 127.26 142.413 126.612C142.066 125.969 141.75 125.242 141.686 124.436C141.613 123.633 141.746 122.798 141.673 121.937C141.641 121.507 141.531 121.08 141.33 120.675C141.133 120.27 140.863 119.881 140.575 119.497C140.287 119.113 139.981 118.724 139.711 118.298C139.445 117.876 139.221 117.404 139.167 116.89C139.029 115.849 139.688 114.876 139.519 113.852C139.436 113.347 139.162 112.874 138.837 112.432C138.513 111.989 138.133 111.563 137.808 111.086C137.159 110.129 136.848 109.01 136.61 107.886C136.368 106.762 136.194 105.6 135.728 104.506C135.494 103.962 135.206 103.428 134.808 102.96C134.42 102.487 133.921 102.091 133.34 101.823L133.473 101.756L133.459 101.861C133.386 102.471 133.267 103.068 133.194 103.662C133.112 104.255 133.089 104.848 133.116 105.437C133.135 105.726 133.153 106.031 133.203 106.306C133.272 106.582 133.4 106.85 133.523 107.117C133.775 107.652 134.031 108.191 134.209 108.746C134.406 109.302 134.465 109.883 134.529 110.439C134.598 110.998 134.667 111.554 134.731 112.106C134.868 113.2 134.955 114.295 135.444 115.239C135.686 115.711 136.002 116.146 136.24 116.622C136.487 117.099 136.592 117.621 136.624 118.122C136.688 119.129 136.542 120.111 136.839 121.001C137.136 121.887 137.758 122.626 138.069 123.466C138.407 124.314 138.266 125.196 138.128 125.973C137.991 126.759 137.854 127.519 138.037 128.213C138.202 128.91 138.746 129.42 139.089 129.972C139.267 130.247 139.395 130.544 139.441 130.841C139.491 131.137 139.487 131.422 139.5 131.693C139.514 131.961 139.532 132.224 139.624 132.449C139.715 132.675 139.889 132.851 140.067 132.997C140.438 133.277 140.836 133.452 141.183 133.573C141.535 133.695 141.846 133.761 142.098 133.799C142.349 133.841 142.546 133.845 142.679 133.849C142.811 133.845 142.88 133.849 142.88 133.849L142.871 133.862Z"/>
</mask>
<path d="M142.871 133.862C142.871 133.862 142.601 133.92 142.084 133.845C141.828 133.812 141.513 133.749 141.156 133.632C140.804 133.515 140.397 133.344 140.013 133.059C139.825 132.913 139.642 132.729 139.542 132.487C139.445 132.245 139.427 131.981 139.409 131.71C139.395 131.438 139.395 131.154 139.34 130.866C139.29 130.578 139.171 130.298 138.993 130.03C138.654 129.491 138.096 128.981 137.918 128.246C137.721 127.527 137.863 126.746 137.996 125.965C138.128 125.183 138.256 124.331 137.927 123.516C137.621 122.702 136.994 121.966 136.683 121.047C136.372 120.12 136.519 119.121 136.45 118.139C136.418 117.646 136.317 117.149 136.08 116.693C135.851 116.234 135.531 115.799 135.279 115.31C134.772 114.329 134.685 113.217 134.548 112.127C134.479 111.579 134.41 111.024 134.342 110.464C134.273 109.9 134.218 109.34 134.026 108.797C133.853 108.249 133.596 107.723 133.345 107.184C133.221 106.912 133.093 106.641 133.016 106.344C132.961 106.039 132.942 105.751 132.924 105.45C132.892 104.852 132.92 104.246 133.002 103.649C133.08 103.047 133.199 102.454 133.267 101.848L133.281 101.744L133.295 101.623L133.413 101.677C134.022 101.957 134.548 102.37 134.95 102.859C135.357 103.344 135.654 103.891 135.892 104.447C136.368 105.567 136.542 106.737 136.779 107.856C137.013 108.976 137.324 110.075 137.95 111.007C138.261 111.471 138.641 111.893 138.97 112.348C139.299 112.799 139.592 113.292 139.679 113.831C139.848 114.934 139.185 115.9 139.322 116.877C139.372 117.362 139.583 117.813 139.843 118.227C140.104 118.645 140.406 119.029 140.694 119.418C140.982 119.806 141.256 120.199 141.458 120.621C141.663 121.039 141.778 121.49 141.81 121.924C141.878 122.802 141.741 123.638 141.81 124.423C141.869 125.213 142.171 125.923 142.514 126.562C142.857 127.202 143.241 127.782 143.566 128.342C143.726 128.622 143.877 128.898 143.996 129.174C144.124 129.449 144.188 129.729 144.247 129.997C144.339 130.536 144.33 131.041 144.27 131.484C144.147 132.378 143.781 133.018 143.456 133.381C143.383 133.477 143.296 133.544 143.227 133.611C143.159 133.678 143.095 133.72 143.04 133.757C142.935 133.828 142.875 133.862 142.875 133.862C142.862 133.849 143.109 133.728 143.429 133.364C143.744 133.001 144.092 132.362 144.202 131.48C144.261 131.041 144.261 130.544 144.165 130.014C144.106 129.75 144.042 129.475 143.913 129.211C143.79 128.944 143.644 128.668 143.479 128.392C143.154 127.837 142.766 127.26 142.413 126.612C142.066 125.969 141.75 125.242 141.686 124.436C141.613 123.633 141.746 122.798 141.673 121.937C141.641 121.507 141.531 121.08 141.33 120.675C141.133 120.27 140.863 119.881 140.575 119.497C140.287 119.113 139.981 118.724 139.711 118.298C139.445 117.876 139.221 117.404 139.167 116.89C139.029 115.849 139.688 114.876 139.519 113.852C139.436 113.347 139.162 112.874 138.837 112.432C138.513 111.989 138.133 111.563 137.808 111.086C137.159 110.129 136.848 109.01 136.61 107.886C136.368 106.762 136.194 105.6 135.728 104.506C135.494 103.962 135.206 103.428 134.808 102.96C134.42 102.487 133.921 102.091 133.34 101.823L133.473 101.756L133.459 101.861C133.386 102.471 133.267 103.068 133.194 103.662C133.112 104.255 133.089 104.848 133.116 105.437C133.135 105.726 133.153 106.031 133.203 106.306C133.272 106.582 133.4 106.85 133.523 107.117C133.775 107.652 134.031 108.191 134.209 108.746C134.406 109.302 134.465 109.883 134.529 110.439C134.598 110.998 134.667 111.554 134.731 112.106C134.868 113.2 134.955 114.295 135.444 115.239C135.686 115.711 136.002 116.146 136.24 116.622C136.487 117.099 136.592 117.621 136.624 118.122C136.688 119.129 136.542 120.111 136.839 121.001C137.136 121.887 137.758 122.626 138.069 123.466C138.407 124.314 138.266 125.196 138.128 125.973C137.991 126.759 137.854 127.519 138.037 128.213C138.202 128.91 138.746 129.42 139.089 129.972C139.267 130.247 139.395 130.544 139.441 130.841C139.491 131.137 139.487 131.422 139.5 131.693C139.514 131.961 139.532 132.224 139.624 132.449C139.715 132.675 139.889 132.851 140.067 132.997C140.438 133.277 140.836 133.452 141.183 133.573C141.535 133.695 141.846 133.761 142.098 133.799C142.349 133.841 142.546 133.845 142.679 133.849C142.811 133.845 142.88 133.849 142.88 133.849L142.871 133.862Z" fill="#5A8FD3"/>
<path d="M142.871 133.862L142.977 134.35L143.163 134.31L143.275 134.156L142.871 133.862ZM142.084 133.845L142.156 133.35L142.149 133.349L142.084 133.845ZM141.156 133.632L140.998 134.106L141 134.107L141.156 133.632ZM140.013 133.059L139.705 133.454L139.715 133.461L140.013 133.059ZM139.542 132.487L139.077 132.671L139.08 132.679L139.542 132.487ZM139.409 131.71L138.909 131.735L138.91 131.743L139.409 131.71ZM139.34 130.866L138.848 130.952L138.849 130.959L139.34 130.866ZM138.993 130.03L138.569 130.296L138.577 130.308L138.993 130.03ZM137.918 128.246L138.404 128.128L138.402 128.121L138.4 128.114L137.918 128.246ZM137.927 123.516L137.459 123.692L137.464 123.704L137.927 123.516ZM136.683 121.047L136.209 121.206L136.21 121.207L136.683 121.047ZM136.45 118.139L135.951 118.171L135.951 118.174L136.45 118.139ZM136.08 116.693L135.632 116.916L135.636 116.925L136.08 116.693ZM135.279 115.31L135.724 115.082L135.723 115.081L135.279 115.31ZM134.548 112.127L134.052 112.189L134.052 112.189L134.548 112.127ZM134.342 110.464L133.845 110.524L133.846 110.524L134.342 110.464ZM134.026 108.797L133.55 108.948L133.552 108.956L133.555 108.963L134.026 108.797ZM133.345 107.184L132.89 107.391L132.892 107.395L133.345 107.184ZM133.016 106.344L132.524 106.432L132.527 106.452L132.532 106.471L133.016 106.344ZM132.924 105.45L132.425 105.477L132.425 105.48L132.924 105.45ZM133.002 103.649L133.497 103.717L133.498 103.713L133.002 103.649ZM133.267 101.848L132.771 101.783L132.77 101.792L133.267 101.848ZM133.281 101.744L133.777 101.809L133.778 101.8L133.281 101.744ZM133.295 101.623L133.502 101.168L132.875 100.881L132.798 101.566L133.295 101.623ZM133.413 101.677L133.623 101.223L133.621 101.222L133.413 101.677ZM134.95 102.859L134.564 103.177L134.567 103.181L134.95 102.859ZM135.892 104.447L136.352 104.252L136.352 104.25L135.892 104.447ZM136.779 107.856L137.269 107.754L137.268 107.753L136.779 107.856ZM137.95 111.007L138.365 110.728L138.365 110.728L137.95 111.007ZM138.97 112.348L138.565 112.641L138.566 112.643L138.97 112.348ZM139.679 113.831L140.173 113.755L140.172 113.752L139.679 113.831ZM139.322 116.877L139.819 116.826L139.818 116.817L139.817 116.808L139.322 116.877ZM139.843 118.227L140.268 117.962L140.266 117.96L139.843 118.227ZM141.458 120.621L141.006 120.836L141.009 120.842L141.458 120.621ZM141.81 121.924L141.311 121.961L141.311 121.963L141.81 121.924ZM141.81 124.423L142.308 124.386L142.308 124.38L141.81 124.423ZM143.566 128.342L144 128.094L143.998 128.091L143.566 128.342ZM143.996 129.174L143.536 129.372L143.542 129.384L143.996 129.174ZM144.247 129.997L144.74 129.913L144.738 129.901L144.735 129.888L144.247 129.997ZM144.27 131.484L144.765 131.553L144.766 131.551L144.27 131.484ZM143.456 133.381L143.083 133.048L143.07 133.063L143.058 133.078L143.456 133.381ZM143.04 133.757L143.32 134.172L143.323 134.17L143.04 133.757ZM142.875 133.862L142.538 134.231L142.805 134.475L143.12 134.297L142.875 133.862ZM143.429 133.364L143.804 133.695L143.806 133.692L143.429 133.364ZM144.202 131.48L143.706 131.413L143.705 131.418L144.202 131.48ZM144.165 130.014L144.657 129.924L144.655 129.914L144.653 129.903L144.165 130.014ZM143.913 129.211L143.459 129.421L143.464 129.43L143.913 129.211ZM143.479 128.392L143.047 128.645L143.05 128.649L143.479 128.392ZM142.413 126.612L141.974 126.85L141.974 126.851L142.413 126.612ZM141.686 124.436L142.185 124.396L142.184 124.39L141.686 124.436ZM141.673 121.937L141.174 121.974L141.174 121.979L141.673 121.937ZM141.33 120.675L140.88 120.893L140.882 120.898L141.33 120.675ZM139.711 118.298L139.287 118.564L139.288 118.565L139.711 118.298ZM139.167 116.89L139.664 116.837L139.662 116.824L139.167 116.89ZM139.519 113.852L139.025 113.933L139.025 113.934L139.519 113.852ZM137.808 111.086L137.395 111.367L137.395 111.368L137.808 111.086ZM136.61 107.886L137.099 107.782L137.099 107.78L136.61 107.886ZM135.728 104.506L136.187 104.31L136.187 104.308L135.728 104.506ZM134.808 102.96L134.422 103.277L134.427 103.283L134.808 102.96ZM133.34 101.823L133.115 101.377L132.189 101.844L133.131 102.277L133.34 101.823ZM133.473 101.756L133.969 101.821L134.092 100.884L133.248 101.31L133.473 101.756ZM133.459 101.861L132.963 101.796L132.963 101.801L133.459 101.861ZM133.194 103.662L133.689 103.73L133.69 103.723L133.194 103.662ZM133.116 105.437L132.617 105.461L132.617 105.469L133.116 105.437ZM133.203 106.306L132.711 106.396L132.714 106.412L132.718 106.427L133.203 106.306ZM133.523 107.117L133.069 107.327L133.071 107.33L133.523 107.117ZM134.209 108.746L133.733 108.899L133.735 108.906L133.738 108.913L134.209 108.746ZM134.529 110.439L134.033 110.496L134.033 110.499L134.529 110.439ZM134.731 112.106L134.234 112.163L134.234 112.168L134.731 112.106ZM135.444 115.239L135.889 115.011L135.888 115.009L135.444 115.239ZM136.24 116.622L135.792 116.846L135.796 116.852L136.24 116.622ZM136.624 118.122L137.123 118.091L137.123 118.09L136.624 118.122ZM136.839 121.001L136.365 121.16L136.365 121.16L136.839 121.001ZM138.069 123.466L137.6 123.64L137.605 123.652L138.069 123.466ZM138.128 125.973L137.636 125.886L137.636 125.887L138.128 125.973ZM138.037 128.213L138.524 128.098L138.52 128.085L138.037 128.213ZM139.089 129.972L138.664 130.236L138.669 130.243L139.089 129.972ZM139.441 130.841L138.947 130.917L138.948 130.924L139.441 130.841ZM139.5 131.693L139.001 131.718L139.001 131.719L139.5 131.693ZM140.067 132.997L139.75 133.383L139.758 133.39L139.766 133.396L140.067 132.997ZM141.183 133.573L141.019 134.045L141.021 134.046L141.183 133.573ZM142.098 133.799L142.18 133.306L142.172 133.304L142.098 133.799ZM142.679 133.849L142.663 134.349L142.679 134.349L142.694 134.349L142.679 133.849ZM142.88 133.849L143.284 134.144L143.823 133.406L142.91 133.35L142.88 133.849ZM142.871 133.862C142.765 133.373 142.765 133.373 142.765 133.373C142.765 133.373 142.765 133.373 142.765 133.373C142.766 133.373 142.766 133.373 142.766 133.373C142.766 133.373 142.767 133.373 142.767 133.372C142.768 133.372 142.769 133.372 142.769 133.372C142.77 133.372 142.771 133.372 142.772 133.372C142.773 133.371 142.774 133.371 142.773 133.371C142.771 133.372 142.766 133.372 142.757 133.374C142.738 133.376 142.702 133.38 142.652 133.382C142.55 133.386 142.384 133.383 142.156 133.35L142.012 134.34C142.301 134.382 142.529 134.388 142.691 134.381C142.772 134.378 142.837 134.372 142.885 134.365C142.908 134.362 142.928 134.359 142.944 134.357C142.951 134.355 142.958 134.354 142.963 134.353C142.966 134.352 142.969 134.352 142.971 134.352C142.972 134.351 142.973 134.351 142.974 134.351C142.974 134.351 142.975 134.351 142.975 134.351C142.976 134.351 142.976 134.35 142.976 134.35C142.976 134.35 142.976 134.35 142.976 134.35C142.977 134.35 142.977 134.35 142.871 133.862ZM142.149 133.349C141.92 133.319 141.636 133.263 141.312 133.157L141 134.107C141.39 134.235 141.736 134.304 142.019 134.341L142.149 133.349ZM141.313 133.157C140.989 133.05 140.636 132.899 140.31 132.657L139.715 133.461C140.157 133.788 140.618 133.98 140.998 134.106L141.313 133.157ZM140.32 132.665C140.163 132.543 140.056 132.423 140.003 132.295L139.08 132.679C139.228 133.036 139.487 133.284 139.705 133.454L140.32 132.665ZM140.006 132.303C139.944 132.145 139.927 131.962 139.908 131.676L138.91 131.743C138.927 132.001 138.947 132.344 139.077 132.671L140.006 132.303ZM139.908 131.685C139.896 131.446 139.895 131.105 139.831 130.772L138.849 130.959C138.896 131.203 138.894 131.431 138.91 131.735L139.908 131.685ZM139.833 130.78C139.769 130.413 139.62 130.069 139.409 129.753L138.577 130.308C138.723 130.526 138.811 130.742 138.848 130.952L139.833 130.78ZM139.416 129.764C139.319 129.609 139.209 129.461 139.105 129.325C138.998 129.183 138.899 129.057 138.803 128.922C138.613 128.656 138.471 128.406 138.404 128.128L137.432 128.364C137.543 128.822 137.769 129.194 137.988 129.502C138.096 129.654 138.211 129.802 138.309 129.93C138.411 130.064 138.497 130.182 138.569 130.296L139.416 129.764ZM138.4 128.114C138.239 127.523 138.351 126.862 138.489 126.048L137.503 125.881C137.376 126.631 137.204 127.531 137.436 128.378L138.4 128.114ZM138.489 126.048C138.619 125.281 138.78 124.292 138.391 123.329L137.464 123.704C137.733 124.37 137.638 125.086 137.503 125.881L138.489 126.048ZM138.395 123.34C138.224 122.885 137.965 122.456 137.739 122.069C137.504 121.667 137.294 121.293 137.157 120.887L136.21 121.207C136.383 121.72 136.642 122.174 136.875 122.573C137.117 122.987 137.324 123.333 137.459 123.692L138.395 123.34ZM137.157 120.888C137.026 120.496 136.986 120.074 136.976 119.602C136.966 119.16 136.984 118.606 136.949 118.104L135.951 118.174C135.985 118.654 135.964 119.09 135.976 119.625C135.987 120.129 136.03 120.671 136.209 121.206L137.157 120.888ZM136.949 118.107C136.914 117.57 136.803 116.999 136.523 116.462L135.636 116.925C135.832 117.299 135.922 117.722 135.951 118.171L136.949 118.107ZM136.527 116.471C136.401 116.217 136.252 115.975 136.114 115.75C135.972 115.52 135.839 115.306 135.724 115.082L134.835 115.539C134.971 115.804 135.124 116.051 135.262 116.275C135.404 116.505 135.529 116.71 135.632 116.916L136.527 116.471ZM135.723 115.081C135.267 114.197 135.186 113.196 135.044 112.064L134.052 112.189C134.184 113.238 134.277 114.46 134.835 115.54L135.723 115.081ZM135.044 112.064C134.975 111.518 134.907 110.962 134.838 110.403L133.846 110.524C133.914 111.085 133.983 111.641 134.052 112.189L135.044 112.064ZM134.838 110.403C134.772 109.86 134.712 109.237 134.498 108.63L133.555 108.963C133.725 109.443 133.774 109.939 133.845 110.524L134.838 110.403ZM134.503 108.645C134.317 108.06 134.043 107.498 133.798 106.972L132.892 107.395C133.149 107.947 133.388 108.439 133.55 108.948L134.503 108.645ZM133.8 106.977C133.671 106.693 133.564 106.464 133.499 106.217L132.532 106.471C132.623 106.817 132.772 107.131 132.89 107.391L133.8 106.977ZM133.508 106.255C133.459 105.983 133.442 105.723 133.423 105.419L132.425 105.48C132.443 105.779 132.463 106.095 132.524 106.432L133.508 106.255ZM133.423 105.423C133.393 104.859 133.419 104.285 133.497 103.717L132.507 103.581C132.42 104.208 132.391 104.846 132.425 105.477L133.423 105.423ZM133.498 103.713C133.535 103.422 133.583 103.132 133.632 102.829C133.68 102.53 133.728 102.22 133.764 101.904L132.77 101.792C132.737 102.082 132.692 102.372 132.644 102.671C132.597 102.967 132.546 103.275 132.506 103.585L133.498 103.713ZM133.763 101.913L133.777 101.809L132.785 101.679L132.771 101.783L133.763 101.913ZM133.778 101.8L133.791 101.679L132.798 101.566L132.784 101.687L133.778 101.8ZM133.087 102.077L133.206 102.132L133.621 101.222L133.502 101.168L133.087 102.077ZM133.204 102.131C133.743 102.379 134.209 102.745 134.564 103.177L135.336 102.542C134.887 101.995 134.3 101.535 133.623 101.223L133.204 102.131ZM134.567 103.181C134.932 103.616 135.207 104.116 135.432 104.644L136.352 104.25C136.102 103.667 135.782 103.072 135.333 102.538L134.567 103.181ZM135.432 104.643C135.883 105.704 136.044 106.801 136.29 107.96L137.268 107.753C137.039 106.673 136.853 105.429 136.352 104.252L135.432 104.643ZM136.29 107.958C136.526 109.093 136.852 110.271 137.535 111.286L138.365 110.728C137.795 109.88 137.499 108.86 137.269 107.754L136.29 107.958ZM137.535 111.285C137.702 111.535 137.886 111.77 138.061 111.991C138.24 112.217 138.408 112.425 138.565 112.641L139.375 112.055C139.202 111.816 139.016 111.585 138.845 111.37C138.67 111.15 138.509 110.942 138.365 110.728L137.535 111.285ZM138.566 112.643C138.883 113.078 139.118 113.492 139.185 113.911L140.172 113.752C140.066 113.093 139.715 112.521 139.374 112.053L138.566 112.643ZM139.184 113.907C139.252 114.345 139.157 114.77 139.028 115.278C138.907 115.752 138.742 116.341 138.827 116.947L139.817 116.808C139.765 116.436 139.863 116.053 139.997 115.524C140.123 115.03 140.275 114.42 140.173 113.755L139.184 113.907ZM138.825 116.929C138.886 117.522 139.14 118.049 139.42 118.493L140.266 117.96C140.025 117.577 139.858 117.202 139.819 116.826L138.825 116.929ZM139.419 118.491C139.694 118.932 140.015 119.342 140.292 119.715L141.096 119.12C140.796 118.716 140.514 118.358 140.268 117.962L139.419 118.491ZM140.292 119.715C140.578 120.1 140.827 120.461 141.006 120.836L141.909 120.406C141.686 119.937 141.386 119.512 141.096 119.12L140.292 119.715ZM141.009 120.842C141.185 121.199 141.284 121.587 141.311 121.961L142.308 121.888C142.272 121.393 142.142 120.879 141.906 120.4L141.009 120.842ZM141.311 121.963C141.343 122.368 141.328 122.767 141.31 123.188C141.293 123.598 141.274 124.036 141.312 124.467L142.308 124.38C142.277 124.025 142.292 123.652 142.309 123.229C142.326 122.816 142.345 122.358 142.308 121.886L141.311 121.963ZM141.311 124.461C141.378 125.353 141.718 126.136 142.073 126.799L142.955 126.326C142.624 125.71 142.36 125.073 142.308 124.386L141.311 124.461ZM142.073 126.799C142.418 127.44 142.833 128.075 143.133 128.593L143.998 128.091C143.65 127.49 143.297 126.963 142.955 126.326L142.073 126.799ZM143.132 128.59C143.29 128.868 143.429 129.123 143.537 129.372L144.455 128.976C144.324 128.673 144.162 128.377 144 128.094L143.132 128.59ZM143.542 129.384C143.645 129.605 143.699 129.835 143.759 130.105L144.735 129.888C144.677 129.624 144.603 129.294 144.449 128.963L143.542 129.384ZM143.754 130.08C143.836 130.563 143.828 131.018 143.775 131.418L144.766 131.551C144.831 131.065 144.841 130.508 144.74 129.913L143.754 130.08ZM143.775 131.416C143.665 132.21 143.343 132.757 143.083 133.048L143.829 133.714C144.219 133.278 144.628 132.547 144.765 131.553L143.775 131.416ZM143.058 133.078C143.045 133.095 143.027 133.115 142.998 133.143C142.982 133.157 142.967 133.171 142.946 133.19C142.927 133.207 142.903 133.229 142.879 133.253L143.576 133.969C143.592 133.954 143.752 133.818 143.854 133.684L143.058 133.078ZM142.879 133.253C142.846 133.284 142.82 133.302 142.757 133.345L143.323 134.17C143.37 134.137 143.471 134.071 143.576 133.969L142.879 133.253ZM142.76 133.343C142.714 133.374 142.678 133.397 142.656 133.41C142.645 133.417 142.637 133.422 142.633 133.424C142.631 133.426 142.629 133.426 142.629 133.427C142.629 133.427 142.629 133.427 142.629 133.427C142.629 133.427 142.629 133.426 142.629 133.426C142.63 133.426 142.63 133.426 142.63 133.426C142.63 133.426 142.63 133.426 142.63 133.426C142.63 133.426 142.63 133.426 142.63 133.426C142.63 133.426 142.63 133.426 142.63 133.426C142.63 133.426 142.63 133.426 142.875 133.862C143.12 134.297 143.12 134.297 143.12 134.297C143.12 134.297 143.121 134.297 143.121 134.297C143.121 134.297 143.121 134.297 143.121 134.297C143.121 134.297 143.121 134.297 143.121 134.297C143.121 134.297 143.121 134.297 143.122 134.297C143.122 134.297 143.123 134.296 143.123 134.296C143.124 134.295 143.126 134.294 143.127 134.294C143.131 134.292 143.135 134.289 143.14 134.286C143.15 134.28 143.163 134.272 143.18 134.262C143.214 134.241 143.261 134.211 143.32 134.172L142.76 133.343ZM143.213 133.493C143.267 133.542 143.317 133.61 143.347 133.695C143.376 133.778 143.379 133.857 143.371 133.921C143.357 134.036 143.307 134.113 143.289 134.139C143.251 134.196 143.209 134.23 143.208 134.23C143.194 134.243 143.185 134.249 143.202 134.236C143.225 134.22 143.274 134.186 143.333 134.14C143.453 134.047 143.619 133.905 143.804 133.695L143.053 133.034C142.918 133.188 142.801 133.288 142.721 133.349C142.68 133.381 142.65 133.402 142.62 133.423C142.611 133.43 142.582 133.45 142.556 133.473C142.549 133.479 142.503 133.517 142.462 133.577C142.444 133.604 142.393 133.683 142.379 133.799C142.36 133.949 142.41 134.113 142.538 134.231L143.213 133.493ZM143.806 133.692C144.188 133.253 144.576 132.521 144.698 131.542L143.705 131.418C143.608 132.202 143.301 132.749 143.051 133.037L143.806 133.692ZM144.697 131.547C144.763 131.059 144.763 130.509 144.657 129.924L143.673 130.103C143.759 130.579 143.759 131.024 143.706 131.413L144.697 131.547ZM144.653 129.903C144.594 129.645 144.52 129.315 144.363 128.993L143.464 129.43C143.563 129.634 143.617 129.856 143.677 130.124L144.653 129.903ZM144.367 129.002C144.236 128.717 144.081 128.426 143.908 128.136L143.05 128.649C143.206 128.911 143.344 129.171 143.46 129.421L144.367 129.002ZM143.911 128.14C143.558 127.537 143.206 127.023 142.853 126.374L141.974 126.851C142.325 127.497 142.75 128.136 143.047 128.645L143.911 128.14ZM142.853 126.375C142.518 125.753 142.241 125.099 142.185 124.396L141.188 124.475C141.26 125.385 141.614 126.185 141.974 126.85L142.853 126.375ZM142.184 124.39C142.151 124.026 142.164 123.649 142.179 123.226C142.194 122.814 142.21 122.36 142.171 121.895L141.174 121.979C141.208 122.375 141.195 122.769 141.18 123.19C141.165 123.601 141.148 124.043 141.188 124.481L142.184 124.39ZM142.171 121.9C142.135 121.409 142.009 120.919 141.777 120.453L140.882 120.898C141.053 121.242 141.146 121.604 141.174 121.974L142.171 121.9ZM141.779 120.457C141.561 120.007 141.268 119.587 140.975 119.197L140.175 119.797C140.459 120.175 140.705 120.533 140.88 120.893L141.779 120.457ZM140.975 119.197C140.677 118.8 140.389 118.435 140.133 118.03L139.288 118.565C139.572 119.013 139.897 119.426 140.175 119.797L140.975 119.197ZM140.134 118.032C139.887 117.639 139.707 117.242 139.664 116.837L138.669 116.943C138.736 117.565 139.004 118.112 139.287 118.564L140.134 118.032ZM139.662 116.824C139.608 116.416 139.708 116.008 139.839 115.487C139.962 115.001 140.116 114.401 140.012 113.771L139.025 113.934C139.09 114.327 139 114.726 138.87 115.243C138.748 115.724 138.588 116.323 138.671 116.955L139.662 116.824ZM140.012 113.772C139.911 113.148 139.579 112.598 139.24 112.136L138.434 112.727C138.745 113.151 138.962 113.546 139.025 113.933L140.012 113.772ZM139.24 112.136C139.071 111.904 138.886 111.676 138.714 111.46C138.539 111.24 138.373 111.027 138.221 110.805L137.395 111.368C137.569 111.622 137.754 111.86 137.931 112.083C138.112 112.309 138.279 112.516 138.434 112.727L139.24 112.136ZM138.222 110.805C137.63 109.933 137.335 108.894 137.099 107.782L136.121 107.989C136.361 109.125 136.688 110.326 137.395 111.367L138.222 110.805ZM137.099 107.78C136.866 106.698 136.679 105.462 136.187 104.31L135.268 104.702C135.709 105.738 135.87 106.825 136.121 107.991L137.099 107.78ZM136.187 104.308C135.943 103.739 135.631 103.155 135.189 102.636L134.427 103.283C134.781 103.7 135.046 104.186 135.268 104.703L136.187 104.308ZM135.194 102.642C134.76 102.114 134.202 101.669 133.549 101.369L133.131 102.277C133.64 102.512 134.079 102.861 134.422 103.277L135.194 102.642ZM133.565 102.27L133.698 102.203L133.248 101.31L133.115 101.377L133.565 102.27ZM132.977 101.691L132.963 101.796L133.955 101.926L133.969 101.821L132.977 101.691ZM132.963 101.801C132.928 102.095 132.881 102.387 132.833 102.688C132.785 102.986 132.736 103.293 132.698 103.6L133.69 103.723C133.725 103.437 133.772 103.148 133.82 102.846C133.868 102.548 133.918 102.236 133.956 101.92L132.963 101.801ZM132.699 103.593C132.612 104.219 132.588 104.843 132.617 105.461L133.616 105.414C133.59 104.853 133.611 104.291 133.689 103.73L132.699 103.593ZM132.617 105.469C132.635 105.749 132.655 106.086 132.711 106.396L133.695 106.217C133.651 105.975 133.634 105.702 133.615 105.406L132.617 105.469ZM132.718 106.427C132.8 106.759 132.953 107.074 133.069 107.327L133.977 106.907C133.847 106.625 133.743 106.405 133.688 106.186L132.718 106.427ZM133.071 107.33C133.326 107.872 133.567 108.38 133.733 108.899L134.685 108.594C134.495 108.001 134.224 107.432 133.976 106.904L133.071 107.33ZM133.738 108.913C133.912 109.405 133.967 109.925 134.033 110.496L135.026 110.381C134.964 109.841 134.9 109.199 134.681 108.58L133.738 108.913ZM134.033 110.499C134.102 111.06 134.17 111.614 134.234 112.163L135.227 112.048C135.163 111.495 135.094 110.937 135.026 110.378L134.033 110.499ZM134.234 112.168C134.366 113.22 134.459 114.426 135 115.469L135.888 115.009C135.45 114.164 135.369 113.181 135.227 112.044L134.234 112.168ZM134.999 115.468C135.13 115.724 135.28 115.967 135.417 116.19C135.557 116.419 135.684 116.629 135.792 116.846L136.687 116.399C136.557 116.139 136.408 115.894 136.27 115.668C136.129 115.437 136 115.227 135.889 115.011L134.999 115.468ZM135.796 116.852C136.001 117.249 136.096 117.697 136.125 118.154L137.123 118.09C137.088 117.545 136.972 116.949 136.684 116.392L135.796 116.852ZM136.125 118.154C136.156 118.647 136.135 119.088 136.144 119.614C136.153 120.112 136.191 120.641 136.365 121.16L137.313 120.843C137.189 120.471 137.152 120.064 137.144 119.597C137.136 119.158 137.156 118.605 137.123 118.091L136.125 118.154ZM136.365 121.16C136.532 121.657 136.786 122.104 137.016 122.501C137.254 122.913 137.462 123.268 137.6 123.64L138.538 123.293C138.365 122.825 138.107 122.39 137.882 122.001C137.648 121.597 137.443 121.231 137.313 120.842L136.365 121.16ZM137.605 123.652C137.883 124.35 137.776 125.095 137.636 125.886L138.621 126.06C138.756 125.297 138.931 124.279 138.533 123.281L137.605 123.652ZM137.636 125.887C137.504 126.643 137.337 127.52 137.553 128.34L138.52 128.085C138.371 127.518 138.479 126.875 138.621 126.059L137.636 125.887ZM137.55 128.328C137.654 128.769 137.874 129.132 138.087 129.435C138.192 129.584 138.306 129.732 138.402 129.862C138.503 129.996 138.59 130.117 138.664 130.236L139.513 129.708C139.416 129.551 139.307 129.401 139.203 129.263C139.096 129.12 138.999 128.993 138.905 128.859C138.719 128.595 138.584 128.355 138.524 128.098L137.55 128.328ZM138.669 130.243C138.82 130.476 138.914 130.707 138.947 130.917L139.935 130.765C139.876 130.381 139.715 130.019 139.509 129.7L138.669 130.243ZM138.948 130.924C138.992 131.182 138.985 131.405 139.001 131.718L140 131.668C139.988 131.438 139.991 131.092 139.934 130.757L138.948 130.924ZM139.001 131.719C139.014 131.975 139.033 132.322 139.16 132.637L140.087 132.262C140.032 132.126 140.014 131.946 140 131.668L139.001 131.719ZM139.16 132.637C139.299 132.98 139.551 133.22 139.75 133.383L140.384 132.61C140.227 132.481 140.131 132.37 140.087 132.262L139.16 132.637ZM139.766 133.396C140.193 133.718 140.643 133.915 141.019 134.045L141.348 133.101C141.028 132.99 140.683 132.835 140.369 132.598L139.766 133.396ZM141.021 134.046C141.405 134.178 141.746 134.252 142.024 134.293L142.172 133.304C141.947 133.271 141.666 133.211 141.346 133.101L141.021 134.046ZM142.016 134.292C142.304 134.34 142.531 134.345 142.663 134.349L142.694 133.349C142.561 133.345 142.395 133.341 142.18 133.306L142.016 134.292ZM142.694 134.349C142.753 134.347 142.795 134.347 142.821 134.347C142.834 134.348 142.843 134.348 142.848 134.348C142.85 134.348 142.852 134.348 142.852 134.348C142.852 134.348 142.852 134.348 142.852 134.348C142.851 134.348 142.851 134.348 142.851 134.348C142.851 134.348 142.85 134.348 142.85 134.348C142.85 134.348 142.85 134.348 142.85 134.348C142.85 134.348 142.85 134.348 142.85 134.348C142.85 134.348 142.85 134.348 142.85 134.348C142.85 134.348 142.85 134.348 142.88 133.849C142.91 133.35 142.91 133.35 142.91 133.35C142.91 133.35 142.91 133.35 142.91 133.35C142.91 133.35 142.91 133.35 142.91 133.35C142.91 133.35 142.91 133.35 142.91 133.35C142.909 133.35 142.909 133.35 142.909 133.35C142.908 133.35 142.907 133.35 142.907 133.35C142.905 133.35 142.904 133.35 142.902 133.35C142.898 133.349 142.892 133.349 142.886 133.349C142.874 133.348 142.858 133.348 142.837 133.348C142.795 133.347 142.737 133.347 142.663 133.349L142.694 134.349ZM142.476 133.554L142.467 133.567L143.275 134.156L143.284 134.144L142.476 133.554Z" fill="#5C5C5C" mask="url(#path-58-inside-2_2621_53790)"/>
<mask id="path-60-inside-3_2621_53790" fill="white">
<path d="M133.862 103.181C133.862 103.181 133.875 103.206 133.889 103.26C133.907 103.323 133.926 103.398 133.953 103.494C134.008 103.699 134.077 104.008 134.182 104.397C134.292 104.781 134.552 105.22 134.772 105.759C135 106.293 135.234 106.912 135.449 107.605C135.668 108.299 135.86 109.072 136.061 109.899C136.267 110.722 136.478 111.608 136.976 112.444C137.209 112.866 137.475 113.296 137.68 113.764C137.895 114.232 138.01 114.746 138.092 115.26C138.229 116.292 138.435 117.341 138.705 118.41C139.276 120.545 139.821 122.576 140.314 124.427C140.822 126.269 141.279 127.932 141.664 129.336C142.039 130.723 142.345 131.852 142.56 132.65C142.66 133.03 142.738 133.335 142.793 133.552L142.848 133.786C142.862 133.84 142.866 133.865 142.862 133.87C142.862 133.87 142.848 133.845 142.83 133.79L142.757 133.56C142.692 133.343 142.601 133.042 142.487 132.666C142.258 131.872 141.933 130.749 141.535 129.366C141.138 127.966 140.667 126.307 140.145 124.464C139.647 122.614 139.093 120.579 138.517 118.444C138.247 117.374 138.037 116.309 137.904 115.281C137.827 114.771 137.717 114.278 137.511 113.823C137.31 113.367 137.049 112.941 136.816 112.511C136.313 111.662 136.107 110.747 135.906 109.928C135.709 109.101 135.526 108.332 135.316 107.639C135.11 106.945 134.886 106.327 134.667 105.792C134.456 105.257 134.205 104.814 134.1 104.417C133.999 104.02 133.949 103.715 133.903 103.507C133.885 103.41 133.871 103.331 133.857 103.268C133.848 103.214 133.843 103.185 133.848 103.185L133.862 103.181Z"/>
</mask>
<path d="M133.862 103.181C133.862 103.181 133.875 103.206 133.889 103.26C133.907 103.323 133.926 103.398 133.953 103.494C134.008 103.699 134.077 104.008 134.182 104.397C134.292 104.781 134.552 105.22 134.772 105.759C135 106.293 135.234 106.912 135.449 107.605C135.668 108.299 135.86 109.072 136.061 109.899C136.267 110.722 136.478 111.608 136.976 112.444C137.209 112.866 137.475 113.296 137.68 113.764C137.895 114.232 138.01 114.746 138.092 115.26C138.229 116.292 138.435 117.341 138.705 118.41C139.276 120.545 139.821 122.576 140.314 124.427C140.822 126.269 141.279 127.932 141.664 129.336C142.039 130.723 142.345 131.852 142.56 132.65C142.66 133.03 142.738 133.335 142.793 133.552L142.848 133.786C142.862 133.84 142.866 133.865 142.862 133.87C142.862 133.87 142.848 133.845 142.83 133.79L142.757 133.56C142.692 133.343 142.601 133.042 142.487 132.666C142.258 131.872 141.933 130.749 141.535 129.366C141.138 127.966 140.667 126.307 140.145 124.464C139.647 122.614 139.093 120.579 138.517 118.444C138.247 117.374 138.037 116.309 137.904 115.281C137.827 114.771 137.717 114.278 137.511 113.823C137.31 113.367 137.049 112.941 136.816 112.511C136.313 111.662 136.107 110.747 135.906 109.928C135.709 109.101 135.526 108.332 135.316 107.639C135.11 106.945 134.886 106.327 134.667 105.792C134.456 105.257 134.205 104.814 134.1 104.417C133.999 104.02 133.949 103.715 133.903 103.507C133.885 103.41 133.871 103.331 133.857 103.268C133.848 103.214 133.843 103.185 133.848 103.185L133.862 103.181Z" fill="#5A8FD3"/>
<path d="M133.862 103.181L134.3 102.941L134.105 102.584L133.716 102.702L133.862 103.181ZM133.889 103.26L133.404 103.382L133.407 103.391L133.409 103.4L133.889 103.26ZM133.953 103.494L134.436 103.365L134.434 103.357L133.953 103.494ZM134.182 104.397L133.699 104.527L133.701 104.534L134.182 104.397ZM134.772 105.759L134.309 105.947L134.312 105.955L134.772 105.759ZM135.449 107.605L134.971 107.753L134.972 107.756L135.449 107.605ZM136.061 109.899L135.576 110.017L135.576 110.021L136.061 109.899ZM136.976 112.444L137.414 112.202L137.41 112.195L137.405 112.188L136.976 112.444ZM137.68 113.764L137.223 113.965L137.226 113.973L137.68 113.764ZM138.092 115.26L138.588 115.194L138.586 115.181L138.092 115.26ZM138.705 118.41L138.22 118.533L138.222 118.54L138.705 118.41ZM140.314 124.427L139.831 124.556L139.832 124.56L140.314 124.427ZM141.664 129.336L142.146 129.206L142.146 129.204L141.664 129.336ZM142.56 132.65L143.043 132.522L143.043 132.52L142.56 132.65ZM142.793 133.552L143.28 133.438L143.278 133.43L142.793 133.552ZM142.848 133.786L142.361 133.9L142.363 133.909L142.848 133.786ZM142.862 133.87L142.423 134.11L142.729 134.668L143.199 134.239L142.862 133.87ZM142.83 133.79L142.353 133.942L142.356 133.95L142.83 133.79ZM142.757 133.56L142.277 133.702L142.28 133.712L142.757 133.56ZM142.487 132.666L142.006 132.805L142.008 132.812L142.487 132.666ZM141.535 129.366L141.055 129.502L141.055 129.504L141.535 129.366ZM140.145 124.464L139.662 124.595L139.664 124.601L140.145 124.464ZM138.517 118.444L138.032 118.566L138.034 118.574L138.517 118.444ZM137.904 115.281L138.4 115.217L138.399 115.205L137.904 115.281ZM137.511 113.823L137.054 114.025L137.055 114.028L137.511 113.823ZM136.816 112.511L137.256 112.272L137.251 112.264L137.246 112.256L136.816 112.511ZM135.906 109.928L135.419 110.044L135.42 110.048L135.906 109.928ZM135.316 107.639L134.837 107.781L134.837 107.784L135.316 107.639ZM134.667 105.792L134.201 105.975L134.204 105.982L134.667 105.792ZM134.1 104.417L133.615 104.54L133.616 104.545L134.1 104.417ZM133.903 103.507L133.411 103.6L133.414 103.613L133.903 103.507ZM133.857 103.268L133.364 103.351L133.366 103.363L133.369 103.375L133.857 103.268ZM133.848 103.185V103.685H133.922L133.994 103.663L133.848 103.185ZM133.862 103.181C133.423 103.421 133.423 103.421 133.423 103.421C133.423 103.42 133.423 103.42 133.423 103.42C133.423 103.42 133.423 103.42 133.423 103.42C133.423 103.42 133.422 103.419 133.422 103.419C133.422 103.419 133.422 103.418 133.421 103.417C133.421 103.416 133.42 103.415 133.42 103.414C133.419 103.412 133.417 103.41 133.417 103.408C133.415 103.404 133.413 103.401 133.411 103.398C133.408 103.392 133.406 103.387 133.405 103.383C133.402 103.377 133.403 103.376 133.404 103.382L134.374 103.138C134.362 103.09 134.348 103.05 134.335 103.017C134.329 103 134.323 102.986 134.317 102.973C134.314 102.967 134.311 102.961 134.308 102.955C134.307 102.953 134.305 102.95 134.304 102.948C134.303 102.946 134.303 102.945 134.302 102.944C134.302 102.943 134.302 102.943 134.301 102.942C134.301 102.942 134.301 102.942 134.301 102.941C134.301 102.941 134.301 102.941 134.301 102.941C134.3 102.941 134.3 102.941 134.3 102.941C134.3 102.941 134.3 102.941 133.862 103.181ZM133.409 103.4C133.416 103.425 133.424 103.453 133.435 103.493C133.445 103.532 133.457 103.579 133.472 103.631L134.434 103.357C134.422 103.313 134.411 103.274 134.401 103.236C134.391 103.199 134.38 103.158 134.369 103.12L133.409 103.4ZM133.47 103.623C133.496 103.719 133.525 103.839 133.563 103.995C133.601 104.148 133.645 104.327 133.699 104.527L134.664 104.266C134.613 104.077 134.571 103.907 134.534 103.757C134.498 103.61 134.465 103.474 134.436 103.365L133.47 103.623ZM133.701 104.534C133.769 104.77 133.878 105.01 133.984 105.233C134.094 105.467 134.206 105.694 134.309 105.947L135.235 105.57C135.118 105.284 134.99 105.023 134.888 104.806C134.78 104.579 134.705 104.407 134.663 104.259L133.701 104.534ZM134.312 105.955C134.534 106.475 134.761 107.077 134.971 107.753L135.926 107.457C135.706 106.746 135.467 106.112 135.232 105.562L134.312 105.955ZM134.972 107.756C135.186 108.431 135.374 109.188 135.576 110.017L136.547 109.781C136.346 108.955 136.151 108.167 135.925 107.455L134.972 107.756ZM135.576 110.021C135.779 110.83 136.004 111.79 136.547 112.7L137.405 112.188C136.951 111.426 136.756 110.615 136.546 109.778L135.576 110.021ZM136.538 112.686C136.787 113.135 137.029 113.525 137.223 113.965L138.138 113.563C137.92 113.067 137.632 112.596 137.414 112.202L136.538 112.686ZM137.226 113.973C137.413 114.379 137.518 114.84 137.598 115.339L138.586 115.181C138.501 114.651 138.378 114.085 138.135 113.555L137.226 113.973ZM137.596 115.326C137.736 116.379 137.946 117.446 138.22 118.533L139.19 118.288C138.924 117.235 138.722 116.205 138.588 115.194L137.596 115.326ZM138.222 118.54C138.793 120.675 139.338 122.705 139.831 124.556L140.798 124.298C140.304 122.447 139.759 120.416 139.188 118.281L138.222 118.54ZM139.832 124.56C140.34 126.402 140.797 128.065 141.181 129.468L142.146 129.204C141.762 127.8 141.304 126.137 140.796 124.294L139.832 124.56ZM141.181 129.467C141.556 130.855 141.862 131.982 142.077 132.78L143.043 132.52C142.828 131.721 142.521 130.592 142.146 129.206L141.181 129.467ZM142.077 132.777C142.176 133.155 142.254 133.458 142.308 133.675L143.278 133.43C143.223 133.211 143.144 132.904 143.043 132.522L142.077 132.777ZM142.306 133.666L142.361 133.9L143.335 133.672L143.28 133.438L142.306 133.666ZM142.363 133.909C142.37 133.936 142.37 133.938 142.369 133.93C142.368 133.928 142.363 133.901 142.363 133.862C142.363 133.844 142.364 133.802 142.377 133.75C142.388 133.705 142.421 133.595 142.524 133.5L143.199 134.239C143.304 134.143 143.338 134.032 143.349 133.984C143.362 133.93 143.363 133.885 143.363 133.862C143.363 133.817 143.357 133.779 143.355 133.764C143.349 133.728 143.34 133.691 143.333 133.664L142.363 133.909ZM142.862 133.87C143.3 133.63 143.3 133.63 143.3 133.63C143.3 133.63 143.3 133.63 143.3 133.63C143.301 133.63 143.301 133.63 143.301 133.63C143.301 133.63 143.301 133.631 143.301 133.631C143.301 133.631 143.301 133.632 143.302 133.632C143.302 133.633 143.302 133.633 143.303 133.634C143.304 133.636 143.304 133.637 143.305 133.638C143.306 133.641 143.307 133.643 143.308 133.644C143.31 133.648 143.31 133.65 143.311 133.65C143.311 133.65 143.308 133.644 143.304 133.631L142.356 133.95C142.37 133.991 142.383 134.024 142.395 134.051C142.4 134.064 142.406 134.076 142.411 134.085C142.413 134.09 142.415 134.095 142.417 134.099C142.418 134.101 142.419 134.103 142.42 134.105C142.421 134.105 142.421 134.106 142.422 134.107C142.422 134.108 142.422 134.108 142.422 134.108C142.423 134.109 142.423 134.109 142.423 134.109C142.423 134.109 142.423 134.109 142.423 134.109C142.423 134.109 142.423 134.109 142.423 134.11C142.423 134.11 142.423 134.11 142.862 133.87ZM143.306 133.639L143.233 133.409L142.28 133.712L142.353 133.942L143.306 133.639ZM143.236 133.419C143.171 133.199 143.079 132.896 142.965 132.521L142.008 132.812C142.123 133.189 142.214 133.487 142.277 133.702L143.236 133.419ZM142.967 132.528C142.738 131.733 142.414 130.61 142.016 129.227L141.055 129.504C141.453 130.887 141.778 132.012 142.006 132.805L142.967 132.528ZM142.016 129.229C141.619 127.829 141.148 126.171 140.626 124.328L139.664 124.601C140.186 126.443 140.657 128.102 141.055 129.502L142.016 129.229ZM140.628 124.334C140.13 122.484 139.576 120.446 139 118.313L138.034 118.574C138.611 120.711 139.164 122.743 139.662 124.594L140.628 124.334ZM139.002 118.321C138.736 117.268 138.53 116.222 138.4 115.217L137.408 115.345C137.544 116.395 137.758 117.48 138.032 118.566L139.002 118.321ZM138.399 115.205C138.318 114.677 138.2 114.133 137.967 113.617L137.055 114.028C137.234 114.423 137.335 114.865 137.41 115.356L138.399 115.205ZM137.968 113.62C137.756 113.141 137.472 112.672 137.256 112.272L136.376 112.749C136.626 113.21 136.863 113.594 137.054 114.025L137.968 113.62ZM137.246 112.256C136.788 111.483 136.597 110.646 136.391 109.809L135.42 110.048C135.617 110.849 135.838 111.842 136.386 112.766L137.246 112.256ZM136.392 109.813C136.197 108.989 136.01 108.205 135.794 107.494L134.837 107.784C135.043 108.46 135.222 109.213 135.419 110.044L136.392 109.813ZM135.795 107.497C135.584 106.786 135.355 106.152 135.129 105.602L134.204 105.982C134.418 106.502 134.636 107.105 134.837 107.781L135.795 107.497ZM135.132 105.609C135.021 105.327 134.897 105.065 134.799 104.848C134.697 104.62 134.624 104.444 134.583 104.289L133.616 104.545C133.68 104.788 133.786 105.032 133.888 105.258C133.995 105.496 134.102 105.723 134.201 105.975L135.132 105.609ZM134.584 104.295C134.485 103.904 134.445 103.643 134.391 103.4L133.414 103.613C133.453 103.787 133.513 104.137 133.615 104.54L134.584 104.295ZM134.394 103.413C134.378 103.33 134.361 103.233 134.346 103.161L133.369 103.375C133.381 103.429 133.391 103.491 133.412 103.6L134.394 103.413ZM134.35 103.185C134.348 103.172 134.346 103.162 134.345 103.154C134.344 103.146 134.344 103.144 134.344 103.146C134.344 103.147 134.344 103.152 134.345 103.159C134.345 103.164 134.347 103.18 134.346 103.2C134.346 103.211 134.345 103.27 134.322 103.341C134.31 103.377 134.281 103.454 134.21 103.529C134.127 103.617 134 103.685 133.848 103.685V102.685C133.499 102.685 133.386 102.987 133.371 103.031C133.347 103.105 133.347 103.166 133.346 103.18C133.345 103.222 133.35 103.257 133.351 103.267C133.354 103.294 133.36 103.328 133.364 103.351L134.35 103.185ZM133.994 103.663L134.007 103.659L133.716 102.702L133.702 102.707L133.994 103.663Z" fill="#5C5C5C" mask="url(#path-60-inside-3_2621_53790)"/>
<mask id="path-62-inside-4_2621_53790" fill="white">
<path d="M142.368 133.871C140.506 132.86 139.971 129.789 140.749 127.942C141.526 126.095 142.884 124.407 143.095 122.439C143.255 120.927 142.715 119.373 143.095 117.893C143.616 115.896 145.752 114.35 145.724 112.295C145.711 111.141 144.993 110.059 145.052 108.91C145.121 107.498 146.31 106.378 147.042 105.137C148.167 103.232 148.24 100.984 148.624 98.8492C149.008 96.7141 149.9 94.4286 151.967 93.3799C152.273 95.1932 152.795 96.4342 152.63 98.8868C152.57 99.7684 151.45 101.456 151.299 103.387C151.208 104.54 151.144 105.697 151.066 106.855C150.993 107.979 150.91 109.123 150.471 110.176C150.133 110.983 149.589 111.714 149.337 112.545C148.866 114.112 149.484 115.809 149.104 117.392C148.779 118.737 147.764 119.891 147.554 121.257C147.261 123.171 148.619 125.159 147.924 126.989C147.581 127.896 146.763 128.623 146.534 129.559C146.356 130.286 146.552 131.055 146.388 131.782C146.127 132.956 143.671 133.871 142.363 133.796"/>
</mask>
<path d="M142.368 133.871C140.506 132.86 139.971 129.789 140.749 127.942C141.526 126.095 142.884 124.407 143.095 122.439C143.255 120.927 142.715 119.373 143.095 117.893C143.616 115.896 145.752 114.35 145.724 112.295C145.711 111.141 144.993 110.059 145.052 108.91C145.121 107.498 146.31 106.378 147.042 105.137C148.167 103.232 148.24 100.984 148.624 98.8492C149.008 96.7141 149.9 94.4286 151.967 93.3799C152.273 95.1932 152.795 96.4342 152.63 98.8868C152.57 99.7684 151.45 101.456 151.299 103.387C151.208 104.54 151.144 105.697 151.066 106.855C150.993 107.979 150.91 109.123 150.471 110.176C150.133 110.983 149.589 111.714 149.337 112.545C148.866 114.112 149.484 115.809 149.104 117.392C148.779 118.737 147.764 119.891 147.554 121.257C147.261 123.171 148.619 125.159 147.924 126.989C147.581 127.896 146.763 128.623 146.534 129.559C146.356 130.286 146.552 131.055 146.388 131.782C146.127 132.956 143.671 133.871 142.363 133.796" fill="#DEC73F"/>
<path d="M143.095 122.439L143.393 122.471L143.393 122.471L143.095 122.439ZM143.095 117.893L142.805 117.818L142.804 117.819L143.095 117.893ZM145.724 112.295L145.424 112.298L145.424 112.299L145.724 112.295ZM145.052 108.91L145.352 108.926L145.352 108.925L145.052 108.91ZM147.042 105.137L146.783 104.985L146.783 104.985L147.042 105.137ZM151.967 93.3799L152.263 93.3299L152.195 92.9279L151.831 93.1123L151.967 93.3799ZM152.63 98.8868L152.929 98.9069L152.929 98.9069L152.63 98.8868ZM151.299 103.387L151.598 103.41L151.598 103.41L151.299 103.387ZM151.066 106.855L150.767 106.835L150.767 106.835L151.066 106.855ZM150.471 110.176L150.748 110.292L150.748 110.292L150.471 110.176ZM149.337 112.545L149.05 112.458L149.05 112.459L149.337 112.545ZM149.104 117.392L149.396 117.462L149.396 117.462L149.104 117.392ZM147.554 121.257L147.257 121.211L147.257 121.212L147.554 121.257ZM147.924 126.989L147.644 126.883L147.644 126.883L147.924 126.989ZM146.534 129.559L146.825 129.631L146.825 129.63L146.534 129.559ZM146.388 131.782L146.095 131.716L146.095 131.717L146.388 131.782ZM142.511 133.607C141.682 133.157 141.118 132.227 140.861 131.15C140.603 130.075 140.666 128.912 141.025 128.058L140.472 127.826C140.054 128.818 139.996 130.115 140.277 131.29C140.558 132.463 141.193 133.574 142.225 134.135L142.511 133.607ZM141.025 128.058C141.409 127.148 141.925 126.298 142.401 125.374C142.869 124.466 143.282 123.512 143.393 122.471L142.797 122.407C142.697 123.335 142.326 124.208 141.868 125.099C141.418 125.972 140.867 126.889 140.472 127.826L141.025 128.058ZM143.393 122.471C143.477 121.678 143.377 120.873 143.311 120.127C143.244 119.366 143.21 118.653 143.385 117.968L142.804 117.819C142.601 118.613 142.646 119.417 142.714 120.18C142.783 120.959 142.873 121.688 142.797 122.408L143.393 122.471ZM143.385 117.969C143.63 117.033 144.253 116.2 144.865 115.282C145.459 114.392 146.039 113.421 146.024 112.291L145.424 112.299C145.437 113.224 144.963 114.054 144.366 114.95C143.787 115.818 143.081 116.757 142.805 117.818L143.385 117.969ZM146.024 112.291C146.017 111.662 145.817 111.058 145.647 110.512C145.472 109.948 145.325 109.439 145.352 108.926L144.753 108.895C144.72 109.53 144.902 110.137 145.074 110.69C145.252 111.261 145.418 111.774 145.424 112.298L146.024 112.291ZM145.352 108.925C145.382 108.299 145.661 107.721 146.05 107.123C146.244 106.824 146.458 106.531 146.676 106.226C146.892 105.924 147.11 105.612 147.3 105.29L146.783 104.985C146.607 105.283 146.403 105.576 146.188 105.877C145.975 106.175 145.75 106.483 145.547 106.796C145.14 107.422 144.791 108.109 144.753 108.896L145.352 108.925ZM147.3 105.29C147.887 104.295 148.195 103.219 148.405 102.137C148.51 101.595 148.591 101.048 148.67 100.508C148.748 99.9649 148.824 99.4299 148.919 98.9023L148.329 98.796C148.231 99.336 148.154 99.8826 148.076 100.421C147.997 100.962 147.918 101.497 147.816 102.022C147.612 103.073 147.321 104.074 146.783 104.985L147.3 105.29ZM148.919 98.9023C149.299 96.7898 150.167 94.6294 152.103 93.6474L151.831 93.1123C149.632 94.2278 148.717 96.6384 148.329 98.796L148.919 98.9023ZM151.671 93.4299C151.986 95.2947 152.492 96.461 152.331 98.8667L152.929 98.9069C153.097 96.4073 152.56 95.0917 152.263 93.3299L151.671 93.4299ZM152.331 98.8666C152.319 99.0403 152.252 99.2759 152.137 99.5861C152.022 99.8953 151.877 100.236 151.72 100.633C151.411 101.412 151.079 102.351 151 103.363L151.598 103.41C151.67 102.492 151.973 101.622 152.278 100.854C152.427 100.478 152.582 100.11 152.699 99.7946C152.816 99.48 152.911 99.1741 152.929 98.9069L152.331 98.8666ZM151 103.363C150.908 104.518 150.844 105.682 150.767 106.835L151.365 106.875C151.443 105.712 151.507 104.561 151.598 103.41L151 103.363ZM150.767 106.835C150.693 107.966 150.611 109.061 150.194 110.061L150.748 110.292C151.209 109.186 151.293 107.991 151.365 106.874L150.767 106.835ZM150.195 110.06C150.033 110.446 149.823 110.812 149.608 111.209C149.397 111.598 149.185 112.011 149.05 112.458L149.624 112.632C149.741 112.248 149.927 111.88 150.136 111.494C150.34 111.116 150.571 110.713 150.748 110.292L150.195 110.06ZM149.05 112.459C148.797 113.3 148.839 114.168 148.887 114.98C148.936 115.81 148.99 116.582 148.812 117.322L149.396 117.462C149.598 116.618 149.533 115.75 149.486 114.945C149.437 114.122 149.406 113.357 149.625 112.632L149.05 112.459ZM148.812 117.322C148.66 117.952 148.345 118.541 148.019 119.18C147.7 119.804 147.371 120.474 147.257 121.211L147.85 121.303C147.947 120.673 148.231 120.083 148.553 119.453C148.868 118.837 149.223 118.177 149.396 117.462L148.812 117.322ZM147.257 121.212C147.1 122.238 147.387 123.281 147.597 124.22C147.814 125.189 147.956 126.061 147.644 126.883L148.205 127.096C148.588 126.088 148.398 125.051 148.183 124.089C147.961 123.097 147.715 122.189 147.85 121.302L147.257 121.212ZM147.644 126.883C147.487 127.297 147.222 127.671 146.937 128.096C146.662 128.507 146.371 128.962 146.242 129.488L146.825 129.63C146.926 129.22 147.158 128.844 147.435 128.43C147.703 128.031 148.018 127.589 148.205 127.096L147.644 126.883ZM146.243 129.488C146.143 129.895 146.149 130.307 146.156 130.675C146.162 131.057 146.168 131.394 146.095 131.716L146.68 131.848C146.772 131.443 146.762 131.032 146.756 130.665C146.749 130.286 146.747 129.95 146.825 129.631L146.243 129.488ZM146.095 131.717C146.049 131.923 145.898 132.148 145.636 132.376C145.377 132.601 145.032 132.809 144.645 132.984C143.864 133.337 142.972 133.53 142.38 133.496L142.346 134.095C143.062 134.136 144.052 133.91 144.892 133.531C145.314 133.34 145.714 133.103 146.029 132.829C146.342 132.557 146.596 132.228 146.68 131.847L146.095 131.717Z" fill="#5C5C5C" mask="url(#path-62-inside-4_2621_53790)"/>
<defs>
<filter id="filter0_d_2621_53790" x="84.6213" y="87.9961" width="49.2524" height="48.8809" filterUnits="userSpaceOnUse" color-interpolation-filters="sRGB">
<feFlood flood-opacity="0" result="BackgroundImageFix"/>
<feColorMatrix in="SourceAlpha" type="matrix" values="0 0 0 0 0 0 0 0 0 0 0 0 0 0 0 0 0 0 127 0" result="hardAlpha"/>
<feOffset dy="6.86133"/>
<feGaussianBlur stdDeviation="3.43067"/>
<feComposite in2="hardAlpha" operator="out"/>
<feColorMatrix type="matrix" values="0 0 0 0 0 0 0 0 0 0 0 0 0 0 0 0 0 0 0.2 0"/>
<feBlend mode="normal" in2="BackgroundImageFix" result="effect1_dropShadow_2621_53790"/>
<feBlend mode="normal" in="SourceGraphic" in2="effect1_dropShadow_2621_53790" result="shape"/>
</filter>
</defs>
</svg>
