<svg width="212" height="174" viewBox="0 0 212 174" fill="none" xmlns="http://www.w3.org/2000/svg">
<path opacity="0.9" d="M9.95042 35.5593C15.858 2.75883 65.6405 -6.17922 89.9516 9.26503C114.263 24.7093 123.867 36.2057 138.773 24.0185C153.68 11.8314 175.848 8.0763 183.58 32.0594C191.312 56.0425 179.194 90.0921 149.936 107.044C120.678 123.996 128.756 154.083 85.3983 159.194C61.759 161.978 54.6651 137.566 52.4371 116.399C50.2091 95.2321 3.12161 73.6275 9.95042 35.5593Z" fill="#74A4D1" fill-opacity="0.08"/>
<path d="M157.728 173.618C164.494 173.618 169.979 168.134 169.979 161.368C169.979 154.602 164.494 149.117 157.728 149.117C150.963 149.117 145.478 154.602 145.478 161.368C145.478 168.134 150.963 173.618 157.728 173.618Z" fill="#1E62A1" fill-opacity="0.3"/>
<path d="M204.689 104.709C208.354 104.709 211.324 101.738 211.324 98.0732C211.324 94.4084 208.354 91.4375 204.689 91.4375C201.024 91.4375 198.053 94.4084 198.053 98.0732C198.053 101.738 201.024 104.709 204.689 104.709Z" fill="#1E62A1" fill-opacity="0.3"/>
<path d="M30.8766 19.3807C34.4005 19.3807 37.2571 16.524 37.2571 13.0002C37.2571 9.47629 34.4005 6.61963 30.8766 6.61963C27.3527 6.61963 24.4961 9.47629 24.4961 13.0002C24.4961 16.524 27.3527 19.3807 30.8766 19.3807Z" fill="#1E62A1" fill-opacity="0.3"/>
<path d="M13.018 136.356C16.5418 136.356 19.3985 133.5 19.3985 129.976C19.3985 126.452 16.5418 123.595 13.018 123.595C9.49411 123.595 6.63745 126.452 6.63745 129.976C6.63745 133.5 9.49411 136.356 13.018 136.356Z" fill="#1E62A1" fill-opacity="0.3"/>
<g clip-path="url(#clip0_2076_29021)">
<path d="M164.553 117.302H43.3943V119.053H164.553V117.302Z" fill="#F8F8F8"/>
<path d="M165.795 119.052H42.1526V120.803H165.795V119.052Z" fill="#B3B3B3"/>
<path d="M167.5 120.803H40.448V122.554H167.5V120.803Z" fill="#C9CCCF"/>
<path d="M159.53 50.3594H46.2197V117.301H159.53V50.3594Z" fill="#DCE2EB"/>
<path d="M167.224 51.6361H39.5L104.523 18.6782L167.224 51.6361Z" fill="white"/>
<path d="M58.887 47.2377L147.837 47.0503L104.478 24.5044L58.887 47.2377Z" fill="#DCE2EB"/>
<path d="M164.512 51.6362H42.8337V53.8346H164.512V51.6362Z" fill="#B3B6CA"/>
<path d="M63.8538 51.6362H51.8687V55.8793H63.8538V51.6362Z" fill="white"/>
<path d="M61.1645 55.8794H54.5579V117.302H61.1645V55.8794Z" fill="white"/>
<path d="M89.752 51.6362H77.7668V55.8793H89.752V51.6362Z" fill="white"/>
<path d="M87.0627 55.8794H80.4561V117.302H87.0627V55.8794Z" fill="white"/>
<path d="M130.463 51.6362H118.478V55.8793H130.463V51.6362Z" fill="white"/>
<path d="M127.774 55.8794H121.167V117.302H127.774V55.8794Z" fill="white"/>
<path d="M154.849 51.6362H142.864V55.8793H154.849V51.6362Z" fill="white"/>
<path d="M152.16 55.8794H145.553V117.302H152.16V55.8794Z" fill="white"/>
<path d="M105.861 39.8219C105.864 39.6025 105.836 39.4093 105.777 39.2411C105.717 39.073 105.619 38.9203 105.48 38.7821C105.342 38.6439 105.163 38.5164 104.942 38.3975C104.722 38.2796 104.452 38.1627 104.133 38.0487C103.585 37.8477 103.087 37.638 102.64 37.4196C102.193 37.2012 101.812 36.9519 101.495 36.6698C101.178 36.3886 100.935 36.061 100.763 35.687C100.591 35.3131 100.509 34.8705 100.517 34.3584C100.523 33.9148 100.607 33.5109 100.771 33.1466C100.933 32.7833 101.163 32.4683 101.46 32.2006C101.756 31.9329 102.109 31.7174 102.52 31.5532C102.93 31.3899 103.388 31.2874 103.896 31.2478L103.92 29.5703L105.27 29.5896L105.245 31.2903C105.727 31.3599 106.164 31.4942 106.555 31.6933C106.945 31.8923 107.277 32.1484 107.548 32.4605C107.819 32.7727 108.027 33.1408 108.17 33.5631C108.313 33.9863 108.38 34.4589 108.373 34.9807L105.935 34.9449C105.943 34.3178 105.811 33.8472 105.537 33.5322C105.264 33.2172 104.893 33.0567 104.426 33.05C104.173 33.0461 103.955 33.078 103.771 33.1466C103.587 33.2143 103.436 33.309 103.316 33.4297C103.196 33.5505 103.106 33.6945 103.048 33.8607C102.989 34.0269 102.959 34.2067 102.956 34.3999C102.954 34.5932 102.98 34.7681 103.033 34.9256C103.087 35.0831 103.182 35.23 103.318 35.3653C103.454 35.5005 103.635 35.6281 103.861 35.7489C104.087 35.8697 104.368 35.9953 104.704 36.1257C105.246 36.3374 105.739 36.5538 106.184 36.7741C106.627 36.9954 107.008 37.2476 107.324 37.5317C107.641 37.8158 107.885 38.1453 108.057 38.5183C108.229 38.8923 108.311 39.332 108.303 39.8393C108.296 40.2992 108.21 40.7109 108.045 41.0742C107.88 41.4375 107.648 41.7506 107.352 42.0125C107.056 42.2744 106.7 42.484 106.284 42.6396C105.869 42.7952 105.407 42.8938 104.901 42.9334L104.877 44.493L103.536 44.4737L103.558 42.9218C103.092 42.8677 102.642 42.7594 102.209 42.5961C101.775 42.4328 101.392 42.2019 101.059 41.9014C100.725 41.6018 100.46 41.2249 100.265 40.7727C100.069 40.3205 99.9754 39.7813 99.9851 39.1542L102.423 39.1899C102.417 39.561 102.465 39.8712 102.566 40.1205C102.667 40.3698 102.803 40.5708 102.975 40.7225C103.147 40.8742 103.344 40.9814 103.565 41.0442C103.787 41.108 104.013 41.1409 104.243 41.1438C104.507 41.1476 104.739 41.1167 104.94 41.052C105.141 40.9872 105.309 40.8954 105.447 40.7775C105.583 40.6597 105.686 40.5186 105.757 40.3553C105.826 40.192 105.863 40.0132 105.866 39.8199L105.861 39.8219Z" fill="white"/>
<path d="M67.0698 66.3154H74.5587C74.6321 66.3154 74.692 66.3753 74.692 66.4488V78.4378H66.9287V66.4565C66.9287 66.3782 66.9915 66.3154 67.0698 66.3154Z" fill="#B3B6CA"/>
<path d="M67.0698 92.3389H74.5587C74.6321 92.3389 74.692 92.3988 74.692 92.4722V104.461H66.9287V92.48C66.9287 92.4017 66.9915 92.3389 67.0698 92.3389Z" fill="#B3B6CA"/>
<path d="M133.035 66.3154H140.524C140.597 66.3154 140.657 66.3753 140.657 66.4488V78.4378H132.894V66.4565C132.894 66.3782 132.956 66.3154 133.035 66.3154Z" fill="#B3B6CA"/>
<path d="M132.997 92.3389H140.486C140.559 92.3389 140.619 92.3988 140.619 92.4722V104.461H132.857V92.48C132.857 92.4017 132.92 92.3389 132.998 92.3389H132.997Z" fill="#B3B6CA"/>
<path d="M54.5579 58.6527C54.5579 58.6527 55.5329 56.8351 57.8617 56.9201C60.3953 57.0129 61.1655 58.6527 61.1655 58.6527V55.8794H54.5588V58.6527H54.5579Z" fill="#9AA4B4"/>
<path d="M80.4561 58.6527C80.4561 58.6527 81.4311 56.8351 83.7599 56.9201C86.2935 57.0129 87.0637 58.6527 87.0637 58.6527V55.8794H80.457V58.6527H80.4561Z" fill="#9AA4B4"/>
<path d="M121.167 58.6527C121.167 58.6527 122.142 56.8351 124.471 56.9201C127.005 57.0129 127.775 58.6527 127.775 58.6527V55.8794H121.168V58.6527H121.167Z" fill="#9AA4B4"/>
<path d="M145.553 58.6527C145.553 58.6527 146.528 56.8351 148.857 56.9201C151.391 57.0129 152.16 58.6527 152.16 58.6527V55.8794H145.553V58.6527Z" fill="#9AA4B4"/>
<path d="M63.8538 51.6304H51.8687V52.3696H63.8538V51.6304Z" fill="#9AA4B4"/>
<path d="M89.752 51.6304H77.7668V52.3696H89.752V51.6304Z" fill="#9AA4B4"/>
<path d="M130.463 51.6304H118.478V52.3696H130.463V51.6304Z" fill="#9AA4B4"/>
<path d="M154.849 51.6304H142.864V52.3696H154.849V51.6304Z" fill="#9AA4B4"/>
<path d="M103.108 25.1876L144.526 47.058L147.837 47.0628L104.478 24.5044L103.108 25.1876Z" fill="#A8ACB3"/>
<path d="M74.9694 78.7141H66.6523V69.9555C66.6523 67.7948 68.4101 66.0371 70.5707 66.0371H71.2616C73.3063 66.0371 74.9694 67.7001 74.9694 69.7448V78.7141ZM67.207 78.1594H74.4157V69.7448C74.4157 68.0064 73.001 66.5918 71.2626 66.5918H70.5717C68.7164 66.5918 67.208 68.1011 67.208 69.9555V78.1594H67.207Z" fill="white"/>
<path d="M74.5654 69.8628H66.9895V70.3865H74.5654V69.8628Z" fill="white"/>
<path d="M71.0317 70.1235H70.5225V78.3922H71.0317V70.1235Z" fill="white"/>
<path d="M140.822 78.7141H132.505V69.9555C132.505 67.7948 134.263 66.0371 136.424 66.0371H137.114C139.159 66.0371 140.822 67.7001 140.822 69.7448V78.7141ZM133.06 78.1594H140.268V69.7448C140.268 68.0064 138.854 66.5918 137.115 66.5918H136.424C134.569 66.5918 133.061 68.1011 133.061 69.9555V78.1594H133.06Z" fill="white"/>
<path d="M140.418 69.8628H132.842V70.3865H140.418V69.8628Z" fill="white"/>
<path d="M136.885 70.1235H136.376V78.3922H136.885V70.1235Z" fill="white"/>
<path d="M140.897 104.739H132.58V95.9809C132.58 93.8202 134.337 92.0625 136.498 92.0625H137.189C139.234 92.0625 140.897 93.7255 140.897 95.7702V104.739ZM133.134 104.184H140.343V95.7693C140.343 94.0309 138.928 92.6162 137.19 92.6162H136.499C134.644 92.6162 133.135 94.1256 133.135 95.9799V104.184H133.134Z" fill="white"/>
<path d="M140.493 95.8862H132.917V96.41H140.493V95.8862Z" fill="white"/>
<path d="M136.959 96.1479H136.45V104.417H136.959V96.1479Z" fill="white"/>
<path d="M74.9354 104.739H66.6184V95.9809C66.6184 93.8202 68.3761 92.0625 70.5368 92.0625H71.2277C73.2724 92.0625 74.9354 93.7255 74.9354 95.7702V104.739ZM67.1731 104.184H74.3817V95.7693C74.3817 94.0309 72.967 92.6162 71.2287 92.6162H70.5378C68.6824 92.6162 67.174 94.1256 67.174 95.9799V104.184H67.1731Z" fill="white"/>
<path d="M74.5326 95.8862H66.9568V96.41H74.5326V95.8862Z" fill="white"/>
<path d="M70.9987 96.1479H70.4895V104.417H70.9987V96.1479Z" fill="white"/>
<path d="M68.8643 63.118C68.8643 63.118 70.5224 62.5624 73.0909 63.118L72.198 65.3405C72.198 65.3405 70.9727 65.1763 69.7649 65.3405L68.8643 63.118Z" fill="#93ABC7"/>
<path d="M69.4381 65.3945L68.4718 63.5093C68.4718 63.5093 67.4176 63.7248 67.0359 64.1364L68.6409 65.5936L69.4381 65.3955V65.3945Z" fill="#93ABC7"/>
<path d="M72.5139 65.404L73.3942 63.54C73.3942 63.54 74.3122 63.6318 74.8302 64.1672L73.2377 65.5934L72.5139 65.404Z" fill="#93ABC7"/>
<path d="M68.8643 87.8561C68.8643 87.8561 70.5224 87.0154 73.0909 87.8561L72.198 91.2188C72.198 91.2188 70.9727 90.9705 69.7649 91.2188L68.8643 87.8561Z" fill="#93ABC7"/>
<path d="M69.4381 91.3003L68.4718 88.4478C68.4718 88.4478 67.4176 88.7744 67.0359 89.3967L68.6409 91.6008L69.4381 91.3003Z" fill="#93ABC7"/>
<path d="M72.5139 91.3148L73.3942 88.4941C73.3942 88.4941 74.3122 88.6323 74.8302 89.4421L73.2377 91.5999L72.5139 91.3138V91.3148Z" fill="#93ABC7"/>
<path d="M134.706 61.8492C134.706 61.8492 136.364 61.0085 138.933 61.8492L138.04 65.212C138.04 65.212 136.815 64.9636 135.607 65.212L134.706 61.8492Z" fill="#93ABC7"/>
<path d="M135.279 65.293L134.313 62.4404C134.313 62.4404 133.259 62.767 132.877 63.3884L134.482 65.5925L135.279 65.292V65.293Z" fill="#93ABC7"/>
<path d="M138.355 65.3075L139.236 62.4868C139.236 62.4868 140.154 62.625 140.671 63.4348L139.08 65.5925L138.356 65.3065L138.355 65.3075Z" fill="#93ABC7"/>
<path d="M134.67 87.8561C134.67 87.8561 136.328 87.0154 138.896 87.8561L138.003 91.2188C138.003 91.2188 136.778 90.9705 135.57 91.2188L134.67 87.8561Z" fill="#93ABC7"/>
<path d="M135.243 91.3003L134.277 88.4478C134.277 88.4478 133.222 88.7744 132.841 89.3967L134.446 91.6008L135.243 91.3003Z" fill="#93ABC7"/>
<path d="M138.319 91.3148L139.199 88.4941C139.199 88.4941 140.117 88.6323 140.635 89.4421L139.042 91.5999L138.319 91.3138V91.3148Z" fill="#93ABC7"/>
</g>
<g filter="url(#filter0_d_2076_29021)">
<path d="M104.504 105.907H107.302C107.422 105.933 107.54 105.976 107.662 105.984C111.397 106.252 114.89 107.337 118.078 109.321C124.263 113.171 128.07 118.721 129.406 125.982C129.573 126.891 129.656 127.816 129.778 128.733V131.574C129.74 131.915 129.702 132.255 129.663 132.596C129.092 137.814 127.129 142.417 123.666 146.319C119.99 150.462 115.434 153.049 110.015 154.023C109.116 154.185 108.206 154.276 107.301 154.4H104.503C104.382 154.374 104.264 154.331 104.143 154.323C100.407 154.055 96.9138 152.97 93.7261 150.986C87.5418 147.137 83.7348 141.588 82.3992 134.326C82.2313 133.418 82.1493 132.493 82.0271 131.575V128.734C82.0653 128.393 82.1045 128.053 82.1418 127.712C82.7135 122.494 84.6758 117.891 88.1387 113.989C91.8142 109.845 96.3701 107.258 101.79 106.284C102.688 106.122 103.598 106.031 104.504 105.907Z" fill="#B51E1E"/>
<path d="M104.504 104.48H107.302C107.422 104.507 107.54 104.549 107.662 104.557C111.397 104.821 114.89 105.89 118.078 107.845C124.263 111.637 128.07 117.106 129.406 124.26C129.573 125.155 129.656 126.067 129.778 126.97V129.77C129.74 130.106 129.702 130.441 129.663 130.777C129.092 135.918 127.129 140.452 123.666 144.297C119.99 148.379 115.434 150.927 110.015 151.888C109.116 152.047 108.206 152.137 107.301 152.259H104.503C104.382 152.233 104.264 152.191 104.143 152.183C100.407 151.919 96.9138 150.85 93.7261 148.895C87.5418 145.103 83.7348 139.636 82.3992 132.481C82.2313 131.586 82.1493 130.675 82.0271 129.771V126.971C82.0653 126.635 82.1045 126.3 82.1418 125.964C82.7135 120.823 84.6758 116.288 88.1387 112.444C91.8142 108.361 96.3701 105.812 101.79 104.852C102.688 104.692 103.598 104.603 104.504 104.48Z" fill="#D14343"/>
<path fill-rule="evenodd" clip-rule="evenodd" d="M94.7094 115.574C93.796 115.794 93.0075 116.581 92.797 117.48C92.6458 118.126 92.7592 118.878 93.0917 119.433C93.1637 119.553 95.3438 121.761 97.9365 124.339L102.65 129.027L97.869 133.796C92.7212 138.931 92.8644 138.773 92.6658 139.532C92.5058 140.143 92.5917 140.782 92.9152 141.386C93.4246 142.338 94.6153 142.799 95.8747 142.533C96.6251 142.375 96.4296 142.55 101.548 137.462C104.154 134.871 106.31 132.752 106.339 132.752C106.368 132.752 108.524 134.871 111.131 137.461C115.525 141.827 115.895 142.181 116.219 142.332C117.332 142.848 118.68 142.638 119.451 141.827C120.175 141.065 120.343 139.9 119.87 138.917C119.713 138.592 119.337 138.206 114.877 133.787L110.055 129.01L114.746 124.331C117.668 121.416 119.489 119.561 119.574 119.41C119.812 118.99 119.895 118.598 119.868 118.023C119.839 117.407 119.709 117.033 119.37 116.584C118.708 115.708 117.507 115.339 116.462 115.691C115.866 115.892 115.593 116.143 110.919 120.798L106.345 125.352L101.631 120.68C96.5702 115.664 96.6935 115.775 95.9461 115.581C95.5748 115.485 95.0882 115.482 94.7094 115.574Z" fill="white"/>
</g>
<defs>
<filter id="filter0_d_2076_29021" x="75.1658" y="104.48" width="61.4736" height="63.6426" filterUnits="userSpaceOnUse" color-interpolation-filters="sRGB">
<feFlood flood-opacity="0" result="BackgroundImageFix"/>
<feColorMatrix in="SourceAlpha" type="matrix" values="0 0 0 0 0 0 0 0 0 0 0 0 0 0 0 0 0 0 127 0" result="hardAlpha"/>
<feOffset dy="6.86133"/>
<feGaussianBlur stdDeviation="3.43067"/>
<feComposite in2="hardAlpha" operator="out"/>
<feColorMatrix type="matrix" values="0 0 0 0 0 0 0 0 0 0 0 0 0 0 0 0 0 0 0.2 0"/>
<feBlend mode="normal" in2="BackgroundImageFix" result="effect1_dropShadow_2076_29021"/>
<feBlend mode="normal" in="SourceGraphic" in2="effect1_dropShadow_2076_29021" result="shape"/>
</filter>
<clipPath id="clip0_2076_29021">
<rect width="128" height="103.876" fill="white" transform="translate(39.5 18.6782)"/>
</clipPath>
</defs>
</svg>
