<svg width="304" height="235" viewBox="0 0 304 235" fill="none" xmlns="http://www.w3.org/2000/svg">
<g clip-path="url(#clip0_585_66338)">
<path opacity="0.5" d="M64.2166 177.525C72.7032 182.125 83.629 184.968 95.7417 185.49C95.7469 185.531 95.7498 185.572 95.7551 185.613C99.4578 214.229 140.197 232.475 186.749 226.366C231.086 220.549 264.703 194.737 264.603 167.572C283.373 158.685 295.103 144.312 293.222 129.772C292.027 120.535 285.537 112.782 275.733 107.393C280.831 99.4696 283.189 90.9206 282.077 82.3286C278.374 53.7129 237.635 35.4668 191.083 41.5751C161.566 45.4481 136.804 58.1845 123.575 74.2809C112.195 72.5111 99.6948 72.323 86.7429 74.0224C40.1911 80.1306 5.45505 108.28 9.15776 136.896C11.8573 157.758 34.245 173.106 64.2166 177.525Z" fill="#1E62A1" fill-opacity="0.04"/>
<g opacity="0.1">
<path d="M66.4666 87.7161H6.34668V234.212H66.4666V87.7161Z" stroke="#1E62A1" stroke-width="1.69364" stroke-linecap="round" stroke-linejoin="round"/>
<path d="M19.4351 233.187V87.7161" stroke="#1E62A1" stroke-width="1.69364" stroke-linecap="round" stroke-linejoin="round"/>
<path d="M54.1272 233.187V87.7161" stroke="#1E62A1" stroke-width="1.69364" stroke-linecap="round" stroke-linejoin="round"/>
<path d="M36.7812 233.187V87.7161" stroke="#1E62A1" stroke-width="1.69364" stroke-linecap="round" stroke-linejoin="round"/>
<path d="M6.42554 103.091H66.7426" stroke="#1E62A1" stroke-width="1.69364" stroke-linecap="round" stroke-linejoin="round"/>
<path d="M6.42554 110.581H66.7426" stroke="#1E62A1" stroke-width="1.69364" stroke-linecap="round" stroke-linejoin="round"/>
<path d="M6.42554 129.11H66.7426" stroke="#1E62A1" stroke-width="1.69364" stroke-linecap="round" stroke-linejoin="round"/>
<path d="M6.42554 137.389H66.7426" stroke="#1E62A1" stroke-width="1.69364" stroke-linecap="round" stroke-linejoin="round"/>
<path d="M6.42554 156.706H66.7426" stroke="#1E62A1" stroke-width="1.69364" stroke-linecap="round" stroke-linejoin="round"/>
<path d="M6.42554 164.985H66.7426" stroke="#1E62A1" stroke-width="1.69364" stroke-linecap="round" stroke-linejoin="round"/>
<path d="M6.42554 185.091H66.7426" stroke="#1E62A1" stroke-width="1.69364" stroke-linecap="round" stroke-linejoin="round"/>
<path d="M6.42554 192.975H66.7426" stroke="#1E62A1" stroke-width="1.69364" stroke-linecap="round" stroke-linejoin="round"/>
<path d="M6.42554 209.927H66.7426" stroke="#1E62A1" stroke-width="1.69364" stroke-linecap="round" stroke-linejoin="round"/>
<path d="M6.42554 217.417H66.7426" stroke="#1E62A1" stroke-width="1.69364" stroke-linecap="round" stroke-linejoin="round"/>
<path d="M54.3244 74.8642H19.7505V88.0315H54.3244V74.8642Z" stroke="#1E62A1" stroke-width="1.69364" stroke-linecap="round" stroke-linejoin="round"/>
<path d="M46.2821 61.6969H27.7927V74.8642H46.2821V61.6969Z" stroke="#1E62A1" stroke-width="1.69364" stroke-linecap="round" stroke-linejoin="round"/>
<path d="M258.456 233.857H234.093V87.1641H298.352V233.857H279.429" stroke="#1E62A1" stroke-width="1.69364" stroke-linecap="round" stroke-linejoin="round"/>
<path d="M250.177 100.607H242.411V114.248H250.177V100.607Z" stroke="#1E62A1" stroke-width="1.69364" stroke-linecap="round" stroke-linejoin="round"/>
<path d="M263.463 100.607H255.697V114.248H263.463V100.607Z" stroke="#1E62A1" stroke-width="1.69364" stroke-linecap="round" stroke-linejoin="round"/>
<path d="M276.748 100.607H268.982V114.248H276.748V100.607Z" stroke="#1E62A1" stroke-width="1.69364" stroke-linecap="round" stroke-linejoin="round"/>
<path d="M290.073 100.607H282.307V114.248H290.073V100.607Z" stroke="#1E62A1" stroke-width="1.69364" stroke-linecap="round" stroke-linejoin="round"/>
<path d="M250.177 121.107H242.411V134.748H250.177V121.107Z" stroke="#1E62A1" stroke-width="1.69364" stroke-linecap="round" stroke-linejoin="round"/>
<path d="M263.463 121.107H255.697V134.748H263.463V121.107Z" stroke="#1E62A1" stroke-width="1.69364" stroke-linecap="round" stroke-linejoin="round"/>
<path d="M276.748 121.107H268.982V134.748H276.748V121.107Z" stroke="#1E62A1" stroke-width="1.69364" stroke-linecap="round" stroke-linejoin="round"/>
<path d="M290.073 121.107H282.307V134.748H290.073V121.107Z" stroke="#1E62A1" stroke-width="1.69364" stroke-linecap="round" stroke-linejoin="round"/>
<path d="M250.177 160.136H242.411V171.805H250.177V160.136Z" stroke="#1E62A1" stroke-width="1.69364" stroke-linecap="round" stroke-linejoin="round"/>
<path d="M263.463 160.136H255.697V171.805H263.463V160.136Z" stroke="#1E62A1" stroke-width="1.69364" stroke-linecap="round" stroke-linejoin="round"/>
<path d="M276.748 160.136H268.982V171.805H276.748V160.136Z" stroke="#1E62A1" stroke-width="1.69364" stroke-linecap="round" stroke-linejoin="round"/>
<path d="M290.073 160.136H282.307V171.805H290.073V160.136Z" stroke="#1E62A1" stroke-width="1.69364" stroke-linecap="round" stroke-linejoin="round"/>
<path d="M250.177 201.688H242.411V213.357H250.177V201.688Z" stroke="#1E62A1" stroke-width="1.69364" stroke-linecap="round" stroke-linejoin="round"/>
<path d="M263.463 201.688H255.697V213.357H263.463V201.688Z" stroke="#1E62A1" stroke-width="1.69364" stroke-linecap="round" stroke-linejoin="round"/>
<path d="M276.748 201.688H268.982V213.357H276.748V201.688Z" stroke="#1E62A1" stroke-width="1.69364" stroke-linecap="round" stroke-linejoin="round"/>
<path d="M290.073 201.688H282.307V213.357H290.073V201.688Z" stroke="#1E62A1" stroke-width="1.69364" stroke-linecap="round" stroke-linejoin="round"/>
<path d="M242.175 146.456H289.876" stroke="#1E62A1" stroke-width="1.69364" stroke-linecap="round" stroke-linejoin="round"/>
<path d="M242.175 152.764H289.876" stroke="#1E62A1" stroke-width="1.69364" stroke-linecap="round" stroke-linejoin="round"/>
<path d="M242.175 179.571H289.876" stroke="#1E62A1" stroke-width="1.69364" stroke-linecap="round" stroke-linejoin="round"/>
<path d="M242.175 186.273H289.876" stroke="#1E62A1" stroke-width="1.69364" stroke-linecap="round" stroke-linejoin="round"/>
<path d="M242.175 192.975H289.876" stroke="#1E62A1" stroke-width="1.69364" stroke-linecap="round" stroke-linejoin="round"/>
<path d="M289.876 73.1295H246.275V87.1641H289.876V73.1295Z" stroke="#1E62A1" stroke-width="1.69364" stroke-linecap="round" stroke-linejoin="round"/>
<path d="M280.454 59.095H255.697V73.1295H280.454V59.095Z" stroke="#1E62A1" stroke-width="1.69364" stroke-linecap="round" stroke-linejoin="round"/>
<path d="M267.405 58.9373V36.8605" stroke="#1E62A1" stroke-width="1.69364" stroke-linecap="round" stroke-linejoin="round"/>
<path d="M201.845 233.975H168.69V91.6977L185.287 73.6025L201.845 91.6977V233.975Z" stroke="#1E62A1" stroke-width="1.69364" stroke-linecap="round" stroke-linejoin="round"/>
<path d="M229.638 233.975H201.845V119.294C201.845 103.288 212.371 100.686 229.638 92.3678V233.975Z" stroke="#1E62A1" stroke-width="1.69364" stroke-linecap="round" stroke-linejoin="round"/>
<path d="M211.819 202.437V209.533" stroke="#1E62A1" stroke-width="1.69364" stroke-linejoin="round"/>
<path d="M219.309 202.437V209.533" stroke="#1E62A1" stroke-width="1.69364" stroke-linejoin="round"/>
<path d="M211.819 187.456V194.552" stroke="#1E62A1" stroke-width="1.69364" stroke-linejoin="round"/>
<path d="M219.309 187.456V194.552" stroke="#1E62A1" stroke-width="1.69364" stroke-linejoin="round"/>
<path d="M211.819 172.475V179.571" stroke="#1E62A1" stroke-width="1.69364" stroke-linejoin="round"/>
<path d="M219.309 172.475V179.571" stroke="#1E62A1" stroke-width="1.69364" stroke-linejoin="round"/>
<path d="M211.819 157.494V164.591" stroke="#1E62A1" stroke-width="1.69364" stroke-linejoin="round"/>
<path d="M219.309 157.494V164.591" stroke="#1E62A1" stroke-width="1.69364" stroke-linejoin="round"/>
<path d="M211.819 142.514V149.61" stroke="#1E62A1" stroke-width="1.69364" stroke-linejoin="round"/>
<path d="M219.309 142.514V149.61" stroke="#1E62A1" stroke-width="1.69364" stroke-linejoin="round"/>
<path d="M211.819 127.533V134.629" stroke="#1E62A1" stroke-width="1.69364" stroke-linejoin="round"/>
<path d="M219.309 127.533V134.629" stroke="#1E62A1" stroke-width="1.69364" stroke-linejoin="round"/>
<path d="M211.819 112.552V119.649" stroke="#1E62A1" stroke-width="1.69364" stroke-linejoin="round"/>
<path d="M219.309 112.552V119.648" stroke="#1E62A1" stroke-width="1.69364" stroke-linejoin="round"/>
<path d="M140.779 233.975H168.572V119.294C168.572 103.288 158.046 100.686 140.779 92.3678V233.975Z" stroke="#1E62A1" stroke-width="1.69364" stroke-linecap="round" stroke-linejoin="round"/>
<path d="M157.415 202.437V209.533" stroke="#1E62A1" stroke-width="1.69364" stroke-linejoin="round"/>
<path d="M150.319 202.437V209.533" stroke="#1E62A1" stroke-width="1.69364" stroke-linejoin="round"/>
<path d="M157.415 187.456V194.552" stroke="#1E62A1" stroke-width="1.69364" stroke-linejoin="round"/>
<path d="M150.319 187.456V194.552" stroke="#1E62A1" stroke-width="1.69364" stroke-linejoin="round"/>
<path d="M157.415 172.475V179.571" stroke="#1E62A1" stroke-width="1.69364" stroke-linejoin="round"/>
<path d="M150.319 172.475V179.571" stroke="#1E62A1" stroke-width="1.69364" stroke-linejoin="round"/>
<path d="M157.415 157.494V164.591" stroke="#1E62A1" stroke-width="1.69364" stroke-linejoin="round"/>
<path d="M150.319 157.494V164.591" stroke="#1E62A1" stroke-width="1.69364" stroke-linejoin="round"/>
<path d="M157.415 142.514V149.61" stroke="#1E62A1" stroke-width="1.69364" stroke-linejoin="round"/>
<path d="M150.319 142.514V149.61" stroke="#1E62A1" stroke-width="1.69364" stroke-linejoin="round"/>
<path d="M157.415 127.533V134.629" stroke="#1E62A1" stroke-width="1.69364" stroke-linejoin="round"/>
<path d="M150.319 127.533V134.629" stroke="#1E62A1" stroke-width="1.69364" stroke-linejoin="round"/>
<path d="M157.415 112.552V119.648" stroke="#1E62A1" stroke-width="1.69364" stroke-linejoin="round"/>
<path d="M150.319 112.552V119.649" stroke="#1E62A1" stroke-width="1.69364" stroke-linejoin="round"/>
<path d="M178.704 96.7832V198.889" stroke="#1E62A1" stroke-width="1.69364" stroke-linecap="round" stroke-linejoin="round"/>
<path d="M192.896 96.7832V198.889" stroke="#1E62A1" stroke-width="1.69364" stroke-linecap="round" stroke-linejoin="round"/>
<path d="M174.209 196.129H196.089" stroke="#1E62A1" stroke-width="1.69364" stroke-linecap="round" stroke-linejoin="round"/>
<path d="M174.209 181.148H196.089" stroke="#1E62A1" stroke-width="1.69364" stroke-linecap="round" stroke-linejoin="round"/>
<path d="M174.209 166.168H196.089" stroke="#1E62A1" stroke-width="1.69364" stroke-linecap="round" stroke-linejoin="round"/>
<path d="M174.209 151.187H196.089" stroke="#1E62A1" stroke-width="1.69364" stroke-linecap="round" stroke-linejoin="round"/>
<path d="M174.209 136.206H196.089" stroke="#1E62A1" stroke-width="1.69364" stroke-linecap="round" stroke-linejoin="round"/>
<path d="M174.209 121.225H196.089" stroke="#1E62A1" stroke-width="1.69364" stroke-linecap="round" stroke-linejoin="round"/>
<path d="M174.209 106.245H196.089" stroke="#1E62A1" stroke-width="1.69364" stroke-linecap="round" stroke-linejoin="round"/>
<path d="M134.511 73.6026H76.5195V233.857H134.511V73.6026Z" stroke="#1E62A1" stroke-width="1.69364" stroke-linecap="round" stroke-linejoin="round"/>
<path d="M91.0665 85.5083H84.2463V199.283H91.0665V85.5083Z" stroke="#1E62A1" stroke-width="1.69364" stroke-linecap="round" stroke-linejoin="round"/>
<path d="M103.13 85.5083H96.3098V199.283H103.13V85.5083Z" stroke="#1E62A1" stroke-width="1.69364" stroke-linecap="round" stroke-linejoin="round"/>
<path d="M115.233 85.5083H108.413V199.283H115.233V85.5083Z" stroke="#1E62A1" stroke-width="1.69364" stroke-linecap="round" stroke-linejoin="round"/>
<path d="M127.296 85.5083H120.476V199.283H127.296V85.5083Z" stroke="#1E62A1" stroke-width="1.69364" stroke-linecap="round" stroke-linejoin="round"/>
<path d="M127.296 57.3604H108.413V73.6026H127.296V57.3604Z" stroke="#1E62A1" stroke-width="1.69364" stroke-linecap="round" stroke-linejoin="round"/>
<path d="M117.204 57.3604V43.1681" stroke="#1E62A1" stroke-width="1.69364" stroke-linecap="round" stroke-linejoin="round"/>
<path d="M101.395 62.9979H83.4974V73.6026H101.395V62.9979Z" stroke="#1E62A1" stroke-width="1.69364" stroke-linecap="round" stroke-linejoin="round"/>
</g>
<g opacity="0.15">
<path d="M294.388 22.471C294.427 22.1951 294.427 21.8797 294.427 21.6037C294.427 15.7691 289.697 11.0778 283.901 11.0778C281.654 11.0778 279.565 11.7874 277.87 12.9701C276.608 8.55474 272.548 5.36148 267.738 5.36148C266.91 5.36148 266.122 5.44033 265.333 5.63744C262.692 2.68072 258.828 0.788422 254.531 0.788422C247.159 0.788422 241.049 6.30763 240.142 13.4432C239.984 13.4432 239.827 13.4038 239.629 13.4038C235.096 13.4038 231.429 17.0701 231.429 21.6037C231.429 21.8797 231.429 22.1951 231.469 22.471H294.388V22.471Z" stroke="#1E62A1" stroke-width="1.57692" stroke-linecap="round" stroke-linejoin="round"/>
<path d="M50.9515 26.6499C49.1774 24.1269 46.2207 22.4317 42.8698 22.4317C42.0813 22.4317 41.3323 22.5105 40.6227 22.7076C38.139 19.948 34.5121 18.174 30.491 18.174C23.592 18.174 17.8756 23.3384 17.0478 30.0009C16.8901 30.0009 16.7324 29.9615 16.5747 29.9615C12.3564 29.9615 8.88721 33.3913 8.88721 37.6489C8.88721 37.9249 8.88721 38.2009 8.92663 38.4768H49.0986" stroke="#1E62A1" stroke-width="1.57692" stroke-linecap="round" stroke-linejoin="round"/>
<path d="M82.8052 41.7095H116.748" stroke="#1E62A1" stroke-width="1.57692" stroke-linecap="round" stroke-linejoin="round"/>
<path d="M106.144 50.4219H114.383" stroke="#1E62A1" stroke-width="1.57692" stroke-linecap="round" stroke-linejoin="round"/>
<path d="M96.7214 45.5729H111.939" stroke="#1E62A1" stroke-width="1.57692" stroke-linecap="round" stroke-linejoin="round"/>
<path d="M76.9311 38.4767C77.2859 37.6488 77.483 36.7421 77.483 35.7565C77.483 32.0902 74.5657 29.1335 70.9388 29.1335C70.032 29.1335 69.1647 29.3306 68.3763 29.646C66.9176 25.7431 63.1725 22.9441 58.7965 22.9441C53.5533 22.9441 49.2562 26.8864 48.6648 31.9325C48.2312 31.8537 47.7975 31.7748 47.3639 31.7748C44.0523 31.7748 41.411 34.3767 41.411 37.57C41.411 37.846 41.4504 38.1613 41.4899 38.4373H76.9311V38.4767V38.4767Z" stroke="#1E62A1" stroke-width="1.57692" stroke-linecap="round" stroke-linejoin="round"/>
</g>
<path d="M111.876 125.64H95.1599C92.872 125.633 91.0225 123.773 91.0289 121.486V104.676C91.0225 102.388 92.872 100.528 95.1599 100.521H111.876C114.163 100.528 116.013 102.388 116.007 104.676V121.486C116.013 123.773 114.163 125.633 111.876 125.64Z" fill="white"/>
<mask id="mask0_585_66338" style="mask-type:alpha" maskUnits="userSpaceOnUse" x="91" y="100" width="26" height="26">
<path fill-rule="evenodd" clip-rule="evenodd" d="M111.876 125.64H95.1599C92.872 125.633 91.0225 123.773 91.0289 121.486V104.676C91.0225 102.388 92.872 100.528 95.1599 100.521H111.876C114.163 100.528 116.013 102.388 116.007 104.676V121.486C116.013 123.773 114.163 125.633 111.876 125.64Z" fill="white"/>
</mask>
<g mask="url(#mask0_585_66338)">
<path d="M115.19 99.8457C118.405 126.214 97.107 125.368 89.7734 125.64C82.4398 125.911 114.085 133.084 114.085 133.084L117.802 131.063L118.405 100.521" fill="#CFCFD0"/>
</g>
<path fill-rule="evenodd" clip-rule="evenodd" d="M111.876 125.64H95.1599C92.872 125.633 91.0225 123.773 91.0289 121.486V104.676C91.0225 102.388 92.872 100.528 95.1599 100.521H111.876C114.163 100.528 116.013 102.388 116.006 104.676V121.486C116.013 123.773 114.163 125.633 111.876 125.64Z" stroke="#CDCDCD" stroke-width="0.896782" stroke-linecap="round" stroke-linejoin="round"/>
<path d="M108.58 111.363H105.296V108.079C105.296 107.422 104.786 106.838 104.056 106.838C103.399 106.838 102.815 107.349 102.815 108.079V111.363H99.5314C98.8746 111.363 98.2908 111.874 98.2908 112.603C98.2908 113.333 98.8016 113.844 99.5314 113.844H102.815V117.128C102.815 117.785 103.326 118.368 104.056 118.368C104.713 118.368 105.296 117.858 105.296 117.128V113.844H108.58C109.237 113.844 109.821 113.333 109.821 112.603C109.821 111.874 109.237 111.363 108.58 111.363Z" fill="#C1C1C1"/>
<circle cx="219.635" cy="63.1503" r="4.12336" fill="#1E62A1"/>
<circle cx="34.1811" cy="148.679" r="4.12336" fill="#1E62A1"/>
<ellipse cx="287.915" cy="187.744" rx="7.19799" ry="6.77457" fill="#1E62A1"/>
<g clip-path="url(#clip1_585_66338)">
<path d="M69.4563 234.265H0.116333" stroke="#D8DAE5" stroke-width="2.78194" stroke-linecap="round" stroke-linejoin="round"/>
<path d="M236.651 234.265H74.8462" stroke="#D8DAE5" stroke-width="2.78194" stroke-linecap="round" stroke-linejoin="round"/>
<path d="M248.613 234.265H243.849" stroke="#D8DAE5" stroke-width="2.78194" stroke-linecap="round" stroke-linejoin="round"/>
<path d="M300.497 234.265H254.56" stroke="#D8DAE5" stroke-width="2.78194" stroke-linecap="round" stroke-linejoin="round"/>
</g>
<path d="M227.763 158.952H135.515C133.395 158.952 131.676 160.588 131.676 162.607V194.361C131.676 195.731 133.416 196.417 134.433 195.448L143.59 186.73H227.763C229.883 186.73 231.601 185.094 231.601 183.075V162.607C231.601 160.588 229.883 158.952 227.763 158.952Z" fill="white"/>
<mask id="mask1_585_66338" style="mask-type:alpha" maskUnits="userSpaceOnUse" x="131" y="158" width="101" height="38">
<path fill-rule="evenodd" clip-rule="evenodd" d="M227.763 158.952H135.515C133.395 158.952 131.676 160.588 131.676 162.607V194.361C131.676 195.731 133.416 196.417 134.433 195.448L143.59 186.73H227.763C229.883 186.73 231.601 185.094 231.601 183.075V162.607C231.601 160.588 229.883 158.952 227.763 158.952Z" fill="white"/>
</mask>
<g mask="url(#mask1_585_66338)">
<rect x="147.699" y="166.564" width="73.2249" height="3.55234" rx="1.77617" fill="#D3D3D3"/>
<rect x="147.699" y="175.305" width="51.0585" height="3.55234" rx="1.77617" fill="#D3D3D3"/>
</g>
<path fill-rule="evenodd" clip-rule="evenodd" d="M227.763 158.952H135.515C133.395 158.952 131.676 160.588 131.676 162.607V194.361C131.676 195.731 133.416 196.417 134.433 195.448L143.59 186.73H227.763C229.883 186.73 231.601 185.094 231.601 183.075V162.607C231.601 160.588 229.883 158.952 227.763 158.952Z" stroke="#D3D3D3" stroke-width="0.983454" stroke-linecap="round" stroke-linejoin="round"/>
<path d="M103.461 171.347C104.192 176.319 103.432 181.396 101.277 185.936C99.1217 190.475 95.6688 194.274 91.3547 196.851C87.0406 199.428 82.0592 200.668 77.0404 200.414C72.0216 200.159 67.1911 198.422 63.1597 195.422C59.1283 192.422 56.0772 188.294 54.3923 183.559C52.7075 178.825 52.4646 173.697 53.6943 168.825C54.924 163.952 57.5711 159.554 61.3008 156.186C65.0305 152.818 69.6752 150.632 74.6474 149.905H74.6963C77.9936 149.422 81.3538 149.593 84.5849 150.409C87.816 151.225 90.8548 152.669 93.5277 154.659C96.2006 156.65 98.4553 159.147 100.163 162.009C101.871 164.87 102.998 168.04 103.481 171.338L103.461 171.347Z" fill="#0CBBE2"/>
<path d="M97.4793 172.213C98.039 176.001 97.4628 179.87 95.8238 183.33C94.1847 186.79 91.5563 189.687 88.2711 191.653C84.9858 193.62 81.1911 194.568 77.367 194.378C73.5428 194.188 69.8609 192.868 66.7868 190.585C63.7128 188.303 61.3846 185.16 60.0968 181.554C58.8089 177.948 58.6193 174.042 59.5518 170.328C60.4842 166.614 62.497 163.261 65.3355 160.691C68.174 158.121 71.7107 156.451 75.4985 155.891H75.5425C80.6157 155.148 85.7763 156.45 89.8899 159.511C94.0035 162.572 96.7334 167.14 97.4793 172.213Z" fill="#FCFCFC"/>
<path d="M97.3864 171.617C97.269 171.617 97.0685 170.81 96.5451 169.386C95.8162 167.389 94.7834 165.517 93.4832 163.835C92.5847 162.689 91.5647 161.645 90.4409 160.719C89.1484 159.671 87.7265 158.793 86.2101 158.107C85.3925 157.735 84.549 157.423 83.6863 157.173C82.7898 156.908 81.874 156.713 80.9472 156.591C79.9879 156.46 79.0197 156.404 78.0517 156.425C77.0549 156.448 76.0611 156.543 75.0778 156.708C74.0982 156.893 73.1324 157.145 72.1872 157.462C71.2702 157.779 70.379 158.167 69.5215 158.621C68.6944 159.049 67.9014 159.539 67.1493 160.088C66.4248 160.618 65.7414 161.202 65.1048 161.834C63.9166 163.001 62.8842 164.316 62.0331 165.747C61.2931 166.999 60.6944 168.33 60.2479 169.714C59.6031 171.74 59.2732 173.853 59.2696 175.979C59.2696 177.496 59.3675 178.342 59.2696 178.361C59.1718 178.381 58.893 177.564 58.712 176.009C58.4822 173.799 58.663 171.565 59.2452 169.42C60.1124 166.197 61.7971 163.252 64.1363 160.871C64.8071 160.177 65.5316 159.538 66.3031 158.958C67.9332 157.714 69.7488 156.733 71.6834 156.053C72.7008 155.7 73.7441 155.427 74.8039 155.236C75.8645 155.055 76.9369 154.952 78.0125 154.928C79.058 154.918 80.1028 154.987 81.138 155.133C82.1319 155.279 83.1131 155.501 84.0727 155.799C84.9956 156.078 85.8951 156.43 86.7628 156.85C88.3697 157.625 89.8651 158.612 91.2089 159.785C92.373 160.798 93.4109 161.947 94.3001 163.209C95.5889 165.02 96.5293 167.055 97.0734 169.21C97.4598 170.736 97.4695 171.602 97.3864 171.617Z" fill="#0CBBE2"/>
<path d="M82.1455 186.099L82.6786 189.43L79.7097 189.919L79.1912 186.681C76.2174 186.975 73.2436 186.505 71.4045 185.488L72.461 181.599C74.3583 182.512 76.4592 182.92 78.5603 182.783L77.763 177.814C74.3392 177.545 70.4752 177.031 69.7953 172.781C69.3062 169.631 71.1453 166.559 75.7576 165.273L75.2294 161.971L78.2032 161.482L78.7217 164.72C80.8662 164.496 83.0334 164.782 85.0459 165.556L84.1459 169.469C82.6174 168.878 80.9859 168.599 79.3477 168.648L80.1597 173.705C83.5835 173.95 87.3839 174.468 88.054 178.66C88.5578 181.761 86.7236 184.798 82.1455 186.099ZM77.0929 173.446L76.413 169.225C74.8968 169.831 74.4077 170.795 74.5642 171.778C74.7207 172.761 75.694 173.24 77.0929 173.446ZM83.3536 179.804C83.1824 178.762 82.2335 178.337 80.908 178.092L81.5634 182.196C82.9623 181.619 83.4856 180.729 83.334 179.794L83.3536 179.804Z" fill="#0CBBE2"/>
<path d="M251.763 124.556C252.201 127.539 251.745 130.585 250.452 133.309C249.159 136.033 247.088 138.312 244.499 139.858C241.911 141.405 238.922 142.149 235.911 141.996C232.899 141.843 230.001 140.801 227.582 139.001C225.163 137.201 223.333 134.724 222.322 131.883C221.311 129.043 221.165 125.966 221.903 123.043C222.641 120.119 224.229 117.48 226.467 115.46C228.705 113.439 231.491 112.127 234.475 111.691H234.504C236.483 111.401 238.499 111.504 240.437 111.993C242.376 112.483 244.199 113.349 245.803 114.543C247.407 115.738 248.76 117.236 249.784 118.953C250.809 120.67 251.485 122.572 251.775 124.55L251.763 124.556Z" fill="#0CBBE2"/>
<path d="M248.174 125.076C248.51 127.348 248.164 129.67 247.181 131.746C246.197 133.822 244.62 135.56 242.649 136.74C240.678 137.92 238.401 138.489 236.106 138.375C233.812 138.261 231.603 137.469 229.758 136.099C227.914 134.729 226.517 132.844 225.744 130.68C224.972 128.517 224.858 126.173 225.417 123.945C225.977 121.716 227.185 119.704 228.888 118.162C230.591 116.621 232.713 115.618 234.985 115.283H235.012C238.056 114.837 241.152 115.618 243.62 117.454C246.088 119.291 247.726 122.032 248.174 125.076Z" fill="#FCFCFC"/>
<path d="M248.118 124.718C248.048 124.718 247.927 124.233 247.613 123.379C247.176 122.181 246.556 121.058 245.776 120.049C245.237 119.361 244.625 118.735 243.951 118.179C243.175 117.55 242.322 117.023 241.412 116.612C240.922 116.389 240.416 116.202 239.898 116.052C239.36 115.892 238.811 115.776 238.255 115.702C237.679 115.624 237.098 115.59 236.517 115.603C235.919 115.617 235.323 115.673 234.733 115.773C234.145 115.884 233.566 116.035 232.999 116.225C232.448 116.415 231.914 116.648 231.399 116.92C230.903 117.177 230.427 117.471 229.976 117.801C229.541 118.118 229.131 118.469 228.749 118.848C228.036 119.548 227.417 120.337 226.906 121.196C226.462 121.947 226.103 122.746 225.835 123.576C225.448 124.792 225.25 126.06 225.248 127.335C225.248 128.245 225.307 128.753 225.248 128.765C225.189 128.776 225.022 128.286 224.913 127.353C224.776 126.027 224.884 124.687 225.233 123.4C225.754 121.466 226.765 119.699 228.168 118.27C228.57 117.854 229.005 117.47 229.468 117.123C230.446 116.376 231.536 115.788 232.696 115.379C233.307 115.168 233.933 115.004 234.569 114.889C235.205 114.781 235.848 114.719 236.494 114.705C237.121 114.699 237.748 114.74 238.369 114.828C238.965 114.915 239.554 115.049 240.13 115.227C240.684 115.394 241.223 115.605 241.744 115.858C242.708 116.323 243.605 116.915 244.412 117.619C245.11 118.226 245.733 118.916 246.266 119.673C247.04 120.76 247.604 121.981 247.93 123.274C248.162 124.189 248.168 124.709 248.118 124.718Z" fill="#0CBBE2"/>
<path d="M238.974 133.407L239.293 135.406L237.512 135.699L237.201 133.757C235.417 133.933 233.632 133.651 232.529 133.04L233.163 130.707C234.301 131.255 235.562 131.5 236.822 131.418L236.344 128.436C234.29 128.275 231.971 127.966 231.564 125.416C231.27 123.526 232.373 121.683 235.141 120.911L234.824 118.93L236.608 118.637L236.919 120.58C238.206 120.445 239.506 120.617 240.714 121.082L240.174 123.429C239.257 123.075 238.278 122.907 237.295 122.936L237.782 125.971C239.836 126.118 242.117 126.429 242.519 128.944C242.821 130.804 241.72 132.627 238.974 133.407ZM235.942 125.815L235.534 123.283C234.624 123.647 234.331 124.225 234.425 124.815C234.519 125.404 235.103 125.692 235.942 125.815ZM239.698 129.63C239.596 129.005 239.026 128.75 238.231 128.603L238.624 131.065C239.464 130.719 239.778 130.185 239.687 129.624L239.698 129.63Z" fill="#0CBBE2"/>
</g>
<defs>
<clipPath id="clip0_585_66338">
<rect width="303.162" height="235" fill="white" transform="translate(0.418945)"/>
</clipPath>
<clipPath id="clip1_585_66338">
<rect width="303.162" height="2.78194" fill="white" transform="translate(-1.27466 232.874)"/>
</clipPath>
</defs>
</svg>
