<svg width="184" height="153" viewBox="0 0 184 153" fill="none" xmlns="http://www.w3.org/2000/svg">
<path d="M91.9423 0.727341C41.5299 0.727341 0.662598 41.5064 0.662598 91.81C0.662598 114.547 9.0119 135.338 22.8181 151.298H161.067C174.873 135.338 183.222 114.547 183.222 91.81C183.222 41.5064 142.355 0.727341 91.9423 0.727341Z" fill="#ECF0F3"/>
<g opacity="0.4">
<mask id="mask0_985_41461" style="mask-type:alpha" maskUnits="userSpaceOnUse" x="0" y="0" width="184" height="152">
<path d="M92 0.748978C41.5558 0.748978 0.662598 41.7124 0.662598 92.2435C0.662598 115.083 9.01717 135.969 22.8321 152H161.168C174.983 135.969 183.337 115.083 183.337 92.2435C183.337 41.7124 142.444 0.748978 92 0.748978Z" fill="#0CBBE2" fill-opacity="0.5"/>
<path d="M0.938367 92.2435C0.938367 41.8643 41.7085 1.02475 92 1.02475C142.292 1.02475 183.062 41.8643 183.062 92.2435C183.062 114.969 174.766 135.754 161.041 151.724H22.9586C9.2344 135.754 0.938367 114.969 0.938367 92.2435Z" stroke="#0CBBE2" stroke-opacity="0.5" stroke-width="0.551539"/>
</mask>
<g mask="url(#mask0_985_41461)">
<mask id="path-4-inside-1_985_41461" fill="white">
<path d="M120.106 59.2726C135.356 36.9292 123.108 5.85831 97.025 0.718074L50.9428 -8.36333C24.5748 -13.5597 1.91112 11.2055 8.57788 37.93L10.9299 47.3582C14.5198 61.7489 26.0144 72.6216 40.2678 75.109L79.1323 81.8911C93.0691 84.3232 107.123 78.2942 115.24 66.4016L120.106 59.2726Z"/>
<path d="M122.442 53.0508C137.854 30.4699 125.166 -0.912128 98.7199 -5.62394L61.6677 -12.2254C35.8533 -16.8246 13.8285 7.11146 19.7422 33.3383L21.0731 39.2404C24.4617 54.2689 36.4349 65.6491 51.2797 67.951L84.014 73.027C97.7511 75.1571 111.478 69.1151 119.455 57.4274L122.442 53.0508Z"/>
<path d="M176.316 99.0917C175.451 101.003 174.508 102.687 173.513 104.272C173.025 105.078 172.518 105.823 172.017 106.582C171.503 107.315 170.976 108.054 170.443 108.753C169.396 110.178 168.284 111.496 167.172 112.801C162.717 117.962 157.859 122.396 153.091 126.784L151.407 128.349L150.666 129.042L149.963 129.801C149.482 130.3 149.046 130.873 148.591 131.419C148.162 132.005 147.732 132.59 147.316 133.203C146.906 133.822 146.497 134.442 146.119 135.107C145.736 135.76 145.359 136.419 145.001 137.105C144.298 138.477 143.59 139.881 142.972 141.333C140.39 147.153 138.452 153.412 135.428 159.671C133.86 162.78 131.987 165.963 129.262 168.726C127.935 170.144 126.348 171.343 124.69 172.435C123.845 172.941 122.98 173.46 122.082 173.866C121.633 174.079 121.178 174.306 120.729 174.499L119.351 175.018C117.491 175.704 115.605 176.137 113.718 176.477C112.756 176.65 111.715 176.703 110.694 176.803C109.673 176.869 108.678 176.803 107.657 176.803C106.643 176.776 105.68 176.623 104.678 176.51C104.178 176.457 103.703 176.357 103.228 176.257L101.784 175.957L101.062 175.797L100.367 175.591L98.9748 175.165C98.0317 174.912 97.1603 174.546 96.2693 174.186C92.7378 172.754 89.499 170.863 86.5529 168.666C83.6327 166.449 80.9728 163.959 78.6054 161.249C76.2381 158.539 74.2025 155.562 72.44 152.453C72.0108 151.667 71.5946 150.875 71.1848 150.089C70.7881 149.29 70.4304 148.458 70.0597 147.645C69.6825 146.84 69.3508 146.001 69.0386 145.168C68.72 144.329 68.3948 143.504 68.1281 142.645C66.9835 139.269 66.1705 135.773 65.5787 132.291C65.0064 128.802 64.6617 125.306 64.6422 121.837C64.6097 118.375 64.8113 114.952 65.3966 111.616C65.9819 108.28 66.977 105.038 68.4728 102.035C69.9882 99.0051 72.2384 96.3151 74.9699 94.2509C77.6949 92.1735 80.7972 90.642 83.9709 89.3969C90.3575 86.9399 97.0822 85.4085 103.709 84.3564C107.033 83.8304 110.337 83.4909 113.608 83.2778C114.083 83.2645 114.271 83.1845 114.544 83.1446L115.305 83.0114C115.826 82.8516 116.313 82.805 116.827 82.6119L117.582 82.3989C117.835 82.3056 118.089 82.1991 118.349 82.1259C118.856 81.9794 119.383 81.713 119.897 81.5399C122.011 80.6676 124.28 79.5623 126.739 78.1641L130.595 75.9468L132.657 74.7549L134.849 73.5431C136.319 72.7174 137.964 71.9251 139.655 71.1327C141.404 70.3803 143.251 69.6279 145.294 69.0353C147.368 68.456 149.553 67.95 151.966 67.7968C154.347 67.6303 156.863 67.7236 159.315 68.2562L160.239 68.436L161.136 68.6824C161.728 68.8555 162.339 69.0153 162.925 69.2151C164.05 69.6612 165.227 70.0807 166.248 70.6533L167.816 71.4856L169.253 72.3978C170.241 73.0037 171.074 73.6829 171.939 74.3554C172.173 74.5285 172.342 74.6684 172.602 74.8814C172.94 75.1677 173.259 75.4674 173.584 75.7737C174.228 76.3463 174.846 77.0854 175.425 77.8311C175.568 78.0109 175.711 78.204 175.848 78.3971L176.244 79.0163C176.498 79.4292 176.745 79.8487 176.979 80.2748C177.408 81.1404 177.786 82.0526 178.078 82.9515C178.208 83.4043 178.332 83.8504 178.436 84.3032C178.494 84.5296 178.547 84.7626 178.586 84.9757L178.683 85.6282C178.742 86.0544 178.794 86.4872 178.833 86.92C178.878 87.3461 178.865 87.7256 178.878 88.1318C178.878 88.5247 178.878 88.9308 178.865 89.317L178.774 90.409C178.735 90.7686 178.709 91.1481 178.651 91.481L178.475 92.4665C177.955 95.0633 177.142 97.1674 176.29 99.085L176.316 99.0917Z"/>
<path d="M177.78 108.121C176.915 110.032 175.972 111.717 174.977 113.302C174.49 114.107 173.982 114.853 173.481 115.612C172.968 116.345 172.441 117.084 171.908 117.783C170.861 119.208 169.748 120.526 168.636 121.831C164.181 126.992 159.323 131.426 154.556 135.814L152.872 137.379L152.13 138.071L151.428 138.83C150.946 139.33 150.511 139.902 150.055 140.448C149.626 141.034 149.197 141.62 148.781 142.233C148.371 142.852 147.961 143.471 147.584 144.137C147.2 144.79 146.823 145.449 146.465 146.135C145.763 147.506 145.054 148.911 144.436 150.363C141.854 156.182 139.916 162.441 136.892 168.7C135.325 171.81 133.452 174.993 130.727 177.756C129.4 179.174 127.813 180.373 126.155 181.465C125.309 181.971 124.444 182.49 123.547 182.896C123.098 183.109 122.643 183.336 122.194 183.529L120.815 184.048C118.955 184.734 117.069 185.167 115.183 185.506C114.221 185.679 113.18 185.733 112.159 185.833C111.138 185.899 110.143 185.833 109.122 185.833C108.107 185.806 107.145 185.653 106.143 185.54C105.642 185.486 105.168 185.386 104.693 185.287L103.249 184.987L102.527 184.827L101.831 184.621L100.439 184.195C99.4964 183.942 98.6249 183.575 97.7339 183.216C94.2024 181.784 90.9636 179.893 88.0175 177.696C85.0974 175.479 82.4374 172.988 80.0701 170.278C77.7027 167.568 75.6671 164.592 73.9046 161.483C73.4754 160.697 73.0592 159.904 72.6494 159.119C72.2527 158.32 71.895 157.487 71.5243 156.675C71.1471 155.869 70.8154 155.03 70.5032 154.198C70.1846 153.359 69.8594 152.534 69.5927 151.675C68.4481 148.299 67.6351 144.803 67.0433 141.321C66.471 137.832 66.1263 134.336 66.1068 130.867C66.0743 127.404 66.2759 123.982 66.8612 120.646C67.4465 117.31 68.4416 114.068 69.9374 111.065C71.4528 108.035 73.703 105.345 76.4345 103.281C79.1595 101.203 82.2618 99.6719 85.4355 98.4268C91.8221 95.9698 98.5468 94.4383 105.174 93.3863C108.497 92.8603 111.801 92.5207 115.073 92.3076C115.547 92.2943 115.736 92.2144 116.009 92.1744L116.77 92.0413C117.29 91.8815 117.778 91.8348 118.292 91.6418L119.046 91.4287C119.3 91.3355 119.554 91.2289 119.814 91.1557C120.321 91.0092 120.848 90.7429 121.362 90.5697C123.475 89.6975 125.745 88.5922 128.203 87.1939L132.06 84.9766L134.122 83.7848L136.313 82.5729C137.783 81.7473 139.429 80.9549 141.119 80.1625C142.869 79.4101 144.716 78.6577 146.758 78.0651C148.833 77.4858 151.018 76.9798 153.431 76.8266C155.811 76.6602 158.328 76.7534 160.78 77.2861L161.703 77.4659L162.601 77.7122C163.193 77.8853 163.804 78.0451 164.389 78.2449C165.515 78.691 166.692 79.1105 167.713 79.6831L169.28 80.5154L170.717 81.4277C171.706 82.0336 172.538 82.7127 173.403 83.3852C173.638 83.5584 173.807 83.6982 174.067 83.9113C174.405 84.1976 174.724 84.4972 175.049 84.8035C175.693 85.3761 176.311 86.1152 176.889 86.861C177.032 87.0407 177.176 87.2338 177.312 87.4269L177.709 88.0462C177.962 88.459 178.21 88.8785 178.444 89.3046C178.873 90.1702 179.25 91.0825 179.543 91.9813C179.673 92.4341 179.796 92.8802 179.901 93.333C179.959 93.5594 180.011 93.7924 180.05 94.0055L180.148 94.6581C180.206 95.0842 180.258 95.517 180.297 95.9498C180.343 96.3759 180.33 96.7555 180.343 97.1616C180.343 97.5545 180.343 97.9607 180.33 98.3468L180.239 99.4388C180.2 99.7984 180.174 100.178 180.115 100.511L179.94 101.496C179.419 104.093 178.606 106.197 177.754 108.115L177.78 108.121Z"/>
</mask>
<path d="M120.106 59.2726C135.356 36.9292 123.108 5.85831 97.025 0.718074L50.9428 -8.36333C24.5748 -13.5597 1.91112 11.2055 8.57788 37.93L10.9299 47.3582C14.5198 61.7489 26.0144 72.6216 40.2678 75.109L79.1323 81.8911C93.0691 84.3232 107.123 78.2942 115.24 66.4016L120.106 59.2726Z" fill="#0CBBE2" fill-opacity="0.04"/>
<path d="M122.442 53.0508C137.854 30.4699 125.166 -0.912128 98.7199 -5.62394L61.6677 -12.2254C35.8533 -16.8246 13.8285 7.11146 19.7422 33.3383L21.0731 39.2404C24.4617 54.2689 36.4349 65.6491 51.2797 67.951L84.014 73.027C97.7511 75.1571 111.478 69.1151 119.455 57.4274L122.442 53.0508Z" fill="#0CBBE2" fill-opacity="0.04"/>
<path d="M176.316 99.0917C175.451 101.003 174.508 102.687 173.513 104.272C173.025 105.078 172.518 105.823 172.017 106.582C171.503 107.315 170.976 108.054 170.443 108.753C169.396 110.178 168.284 111.496 167.172 112.801C162.717 117.962 157.859 122.396 153.091 126.784L151.407 128.349L150.666 129.042L149.963 129.801C149.482 130.3 149.046 130.873 148.591 131.419C148.162 132.005 147.732 132.59 147.316 133.203C146.906 133.822 146.497 134.442 146.119 135.107C145.736 135.76 145.359 136.419 145.001 137.105C144.298 138.477 143.59 139.881 142.972 141.333C140.39 147.153 138.452 153.412 135.428 159.671C133.86 162.78 131.987 165.963 129.262 168.726C127.935 170.144 126.348 171.343 124.69 172.435C123.845 172.941 122.98 173.46 122.082 173.866C121.633 174.079 121.178 174.306 120.729 174.499L119.351 175.018C117.491 175.704 115.605 176.137 113.718 176.477C112.756 176.65 111.715 176.703 110.694 176.803C109.673 176.869 108.678 176.803 107.657 176.803C106.643 176.776 105.68 176.623 104.678 176.51C104.178 176.457 103.703 176.357 103.228 176.257L101.784 175.957L101.062 175.797L100.367 175.591L98.9748 175.165C98.0317 174.912 97.1603 174.546 96.2693 174.186C92.7378 172.754 89.499 170.863 86.5529 168.666C83.6327 166.449 80.9728 163.959 78.6054 161.249C76.2381 158.539 74.2025 155.562 72.44 152.453C72.0108 151.667 71.5946 150.875 71.1848 150.089C70.7881 149.29 70.4304 148.458 70.0597 147.645C69.6825 146.84 69.3508 146.001 69.0386 145.168C68.72 144.329 68.3948 143.504 68.1281 142.645C66.9835 139.269 66.1705 135.773 65.5787 132.291C65.0064 128.802 64.6617 125.306 64.6422 121.837C64.6097 118.375 64.8113 114.952 65.3966 111.616C65.9819 108.28 66.977 105.038 68.4728 102.035C69.9882 99.0051 72.2384 96.3151 74.9699 94.2509C77.6949 92.1735 80.7972 90.642 83.9709 89.3969C90.3575 86.9399 97.0822 85.4085 103.709 84.3564C107.033 83.8304 110.337 83.4909 113.608 83.2778C114.083 83.2645 114.271 83.1845 114.544 83.1446L115.305 83.0114C115.826 82.8516 116.313 82.805 116.827 82.6119L117.582 82.3989C117.835 82.3056 118.089 82.1991 118.349 82.1259C118.856 81.9794 119.383 81.713 119.897 81.5399C122.011 80.6676 124.28 79.5623 126.739 78.1641L130.595 75.9468L132.657 74.7549L134.849 73.5431C136.319 72.7174 137.964 71.9251 139.655 71.1327C141.404 70.3803 143.251 69.6279 145.294 69.0353C147.368 68.456 149.553 67.95 151.966 67.7968C154.347 67.6303 156.863 67.7236 159.315 68.2562L160.239 68.436L161.136 68.6824C161.728 68.8555 162.339 69.0153 162.925 69.2151C164.05 69.6612 165.227 70.0807 166.248 70.6533L167.816 71.4856L169.253 72.3978C170.241 73.0037 171.074 73.6829 171.939 74.3554C172.173 74.5285 172.342 74.6684 172.602 74.8814C172.94 75.1677 173.259 75.4674 173.584 75.7737C174.228 76.3463 174.846 77.0854 175.425 77.8311C175.568 78.0109 175.711 78.204 175.848 78.3971L176.244 79.0163C176.498 79.4292 176.745 79.8487 176.979 80.2748C177.408 81.1404 177.786 82.0526 178.078 82.9515C178.208 83.4043 178.332 83.8504 178.436 84.3032C178.494 84.5296 178.547 84.7626 178.586 84.9757L178.683 85.6282C178.742 86.0544 178.794 86.4872 178.833 86.92C178.878 87.3461 178.865 87.7256 178.878 88.1318C178.878 88.5247 178.878 88.9308 178.865 89.317L178.774 90.409C178.735 90.7686 178.709 91.1481 178.651 91.481L178.475 92.4665C177.955 95.0633 177.142 97.1674 176.29 99.085L176.316 99.0917Z" fill="#0CBBE2" fill-opacity="0.04"/>
<path d="M177.78 108.121C176.915 110.032 175.972 111.717 174.977 113.302C174.49 114.107 173.982 114.853 173.481 115.612C172.968 116.345 172.441 117.084 171.908 117.783C170.861 119.208 169.748 120.526 168.636 121.831C164.181 126.992 159.323 131.426 154.556 135.814L152.872 137.379L152.13 138.071L151.428 138.83C150.946 139.33 150.511 139.902 150.055 140.448C149.626 141.034 149.197 141.62 148.781 142.233C148.371 142.852 147.961 143.471 147.584 144.137C147.2 144.79 146.823 145.449 146.465 146.135C145.763 147.506 145.054 148.911 144.436 150.363C141.854 156.182 139.916 162.441 136.892 168.7C135.325 171.81 133.452 174.993 130.727 177.756C129.4 179.174 127.813 180.373 126.155 181.465C125.309 181.971 124.444 182.49 123.547 182.896C123.098 183.109 122.643 183.336 122.194 183.529L120.815 184.048C118.955 184.734 117.069 185.167 115.183 185.506C114.221 185.679 113.18 185.733 112.159 185.833C111.138 185.899 110.143 185.833 109.122 185.833C108.107 185.806 107.145 185.653 106.143 185.54C105.642 185.486 105.168 185.386 104.693 185.287L103.249 184.987L102.527 184.827L101.831 184.621L100.439 184.195C99.4964 183.942 98.6249 183.575 97.7339 183.216C94.2024 181.784 90.9636 179.893 88.0175 177.696C85.0974 175.479 82.4374 172.988 80.0701 170.278C77.7027 167.568 75.6671 164.592 73.9046 161.483C73.4754 160.697 73.0592 159.904 72.6494 159.119C72.2527 158.32 71.895 157.487 71.5243 156.675C71.1471 155.869 70.8154 155.03 70.5032 154.198C70.1846 153.359 69.8594 152.534 69.5927 151.675C68.4481 148.299 67.6351 144.803 67.0433 141.321C66.471 137.832 66.1263 134.336 66.1068 130.867C66.0743 127.404 66.2759 123.982 66.8612 120.646C67.4465 117.31 68.4416 114.068 69.9374 111.065C71.4528 108.035 73.703 105.345 76.4345 103.281C79.1595 101.203 82.2618 99.6719 85.4355 98.4268C91.8221 95.9698 98.5468 94.4383 105.174 93.3863C108.497 92.8603 111.801 92.5207 115.073 92.3076C115.547 92.2943 115.736 92.2144 116.009 92.1744L116.77 92.0413C117.29 91.8815 117.778 91.8348 118.292 91.6418L119.046 91.4287C119.3 91.3355 119.554 91.2289 119.814 91.1557C120.321 91.0092 120.848 90.7429 121.362 90.5697C123.475 89.6975 125.745 88.5922 128.203 87.1939L132.06 84.9766L134.122 83.7848L136.313 82.5729C137.783 81.7473 139.429 80.9549 141.119 80.1625C142.869 79.4101 144.716 78.6577 146.758 78.0651C148.833 77.4858 151.018 76.9798 153.431 76.8266C155.811 76.6602 158.328 76.7534 160.78 77.2861L161.703 77.4659L162.601 77.7122C163.193 77.8853 163.804 78.0451 164.389 78.2449C165.515 78.691 166.692 79.1105 167.713 79.6831L169.28 80.5154L170.717 81.4277C171.706 82.0336 172.538 82.7127 173.403 83.3852C173.638 83.5584 173.807 83.6982 174.067 83.9113C174.405 84.1976 174.724 84.4972 175.049 84.8035C175.693 85.3761 176.311 86.1152 176.889 86.861C177.032 87.0407 177.176 87.2338 177.312 87.4269L177.709 88.0462C177.962 88.459 178.21 88.8785 178.444 89.3046C178.873 90.1702 179.25 91.0825 179.543 91.9813C179.673 92.4341 179.796 92.8802 179.901 93.333C179.959 93.5594 180.011 93.7924 180.05 94.0055L180.148 94.6581C180.206 95.0842 180.258 95.517 180.297 95.9498C180.343 96.3759 180.33 96.7555 180.343 97.1616C180.343 97.5545 180.343 97.9607 180.33 98.3468L180.239 99.4388C180.2 99.7984 180.174 100.178 180.115 100.511L179.94 101.496C179.419 104.093 178.606 106.197 177.754 108.115L177.78 108.121Z" fill="#0CBBE2" fill-opacity="0.04"/>
<path d="M120.106 59.2726C135.356 36.9292 123.108 5.85831 97.025 0.718074L50.9428 -8.36333C24.5748 -13.5597 1.91112 11.2055 8.57788 37.93L10.9299 47.3582C14.5198 61.7489 26.0144 72.6216 40.2678 75.109L79.1323 81.8911C93.0691 84.3232 107.123 78.2942 115.24 66.4016L120.106 59.2726Z" stroke="white" stroke-width="1.49733" mask="url(#path-4-inside-1_985_41461)"/>
<path d="M122.442 53.0508C137.854 30.4699 125.166 -0.912128 98.7199 -5.62394L61.6677 -12.2254C35.8533 -16.8246 13.8285 7.11146 19.7422 33.3383L21.0731 39.2404C24.4617 54.2689 36.4349 65.6491 51.2797 67.951L84.014 73.027C97.7511 75.1571 111.478 69.1151 119.455 57.4274L122.442 53.0508Z" stroke="white" stroke-width="1.49733" mask="url(#path-4-inside-1_985_41461)"/>
<path d="M176.316 99.0917C175.451 101.003 174.508 102.687 173.513 104.272C173.025 105.078 172.518 105.823 172.017 106.582C171.503 107.315 170.976 108.054 170.443 108.753C169.396 110.178 168.284 111.496 167.172 112.801C162.717 117.962 157.859 122.396 153.091 126.784L151.407 128.349L150.666 129.042L149.963 129.801C149.482 130.3 149.046 130.873 148.591 131.419C148.162 132.005 147.732 132.59 147.316 133.203C146.906 133.822 146.497 134.442 146.119 135.107C145.736 135.76 145.359 136.419 145.001 137.105C144.298 138.477 143.59 139.881 142.972 141.333C140.39 147.153 138.452 153.412 135.428 159.671C133.86 162.78 131.987 165.963 129.262 168.726C127.935 170.144 126.348 171.343 124.69 172.435C123.845 172.941 122.98 173.46 122.082 173.866C121.633 174.079 121.178 174.306 120.729 174.499L119.351 175.018C117.491 175.704 115.605 176.137 113.718 176.477C112.756 176.65 111.715 176.703 110.694 176.803C109.673 176.869 108.678 176.803 107.657 176.803C106.643 176.776 105.68 176.623 104.678 176.51C104.178 176.457 103.703 176.357 103.228 176.257L101.784 175.957L101.062 175.797L100.367 175.591L98.9748 175.165C98.0317 174.912 97.1603 174.546 96.2693 174.186C92.7378 172.754 89.499 170.863 86.5529 168.666C83.6327 166.449 80.9728 163.959 78.6054 161.249C76.2381 158.539 74.2025 155.562 72.44 152.453C72.0108 151.667 71.5946 150.875 71.1848 150.089C70.7881 149.29 70.4304 148.458 70.0597 147.645C69.6825 146.84 69.3508 146.001 69.0386 145.168C68.72 144.329 68.3948 143.504 68.1281 142.645C66.9835 139.269 66.1705 135.773 65.5787 132.291C65.0064 128.802 64.6617 125.306 64.6422 121.837C64.6097 118.375 64.8113 114.952 65.3966 111.616C65.9819 108.28 66.977 105.038 68.4728 102.035C69.9882 99.0051 72.2384 96.3151 74.9699 94.2509C77.6949 92.1735 80.7972 90.642 83.9709 89.3969C90.3575 86.9399 97.0822 85.4085 103.709 84.3564C107.033 83.8304 110.337 83.4909 113.608 83.2778C114.083 83.2645 114.271 83.1845 114.544 83.1446L115.305 83.0114C115.826 82.8516 116.313 82.805 116.827 82.6119L117.582 82.3989C117.835 82.3056 118.089 82.1991 118.349 82.1259C118.856 81.9794 119.383 81.713 119.897 81.5399C122.011 80.6676 124.28 79.5623 126.739 78.1641L130.595 75.9468L132.657 74.7549L134.849 73.5431C136.319 72.7174 137.964 71.9251 139.655 71.1327C141.404 70.3803 143.251 69.6279 145.294 69.0353C147.368 68.456 149.553 67.95 151.966 67.7968C154.347 67.6303 156.863 67.7236 159.315 68.2562L160.239 68.436L161.136 68.6824C161.728 68.8555 162.339 69.0153 162.925 69.2151C164.05 69.6612 165.227 70.0807 166.248 70.6533L167.816 71.4856L169.253 72.3978C170.241 73.0037 171.074 73.6829 171.939 74.3554C172.173 74.5285 172.342 74.6684 172.602 74.8814C172.94 75.1677 173.259 75.4674 173.584 75.7737C174.228 76.3463 174.846 77.0854 175.425 77.8311C175.568 78.0109 175.711 78.204 175.848 78.3971L176.244 79.0163C176.498 79.4292 176.745 79.8487 176.979 80.2748C177.408 81.1404 177.786 82.0526 178.078 82.9515C178.208 83.4043 178.332 83.8504 178.436 84.3032C178.494 84.5296 178.547 84.7626 178.586 84.9757L178.683 85.6282C178.742 86.0544 178.794 86.4872 178.833 86.92C178.878 87.3461 178.865 87.7256 178.878 88.1318C178.878 88.5247 178.878 88.9308 178.865 89.317L178.774 90.409C178.735 90.7686 178.709 91.1481 178.651 91.481L178.475 92.4665C177.955 95.0633 177.142 97.1674 176.29 99.085L176.316 99.0917Z" stroke="white" stroke-width="1.49733" mask="url(#path-4-inside-1_985_41461)"/>
<path d="M177.78 108.121C176.915 110.032 175.972 111.717 174.977 113.302C174.49 114.107 173.982 114.853 173.481 115.612C172.968 116.345 172.441 117.084 171.908 117.783C170.861 119.208 169.748 120.526 168.636 121.831C164.181 126.992 159.323 131.426 154.556 135.814L152.872 137.379L152.13 138.071L151.428 138.83C150.946 139.33 150.511 139.902 150.055 140.448C149.626 141.034 149.197 141.62 148.781 142.233C148.371 142.852 147.961 143.471 147.584 144.137C147.2 144.79 146.823 145.449 146.465 146.135C145.763 147.506 145.054 148.911 144.436 150.363C141.854 156.182 139.916 162.441 136.892 168.7C135.325 171.81 133.452 174.993 130.727 177.756C129.4 179.174 127.813 180.373 126.155 181.465C125.309 181.971 124.444 182.49 123.547 182.896C123.098 183.109 122.643 183.336 122.194 183.529L120.815 184.048C118.955 184.734 117.069 185.167 115.183 185.506C114.221 185.679 113.18 185.733 112.159 185.833C111.138 185.899 110.143 185.833 109.122 185.833C108.107 185.806 107.145 185.653 106.143 185.54C105.642 185.486 105.168 185.386 104.693 185.287L103.249 184.987L102.527 184.827L101.831 184.621L100.439 184.195C99.4964 183.942 98.6249 183.575 97.7339 183.216C94.2024 181.784 90.9636 179.893 88.0175 177.696C85.0974 175.479 82.4374 172.988 80.0701 170.278C77.7027 167.568 75.6671 164.592 73.9046 161.483C73.4754 160.697 73.0592 159.904 72.6494 159.119C72.2527 158.32 71.895 157.487 71.5243 156.675C71.1471 155.869 70.8154 155.03 70.5032 154.198C70.1846 153.359 69.8594 152.534 69.5927 151.675C68.4481 148.299 67.6351 144.803 67.0433 141.321C66.471 137.832 66.1263 134.336 66.1068 130.867C66.0743 127.404 66.2759 123.982 66.8612 120.646C67.4465 117.31 68.4416 114.068 69.9374 111.065C71.4528 108.035 73.703 105.345 76.4345 103.281C79.1595 101.203 82.2618 99.6719 85.4355 98.4268C91.8221 95.9698 98.5468 94.4383 105.174 93.3863C108.497 92.8603 111.801 92.5207 115.073 92.3076C115.547 92.2943 115.736 92.2144 116.009 92.1744L116.77 92.0413C117.29 91.8815 117.778 91.8348 118.292 91.6418L119.046 91.4287C119.3 91.3355 119.554 91.2289 119.814 91.1557C120.321 91.0092 120.848 90.7429 121.362 90.5697C123.475 89.6975 125.745 88.5922 128.203 87.1939L132.06 84.9766L134.122 83.7848L136.313 82.5729C137.783 81.7473 139.429 80.9549 141.119 80.1625C142.869 79.4101 144.716 78.6577 146.758 78.0651C148.833 77.4858 151.018 76.9798 153.431 76.8266C155.811 76.6602 158.328 76.7534 160.78 77.2861L161.703 77.4659L162.601 77.7122C163.193 77.8853 163.804 78.0451 164.389 78.2449C165.515 78.691 166.692 79.1105 167.713 79.6831L169.28 80.5154L170.717 81.4277C171.706 82.0336 172.538 82.7127 173.403 83.3852C173.638 83.5584 173.807 83.6982 174.067 83.9113C174.405 84.1976 174.724 84.4972 175.049 84.8035C175.693 85.3761 176.311 86.1152 176.889 86.861C177.032 87.0407 177.176 87.2338 177.312 87.4269L177.709 88.0462C177.962 88.459 178.21 88.8785 178.444 89.3046C178.873 90.1702 179.25 91.0825 179.543 91.9813C179.673 92.4341 179.796 92.8802 179.901 93.333C179.959 93.5594 180.011 93.7924 180.05 94.0055L180.148 94.6581C180.206 95.0842 180.258 95.517 180.297 95.9498C180.343 96.3759 180.33 96.7555 180.343 97.1616C180.343 97.5545 180.343 97.9607 180.33 98.3468L180.239 99.4388C180.2 99.7984 180.174 100.178 180.115 100.511L179.94 101.496C179.419 104.093 178.606 106.197 177.754 108.115L177.78 108.121Z" stroke="white" stroke-width="1.49733" mask="url(#path-4-inside-1_985_41461)"/>
</g>
</g>
<mask id="path-5-inside-2_985_41461" fill="white">
<path d="M18.7973 151.768C18.8524 151.832 18.9509 151.848 19.0233 151.803C25.1998 148.032 28.8529 141.454 28.5574 134.638C28.5545 134.553 28.4763 134.486 28.3807 134.489C28.288 134.492 28.2156 134.564 28.2185 134.652C28.5082 141.361 24.913 147.835 18.835 151.544C18.7568 151.592 18.7365 151.688 18.7886 151.76C18.7886 151.763 18.7944 151.766 18.7973 151.771V151.768Z"/>
</mask>
<path d="M18.7973 151.768C18.8524 151.832 18.9509 151.848 19.0233 151.803C25.1998 148.032 28.8529 141.454 28.5574 134.638C28.5545 134.553 28.4763 134.486 28.3807 134.489C28.288 134.492 28.2156 134.564 28.2185 134.652C28.5082 141.361 24.913 147.835 18.835 151.544C18.7568 151.592 18.7365 151.688 18.7886 151.76C18.7886 151.763 18.7944 151.766 18.7973 151.771V151.768Z" fill="#0CBBE2"/>
<path d="M18.7973 151.768L19.257 151.373L18.1912 150.133V151.768H18.7973ZM19.0233 151.803L18.7074 151.286L18.7015 151.289L19.0233 151.803ZM28.5574 134.638L27.9516 134.659L27.9519 134.665L28.5574 134.638ZM28.3807 134.489L28.3638 133.883L28.3633 133.883L28.3807 134.489ZM28.2185 134.652L27.6126 134.672L27.6129 134.678L28.2185 134.652ZM18.835 151.544L18.5192 151.027L18.5178 151.028L18.835 151.544ZM18.7886 151.76H19.3948V151.564L19.2797 151.405L18.7886 151.76ZM18.7973 151.771L18.2646 152.06L19.4035 151.771H18.7973ZM18.3376 152.163C18.585 152.451 19.0147 152.524 19.3451 152.317L18.7015 151.289C18.8871 151.173 19.1198 151.214 19.257 151.373L18.3376 152.163ZM19.3391 152.32C25.6899 148.443 29.4687 141.664 29.163 134.612L27.9519 134.665C28.2371 141.244 24.7097 147.621 18.7075 151.286L19.3391 152.32ZM29.1632 134.618C29.1471 134.142 28.7328 133.873 28.3638 133.883L28.3976 135.095C28.2198 135.1 27.962 134.963 27.9516 134.659L29.1632 134.618ZM28.3633 133.883C27.9703 133.894 27.5976 134.214 27.6127 134.672L28.8243 134.632C28.8335 134.913 28.6057 135.089 28.3981 135.095L28.3633 133.883ZM27.6129 134.678C27.8924 141.151 24.4228 147.424 18.5192 151.027L19.1508 152.062C25.4031 148.246 29.1239 141.571 28.824 134.625L27.6129 134.678ZM18.5178 151.028C18.1526 151.252 18.0293 151.745 18.2976 152.116L19.2797 151.405C19.4437 151.632 19.3609 151.933 19.1522 152.061L18.5178 151.028ZM18.1825 151.76C18.1825 151.873 18.2136 151.964 18.2434 152.026C18.2722 152.085 18.3045 152.127 18.3233 152.15C18.3428 152.173 18.36 152.19 18.3676 152.198C18.372 152.202 18.3756 152.205 18.3777 152.207C18.3788 152.208 18.3797 152.209 18.3802 152.21C18.3808 152.21 18.3812 152.211 18.3813 152.211C18.3844 152.213 18.3664 152.197 18.3469 152.176C18.3258 152.153 18.2939 152.114 18.2646 152.06L19.3301 151.482C19.2993 151.425 19.2656 151.384 19.2426 151.359C19.2309 151.346 19.2208 151.336 19.2141 151.33C19.2106 151.326 19.2078 151.324 19.2059 151.322C19.2041 151.32 19.2026 151.319 19.2025 151.319C19.2006 151.317 19.2068 151.323 19.2136 151.329C19.2205 151.336 19.237 151.352 19.2559 151.375C19.2741 151.397 19.306 151.438 19.3344 151.497C19.3639 151.558 19.3948 151.648 19.3948 151.76H18.1825ZM19.4035 151.771V151.768H18.1912V151.771H19.4035Z" fill="#0CBBE2" mask="url(#path-5-inside-2_985_41461)"/>
<path d="M21.472 145.882L21.4719 145.882L21.4809 145.888C22.1663 146.329 22.2533 147.124 22.1027 147.917C22.0292 148.305 21.903 148.662 21.79 148.922C21.7336 149.051 21.6822 149.152 21.645 149.217C21.6351 149.234 21.6271 149.247 21.6211 149.257L21.6139 149.263C21.5558 149.318 21.4974 149.372 21.4387 149.426C21.4275 149.314 21.4093 149.196 21.3843 149.074C21.28 148.564 21.0519 147.95 20.6732 147.296C20.5219 147.009 20.4287 146.705 20.3949 146.43C20.3603 146.148 20.3905 145.921 20.4578 145.775C20.5185 145.643 20.6009 145.585 20.7158 145.577C20.8574 145.566 21.1031 145.625 21.472 145.882Z" fill="#0CBBE2" stroke="#0CBBE2" stroke-width="0.606138"/>
<path d="M22.2799 149.956C22.1644 149.932 22.0536 149.911 21.9481 149.895C21.9744 149.874 22.0007 149.853 22.0269 149.831C22.0279 149.831 22.0288 149.831 22.0297 149.83C22.0641 149.818 22.1063 149.801 22.1485 149.782C22.1862 149.766 22.2308 149.746 22.2797 149.725C22.2878 149.721 22.296 149.718 22.3044 149.714C22.3637 149.688 22.4304 149.658 22.5038 149.627C22.7978 149.5 23.1975 149.337 23.6416 149.204C24.0871 149.07 24.5667 148.969 25.0214 148.959C25.4744 148.949 25.8819 149.03 26.2076 149.237C26.5609 149.484 26.6237 149.689 26.6152 149.817C26.6056 149.962 26.4976 150.145 26.246 150.32C25.7406 150.672 24.8841 150.829 24.2509 150.563L24.2509 150.563L24.2423 150.56C23.4928 150.271 22.8241 150.069 22.2799 149.956Z" fill="#0CBBE2" stroke="#0CBBE2" stroke-width="0.606138"/>
<path d="M23.175 143.529L23.1875 143.503L23.1811 143.533C23.9446 143.866 24.177 144.638 24.1784 145.434C24.179 145.824 24.1227 146.193 24.0612 146.463C24.0304 146.598 23.9993 146.704 23.9754 146.773C23.9691 146.791 23.9639 146.805 23.9599 146.815L23.9587 146.817C23.9129 146.877 23.8667 146.938 23.8202 146.998C23.7873 146.887 23.7459 146.771 23.6965 146.652C23.4974 146.17 23.1584 145.606 22.6652 145.023C22.4613 144.763 22.3121 144.478 22.227 144.213C22.1398 143.942 22.1275 143.716 22.1655 143.565C22.199 143.432 22.2644 143.369 22.3716 143.344C22.5084 143.312 22.7625 143.333 23.175 143.529Z" fill="#0CBBE2" stroke="#0CBBE2" stroke-width="0.606138"/>
<path d="M24.752 147.39C24.6285 147.384 24.5109 147.38 24.3999 147.38C24.4202 147.357 24.4406 147.334 24.4608 147.311C24.4929 147.294 24.5311 147.27 24.5686 147.246C24.6032 147.224 24.6442 147.198 24.6891 147.169C24.6955 147.165 24.702 147.16 24.7085 147.156C24.7618 147.122 24.8215 147.083 24.8875 147.041C25.1516 146.873 25.5127 146.655 25.9229 146.458C26.7652 146.054 27.7151 145.791 28.4524 146.107C28.8496 146.297 28.9528 146.493 28.9686 146.622C28.9859 146.763 28.9162 146.954 28.7047 147.16C28.2786 147.575 27.4698 147.858 26.7969 147.69L26.797 147.69L26.7872 147.688C25.9986 147.519 25.3059 147.421 24.752 147.39Z" fill="#0CBBE2" stroke="#0CBBE2" stroke-width="0.606138"/>
<path d="M24.4132 140.96L24.4132 140.96L24.4224 140.963C25.2434 141.177 25.6149 141.908 25.7617 142.688C25.8337 143.071 25.8456 143.442 25.8345 143.716C25.8289 143.853 25.8178 143.961 25.8068 144.032C25.8043 144.048 25.8019 144.061 25.8 144.071L25.7977 144.076C25.7655 144.14 25.7328 144.205 25.6995 144.269C25.6453 144.162 25.5812 144.051 25.5078 143.937C25.2232 143.496 24.7858 142.995 24.1932 142.498C23.9431 142.273 23.7428 142.015 23.6098 141.767C23.4734 141.512 23.4203 141.292 23.4302 141.139C23.4388 141.006 23.4894 140.939 23.586 140.9C23.7139 140.848 23.9688 140.829 24.4132 140.96Z" fill="#0CBBE2" stroke="#0CBBE2" stroke-width="0.606138"/>
<path d="M26.0035 144.513C25.9772 144.555 25.9508 144.597 25.9241 144.639C25.9413 144.635 25.9586 144.63 25.976 144.626C26.0843 144.598 26.2042 144.574 26.3343 144.554M26.0035 144.513L28.7372 144.795C27.5877 144.728 26.6734 144.776 26.1151 144.904C26.1894 144.788 26.2625 144.671 26.3343 144.554M26.0035 144.513C26.0861 144.564 26.1723 144.56 26.2096 144.554C26.2597 144.547 26.2965 144.529 26.3098 144.522C26.3409 144.506 26.3662 144.487 26.3784 144.478C26.3796 144.477 26.3808 144.476 26.382 144.475M26.0035 144.513L26.382 144.475M26.3343 144.554C26.3502 144.528 26.3662 144.501 26.382 144.475M26.3343 144.554C26.4475 144.536 26.5685 144.521 26.6966 144.508C27.2471 144.454 27.9474 144.445 28.755 144.493L28.7646 144.493L28.7646 144.493C29.458 144.556 30.1991 144.155 30.5394 143.686C30.7077 143.453 30.7416 143.258 30.6986 143.121C30.6582 142.993 30.5162 142.813 30.088 142.686M26.382 144.475L30.0936 142.687C30.0917 142.687 30.0899 142.686 30.088 142.686M26.382 144.475C26.4101 144.453 26.4426 144.425 26.474 144.397C26.504 144.37 26.5392 144.338 26.5779 144.303C26.5836 144.298 26.5893 144.292 26.5951 144.287C26.6411 144.245 26.6928 144.198 26.7499 144.147C26.9788 143.942 27.2939 143.673 27.6614 143.417C28.4147 142.893 29.3014 142.488 30.088 142.686M26.382 144.475L30.088 142.686" fill="#0CBBE2" stroke="#0CBBE2" stroke-width="0.606138"/>
<path d="M25.1723 138.235L25.3418 138.257C26.0985 138.405 26.5542 139.037 26.8218 139.738C26.9622 140.105 27.041 140.47 27.0798 140.742C27.0993 140.879 27.1081 140.988 27.1103 141.06C27.1108 141.077 27.1109 141.091 27.1108 141.101C27.0911 141.167 27.0711 141.233 27.0509 141.298C26.9779 141.201 26.8944 141.101 26.801 141C26.4409 140.61 25.9191 140.184 25.2451 139.787C24.9571 139.603 24.7119 139.378 24.5348 139.153C24.3532 138.921 24.2601 138.71 24.2419 138.557C24.2261 138.423 24.264 138.353 24.3471 138.303C24.4616 138.233 24.7087 138.174 25.1723 138.235Z" fill="#0CBBE2" stroke="#0CBBE2" stroke-width="0.606138"/>
<path d="M28.0781 141.38C27.9486 141.414 27.827 141.449 27.7144 141.485C27.7265 141.454 27.7384 141.423 27.7503 141.391C27.7738 141.366 27.7999 141.334 27.8246 141.303C27.8498 141.271 27.8793 141.233 27.9117 141.192C27.9158 141.186 27.92 141.181 27.9242 141.175C27.962 141.127 28.0044 141.073 28.0515 141.014C28.24 140.776 28.5017 140.462 28.8175 140.153C29.4535 139.531 30.2374 139.001 31.0351 139.052L31.073 139.057C31.5226 139.116 31.7007 139.273 31.7664 139.399C31.8348 139.529 31.8353 139.728 31.7126 139.981C31.4637 140.493 30.8088 141.003 30.114 141.048L30.114 141.047L30.1039 141.048C29.2996 141.127 28.6111 141.242 28.0781 141.38Z" fill="#0CBBE2" stroke="#0CBBE2" stroke-width="0.606138"/>
<path d="M25.4224 135.403L25.5907 135.398C26.3678 135.427 26.937 135.988 27.3308 136.646C27.5369 136.991 27.6812 137.341 27.7693 137.606C27.8133 137.739 27.842 137.846 27.8571 137.917C27.8608 137.934 27.8633 137.948 27.865 137.958C27.858 138.023 27.8505 138.088 27.8428 138.153C27.7537 138.068 27.6538 137.983 27.5439 137.897C27.1196 137.568 26.5293 137.227 25.7931 136.939C25.4754 136.801 25.1919 136.616 24.9752 136.418C24.7532 136.216 24.6213 136.018 24.5744 135.866C24.533 135.73 24.5604 135.657 24.6285 135.597C24.7253 135.513 24.9549 135.416 25.4224 135.403Z" fill="#0CBBE2" stroke="#0CBBE2" stroke-width="0.606138"/>
<path d="M28.8768 138.079C28.7515 138.134 28.6348 138.189 28.5276 138.245C28.5347 138.208 28.5417 138.171 28.5486 138.134C28.5673 138.104 28.5872 138.068 28.6058 138.034C28.625 137.998 28.6475 137.955 28.672 137.909C28.675 137.903 28.6779 137.898 28.6809 137.892C28.7093 137.838 28.7412 137.777 28.7768 137.711C28.9194 137.446 29.1199 137.093 29.3747 136.737C29.8966 136.007 30.585 135.351 31.396 135.293C31.844 135.283 32.051 135.411 32.1426 135.531C32.2378 135.655 32.2729 135.857 32.1987 136.126C32.0476 136.673 31.498 137.279 30.8261 137.43L30.826 137.43L30.8156 137.433C30.0362 137.637 29.3778 137.859 28.8768 138.079Z" fill="#0CBBE2" stroke="#0CBBE2" stroke-width="0.606138"/>
<path d="M28.5991 134.572C28.5372 134.808 28.4732 135.028 28.4129 135.222C28.352 135.059 28.2842 134.882 28.2131 134.698C27.9433 134.001 27.619 133.2 27.4266 132.787C27.2815 132.395 27.184 131.971 27.1837 131.611C27.1834 131.239 27.2839 131.011 27.4474 130.899L27.4475 130.899L27.4508 130.897C27.6295 130.772 27.9614 130.732 28.2741 130.892C28.5673 131.041 28.8601 131.38 28.9162 132.036L28.916 132.036L28.9172 132.046C28.9997 132.741 28.8199 133.731 28.5991 134.572Z" fill="#0CBBE2" stroke="#0CBBE2" stroke-width="0.606138"/>
<mask id="path-18-inside-3_985_41461" fill="white">
<path d="M28.3111 136.189C28.3111 136.189 28.3169 136.197 28.3198 136.199C28.3546 136.231 28.4067 136.239 28.4502 136.218C28.4531 136.218 28.456 136.215 28.4589 136.213C28.485 136.197 28.5052 136.186 28.5081 136.146C28.7747 135.692 29.4815 133.296 29.3251 131.996C29.2614 131.262 28.9108 130.707 28.3604 130.481C27.9635 130.318 27.5116 130.35 27.2045 130.563C26.4281 131.089 26.8771 132.511 27.0336 132.933C27.3986 133.71 28.2387 135.901 28.2822 136.117C28.2822 136.143 28.288 136.167 28.3054 136.189H28.3111ZM28.7341 131.012C28.9108 131.22 29.0644 131.537 29.1049 132.015C29.2469 133.211 28.6762 135.092 28.4212 135.794C28.3488 135.586 28.2271 135.265 28.0359 134.766C27.7868 134.123 27.4507 133.285 27.2479 132.858C26.9553 132.063 26.8221 131.081 27.3435 130.729C27.584 130.561 27.949 130.537 28.2706 130.67C28.401 130.723 28.5777 130.825 28.7341 131.012Z"/>
</mask>
<path d="M28.3111 136.189C28.3111 136.189 28.3169 136.197 28.3198 136.199C28.3546 136.231 28.4067 136.239 28.4502 136.218C28.4531 136.218 28.456 136.215 28.4589 136.213C28.485 136.197 28.5052 136.186 28.5081 136.146C28.7747 135.692 29.4815 133.296 29.3251 131.996C29.2614 131.262 28.9108 130.707 28.3604 130.481C27.9635 130.318 27.5116 130.35 27.2045 130.563C26.4281 131.089 26.8771 132.511 27.0336 132.933C27.3986 133.71 28.2387 135.901 28.2822 136.117C28.2822 136.143 28.288 136.167 28.3054 136.189H28.3111ZM28.7341 131.012C28.9108 131.22 29.0644 131.537 29.1049 132.015C29.2469 133.211 28.6762 135.092 28.4212 135.794C28.3488 135.586 28.2271 135.265 28.0359 134.766C27.7868 134.123 27.4507 133.285 27.2479 132.858C26.9553 132.063 26.8221 131.081 27.3435 130.729C27.584 130.561 27.949 130.537 28.2706 130.67C28.401 130.723 28.5777 130.825 28.7341 131.012Z" fill="#0CBBE2"/>
<path d="M28.3111 136.189L28.8021 135.833L28.6206 135.583H28.3111V136.189ZM28.3198 136.199L27.9092 136.645L28.3198 136.199ZM28.4502 136.218V135.612H28.3093L28.1829 135.674L28.4502 136.218ZM28.4589 136.213L28.1417 135.696L28.0915 135.727L28.0482 135.767L28.4589 136.213ZM28.5081 136.146L27.9855 135.839L27.9138 135.961L27.9036 136.102L28.5081 136.146ZM29.3251 131.996L28.7212 132.049L28.7221 132.059L28.7233 132.069L29.3251 131.996ZM28.3604 130.481L28.5913 129.92L28.5904 129.92L28.3604 130.481ZM27.2045 130.563L27.5444 131.065L27.5505 131.061L27.2045 130.563ZM27.0336 132.933L26.4653 133.144L26.4741 133.168L26.485 133.191L27.0336 132.933ZM28.2822 136.117H28.8883V136.056L28.8764 135.997L28.2822 136.117ZM28.3054 136.189L27.8353 136.571L28.0172 136.795H28.3054V136.189ZM29.1049 132.015L28.501 132.066L28.5018 132.076L28.503 132.086L29.1049 132.015ZM28.4212 135.794L27.8488 135.993L28.4089 137.603L28.9909 136.001L28.4212 135.794ZM28.0359 134.766L28.6019 134.55L28.6011 134.547L28.0359 134.766ZM27.2479 132.858L26.6791 133.068L26.6886 133.093L26.7004 133.118L27.2479 132.858ZM27.3435 130.729L27.6829 131.231L27.6909 131.225L27.3435 130.729ZM28.2706 130.67L28.0383 131.23L28.0409 131.231L28.2706 130.67ZM28.3111 136.189C27.8202 136.544 27.8202 136.544 27.8203 136.544C27.8203 136.544 27.8203 136.544 27.8203 136.544C27.8203 136.544 27.8203 136.544 27.8203 136.544C27.8204 136.545 27.8204 136.545 27.8205 136.545C27.8205 136.545 27.8206 136.545 27.8207 136.545C27.8209 136.545 27.821 136.545 27.8212 136.546C27.8216 136.546 27.822 136.547 27.8224 136.547C27.8233 136.549 27.8244 136.55 27.8256 136.552C27.8279 136.555 27.8314 136.559 27.8355 136.565C27.8393 136.57 27.8459 136.578 27.8542 136.588C27.8588 136.593 27.8795 136.618 27.9092 136.645L28.7305 135.754C28.7587 135.78 28.7776 135.802 28.7803 135.806C28.7867 135.813 28.7913 135.819 28.7933 135.822C28.7956 135.825 28.7974 135.827 28.7986 135.828C28.7992 135.829 28.7998 135.83 28.8004 135.831C28.8006 135.831 28.8009 135.832 28.8012 135.832C28.8013 135.832 28.8015 135.832 28.8016 135.833C28.8017 135.833 28.8018 135.833 28.8018 135.833C28.8019 135.833 28.8019 135.833 28.802 135.833C28.802 135.833 28.802 135.833 28.802 135.833C28.802 135.833 28.802 135.833 28.802 135.833C28.8021 135.833 28.8021 135.833 28.3111 136.189ZM27.9092 136.645C28.127 136.846 28.4483 136.894 28.7175 136.762L28.1829 135.674C28.3652 135.585 28.5822 135.617 28.7305 135.754L27.9092 136.645ZM28.4502 136.824C28.6341 136.824 28.7596 136.742 28.7989 136.715C28.8243 136.698 28.8431 136.682 28.8528 136.674C28.8581 136.669 28.8623 136.665 28.8649 136.663C28.8674 136.661 28.8695 136.659 28.8696 136.659L28.0482 135.767C28.039 135.775 28.0699 135.745 28.1102 135.718C28.1466 135.693 28.2692 135.612 28.4502 135.612V136.824ZM28.7761 136.729C28.7772 136.729 28.7774 136.728 28.78 136.727C28.782 136.726 28.7852 136.724 28.7888 136.722C28.7957 136.717 28.8077 136.71 28.8217 136.7C28.8495 136.681 28.8958 136.646 28.9431 136.594C29.056 136.468 29.1032 136.321 29.1127 136.19L27.9036 136.102C27.9064 136.064 27.915 136.01 27.9391 135.949C27.9642 135.885 28 135.829 28.0413 135.783C28.0799 135.74 28.1161 135.714 28.1326 135.703C28.1445 135.694 28.1587 135.686 28.1417 135.696L28.7761 136.729ZM29.0308 136.453C29.1338 136.278 29.2448 135.987 29.3462 135.678C29.4533 135.351 29.5665 134.952 29.6656 134.526C29.8586 133.697 30.0186 132.685 29.9269 131.924L28.7233 132.069C28.7881 132.607 28.6729 133.443 28.4849 134.251C28.3935 134.644 28.2898 135.009 28.1943 135.3C28.093 135.609 28.0158 135.788 27.9855 135.839L29.0308 136.453ZM29.929 131.944C29.8515 131.051 29.4069 130.256 28.5913 129.92L28.1294 131.041C28.4147 131.159 28.6713 131.474 28.7212 132.049L29.929 131.944ZM28.5904 129.92C28.0366 129.693 27.3621 129.715 26.8585 130.066L27.5505 131.061C27.6611 130.984 27.8904 130.943 28.1304 131.041L28.5904 129.92ZM26.8646 130.061C26.192 130.517 26.1262 131.307 26.1647 131.831C26.2056 132.39 26.3798 132.913 26.4653 133.144L27.6018 132.722C27.5309 132.531 27.4023 132.133 27.3737 131.743C27.3426 131.319 27.4405 131.135 27.5443 131.065L26.8646 130.061ZM26.485 133.191C26.6576 133.558 26.9521 134.282 27.2135 134.955C27.343 135.288 27.462 135.602 27.5507 135.845C27.5952 135.967 27.6313 136.069 27.657 136.144C27.6881 136.236 27.6917 136.255 27.6879 136.236L28.8764 135.997C28.8618 135.924 28.8296 135.827 28.805 135.755C28.7751 135.667 28.7355 135.555 28.6894 135.429C28.597 135.176 28.475 134.854 28.3434 134.515C28.0826 133.844 27.7745 133.085 27.5821 132.675L26.485 133.191ZM27.676 136.117C27.676 136.238 27.7053 136.412 27.8353 136.571L28.7754 135.806C28.8183 135.859 28.8491 135.919 28.8676 135.98C28.8852 136.038 28.8883 136.087 28.8883 136.117H27.676ZM28.3054 136.795H28.3111V135.583H28.3054V136.795ZM28.272 131.404C28.3583 131.506 28.4699 131.7 28.501 132.066L29.7089 131.964C29.6589 131.375 29.4633 130.934 29.1962 130.619L28.272 131.404ZM28.503 132.086C28.5615 132.579 28.4736 133.266 28.3201 133.958C28.1699 134.636 27.9715 135.257 27.8515 135.587L28.9909 136.001C29.1259 135.629 29.3403 134.958 29.5037 134.221C29.6638 133.498 29.7903 132.647 29.7068 131.944L28.503 132.086ZM28.9937 135.595C28.9175 135.376 28.7918 135.045 28.6019 134.55L27.4699 134.983C27.6624 135.486 27.7801 135.796 27.8488 135.993L28.9937 135.595ZM28.6011 134.547C28.3531 133.907 28.0094 133.049 27.7955 132.598L26.7004 133.118C26.8921 133.522 27.2204 134.339 27.4707 134.985L28.6011 134.547ZM27.8168 132.649C27.6845 132.29 27.6001 131.917 27.5966 131.62C27.5927 131.299 27.679 131.234 27.6828 131.231L27.0042 130.226C26.4866 130.576 26.3788 131.178 26.3844 131.635C26.3902 132.116 26.5187 132.632 26.6791 133.068L27.8168 132.649ZM27.6909 131.225C27.7293 131.199 27.8686 131.159 28.0383 131.23L28.5029 130.11C28.0294 129.914 27.4386 129.923 26.9962 130.232L27.6909 131.225ZM28.0409 131.231C28.1011 131.256 28.1893 131.305 28.2694 131.401L29.1988 130.622C28.9661 130.344 28.7008 130.191 28.5002 130.109L28.0409 131.231Z" fill="#0CBBE2" mask="url(#path-18-inside-3_985_41461)"/>
<path d="M16.7404 151.774C18.7176 150.7 19.286 147.438 18.4602 145.476C17.6343 143.515 16.1915 141.722 15.968 139.631C15.798 138.024 16.3712 136.373 15.968 134.802C15.4142 132.68 13.1455 131.038 13.1747 128.855C13.1893 127.63 13.952 126.48 13.8888 125.259C13.8159 123.759 12.5529 122.57 11.7756 121.252C10.5805 119.228 10.5028 116.84 10.0948 114.572C9.68669 112.304 8.73939 109.876 6.54359 108.762C6.21811 110.688 5.6643 112.006 5.83919 114.612C5.90234 115.548 7.09254 117.341 7.25285 119.392C7.35001 120.617 7.41802 121.846 7.50061 123.076C7.57833 124.27 7.66578 125.486 8.13214 126.604C8.49163 127.461 9.06973 128.238 9.33691 129.121C9.83728 130.785 9.18146 132.587 9.58467 134.269C9.92958 135.699 11.008 136.924 11.2315 138.375C11.5424 140.408 10.0996 142.52 10.838 144.464C11.2024 145.428 12.0719 146.2 12.3148 147.194C12.5043 147.966 12.2954 148.783 12.4703 149.555C12.7472 150.802 15.3559 151.774 16.7453 151.695" fill="#1E62A1"/>
<path d="M7.08286 110.67C7.08286 110.67 7.08286 110.706 7.09258 110.777C7.10229 110.857 7.11687 110.963 7.1363 111.092C7.18002 111.372 7.23346 111.78 7.33548 112.304C7.44721 112.836 7.74354 113.431 7.98644 114.15C8.23906 114.869 8.49167 115.695 8.71028 116.622C8.93374 117.55 9.1232 118.575 9.32238 119.68C9.52641 120.777 9.73531 121.988 10.3377 123.138C10.6146 123.715 10.9255 124.292 11.1587 124.909C11.3967 125.521 11.5085 126.183 11.5765 126.862C11.6785 128.224 11.8777 129.645 12.1546 131.069C12.7618 133.919 13.3351 136.635 13.8646 139.107C14.4184 141.571 14.9187 143.79 15.3365 145.654C15.7592 147.509 16.1041 149.014 16.347 150.066C16.4684 150.576 16.5656 150.98 16.6287 151.264C16.6628 151.393 16.687 151.495 16.7065 151.575C16.7259 151.646 16.7356 151.681 16.7405 151.681C16.7405 151.681 16.7405 151.646 16.7259 151.575C16.7113 151.495 16.6919 151.393 16.6676 151.26C16.6093 150.971 16.5267 150.567 16.4199 150.057C16.1915 149.001 15.8709 147.491 15.4726 145.632C15.0645 143.763 14.5787 141.54 14.0395 139.076C13.5197 136.604 12.9464 133.888 12.3489 131.038C12.072 129.609 11.8728 128.211 11.7659 126.844C11.6979 126.16 11.5813 125.481 11.3336 124.851C11.0907 124.221 10.7749 123.639 10.498 123.067C9.90048 121.935 9.69158 120.75 9.47783 119.649C9.2738 118.549 9.07463 117.519 8.84144 116.587C8.60826 115.659 8.35079 114.829 8.0836 114.11C7.83099 113.387 7.52494 112.796 7.40349 112.277C7.29175 111.758 7.2286 111.345 7.17031 111.074L7.10715 110.759C7.09258 110.688 7.08286 110.653 7.078 110.653L7.08286 110.67Z" fill="#1E62A1"/>
<path d="M166.518 144.659C166.245 143.696 166.934 142.733 167.711 142.033C168.482 141.333 169.407 140.708 169.813 139.788C170.466 138.294 169.587 136.359 170.703 135.109C171.356 134.376 172.533 134.132 173.114 133.348C173.417 132.934 173.515 132.432 173.638 131.948C174.25 129.477 175.602 127.166 177.51 125.329C177.644 127.528 177.114 129.759 175.993 131.708C175.541 132.493 174.991 133.258 174.842 134.132C174.6 135.551 175.469 137.016 175.083 138.411C174.646 140.008 172.687 141.075 172.59 142.719C172.513 144.109 173.834 145.326 173.736 146.711C173.695 147.303 173.392 147.853 173.063 148.36C171.885 150.145 170.163 151.376 167.546 151.333L164.343 151.437L166.528 144.659H166.518Z" fill="#0CBBE2"/>
<g opacity="0.3">
<path d="M166.518 144.659C166.245 143.696 166.934 142.733 167.711 142.033C168.482 141.333 169.407 140.708 169.813 139.788C170.466 138.294 169.587 136.359 170.703 135.109C171.356 134.376 172.533 134.132 173.114 133.348C173.417 132.934 173.515 132.432 173.638 131.948C174.25 129.477 175.602 127.166 177.51 125.329C177.644 127.528 177.114 129.759 175.993 131.708C175.541 132.493 174.991 133.258 174.842 134.132C174.6 135.551 175.469 137.016 175.083 138.411C174.646 140.008 172.687 141.075 172.59 142.719C172.513 144.109 173.834 145.326 173.736 146.711C173.695 147.303 173.392 147.853 173.063 148.36C171.885 150.145 170.163 151.376 167.546 151.333L164.343 151.437L166.528 144.659H166.518Z" fill="#008BB0"/>
</g>
<path d="M163.685 151.512C163.685 151.512 163.382 151.578 162.801 151.493C162.513 151.456 162.158 151.385 161.757 151.254C161.361 151.122 160.904 150.929 160.472 150.61C160.261 150.446 160.055 150.239 159.942 149.967C159.834 149.694 159.814 149.398 159.793 149.093C159.778 148.788 159.778 148.468 159.716 148.144C159.659 147.82 159.526 147.505 159.325 147.205C158.945 146.599 158.317 146.026 158.117 145.199C157.896 144.391 158.055 143.512 158.204 142.634C158.353 141.756 158.497 140.797 158.127 139.881C157.783 138.966 157.078 138.139 156.729 137.105C156.379 136.063 156.544 134.94 156.467 133.836C156.431 133.282 156.318 132.723 156.05 132.211C155.793 131.694 155.433 131.206 155.15 130.656C154.58 129.552 154.482 128.303 154.328 127.077C154.251 126.461 154.174 125.837 154.096 125.207C154.019 124.573 153.958 123.944 153.742 123.333C153.546 122.718 153.258 122.126 152.976 121.52C152.837 121.214 152.693 120.909 152.605 120.576C152.544 120.233 152.523 119.909 152.503 119.57C152.467 118.899 152.498 118.218 152.59 117.546C152.677 116.87 152.811 116.202 152.888 115.521L152.904 115.404L152.919 115.268L153.053 115.329C153.737 115.644 154.328 116.109 154.78 116.658C155.238 117.203 155.572 117.818 155.839 118.443C156.374 119.702 156.569 121.017 156.837 122.276C157.099 123.535 157.449 124.77 158.153 125.818C158.503 126.339 158.929 126.814 159.299 127.326C159.67 127.833 159.999 128.387 160.096 128.993C160.287 130.233 159.541 131.318 159.695 132.418C159.752 132.962 159.988 133.47 160.281 133.935C160.575 134.404 160.914 134.837 161.238 135.273C161.562 135.71 161.87 136.152 162.096 136.626C162.328 137.096 162.456 137.603 162.492 138.092C162.569 139.078 162.415 140.018 162.492 140.901C162.559 141.789 162.898 142.587 163.284 143.306C163.67 144.024 164.101 144.677 164.466 145.307C164.646 145.622 164.816 145.932 164.95 146.242C165.094 146.552 165.166 146.866 165.233 147.167C165.335 147.773 165.325 148.341 165.258 148.839C165.119 149.844 164.708 150.563 164.343 150.972C164.261 151.08 164.163 151.155 164.086 151.23C164.009 151.305 163.937 151.352 163.875 151.395C163.757 151.474 163.69 151.512 163.69 151.512C163.675 151.498 163.952 151.362 164.312 150.953C164.667 150.544 165.058 149.826 165.181 148.834C165.248 148.341 165.248 147.782 165.14 147.186C165.073 146.89 165.001 146.58 164.857 146.284C164.718 145.983 164.554 145.673 164.369 145.363C164.004 144.738 163.567 144.09 163.171 143.362C162.78 142.639 162.425 141.821 162.353 140.915C162.271 140.013 162.42 139.074 162.338 138.106C162.302 137.622 162.179 137.143 161.952 136.687C161.731 136.232 161.428 135.795 161.104 135.363C160.78 134.931 160.436 134.494 160.132 134.015C159.834 133.54 159.582 133.009 159.521 132.432C159.366 131.262 160.107 130.168 159.916 129.017C159.824 128.448 159.515 127.918 159.15 127.42C158.785 126.922 158.359 126.443 157.994 125.907C157.264 124.831 156.914 123.573 156.647 122.309C156.374 121.045 156.179 119.74 155.654 118.509C155.392 117.898 155.068 117.297 154.621 116.771C154.184 116.24 153.623 115.794 152.971 115.493L153.12 115.418L153.104 115.535C153.022 116.221 152.888 116.893 152.806 117.56C152.713 118.227 152.688 118.894 152.719 119.556C152.739 119.88 152.76 120.223 152.816 120.533C152.893 120.843 153.037 121.144 153.176 121.445C153.459 122.046 153.747 122.652 153.947 123.277C154.168 123.901 154.235 124.554 154.307 125.179C154.384 125.808 154.462 126.433 154.533 127.053C154.688 128.284 154.785 129.515 155.336 130.576C155.608 131.107 155.963 131.595 156.23 132.131C156.508 132.666 156.626 133.254 156.662 133.817C156.734 134.949 156.569 136.053 156.904 137.054C157.238 138.05 157.937 138.881 158.287 139.825C158.667 140.779 158.508 141.77 158.353 142.643C158.199 143.527 158.045 144.381 158.251 145.161C158.436 145.946 159.048 146.519 159.433 147.139C159.634 147.449 159.778 147.782 159.829 148.116C159.886 148.449 159.88 148.769 159.896 149.074C159.911 149.375 159.932 149.671 160.035 149.924C160.138 150.178 160.333 150.375 160.533 150.54C160.95 150.854 161.397 151.052 161.788 151.188C162.184 151.324 162.533 151.399 162.816 151.441C163.099 151.488 163.32 151.493 163.469 151.498C163.618 151.493 163.695 151.498 163.695 151.498L163.685 151.512Z" fill="#0CBBE2"/>
<path d="M153.557 117.02C153.557 117.02 153.572 117.048 153.588 117.109C153.608 117.18 153.629 117.264 153.66 117.372C153.721 117.602 153.798 117.95 153.917 118.387C154.04 118.819 154.333 119.312 154.58 119.918C154.837 120.519 155.099 121.215 155.341 121.994C155.588 122.774 155.803 123.643 156.03 124.573C156.261 125.498 156.498 126.494 157.058 127.434C157.32 127.908 157.618 128.392 157.85 128.918C158.091 129.444 158.22 130.022 158.312 130.6C158.467 131.76 158.698 132.939 159.001 134.141C159.644 136.542 160.256 138.825 160.811 140.905C161.382 142.977 161.896 144.847 162.328 146.425C162.749 147.984 163.094 149.253 163.335 150.15C163.449 150.577 163.536 150.92 163.598 151.164L163.659 151.427C163.675 151.488 163.68 151.517 163.675 151.521C163.675 151.521 163.659 151.493 163.639 151.432L163.557 151.174C163.485 150.929 163.382 150.591 163.253 150.169C162.996 149.276 162.631 148.012 162.184 146.458C161.737 144.884 161.207 143.019 160.621 140.948C160.06 138.867 159.438 136.579 158.791 134.179C158.487 132.976 158.251 131.779 158.102 130.623C158.014 130.05 157.891 129.496 157.66 128.984C157.433 128.472 157.14 127.993 156.878 127.509C156.312 126.555 156.081 125.527 155.855 124.606C155.634 123.676 155.428 122.812 155.192 122.032C154.96 121.252 154.708 120.557 154.462 119.956C154.225 119.354 153.942 118.856 153.824 118.41C153.711 117.964 153.654 117.621 153.603 117.386C153.582 117.278 153.567 117.189 153.552 117.118C153.541 117.057 153.536 117.025 153.541 117.025L153.557 117.02Z" fill="#0CBBE2"/>
<path d="M163.12 151.521C161.027 150.385 160.425 146.932 161.3 144.856C162.174 142.78 163.7 140.882 163.937 138.67C164.117 136.969 163.51 135.222 163.937 133.559C164.523 131.314 166.924 129.576 166.893 127.265C166.878 125.968 166.071 124.752 166.137 123.46C166.215 121.872 167.551 120.613 168.374 119.218C169.639 117.076 169.721 114.549 170.153 112.149C170.585 109.748 171.587 107.179 173.911 106C174.256 108.039 174.842 109.434 174.657 112.191C174.59 113.182 173.33 115.08 173.16 117.25C173.058 118.546 172.986 119.848 172.898 121.149C172.816 122.412 172.723 123.699 172.23 124.883C171.849 125.79 171.238 126.612 170.955 127.546C170.425 129.308 171.119 131.215 170.693 132.995C170.328 134.508 169.186 135.804 168.95 137.34C168.621 139.492 170.148 141.728 169.366 143.785C168.981 144.804 168.06 145.622 167.803 146.674C167.603 147.491 167.824 148.355 167.639 149.173C167.346 150.493 164.585 151.521 163.114 151.437" fill="#1E62A1"/>
<path d="M173.341 108.02C173.341 108.02 173.341 108.057 173.33 108.133C173.32 108.217 173.305 108.33 173.284 108.466C173.238 108.762 173.181 109.194 173.073 109.748C172.955 110.312 172.641 110.942 172.384 111.702C172.117 112.463 171.85 113.337 171.618 114.319C171.382 115.301 171.181 116.386 170.97 117.555C170.754 118.716 170.533 119.998 169.896 121.214C169.603 121.825 169.274 122.436 169.027 123.089C168.775 123.737 168.657 124.437 168.585 125.156C168.477 126.598 168.266 128.101 167.973 129.609C167.33 132.624 166.724 135.499 166.163 138.115C165.577 140.722 165.048 143.071 164.605 145.044C164.158 147.007 163.793 148.6 163.536 149.713C163.408 150.253 163.305 150.681 163.238 150.981C163.202 151.117 163.176 151.225 163.156 151.31C163.135 151.385 163.125 151.423 163.12 151.423C163.12 151.423 163.12 151.385 163.135 151.31C163.15 151.225 163.171 151.117 163.197 150.976C163.258 150.671 163.346 150.244 163.459 149.703C163.701 148.586 164.04 146.988 164.462 145.02C164.893 143.043 165.408 140.689 165.978 138.082C166.528 135.466 167.135 132.591 167.767 129.576C168.06 128.063 168.271 126.583 168.384 125.137C168.456 124.413 168.58 123.695 168.842 123.028C169.099 122.361 169.433 121.745 169.726 121.139C170.359 119.942 170.58 118.687 170.806 117.522C171.022 116.358 171.233 115.268 171.479 114.281C171.726 113.3 171.999 112.421 172.281 111.66C172.549 110.895 172.873 110.27 173.001 109.72C173.119 109.171 173.186 108.734 173.248 108.447L173.315 108.114C173.33 108.039 173.341 108.001 173.346 108.001L173.341 108.02Z" fill="#1E62A1"/>
<path d="M96.0434 17.9777H110.683C110.683 17.9777 114.116 16.7841 113.672 13.621C113.227 10.4579 108.045 13.0938 108.045 13.0938C108.045 13.0938 109.617 8.67995 104.596 9.93325C99.5782 11.1841 99.0882 15.5606 99.0882 15.5606C99.0882 15.5606 92.4951 14.4988 96.0434 17.9802V17.9777Z" fill="white"/>
<path d="M141.814 53.1927H157.817C157.817 53.1927 161.57 51.8902 161.084 48.4388C160.598 44.9875 154.933 47.8636 154.933 47.8636C154.933 47.8636 156.649 43.0481 151.162 44.4163C145.674 45.7805 145.139 50.5549 145.139 50.5549C145.139 50.5549 137.931 49.3962 141.809 53.1927H141.814Z" fill="white"/>
<path d="M28.885 37.2764H56.6382C60.1938 37.2764 61.0506 32.752 57.6939 31.6925C57.6511 31.6786 57.6082 31.6647 57.5654 31.6536C61.2801 28.8422 53.1285 22.9107 44.2793 31.1224C44.9678 28.3861 37.1008 29.3733 34.6957 33.1079C33.842 30.6552 26.3361 34.9154 28.8911 37.2791L28.885 37.2764Z" fill="white"/>
<path d="M131.895 60.122C125.778 52.5464 117.083 47.8031 107.399 46.7703C87.4179 44.6368 69.4219 59.1573 67.2822 79.1384C65.9711 91.4017 70.937 102.91 79.5887 110.468L43.7822 151.815H52.2608L84.4371 114.054C88.9207 116.819 94.0721 118.655 99.6564 119.255C100.974 119.397 102.291 119.466 103.602 119.466C111.895 119.466 119.879 116.658 126.422 111.377C133.997 105.26 138.741 96.5655 139.773 86.881C140.806 77.2027 138.011 67.6976 131.895 60.1158V60.122ZM133.787 86.244C132.921 94.3268 128.963 101.593 122.637 106.695C116.31 111.797 108.376 114.135 100.293 113.269C83.6084 111.488 71.4812 96.4603 73.2685 79.7754C75.0495 63.0904 90.0709 50.9632 106.762 52.7505C114.845 53.6162 122.111 57.5741 127.213 63.9006C132.315 70.227 134.653 78.1613 133.787 86.244Z" fill="#003972"/>
<path d="M129.328 57.5555C123.212 49.9799 114.511 45.2366 104.833 44.2038C84.8453 42.0641 66.8493 56.5846 64.7158 76.5719C63.4047 88.8352 68.3706 100.344 77.0223 107.901L40.5034 151.93H47.2601L81.8645 111.494C86.3481 114.258 91.4995 116.095 97.0838 116.695C98.4011 116.837 99.7183 116.905 101.029 116.905C109.322 116.905 117.306 114.098 123.849 108.816C131.425 102.7 136.168 94.0051 137.201 84.3207C138.233 74.6424 135.438 65.1373 129.322 57.5555H129.328ZM131.221 83.6775C130.355 91.7603 126.397 99.0267 120.07 104.129C113.744 109.231 105.81 111.568 97.727 110.702C81.042 108.921 68.9148 93.8938 70.7021 77.2089C72.4831 60.5239 87.5045 48.3967 104.196 50.1839C112.278 51.0497 119.539 55.0076 124.647 61.334C129.749 67.6605 132.086 75.5948 131.221 83.6775Z" fill="#92B0CE"/>
<path d="M84.4187 100.189C84.4187 100.189 84.326 100.103 84.1776 99.9234C84.0291 99.7379 83.8065 99.4782 83.5468 99.1071C83.0087 98.3898 82.2852 97.3137 81.5184 95.9037C79.9661 93.1085 78.3397 88.8847 77.9253 83.9806C77.5048 79.0765 78.4015 74.6363 79.4528 71.6246C79.9785 70.1095 80.5103 68.9221 80.9123 68.1243C81.104 67.7224 81.2834 67.4255 81.4009 67.2153C81.5184 67.0112 81.5802 66.906 81.5926 66.9122C81.6049 66.9122 81.5555 67.0297 81.4565 67.2462C81.3637 67.4626 81.203 67.7656 81.0236 68.18C80.6526 68.9901 80.1578 70.1837 79.6631 71.6988C78.6674 74.7105 77.8264 79.1136 78.2345 83.9559C78.6427 88.8043 80.2197 92.9971 81.7101 95.7986C82.4522 97.2086 83.1386 98.297 83.6457 99.0329C83.8869 99.4102 84.0972 99.6823 84.227 99.8802C84.3569 100.072 84.4249 100.183 84.4187 100.189Z" fill="#5A8FD3"/>
<path d="M85.94 62.7625C85.9957 62.8367 85.6246 63.1831 85.2536 63.6716C84.8764 64.154 84.6414 64.6054 84.5548 64.5683C84.4744 64.5436 84.5919 63.9994 85 63.4737C85.4082 62.9419 85.8967 62.6883 85.9462 62.7625H85.94Z" fill="#5A8FD3"/>
<path d="M38.4814 46.0522C31.1809 47.4285 26.3338 54.4887 27.7153 61.8187C29.0911 69.1187 36.1512 73.9648 43.4818 72.5826C50.8124 71.2004 55.6237 64.1165 54.2482 56.816C52.8727 49.5154 45.7823 44.6756 38.4814 46.0522ZM39.7623 52.848C40.5795 52.694 41.424 52.7861 42.1887 53.1127C42.9534 53.4392 43.6038 53.9855 44.0576 54.6823C44.5113 55.3791 44.7479 56.195 44.7372 57.0264C44.7266 57.8578 44.4692 58.6674 43.9978 59.3524C43.5264 60.0375 42.8622 60.5671 42.0894 60.8741C41.3165 61.1811 40.47 61.2518 39.657 61.077C38.844 60.9022 38.1013 60.49 37.523 59.8925C36.9447 59.2951 36.5569 58.5393 36.4088 57.7211C35.9837 55.4657 37.5064 53.2735 39.7623 52.848ZM42.9672 69.8524C40.5436 70.3131 38.0353 69.917 35.8718 68.7318C37.3797 66.2964 39.4764 64.7025 41.9101 64.2437C44.3438 63.7848 46.9008 64.4704 49.1677 66.2249C47.5842 68.1166 45.3922 69.399 42.9672 69.8524Z" fill="#0CBBE2"/>
<path d="M135.092 124.463C130.119 122.852 124.745 125.578 123.126 130.571C121.514 135.544 124.24 140.918 129.234 142.536C134.228 144.154 139.589 141.401 141.201 136.429C142.813 131.456 140.066 126.075 135.092 124.463ZM133.592 129.093C134.149 129.273 134.639 129.615 135.001 130.074C135.363 130.534 135.581 131.091 135.626 131.674C135.672 132.258 135.542 132.841 135.256 133.351C134.969 133.861 134.537 134.274 134.014 134.538C133.492 134.803 132.903 134.906 132.323 134.835C131.742 134.764 131.195 134.522 130.752 134.14C130.309 133.758 129.989 133.253 129.833 132.689C129.678 132.125 129.693 131.527 129.877 130.972C130.375 129.435 132.055 128.595 133.592 129.093ZM129.837 140.676C128.185 140.143 126.769 139.053 125.833 137.591C127.585 136.596 129.418 136.318 131.076 136.855C132.733 137.393 134.082 138.678 134.89 140.527C133.274 141.161 131.488 141.214 129.837 140.676Z" fill="#0CBBE2"/>
<path d="M0.662598 152H183.337" stroke="#1B344C" stroke-width="0.624378" stroke-linecap="round" stroke-linejoin="round"/>
</svg>
