<svg width="184" height="153" viewBox="0 0 184 153" fill="none" xmlns="http://www.w3.org/2000/svg">
<path d="M91.9423 0.727341C41.5299 0.727341 0.662598 41.5064 0.662598 91.81C0.662598 114.547 9.0119 135.338 22.8181 151.298H161.067C174.873 135.338 183.222 114.547 183.222 91.81C183.222 41.5064 142.355 0.727341 91.9423 0.727341Z" fill="#ECF0F3"/>
<g opacity="0.4">
<mask id="mask0_1388_41886" style="mask-type:alpha" maskUnits="userSpaceOnUse" x="0" y="0" width="184" height="152">
<path d="M92 0.748978C41.5558 0.748978 0.662598 41.7124 0.662598 92.2435C0.662598 115.083 9.01717 135.969 22.8321 152H161.168C174.983 135.969 183.337 115.083 183.337 92.2435C183.337 41.7124 142.444 0.748978 92 0.748978Z" fill="#0CBBE2" fill-opacity="0.5"/>
<path d="M0.938367 92.2435C0.938367 41.8643 41.7085 1.02475 92 1.02475C142.292 1.02475 183.062 41.8643 183.062 92.2435C183.062 114.969 174.766 135.754 161.041 151.724H22.9586C9.2344 135.754 0.938367 114.969 0.938367 92.2435Z" stroke="#0CBBE2" stroke-opacity="0.5" stroke-width="0.551539"/>
</mask>
<g mask="url(#mask0_1388_41886)">
<mask id="path-4-inside-1_1388_41886" fill="white">
<path d="M120.106 59.2726C135.356 36.9292 123.108 5.8583 97.0247 0.718066L50.9426 -8.36333C24.5745 -13.5597 1.91087 11.2055 8.57763 37.93L10.9296 47.3582C14.5196 61.7489 26.0141 72.6216 40.2676 75.109L79.1321 81.8911C93.0688 84.3232 107.123 78.2942 115.24 66.4016L120.106 59.2726Z"/>
<path d="M122.442 53.0508C137.854 30.4699 125.166 -0.912136 98.7197 -5.62395L61.6674 -12.2254C35.853 -16.8246 13.8283 7.11145 19.742 33.3383L21.0728 39.2404C24.4615 54.2689 36.4347 65.6491 51.2794 67.951L84.0137 73.027C97.7509 75.1571 111.478 69.1151 119.455 57.4274L122.442 53.0508Z"/>
<path d="M176.316 99.0917C175.451 101.003 174.508 102.687 173.512 104.272C173.025 105.078 172.517 105.823 172.017 106.582C171.503 107.315 170.976 108.054 170.443 108.753C169.396 110.178 168.284 111.496 167.171 112.801C162.716 117.962 157.858 122.396 153.091 126.784L151.407 128.349L150.665 129.041L149.963 129.801C149.482 130.3 149.046 130.873 148.591 131.419C148.161 132.005 147.732 132.59 147.316 133.203C146.906 133.822 146.496 134.442 146.119 135.107C145.736 135.76 145.358 136.419 145.001 137.105C144.298 138.477 143.589 139.881 142.971 141.333C140.39 147.153 138.451 153.412 135.427 159.67C133.86 162.78 131.987 165.963 129.262 168.726C127.935 170.144 126.348 171.343 124.69 172.435C123.844 172.941 122.979 173.46 122.082 173.866C121.633 174.079 121.178 174.306 120.729 174.499L119.35 175.018C117.49 175.704 115.604 176.137 113.718 176.476C112.756 176.65 111.715 176.703 110.694 176.803C109.673 176.869 108.678 176.803 107.657 176.803C106.642 176.776 105.68 176.623 104.678 176.51C104.177 176.457 103.703 176.357 103.228 176.257L101.784 175.957L101.062 175.797L100.366 175.591L98.9745 175.165C98.0315 174.912 97.16 174.546 96.269 174.186C92.7376 172.754 89.4988 170.863 86.5526 168.666C83.6325 166.449 80.9725 163.959 78.6052 161.249C76.2379 158.539 74.2023 155.562 72.4398 152.453C72.0105 151.667 71.5943 150.875 71.1846 150.089C70.7879 149.29 70.4301 148.458 70.0594 147.645C69.6822 146.84 69.3506 146.001 69.0384 145.168C68.7197 144.329 68.3945 143.504 68.1279 142.645C66.9832 139.269 66.1703 135.773 65.5785 132.291C65.0061 128.802 64.6615 125.306 64.6419 121.837C64.6094 118.375 64.811 114.952 65.3964 111.616C65.9817 108.28 66.9767 105.038 68.4726 102.035C69.9879 99.0051 72.2382 96.3151 74.9697 94.2509C77.6947 92.1735 80.7969 90.642 83.9707 89.3969C90.3572 86.9399 97.082 85.4085 103.709 84.3564C107.033 83.8304 110.336 83.4908 113.608 83.2778C114.082 83.2645 114.271 83.1845 114.544 83.1446L115.305 83.0114C115.825 82.8516 116.313 82.805 116.827 82.6119L117.581 82.3988C117.835 82.3056 118.089 82.1991 118.349 82.1258C118.856 81.9794 119.383 81.713 119.897 81.5399C122.01 80.6676 124.28 79.5623 126.738 78.1641L130.595 75.9468L132.657 74.7549L134.848 73.5431C136.318 72.7174 137.964 71.9251 139.655 71.1327C141.404 70.3803 143.251 69.6279 145.293 69.0353C147.368 68.456 149.553 67.9499 151.966 67.7968C154.346 67.6303 156.863 67.7236 159.315 68.2562L160.239 68.436L161.136 68.6824C161.728 68.8555 162.339 69.0153 162.925 69.2151C164.05 69.6612 165.227 70.0807 166.248 70.6533L167.815 71.4856L169.253 72.3978C170.241 73.0037 171.074 73.6829 171.939 74.3554C172.173 74.5285 172.342 74.6684 172.602 74.8814C172.94 75.1677 173.259 75.4674 173.584 75.7737C174.228 76.3463 174.846 77.0854 175.425 77.8311C175.568 78.0109 175.711 78.204 175.847 78.3971L176.244 79.0163C176.498 79.4292 176.745 79.8487 176.979 80.2748C177.408 81.1404 177.785 82.0526 178.078 82.9515C178.208 83.4043 178.332 83.8504 178.436 84.3032C178.494 84.5296 178.546 84.7626 178.585 84.9757L178.683 85.6282C178.741 86.0543 178.793 86.4872 178.832 86.92C178.878 87.3461 178.865 87.7256 178.878 88.1318C178.878 88.5247 178.878 88.9308 178.865 89.317L178.774 90.409C178.735 90.7685 178.709 91.1481 178.65 91.481L178.475 92.4665C177.954 95.0633 177.141 97.1674 176.29 99.085L176.316 99.0917Z"/>
<path d="M177.78 108.121C176.915 110.032 175.972 111.717 174.977 113.302C174.489 114.107 173.982 114.853 173.481 115.612C172.967 116.345 172.441 117.084 171.907 117.783C170.86 119.208 169.748 120.526 168.636 121.831C164.181 126.992 159.323 131.426 154.556 135.814L152.871 137.379L152.13 138.071L151.427 138.83C150.946 139.33 150.51 139.902 150.055 140.448C149.626 141.034 149.197 141.62 148.781 142.233C148.371 142.852 147.961 143.471 147.584 144.137C147.2 144.79 146.823 145.449 146.465 146.135C145.763 147.506 145.054 148.911 144.436 150.363C141.854 156.182 139.916 162.441 136.892 168.7C135.325 171.81 133.451 174.993 130.726 177.756C129.4 179.174 127.813 180.373 126.154 181.465C125.309 181.971 124.444 182.49 123.546 182.896C123.098 183.109 122.642 183.336 122.194 183.529L120.815 184.048C118.955 184.734 117.069 185.167 115.183 185.506C114.22 185.679 113.18 185.733 112.159 185.833C111.138 185.899 110.143 185.833 109.121 185.833C108.107 185.806 107.144 185.653 106.143 185.54C105.642 185.486 105.167 185.386 104.693 185.287L103.249 184.987L102.527 184.827L101.831 184.621L100.439 184.195C99.4961 183.942 98.6246 183.575 97.7336 183.216C94.2022 181.784 90.9634 179.893 88.0172 177.696C85.0971 175.479 82.4371 172.988 80.0698 170.278C77.7025 167.568 75.6669 164.592 73.9044 161.483C73.4751 160.697 73.0589 159.904 72.6492 159.119C72.2525 158.32 71.8948 157.487 71.5241 156.675C71.1468 155.869 70.8152 155.03 70.503 154.198C70.1843 153.359 69.8591 152.534 69.5925 151.675C68.4479 148.299 67.6349 144.803 67.0431 141.321C66.4707 137.832 66.1261 134.336 66.1066 130.867C66.074 127.404 66.2756 123.982 66.861 120.646C67.4463 117.31 68.4413 114.068 69.9372 111.065C71.4525 108.035 73.7028 105.345 76.4343 103.281C79.1593 101.203 82.2615 99.6719 85.4353 98.4267C91.8218 95.9698 98.5466 94.4383 105.174 93.3863C108.497 92.8603 111.801 92.5207 115.072 92.3076C115.547 92.2943 115.736 92.2144 116.009 92.1744L116.77 92.0413C117.29 91.8814 117.778 91.8348 118.292 91.6417L119.046 91.4287C119.3 91.3355 119.553 91.2289 119.813 91.1557C120.321 91.0092 120.847 90.7429 121.361 90.5697C123.475 89.6975 125.745 88.5922 128.203 87.1939L132.06 84.9766L134.121 83.7847L136.313 82.5729C137.783 81.7473 139.428 80.9549 141.119 80.1625C142.869 79.4101 144.716 78.6577 146.758 78.0651C148.833 77.4858 151.018 76.9798 153.431 76.8266C155.811 76.6602 158.328 76.7534 160.78 77.2861L161.703 77.4659L162.601 77.7122C163.193 77.8853 163.804 78.0451 164.389 78.2449C165.514 78.691 166.691 79.1105 167.713 79.6831L169.28 80.5154L170.717 81.4276C171.706 82.0336 172.538 82.7127 173.403 83.3852C173.637 83.5583 173.806 83.6982 174.067 83.9113C174.405 84.1976 174.723 84.4972 175.049 84.8035C175.692 85.3761 176.31 86.1152 176.889 86.861C177.032 87.0407 177.175 87.2338 177.312 87.4269L177.709 88.0462C177.962 88.459 178.209 88.8785 178.443 89.3046C178.873 90.1702 179.25 91.0824 179.543 91.9813C179.673 92.4341 179.796 92.8802 179.9 93.333C179.959 93.5594 180.011 93.7924 180.05 94.0055L180.147 94.658C180.206 95.0842 180.258 95.517 180.297 95.9498C180.343 96.3759 180.33 96.7555 180.343 97.1616C180.343 97.5545 180.343 97.9606 180.33 98.3468L180.239 99.4388C180.199 99.7984 180.173 100.178 180.115 100.511L179.939 101.496C179.419 104.093 178.606 106.197 177.754 108.115L177.78 108.121Z"/>
</mask>
<path d="M120.106 59.2726C135.356 36.9292 123.108 5.8583 97.0247 0.718066L50.9426 -8.36333C24.5745 -13.5597 1.91087 11.2055 8.57763 37.93L10.9296 47.3582C14.5196 61.7489 26.0141 72.6216 40.2676 75.109L79.1321 81.8911C93.0688 84.3232 107.123 78.2942 115.24 66.4016L120.106 59.2726Z" fill="#0CBBE2" fill-opacity="0.04"/>
<path d="M122.442 53.0508C137.854 30.4699 125.166 -0.912136 98.7197 -5.62395L61.6674 -12.2254C35.853 -16.8246 13.8283 7.11145 19.742 33.3383L21.0728 39.2404C24.4615 54.2689 36.4347 65.6491 51.2794 67.951L84.0137 73.027C97.7509 75.1571 111.478 69.1151 119.455 57.4274L122.442 53.0508Z" fill="#0CBBE2" fill-opacity="0.04"/>
<path d="M176.316 99.0917C175.451 101.003 174.508 102.687 173.512 104.272C173.025 105.078 172.517 105.823 172.017 106.582C171.503 107.315 170.976 108.054 170.443 108.753C169.396 110.178 168.284 111.496 167.171 112.801C162.716 117.962 157.858 122.396 153.091 126.784L151.407 128.349L150.665 129.041L149.963 129.801C149.482 130.3 149.046 130.873 148.591 131.419C148.161 132.005 147.732 132.59 147.316 133.203C146.906 133.822 146.496 134.442 146.119 135.107C145.736 135.76 145.358 136.419 145.001 137.105C144.298 138.477 143.589 139.881 142.971 141.333C140.39 147.153 138.451 153.412 135.427 159.67C133.86 162.78 131.987 165.963 129.262 168.726C127.935 170.144 126.348 171.343 124.69 172.435C123.844 172.941 122.979 173.46 122.082 173.866C121.633 174.079 121.178 174.306 120.729 174.499L119.35 175.018C117.49 175.704 115.604 176.137 113.718 176.476C112.756 176.65 111.715 176.703 110.694 176.803C109.673 176.869 108.678 176.803 107.657 176.803C106.642 176.776 105.68 176.623 104.678 176.51C104.177 176.457 103.703 176.357 103.228 176.257L101.784 175.957L101.062 175.797L100.366 175.591L98.9745 175.165C98.0315 174.912 97.16 174.546 96.269 174.186C92.7376 172.754 89.4988 170.863 86.5526 168.666C83.6325 166.449 80.9725 163.959 78.6052 161.249C76.2379 158.539 74.2023 155.562 72.4398 152.453C72.0105 151.667 71.5943 150.875 71.1846 150.089C70.7879 149.29 70.4301 148.458 70.0594 147.645C69.6822 146.84 69.3506 146.001 69.0384 145.168C68.7197 144.329 68.3945 143.504 68.1279 142.645C66.9832 139.269 66.1703 135.773 65.5785 132.291C65.0061 128.802 64.6615 125.306 64.6419 121.837C64.6094 118.375 64.811 114.952 65.3964 111.616C65.9817 108.28 66.9767 105.038 68.4726 102.035C69.9879 99.0051 72.2382 96.3151 74.9697 94.2509C77.6947 92.1735 80.7969 90.642 83.9707 89.3969C90.3572 86.9399 97.082 85.4085 103.709 84.3564C107.033 83.8304 110.336 83.4908 113.608 83.2778C114.082 83.2645 114.271 83.1845 114.544 83.1446L115.305 83.0114C115.825 82.8516 116.313 82.805 116.827 82.6119L117.581 82.3988C117.835 82.3056 118.089 82.1991 118.349 82.1258C118.856 81.9794 119.383 81.713 119.897 81.5399C122.01 80.6676 124.28 79.5623 126.738 78.1641L130.595 75.9468L132.657 74.7549L134.848 73.5431C136.318 72.7174 137.964 71.9251 139.655 71.1327C141.404 70.3803 143.251 69.6279 145.293 69.0353C147.368 68.456 149.553 67.9499 151.966 67.7968C154.346 67.6303 156.863 67.7236 159.315 68.2562L160.239 68.436L161.136 68.6824C161.728 68.8555 162.339 69.0153 162.925 69.2151C164.05 69.6612 165.227 70.0807 166.248 70.6533L167.815 71.4856L169.253 72.3978C170.241 73.0037 171.074 73.6829 171.939 74.3554C172.173 74.5285 172.342 74.6684 172.602 74.8814C172.94 75.1677 173.259 75.4674 173.584 75.7737C174.228 76.3463 174.846 77.0854 175.425 77.8311C175.568 78.0109 175.711 78.204 175.847 78.3971L176.244 79.0163C176.498 79.4292 176.745 79.8487 176.979 80.2748C177.408 81.1404 177.785 82.0526 178.078 82.9515C178.208 83.4043 178.332 83.8504 178.436 84.3032C178.494 84.5296 178.546 84.7626 178.585 84.9757L178.683 85.6282C178.741 86.0543 178.793 86.4872 178.832 86.92C178.878 87.3461 178.865 87.7256 178.878 88.1318C178.878 88.5247 178.878 88.9308 178.865 89.317L178.774 90.409C178.735 90.7685 178.709 91.1481 178.65 91.481L178.475 92.4665C177.954 95.0633 177.141 97.1674 176.29 99.085L176.316 99.0917Z" fill="#0CBBE2" fill-opacity="0.04"/>
<path d="M177.78 108.121C176.915 110.032 175.972 111.717 174.977 113.302C174.489 114.107 173.982 114.853 173.481 115.612C172.967 116.345 172.441 117.084 171.907 117.783C170.86 119.208 169.748 120.526 168.636 121.831C164.181 126.992 159.323 131.426 154.556 135.814L152.871 137.379L152.13 138.071L151.427 138.83C150.946 139.33 150.51 139.902 150.055 140.448C149.626 141.034 149.197 141.62 148.781 142.233C148.371 142.852 147.961 143.471 147.584 144.137C147.2 144.79 146.823 145.449 146.465 146.135C145.763 147.506 145.054 148.911 144.436 150.363C141.854 156.182 139.916 162.441 136.892 168.7C135.325 171.81 133.451 174.993 130.726 177.756C129.4 179.174 127.813 180.373 126.154 181.465C125.309 181.971 124.444 182.49 123.546 182.896C123.098 183.109 122.642 183.336 122.194 183.529L120.815 184.048C118.955 184.734 117.069 185.167 115.183 185.506C114.22 185.679 113.18 185.733 112.159 185.833C111.138 185.899 110.143 185.833 109.121 185.833C108.107 185.806 107.144 185.653 106.143 185.54C105.642 185.486 105.167 185.386 104.693 185.287L103.249 184.987L102.527 184.827L101.831 184.621L100.439 184.195C99.4961 183.942 98.6246 183.575 97.7336 183.216C94.2022 181.784 90.9634 179.893 88.0172 177.696C85.0971 175.479 82.4371 172.988 80.0698 170.278C77.7025 167.568 75.6669 164.592 73.9044 161.483C73.4751 160.697 73.0589 159.904 72.6492 159.119C72.2525 158.32 71.8948 157.487 71.5241 156.675C71.1468 155.869 70.8152 155.03 70.503 154.198C70.1843 153.359 69.8591 152.534 69.5925 151.675C68.4479 148.299 67.6349 144.803 67.0431 141.321C66.4707 137.832 66.1261 134.336 66.1066 130.867C66.074 127.404 66.2756 123.982 66.861 120.646C67.4463 117.31 68.4413 114.068 69.9372 111.065C71.4525 108.035 73.7028 105.345 76.4343 103.281C79.1593 101.203 82.2615 99.6719 85.4353 98.4267C91.8218 95.9698 98.5466 94.4383 105.174 93.3863C108.497 92.8603 111.801 92.5207 115.072 92.3076C115.547 92.2943 115.736 92.2144 116.009 92.1744L116.77 92.0413C117.29 91.8814 117.778 91.8348 118.292 91.6417L119.046 91.4287C119.3 91.3355 119.553 91.2289 119.813 91.1557C120.321 91.0092 120.847 90.7429 121.361 90.5697C123.475 89.6975 125.745 88.5922 128.203 87.1939L132.06 84.9766L134.121 83.7847L136.313 82.5729C137.783 81.7473 139.428 80.9549 141.119 80.1625C142.869 79.4101 144.716 78.6577 146.758 78.0651C148.833 77.4858 151.018 76.9798 153.431 76.8266C155.811 76.6602 158.328 76.7534 160.78 77.2861L161.703 77.4659L162.601 77.7122C163.193 77.8853 163.804 78.0451 164.389 78.2449C165.514 78.691 166.691 79.1105 167.713 79.6831L169.28 80.5154L170.717 81.4276C171.706 82.0336 172.538 82.7127 173.403 83.3852C173.637 83.5583 173.806 83.6982 174.067 83.9113C174.405 84.1976 174.723 84.4972 175.049 84.8035C175.692 85.3761 176.31 86.1152 176.889 86.861C177.032 87.0407 177.175 87.2338 177.312 87.4269L177.709 88.0462C177.962 88.459 178.209 88.8785 178.443 89.3046C178.873 90.1702 179.25 91.0824 179.543 91.9813C179.673 92.4341 179.796 92.8802 179.9 93.333C179.959 93.5594 180.011 93.7924 180.05 94.0055L180.147 94.658C180.206 95.0842 180.258 95.517 180.297 95.9498C180.343 96.3759 180.33 96.7555 180.343 97.1616C180.343 97.5545 180.343 97.9606 180.33 98.3468L180.239 99.4388C180.199 99.7984 180.173 100.178 180.115 100.511L179.939 101.496C179.419 104.093 178.606 106.197 177.754 108.115L177.78 108.121Z" fill="#0CBBE2" fill-opacity="0.04"/>
<path d="M120.106 59.2726C135.356 36.9292 123.108 5.8583 97.0247 0.718066L50.9426 -8.36333C24.5745 -13.5597 1.91087 11.2055 8.57763 37.93L10.9296 47.3582C14.5196 61.7489 26.0141 72.6216 40.2676 75.109L79.1321 81.8911C93.0688 84.3232 107.123 78.2942 115.24 66.4016L120.106 59.2726Z" stroke="white" stroke-width="1.49733" mask="url(#path-4-inside-1_1388_41886)"/>
<path d="M122.442 53.0508C137.854 30.4699 125.166 -0.912136 98.7197 -5.62395L61.6674 -12.2254C35.853 -16.8246 13.8283 7.11145 19.742 33.3383L21.0728 39.2404C24.4615 54.2689 36.4347 65.6491 51.2794 67.951L84.0137 73.027C97.7509 75.1571 111.478 69.1151 119.455 57.4274L122.442 53.0508Z" stroke="white" stroke-width="1.49733" mask="url(#path-4-inside-1_1388_41886)"/>
<path d="M176.316 99.0917C175.451 101.003 174.508 102.687 173.512 104.272C173.025 105.078 172.517 105.823 172.017 106.582C171.503 107.315 170.976 108.054 170.443 108.753C169.396 110.178 168.284 111.496 167.171 112.801C162.716 117.962 157.858 122.396 153.091 126.784L151.407 128.349L150.665 129.041L149.963 129.801C149.482 130.3 149.046 130.873 148.591 131.419C148.161 132.005 147.732 132.59 147.316 133.203C146.906 133.822 146.496 134.442 146.119 135.107C145.736 135.76 145.358 136.419 145.001 137.105C144.298 138.477 143.589 139.881 142.971 141.333C140.39 147.153 138.451 153.412 135.427 159.67C133.86 162.78 131.987 165.963 129.262 168.726C127.935 170.144 126.348 171.343 124.69 172.435C123.844 172.941 122.979 173.46 122.082 173.866C121.633 174.079 121.178 174.306 120.729 174.499L119.35 175.018C117.49 175.704 115.604 176.137 113.718 176.476C112.756 176.65 111.715 176.703 110.694 176.803C109.673 176.869 108.678 176.803 107.657 176.803C106.642 176.776 105.68 176.623 104.678 176.51C104.177 176.457 103.703 176.357 103.228 176.257L101.784 175.957L101.062 175.797L100.366 175.591L98.9745 175.165C98.0315 174.912 97.16 174.546 96.269 174.186C92.7376 172.754 89.4988 170.863 86.5526 168.666C83.6325 166.449 80.9725 163.959 78.6052 161.249C76.2379 158.539 74.2023 155.562 72.4398 152.453C72.0105 151.667 71.5943 150.875 71.1846 150.089C70.7879 149.29 70.4301 148.458 70.0594 147.645C69.6822 146.84 69.3506 146.001 69.0384 145.168C68.7197 144.329 68.3945 143.504 68.1279 142.645C66.9832 139.269 66.1703 135.773 65.5785 132.291C65.0061 128.802 64.6615 125.306 64.6419 121.837C64.6094 118.375 64.811 114.952 65.3964 111.616C65.9817 108.28 66.9767 105.038 68.4726 102.035C69.9879 99.0051 72.2382 96.3151 74.9697 94.2509C77.6947 92.1735 80.7969 90.642 83.9707 89.3969C90.3572 86.9399 97.082 85.4085 103.709 84.3564C107.033 83.8304 110.336 83.4908 113.608 83.2778C114.082 83.2645 114.271 83.1845 114.544 83.1446L115.305 83.0114C115.825 82.8516 116.313 82.805 116.827 82.6119L117.581 82.3988C117.835 82.3056 118.089 82.1991 118.349 82.1258C118.856 81.9794 119.383 81.713 119.897 81.5399C122.01 80.6676 124.28 79.5623 126.738 78.1641L130.595 75.9468L132.657 74.7549L134.848 73.5431C136.318 72.7174 137.964 71.9251 139.655 71.1327C141.404 70.3803 143.251 69.6279 145.293 69.0353C147.368 68.456 149.553 67.9499 151.966 67.7968C154.346 67.6303 156.863 67.7236 159.315 68.2562L160.239 68.436L161.136 68.6824C161.728 68.8555 162.339 69.0153 162.925 69.2151C164.05 69.6612 165.227 70.0807 166.248 70.6533L167.815 71.4856L169.253 72.3978C170.241 73.0037 171.074 73.6829 171.939 74.3554C172.173 74.5285 172.342 74.6684 172.602 74.8814C172.94 75.1677 173.259 75.4674 173.584 75.7737C174.228 76.3463 174.846 77.0854 175.425 77.8311C175.568 78.0109 175.711 78.204 175.847 78.3971L176.244 79.0163C176.498 79.4292 176.745 79.8487 176.979 80.2748C177.408 81.1404 177.785 82.0526 178.078 82.9515C178.208 83.4043 178.332 83.8504 178.436 84.3032C178.494 84.5296 178.546 84.7626 178.585 84.9757L178.683 85.6282C178.741 86.0543 178.793 86.4872 178.832 86.92C178.878 87.3461 178.865 87.7256 178.878 88.1318C178.878 88.5247 178.878 88.9308 178.865 89.317L178.774 90.409C178.735 90.7685 178.709 91.1481 178.65 91.481L178.475 92.4665C177.954 95.0633 177.141 97.1674 176.29 99.085L176.316 99.0917Z" stroke="white" stroke-width="1.49733" mask="url(#path-4-inside-1_1388_41886)"/>
<path d="M177.78 108.121C176.915 110.032 175.972 111.717 174.977 113.302C174.489 114.107 173.982 114.853 173.481 115.612C172.967 116.345 172.441 117.084 171.907 117.783C170.86 119.208 169.748 120.526 168.636 121.831C164.181 126.992 159.323 131.426 154.556 135.814L152.871 137.379L152.13 138.071L151.427 138.83C150.946 139.33 150.51 139.902 150.055 140.448C149.626 141.034 149.197 141.62 148.781 142.233C148.371 142.852 147.961 143.471 147.584 144.137C147.2 144.79 146.823 145.449 146.465 146.135C145.763 147.506 145.054 148.911 144.436 150.363C141.854 156.182 139.916 162.441 136.892 168.7C135.325 171.81 133.451 174.993 130.726 177.756C129.4 179.174 127.813 180.373 126.154 181.465C125.309 181.971 124.444 182.49 123.546 182.896C123.098 183.109 122.642 183.336 122.194 183.529L120.815 184.048C118.955 184.734 117.069 185.167 115.183 185.506C114.22 185.679 113.18 185.733 112.159 185.833C111.138 185.899 110.143 185.833 109.121 185.833C108.107 185.806 107.144 185.653 106.143 185.54C105.642 185.486 105.167 185.386 104.693 185.287L103.249 184.987L102.527 184.827L101.831 184.621L100.439 184.195C99.4961 183.942 98.6246 183.575 97.7336 183.216C94.2022 181.784 90.9634 179.893 88.0172 177.696C85.0971 175.479 82.4371 172.988 80.0698 170.278C77.7025 167.568 75.6669 164.592 73.9044 161.483C73.4751 160.697 73.0589 159.904 72.6492 159.119C72.2525 158.32 71.8948 157.487 71.5241 156.675C71.1468 155.869 70.8152 155.03 70.503 154.198C70.1843 153.359 69.8591 152.534 69.5925 151.675C68.4479 148.299 67.6349 144.803 67.0431 141.321C66.4707 137.832 66.1261 134.336 66.1066 130.867C66.074 127.404 66.2756 123.982 66.861 120.646C67.4463 117.31 68.4413 114.068 69.9372 111.065C71.4525 108.035 73.7028 105.345 76.4343 103.281C79.1593 101.203 82.2615 99.6719 85.4353 98.4267C91.8218 95.9698 98.5466 94.4383 105.174 93.3863C108.497 92.8603 111.801 92.5207 115.072 92.3076C115.547 92.2943 115.736 92.2144 116.009 92.1744L116.77 92.0413C117.29 91.8814 117.778 91.8348 118.292 91.6417L119.046 91.4287C119.3 91.3355 119.553 91.2289 119.813 91.1557C120.321 91.0092 120.847 90.7429 121.361 90.5697C123.475 89.6975 125.745 88.5922 128.203 87.1939L132.06 84.9766L134.121 83.7847L136.313 82.5729C137.783 81.7473 139.428 80.9549 141.119 80.1625C142.869 79.4101 144.716 78.6577 146.758 78.0651C148.833 77.4858 151.018 76.9798 153.431 76.8266C155.811 76.6602 158.328 76.7534 160.78 77.2861L161.703 77.4659L162.601 77.7122C163.193 77.8853 163.804 78.0451 164.389 78.2449C165.514 78.691 166.691 79.1105 167.713 79.6831L169.28 80.5154L170.717 81.4276C171.706 82.0336 172.538 82.7127 173.403 83.3852C173.637 83.5583 173.806 83.6982 174.067 83.9113C174.405 84.1976 174.723 84.4972 175.049 84.8035C175.692 85.3761 176.31 86.1152 176.889 86.861C177.032 87.0407 177.175 87.2338 177.312 87.4269L177.709 88.0462C177.962 88.459 178.209 88.8785 178.443 89.3046C178.873 90.1702 179.25 91.0824 179.543 91.9813C179.673 92.4341 179.796 92.8802 179.9 93.333C179.959 93.5594 180.011 93.7924 180.05 94.0055L180.147 94.658C180.206 95.0842 180.258 95.517 180.297 95.9498C180.343 96.3759 180.33 96.7555 180.343 97.1616C180.343 97.5545 180.343 97.9606 180.33 98.3468L180.239 99.4388C180.199 99.7984 180.173 100.178 180.115 100.511L179.939 101.496C179.419 104.093 178.606 106.197 177.754 108.115L177.78 108.121Z" stroke="white" stroke-width="1.49733" mask="url(#path-4-inside-1_1388_41886)"/>
</g>
</g>
<mask id="path-5-inside-2_1388_41886" fill="white">
<path d="M18.7978 151.768C18.8529 151.832 18.9514 151.848 19.0238 151.803C25.2003 148.032 28.8534 141.454 28.5579 134.638C28.555 134.553 28.4768 134.486 28.3812 134.489C28.2885 134.492 28.2161 134.564 28.219 134.652C28.5087 141.361 24.9134 147.835 18.8355 151.544C18.7573 151.592 18.737 151.688 18.7891 151.76C18.7891 151.763 18.7949 151.766 18.7978 151.771V151.768Z"/>
</mask>
<path d="M18.7978 151.768C18.8529 151.832 18.9514 151.848 19.0238 151.803C25.2003 148.032 28.8534 141.454 28.5579 134.638C28.555 134.553 28.4768 134.486 28.3812 134.489C28.2885 134.492 28.2161 134.564 28.219 134.652C28.5087 141.361 24.9134 147.835 18.8355 151.544C18.7573 151.592 18.737 151.688 18.7891 151.76C18.7891 151.763 18.7949 151.766 18.7978 151.771V151.768Z" fill="#0CBBE2"/>
<path d="M18.7978 151.768L19.2575 151.373L18.1917 150.133V151.768H18.7978ZM19.0238 151.803L18.7079 151.286L18.702 151.289L19.0238 151.803ZM28.5579 134.638L27.9521 134.659L27.9523 134.665L28.5579 134.638ZM28.3812 134.489L28.3643 133.883L28.3637 133.883L28.3812 134.489ZM28.219 134.652L27.6131 134.672L27.6134 134.678L28.219 134.652ZM18.8355 151.544L18.5197 151.027L18.5183 151.028L18.8355 151.544ZM18.7891 151.76H19.3953V151.564L19.2802 151.405L18.7891 151.76ZM18.7978 151.771L18.2651 152.06L19.404 151.771H18.7978ZM18.3381 152.163C18.5855 152.451 19.0152 152.524 19.3456 152.317L18.702 151.289C18.8875 151.173 19.1203 151.214 19.2575 151.373L18.3381 152.163ZM19.3396 152.32C25.6903 148.443 29.4692 141.664 29.1635 134.612L27.9523 134.665C28.2376 141.244 24.7102 147.621 18.7079 151.286L19.3396 152.32ZM29.1637 134.618C29.1476 134.142 28.7333 133.873 28.3643 133.883L28.3981 135.095C28.2203 135.1 27.9624 134.963 27.9521 134.659L29.1637 134.618ZM28.3637 133.883C27.9708 133.894 27.5981 134.214 27.6131 134.672L28.8248 134.632C28.834 134.913 28.6062 135.089 28.3986 135.095L28.3637 133.883ZM27.6134 134.678C27.8929 141.151 24.4233 147.424 18.5197 151.027L19.1512 152.062C25.4036 148.246 29.1244 141.571 28.8245 134.625L27.6134 134.678ZM18.5183 151.028C18.1531 151.252 18.0298 151.745 18.2981 152.116L19.2802 151.405C19.4442 151.632 19.3614 151.933 19.1527 152.061L18.5183 151.028ZM18.183 151.76C18.183 151.873 18.214 151.964 18.2439 152.026C18.2726 152.085 18.305 152.127 18.3238 152.15C18.3433 152.173 18.3605 152.19 18.3681 152.198C18.3725 152.202 18.3761 152.205 18.3782 152.207C18.3793 152.208 18.3802 152.209 18.3807 152.21C18.3812 152.21 18.3817 152.211 18.3818 152.211C18.3849 152.213 18.3669 152.197 18.3474 152.176C18.3263 152.153 18.2944 152.114 18.2651 152.06L19.3305 151.482C19.2998 151.425 19.2661 151.384 19.2431 151.359C19.2314 151.346 19.2213 151.336 19.2145 151.33C19.2111 151.326 19.2083 151.324 19.2064 151.322C19.2046 151.32 19.203 151.319 19.203 151.319C19.2011 151.317 19.2073 151.323 19.2141 151.329C19.221 151.336 19.2374 151.352 19.2564 151.375C19.2746 151.397 19.3065 151.438 19.3349 151.497C19.3644 151.558 19.3953 151.648 19.3953 151.76H18.183ZM19.404 151.771V151.768H18.1917V151.771H19.404Z" fill="#0CBBE2" mask="url(#path-5-inside-2_1388_41886)"/>
<path d="M21.4727 145.882L21.4726 145.882L21.4817 145.888C22.167 146.329 22.254 147.124 22.1034 147.917C22.0299 148.305 21.9037 148.662 21.7908 148.922C21.7343 149.051 21.6829 149.152 21.6457 149.217C21.6358 149.234 21.6279 149.247 21.6218 149.257L21.6146 149.263C21.5566 149.318 21.4982 149.372 21.4394 149.426C21.4282 149.314 21.4101 149.196 21.385 149.074C21.2808 148.564 21.0526 147.95 20.6739 147.296C20.5226 147.009 20.4294 146.705 20.3956 146.43C20.361 146.148 20.3912 145.921 20.4585 145.775C20.5193 145.643 20.6016 145.585 20.7165 145.577C20.8581 145.566 21.1039 145.625 21.4727 145.882Z" fill="#0CBBE2" stroke="#0CBBE2" stroke-width="0.606138"/>
<path d="M22.2809 149.956C22.1654 149.932 22.0546 149.911 21.9491 149.895C21.9754 149.874 22.0016 149.853 22.0279 149.831C22.0288 149.831 22.0298 149.831 22.0306 149.83C22.0651 149.818 22.1073 149.801 22.1494 149.782C22.1872 149.766 22.2317 149.746 22.2807 149.725C22.2888 149.721 22.297 149.718 22.3053 149.714C22.3647 149.688 22.4313 149.658 22.5048 149.627C22.7987 149.5 23.1985 149.337 23.6425 149.204C24.0881 149.07 24.5677 148.969 25.0223 148.959C25.4754 148.949 25.8828 149.03 26.2085 149.237C26.5619 149.484 26.6246 149.689 26.6162 149.817C26.6066 149.962 26.4986 150.145 26.247 150.32C25.7416 150.672 24.8851 150.829 24.2519 150.563L24.2519 150.563L24.2433 150.56C23.4937 150.271 22.8251 150.069 22.2809 149.956Z" fill="#0CBBE2" stroke="#0CBBE2" stroke-width="0.606138"/>
<path d="M23.1753 143.529L23.1877 143.503L23.1814 143.533C23.9448 143.866 24.1772 144.638 24.1786 145.434C24.1793 145.824 24.1229 146.193 24.0614 146.463C24.0306 146.598 23.9996 146.704 23.9756 146.773C23.9693 146.791 23.9641 146.805 23.9601 146.815L23.959 146.817C23.9131 146.877 23.8669 146.938 23.8205 146.998C23.7875 146.887 23.7462 146.771 23.6968 146.652C23.4977 146.17 23.1586 145.606 22.6654 145.023C22.4616 144.763 22.3124 144.478 22.2272 144.213C22.14 143.942 22.1278 143.716 22.1657 143.565C22.1992 143.432 22.2647 143.369 22.3719 143.344C22.5086 143.312 22.7627 143.333 23.1753 143.529Z" fill="#0CBBE2" stroke="#0CBBE2" stroke-width="0.606138"/>
<path d="M24.7525 147.39C24.629 147.384 24.5114 147.38 24.4004 147.38C24.4207 147.357 24.441 147.334 24.4613 147.311C24.4934 147.294 24.5316 147.27 24.5691 147.246C24.6037 147.224 24.6446 147.198 24.6896 147.169C24.696 147.165 24.7025 147.16 24.709 147.156C24.7622 147.122 24.822 147.083 24.888 147.041C25.1521 146.873 25.5132 146.655 25.9234 146.458C26.7657 146.054 27.7156 145.791 28.4529 146.107C28.8501 146.297 28.9533 146.493 28.9691 146.622C28.9864 146.763 28.9167 146.954 28.7052 147.16C28.2791 147.575 27.4703 147.858 26.7974 147.69L26.7975 147.69L26.7876 147.688C25.9991 147.519 25.3063 147.421 24.7525 147.39Z" fill="#0CBBE2" stroke="#0CBBE2" stroke-width="0.606138"/>
<path d="M24.4137 140.96L24.4137 140.96L24.4229 140.963C25.2439 141.177 25.6154 141.908 25.7622 142.688C25.8342 143.071 25.8461 143.442 25.835 143.716C25.8294 143.853 25.8183 143.961 25.8073 144.032C25.8047 144.048 25.8024 144.061 25.8005 144.071L25.7982 144.076C25.766 144.14 25.7333 144.205 25.7 144.269C25.6458 144.162 25.5817 144.051 25.5083 143.937C25.2237 143.496 24.7863 142.995 24.1937 142.498C23.9436 142.273 23.7433 142.015 23.6102 141.767C23.4739 141.512 23.4208 141.292 23.4307 141.139C23.4393 141.006 23.4899 140.939 23.5865 140.9C23.7144 140.848 23.9693 140.829 24.4137 140.96Z" fill="#0CBBE2" stroke="#0CBBE2" stroke-width="0.606138"/>
<path d="M26.0037 144.513C25.9775 144.555 25.951 144.597 25.9244 144.639C25.9415 144.635 25.9588 144.63 25.9762 144.626C26.0846 144.598 26.2044 144.574 26.3345 144.554M26.0037 144.513L28.7375 144.795C27.588 144.728 26.6737 144.776 26.1154 144.904C26.1896 144.788 26.2627 144.671 26.3345 144.554M26.0037 144.513C26.0863 144.564 26.1725 144.56 26.2098 144.554C26.2599 144.547 26.2967 144.529 26.31 144.522C26.3411 144.506 26.3665 144.487 26.3787 144.478C26.3799 144.477 26.3811 144.476 26.3823 144.475M26.0037 144.513L26.3823 144.475M26.3345 144.554C26.3505 144.528 26.3664 144.501 26.3823 144.475M26.3345 144.554C26.4477 144.536 26.5688 144.521 26.6968 144.508C27.2474 144.454 27.9476 144.445 28.7552 144.493L28.7649 144.493L28.7648 144.493C29.4583 144.556 30.1993 144.155 30.5396 143.686C30.7079 143.453 30.7418 143.258 30.6989 143.121C30.6584 142.993 30.5164 142.813 30.0883 142.686M26.3823 144.475L30.0938 142.687C30.092 142.687 30.0901 142.686 30.0883 142.686M26.3823 144.475C26.4104 144.453 26.4429 144.425 26.4742 144.397C26.5042 144.37 26.5395 144.338 26.5782 144.303C26.5838 144.298 26.5896 144.292 26.5953 144.287C26.6414 144.245 26.693 144.198 26.7502 144.147C26.9791 143.942 27.2942 143.673 27.6616 143.417C28.4149 142.893 29.3017 142.488 30.0883 142.686M26.3823 144.475L30.0883 142.686" fill="#0CBBE2" stroke="#0CBBE2" stroke-width="0.606138"/>
<path d="M25.1728 138.235L25.3423 138.257C26.099 138.405 26.5546 139.037 26.8223 139.738C26.9627 140.105 27.0415 140.47 27.0803 140.742C27.0998 140.879 27.1086 140.988 27.1108 141.06C27.1113 141.077 27.1114 141.091 27.1113 141.101C27.0916 141.167 27.0716 141.233 27.0514 141.298C26.9784 141.201 26.8949 141.101 26.8015 141C26.4414 140.61 25.9196 140.184 25.2456 139.787C24.9576 139.603 24.7124 139.378 24.5353 139.153C24.3537 138.921 24.2606 138.71 24.2424 138.557C24.2266 138.423 24.2645 138.353 24.3476 138.303C24.4621 138.233 24.7092 138.174 25.1728 138.235Z" fill="#0CBBE2" stroke="#0CBBE2" stroke-width="0.606138"/>
<path d="M28.0788 141.38C27.9493 141.414 27.8278 141.449 27.7151 141.485C27.7272 141.454 27.7392 141.423 27.751 141.391C27.7745 141.366 27.8006 141.334 27.8254 141.303C27.8505 141.271 27.88 141.233 27.9124 141.192C27.9165 141.186 27.9207 141.181 27.925 141.175C27.9627 141.127 28.0051 141.073 28.0522 141.014C28.2407 140.776 28.5025 140.462 28.8182 140.153C29.4542 139.531 30.2381 139.001 31.0358 139.052L31.0737 139.057C31.5233 139.116 31.7014 139.273 31.7672 139.399C31.8356 139.529 31.8361 139.728 31.7134 139.981C31.4644 140.493 30.8095 141.003 30.1147 141.048L30.1147 141.047L30.1047 141.048C29.3003 141.127 28.6118 141.242 28.0788 141.38Z" fill="#0CBBE2" stroke="#0CBBE2" stroke-width="0.606138"/>
<path d="M25.4231 135.403L25.5915 135.398C26.3685 135.427 26.9378 135.988 27.3316 136.646C27.5376 136.991 27.682 137.341 27.77 137.606C27.8141 137.739 27.8427 137.846 27.8578 137.917C27.8615 137.934 27.864 137.948 27.8658 137.958C27.8587 138.023 27.8513 138.088 27.8435 138.153C27.7544 138.068 27.6545 137.983 27.5447 137.897C27.1203 137.568 26.5301 137.227 25.7938 136.939C25.4761 136.801 25.1927 136.616 24.9759 136.418C24.7539 136.216 24.622 136.018 24.5752 135.866C24.5338 135.73 24.5611 135.657 24.6292 135.597C24.7261 135.513 24.9557 135.416 25.4231 135.403Z" fill="#0CBBE2" stroke="#0CBBE2" stroke-width="0.606138"/>
<path d="M28.8773 138.079C28.752 138.134 28.6353 138.189 28.5281 138.245C28.5352 138.208 28.5422 138.171 28.5491 138.134C28.5678 138.104 28.5877 138.068 28.6063 138.034C28.6255 137.998 28.648 137.955 28.6725 137.909C28.6754 137.903 28.6784 137.898 28.6814 137.892C28.7098 137.838 28.7417 137.777 28.7773 137.711C28.9199 137.446 29.1204 137.093 29.3751 136.737C29.897 136.007 30.5855 135.351 31.3965 135.293C31.8445 135.283 32.0515 135.411 32.1431 135.531C32.2383 135.655 32.2734 135.857 32.1992 136.126C32.0481 136.673 31.4985 137.279 30.8266 137.43L30.8265 137.43L30.8161 137.433C30.0367 137.637 29.3783 137.859 28.8773 138.079Z" fill="#0CBBE2" stroke="#0CBBE2" stroke-width="0.606138"/>
<path d="M28.5998 134.572C28.538 134.808 28.4739 135.028 28.4137 135.222C28.3527 135.059 28.285 134.882 28.2138 134.698C27.9441 134.001 27.6198 133.2 27.4273 132.787C27.2822 132.395 27.1847 131.971 27.1844 131.611C27.1841 131.239 27.2846 131.011 27.4482 130.899L27.4482 130.899L27.4515 130.897C27.6302 130.772 27.9622 130.732 28.2748 130.892C28.568 131.041 28.8609 131.38 28.9169 132.036L28.9168 132.036L28.9179 132.046C29.0005 132.741 28.8206 133.731 28.5998 134.572Z" fill="#0CBBE2" stroke="#0CBBE2" stroke-width="0.606138"/>
<mask id="path-18-inside-3_1388_41886" fill="white">
<path d="M28.3119 136.189C28.3119 136.189 28.3177 136.197 28.3206 136.199C28.3553 136.231 28.4075 136.239 28.4509 136.218C28.4538 136.218 28.4567 136.215 28.4596 136.213C28.4857 136.197 28.506 136.186 28.5089 136.146C28.7754 135.692 29.4823 133.296 29.3258 131.996C29.2621 131.262 28.9116 130.707 28.3611 130.481C27.9642 130.318 27.5123 130.35 27.2052 130.563C26.4288 131.089 26.8778 132.511 27.0343 132.933C27.3993 133.71 28.2395 135.901 28.2829 136.117C28.2829 136.143 28.2887 136.167 28.3061 136.189H28.3119ZM28.7348 131.012C28.9116 131.22 29.0651 131.537 29.1057 132.015C29.2476 133.211 28.6769 135.092 28.422 135.794C28.3495 135.586 28.2279 135.265 28.0367 134.766C27.7875 134.123 27.4515 133.285 27.2487 132.858C26.9561 132.063 26.8228 131.081 27.3443 130.729C27.5847 130.561 27.9497 130.537 28.2713 130.67C28.4017 130.723 28.5784 130.825 28.7348 131.012Z"/>
</mask>
<path d="M28.3119 136.189C28.3119 136.189 28.3177 136.197 28.3206 136.199C28.3553 136.231 28.4075 136.239 28.4509 136.218C28.4538 136.218 28.4567 136.215 28.4596 136.213C28.4857 136.197 28.506 136.186 28.5089 136.146C28.7754 135.692 29.4823 133.296 29.3258 131.996C29.2621 131.262 28.9116 130.707 28.3611 130.481C27.9642 130.318 27.5123 130.35 27.2052 130.563C26.4288 131.089 26.8778 132.511 27.0343 132.933C27.3993 133.71 28.2395 135.901 28.2829 136.117C28.2829 136.143 28.2887 136.167 28.3061 136.189H28.3119ZM28.7348 131.012C28.9116 131.22 29.0651 131.537 29.1057 132.015C29.2476 133.211 28.6769 135.092 28.422 135.794C28.3495 135.586 28.2279 135.265 28.0367 134.766C27.7875 134.123 27.4515 133.285 27.2487 132.858C26.9561 132.063 26.8228 131.081 27.3443 130.729C27.5847 130.561 27.9497 130.537 28.2713 130.67C28.4017 130.723 28.5784 130.825 28.7348 131.012Z" fill="#0CBBE2"/>
<path d="M28.3119 136.189L28.8028 135.833L28.6213 135.583H28.3119V136.189ZM28.3206 136.199L27.9099 136.645L28.3206 136.199ZM28.4509 136.218V135.612H28.3101L28.1837 135.674L28.4509 136.218ZM28.4596 136.213L28.1424 135.696L28.0923 135.727L28.049 135.767L28.4596 136.213ZM28.5089 136.146L27.9863 135.839L27.9145 135.961L27.9043 136.102L28.5089 136.146ZM29.3258 131.996L28.722 132.049L28.7228 132.059L28.724 132.069L29.3258 131.996ZM28.3611 130.481L28.5921 129.92L28.5911 129.92L28.3611 130.481ZM27.2052 130.563L27.5451 131.065L27.5512 131.061L27.2052 130.563ZM27.0343 132.933L26.466 133.144L26.4749 133.168L26.4857 133.191L27.0343 132.933ZM28.2829 136.117H28.889V136.056L28.8772 135.997L28.2829 136.117ZM28.3061 136.189L27.836 136.571L28.018 136.795H28.3061V136.189ZM29.1057 132.015L28.5017 132.066L28.5026 132.076L28.5038 132.086L29.1057 132.015ZM28.422 135.794L27.8495 135.993L28.4097 137.603L28.9917 136.001L28.422 135.794ZM28.0367 134.766L28.6027 134.55L28.6019 134.547L28.0367 134.766ZM27.2487 132.858L26.6798 133.068L26.6893 133.093L26.7011 133.118L27.2487 132.858ZM27.3443 130.729L27.6836 131.231L27.6916 131.225L27.3443 130.729ZM28.2713 130.67L28.039 131.23L28.0417 131.231L28.2713 130.67ZM28.3119 136.189C27.821 136.544 27.821 136.544 27.821 136.544C27.821 136.544 27.821 136.544 27.821 136.544C27.821 136.544 27.821 136.544 27.8211 136.544C27.8211 136.545 27.8211 136.545 27.8212 136.545C27.8213 136.545 27.8213 136.545 27.8214 136.545C27.8216 136.545 27.8218 136.545 27.8219 136.546C27.8223 136.546 27.8227 136.547 27.8232 136.547C27.8241 136.549 27.8251 136.55 27.8263 136.552C27.8287 136.555 27.8321 136.559 27.8362 136.565C27.84 136.57 27.8466 136.578 27.8549 136.588C27.8595 136.593 27.8803 136.618 27.9099 136.645L28.7312 135.754C28.7594 135.78 28.7783 135.802 28.781 135.806C28.7875 135.813 28.7921 135.819 28.794 135.822C28.7964 135.825 28.7982 135.827 28.7993 135.828C28.7999 135.829 28.8005 135.83 28.8011 135.831C28.8014 135.831 28.8017 135.832 28.8019 135.832C28.8021 135.832 28.8022 135.832 28.8024 135.833C28.8024 135.833 28.8025 135.833 28.8026 135.833C28.8026 135.833 28.8027 135.833 28.8027 135.833C28.8027 135.833 28.8027 135.833 28.8027 135.833C28.8028 135.833 28.8028 135.833 28.8028 135.833C28.8028 135.833 28.8028 135.833 28.3119 136.189ZM27.9099 136.645C28.1277 136.846 28.449 136.894 28.7182 136.762L28.1837 135.674C28.366 135.585 28.5829 135.617 28.7312 135.754L27.9099 136.645ZM28.4509 136.824C28.6348 136.824 28.7604 136.742 28.7997 136.715C28.825 136.698 28.8438 136.682 28.8535 136.674C28.8588 136.669 28.863 136.665 28.8657 136.663C28.8681 136.661 28.8702 136.659 28.8703 136.659L28.049 135.767C28.0397 135.775 28.0706 135.745 28.1109 135.718C28.1473 135.693 28.27 135.612 28.4509 135.612V136.824ZM28.7768 136.729C28.7779 136.729 28.7782 136.728 28.7808 136.727C28.7827 136.726 28.7859 136.724 28.7895 136.722C28.7964 136.717 28.8084 136.71 28.8225 136.7C28.8502 136.681 28.8966 136.646 28.9438 136.594C29.0568 136.468 29.1039 136.321 29.1134 136.19L27.9043 136.102C27.9071 136.064 27.9158 136.01 27.9398 135.949C27.9649 135.885 28.0007 135.829 28.042 135.783C28.0806 135.74 28.1168 135.714 28.1334 135.703C28.1452 135.694 28.1595 135.686 28.1424 135.696L28.7768 136.729ZM29.0315 136.453C29.1345 136.278 29.2455 135.987 29.3469 135.678C29.454 135.351 29.5672 134.952 29.6663 134.526C29.8593 133.697 30.0193 132.685 29.9276 131.924L28.724 132.069C28.7888 132.607 28.6736 133.443 28.4856 134.251C28.3942 134.644 28.2905 135.009 28.195 135.3C28.0938 135.609 28.0165 135.788 27.9863 135.839L29.0315 136.453ZM29.9297 131.944C29.8522 131.051 29.4076 130.256 28.5921 129.92L28.1302 131.041C28.4155 131.159 28.672 131.474 28.722 132.049L29.9297 131.944ZM28.5911 129.92C28.0373 129.693 27.3628 129.715 26.8592 130.066L27.5512 131.061C27.6618 130.984 27.8911 130.943 28.1311 131.041L28.5911 129.92ZM26.8654 130.061C26.1927 130.517 26.127 131.307 26.1654 131.831C26.2064 132.39 26.3805 132.913 26.466 133.144L27.6026 132.722C27.5316 132.531 27.403 132.133 27.3744 131.743C27.3434 131.319 27.4413 131.135 27.5451 131.065L26.8654 130.061ZM26.4857 133.191C26.6583 133.558 26.9529 134.282 27.2142 134.955C27.3437 135.288 27.4627 135.602 27.5515 135.845C27.596 135.967 27.632 136.069 27.6577 136.144C27.6889 136.236 27.6924 136.255 27.6887 136.236L28.8772 135.997C28.8625 135.924 28.8303 135.827 28.8058 135.755C28.7758 135.667 28.7362 135.555 28.6901 135.429C28.5978 135.176 28.4757 134.854 28.3442 134.515C28.0833 133.844 27.7753 133.085 27.5828 132.675L26.4857 133.191ZM27.6768 136.117C27.6768 136.238 27.706 136.412 27.836 136.571L28.7761 135.806C28.8191 135.859 28.8499 135.919 28.8683 135.98C28.8859 136.038 28.889 136.087 28.889 136.117H27.6768ZM28.3061 136.795H28.3119V135.583H28.3061V136.795ZM28.2728 131.404C28.3591 131.506 28.4706 131.7 28.5017 132.066L29.7096 131.964C29.6596 131.375 29.464 130.934 29.1969 130.619L28.2728 131.404ZM28.5038 132.086C28.5622 132.579 28.4743 133.266 28.3209 133.958C28.1706 134.636 27.9722 135.257 27.8522 135.587L28.9917 136.001C29.1267 135.629 29.3411 134.958 29.5044 134.221C29.6646 133.498 29.791 132.647 29.7076 131.944L28.5038 132.086ZM28.9944 135.595C28.9182 135.376 28.7926 135.045 28.6027 134.55L27.4706 134.983C27.6632 135.486 27.7809 135.796 27.8495 135.993L28.9944 135.595ZM28.6019 134.547C28.3539 133.907 28.0101 133.049 27.7962 132.598L26.7011 133.118C26.8928 133.522 27.2212 134.339 27.4715 134.985L28.6019 134.547ZM27.8175 132.649C27.6853 132.29 27.6009 131.917 27.5973 131.62C27.5934 131.299 27.6797 131.234 27.6836 131.231L27.005 130.226C26.4873 130.576 26.3796 131.178 26.3851 131.635C26.3909 132.116 26.5195 132.632 26.6798 133.068L27.8175 132.649ZM27.6916 131.225C27.7301 131.199 27.8693 131.159 28.039 131.23L28.5036 130.11C28.0302 129.914 27.4394 129.923 26.9969 130.232L27.6916 131.225ZM28.0417 131.231C28.1018 131.256 28.19 131.305 28.2701 131.401L29.1995 130.622C28.9668 130.344 28.7015 130.191 28.501 130.109L28.0417 131.231Z" fill="#0CBBE2" mask="url(#path-18-inside-3_1388_41886)"/>
<path d="M16.7409 151.774C18.7181 150.7 19.2865 147.438 18.4606 145.476C17.6348 143.515 16.192 141.722 15.9685 139.631C15.7985 138.024 16.3717 136.373 15.9685 134.802C15.4147 132.68 13.146 131.038 13.1752 128.855C13.1898 127.63 13.9525 126.48 13.8893 125.259C13.8164 123.759 12.5534 122.57 11.7761 121.252C10.581 119.228 10.5033 116.84 10.0952 114.572C9.68717 112.304 8.73987 109.876 6.54408 108.762C6.2186 110.688 5.66479 112.006 5.83967 114.612C5.90283 115.548 7.09303 117.341 7.25334 119.392C7.3505 120.617 7.41851 121.846 7.50109 123.076C7.57882 124.27 7.66626 125.486 8.13263 126.604C8.49212 127.461 9.07022 128.238 9.3374 129.121C9.83777 130.785 9.18195 132.587 9.58516 134.269C9.93007 135.699 11.0085 136.924 11.232 138.375C11.5429 140.408 10.1001 142.52 10.8385 144.464C11.2029 145.428 12.0724 146.2 12.3153 147.194C12.5048 147.966 12.2959 148.783 12.4708 149.555C12.7477 150.802 15.3564 151.774 16.7458 151.695" fill="#1E62A1"/>
<path d="M7.08311 110.67C7.08311 110.67 7.08311 110.706 7.09282 110.777C7.10254 110.857 7.11711 110.963 7.13654 111.092C7.18027 111.372 7.2337 111.78 7.33572 112.304C7.44745 112.836 7.74379 113.431 7.98669 114.15C8.2393 114.869 8.49191 115.695 8.71052 116.622C8.93399 117.55 9.12345 118.575 9.32262 119.68C9.52666 120.777 9.73555 121.988 10.3379 123.138C10.6148 123.715 10.9258 124.292 11.1589 124.909C11.397 125.521 11.5087 126.183 11.5767 126.862C11.6787 128.224 11.8779 129.645 12.1548 131.069C12.7621 133.919 13.3353 136.635 13.8648 139.107C14.4186 141.571 14.919 143.79 15.3368 145.654C15.7594 147.509 16.1043 149.014 16.3472 150.066C16.4687 150.576 16.5658 150.98 16.629 151.264C16.663 151.393 16.6873 151.495 16.7067 151.575C16.7261 151.646 16.7359 151.681 16.7407 151.681C16.7407 151.681 16.7407 151.646 16.7261 151.575C16.7116 151.495 16.6921 151.393 16.6679 151.26C16.6096 150.971 16.527 150.567 16.4201 150.057C16.1918 149 15.8711 147.491 15.4728 145.632C15.0647 143.763 14.5789 141.54 14.0397 139.076C13.5199 136.604 12.9467 133.888 12.3491 131.038C12.0722 129.609 11.8731 128.211 11.7662 126.844C11.6982 126.16 11.5816 125.481 11.3338 124.851C11.0909 124.221 10.7752 123.639 10.4983 123.067C9.90072 121.935 9.69183 120.75 9.47808 119.649C9.27404 118.549 9.07487 117.519 8.84169 116.587C8.60851 115.659 8.35103 114.829 8.08385 114.11C7.83123 113.387 7.52518 112.796 7.40373 112.277C7.292 111.758 7.22884 111.345 7.17055 111.074L7.1074 110.759C7.09282 110.688 7.08311 110.653 7.07825 110.653L7.08311 110.67Z" fill="#1E62A1"/>
<path d="M166.518 144.659C166.245 143.696 166.934 142.733 167.71 142.033C168.482 141.333 169.407 140.708 169.813 139.788C170.466 138.294 169.587 136.359 170.703 135.109C171.356 134.376 172.533 134.132 173.114 133.348C173.417 132.934 173.515 132.432 173.638 131.948C174.25 129.477 175.602 127.166 177.51 125.329C177.643 127.528 177.114 129.759 175.993 131.708C175.541 132.493 174.99 133.258 174.841 134.132C174.6 135.551 175.469 137.016 175.083 138.411C174.646 140.008 172.687 141.075 172.589 142.719C172.512 144.109 173.834 145.326 173.736 146.711C173.695 147.303 173.391 147.853 173.062 148.36C171.885 150.145 170.163 151.376 167.546 151.333L164.343 151.437L166.528 144.659H166.518Z" fill="#0CBBE2"/>
<g opacity="0.3">
<path d="M166.518 144.659C166.245 143.696 166.934 142.733 167.71 142.033C168.482 141.333 169.407 140.708 169.813 139.788C170.466 138.294 169.587 136.359 170.703 135.109C171.356 134.376 172.533 134.132 173.114 133.348C173.417 132.934 173.515 132.432 173.638 131.948C174.25 129.477 175.602 127.166 177.51 125.329C177.643 127.528 177.114 129.759 175.993 131.708C175.541 132.493 174.99 133.258 174.841 134.132C174.6 135.551 175.469 137.016 175.083 138.411C174.646 140.008 172.687 141.075 172.589 142.719C172.512 144.109 173.834 145.326 173.736 146.711C173.695 147.303 173.391 147.853 173.062 148.36C171.885 150.145 170.163 151.376 167.546 151.333L164.343 151.437L166.528 144.659H166.518Z" fill="#008BB0"/>
</g>
<path d="M163.685 151.512C163.685 151.512 163.381 151.578 162.8 151.493C162.513 151.456 162.158 151.385 161.757 151.254C161.361 151.122 160.903 150.929 160.471 150.61C160.261 150.446 160.055 150.239 159.942 149.967C159.834 149.694 159.813 149.398 159.793 149.093C159.777 148.788 159.777 148.468 159.716 148.144C159.659 147.82 159.525 147.505 159.325 147.205C158.944 146.599 158.317 146.026 158.117 145.199C157.896 144.391 158.055 143.512 158.204 142.634C158.353 141.756 158.497 140.797 158.127 139.881C157.783 138.966 157.078 138.139 156.729 137.105C156.379 136.063 156.543 134.94 156.466 133.836C156.43 133.282 156.317 132.723 156.05 132.211C155.793 131.694 155.433 131.206 155.15 130.656C154.58 129.552 154.482 128.303 154.328 127.077C154.25 126.461 154.173 125.837 154.096 125.207C154.019 124.573 153.957 123.944 153.741 123.333C153.546 122.718 153.258 122.126 152.975 121.52C152.837 121.214 152.693 120.909 152.605 120.576C152.544 120.233 152.523 119.909 152.502 119.57C152.466 118.899 152.497 118.218 152.59 117.546C152.677 116.87 152.811 116.202 152.888 115.521L152.903 115.404L152.919 115.268L153.053 115.329C153.736 115.644 154.328 116.109 154.78 116.658C155.238 117.203 155.572 117.818 155.839 118.443C156.374 119.702 156.569 121.017 156.837 122.276C157.099 123.535 157.448 124.77 158.153 125.818C158.502 126.339 158.929 126.814 159.299 127.326C159.669 127.833 159.998 128.387 160.096 128.993C160.286 130.233 159.541 131.318 159.695 132.418C159.752 132.962 159.988 133.47 160.281 133.935C160.574 134.404 160.914 134.837 161.237 135.273C161.561 135.71 161.87 136.152 162.096 136.626C162.327 137.096 162.456 137.603 162.492 138.092C162.569 139.078 162.415 140.018 162.492 140.901C162.559 141.789 162.898 142.587 163.284 143.306C163.669 144.024 164.101 144.677 164.466 145.307C164.646 145.622 164.816 145.932 164.95 146.242C165.093 146.552 165.165 146.866 165.232 147.167C165.335 147.773 165.325 148.341 165.258 148.839C165.119 149.844 164.708 150.563 164.343 150.972C164.261 151.08 164.163 151.155 164.086 151.23C164.009 151.305 163.937 151.352 163.875 151.395C163.757 151.474 163.69 151.512 163.69 151.512C163.674 151.498 163.952 151.362 164.312 150.953C164.667 150.544 165.057 149.826 165.181 148.834C165.248 148.341 165.248 147.782 165.14 147.186C165.073 146.89 165.001 146.58 164.857 146.284C164.718 145.983 164.554 145.673 164.369 145.363C164.004 144.738 163.567 144.09 163.171 143.362C162.78 142.639 162.425 141.821 162.353 140.915C162.271 140.013 162.42 139.074 162.338 138.106C162.302 137.622 162.178 137.143 161.952 136.687C161.731 136.232 161.428 135.795 161.104 135.363C160.78 134.931 160.435 134.494 160.132 134.015C159.834 133.54 159.582 133.009 159.52 132.432C159.366 131.262 160.106 130.168 159.916 129.017C159.824 128.448 159.515 127.918 159.15 127.42C158.785 126.922 158.358 126.443 157.993 125.907C157.263 124.831 156.914 123.573 156.646 122.309C156.374 121.045 156.178 119.74 155.654 118.509C155.392 117.898 155.068 117.297 154.621 116.771C154.184 116.24 153.623 115.794 152.97 115.493L153.119 115.418L153.104 115.535C153.022 116.221 152.888 116.893 152.806 117.56C152.713 118.227 152.688 118.894 152.718 119.556C152.739 119.88 152.759 120.223 152.816 120.533C152.893 120.843 153.037 121.144 153.176 121.445C153.459 122.046 153.747 122.652 153.947 123.277C154.168 123.901 154.235 124.554 154.307 125.179C154.384 125.808 154.461 126.433 154.533 127.053C154.687 128.284 154.785 129.515 155.335 130.576C155.608 131.107 155.963 131.595 156.23 132.131C156.508 132.666 156.626 133.254 156.662 133.817C156.734 134.949 156.569 136.053 156.903 137.054C157.238 138.05 157.937 138.881 158.286 139.825C158.667 140.779 158.507 141.77 158.353 142.643C158.199 143.527 158.045 144.381 158.25 145.161C158.435 145.946 159.047 146.519 159.433 147.139C159.633 147.449 159.777 147.782 159.829 148.116C159.885 148.449 159.88 148.769 159.896 149.074C159.911 149.375 159.932 149.671 160.034 149.924C160.137 150.178 160.333 150.375 160.533 150.54C160.95 150.854 161.397 151.052 161.788 151.188C162.183 151.324 162.533 151.399 162.816 151.441C163.099 151.488 163.32 151.493 163.469 151.498C163.618 151.493 163.695 151.498 163.695 151.498L163.685 151.512Z" fill="#0CBBE2"/>
<path d="M153.557 117.02C153.557 117.02 153.572 117.048 153.587 117.109C153.608 117.18 153.628 117.264 153.659 117.372C153.721 117.602 153.798 117.95 153.916 118.387C154.04 118.819 154.333 119.312 154.58 119.918C154.837 120.519 155.099 121.214 155.341 121.994C155.587 122.774 155.803 123.643 156.029 124.573C156.261 125.498 156.497 126.494 157.058 127.434C157.32 127.908 157.618 128.392 157.849 128.918C158.091 129.444 158.22 130.022 158.312 130.6C158.466 131.76 158.698 132.939 159.001 134.141C159.644 136.542 160.256 138.825 160.811 140.905C161.382 142.977 161.896 144.847 162.328 146.425C162.749 147.984 163.094 149.253 163.335 150.15C163.448 150.577 163.536 150.92 163.597 151.164L163.659 151.427C163.675 151.488 163.68 151.517 163.675 151.521C163.675 151.521 163.659 151.493 163.639 151.432L163.556 151.174C163.484 150.929 163.382 150.591 163.253 150.169C162.996 149.276 162.631 148.012 162.184 146.458C161.736 144.884 161.207 143.019 160.621 140.948C160.06 138.867 159.438 136.579 158.79 134.179C158.487 132.976 158.251 131.779 158.101 130.623C158.014 130.05 157.891 129.496 157.659 128.984C157.433 128.472 157.14 127.993 156.878 127.509C156.312 126.555 156.081 125.527 155.855 124.606C155.634 123.676 155.428 122.812 155.191 122.032C154.96 121.252 154.708 120.557 154.461 119.956C154.225 119.354 153.942 118.856 153.824 118.41C153.711 117.964 153.654 117.621 153.603 117.386C153.582 117.278 153.567 117.189 153.551 117.118C153.541 117.057 153.536 117.025 153.541 117.025L153.557 117.02Z" fill="#0CBBE2"/>
<path d="M163.119 151.521C161.027 150.385 160.425 146.932 161.299 144.856C162.173 142.78 163.7 140.882 163.937 138.67C164.116 136.969 163.51 135.222 163.937 133.559C164.523 131.314 166.924 129.576 166.893 127.265C166.877 125.968 166.07 124.752 166.137 123.46C166.214 121.872 167.551 120.613 168.373 119.218C169.638 117.076 169.72 114.549 170.152 112.149C170.584 109.748 171.587 107.179 173.911 106C174.255 108.039 174.841 109.434 174.656 112.191C174.589 113.182 173.33 115.08 173.16 117.25C173.057 118.546 172.985 119.848 172.898 121.149C172.816 122.412 172.723 123.699 172.229 124.883C171.849 125.79 171.237 126.612 170.954 127.546C170.425 129.308 171.119 131.215 170.692 132.995C170.327 134.508 169.186 135.804 168.949 137.34C168.62 139.492 170.147 141.728 169.366 143.785C168.98 144.804 168.06 145.622 167.803 146.674C167.602 147.491 167.823 148.355 167.638 149.173C167.345 150.493 164.584 151.521 163.114 151.437" fill="#1E62A1"/>
<path d="M173.34 108.02C173.34 108.02 173.34 108.057 173.33 108.133C173.319 108.217 173.304 108.33 173.283 108.466C173.237 108.762 173.181 109.194 173.073 109.748C172.954 110.312 172.641 110.942 172.384 111.702C172.116 112.463 171.849 113.337 171.618 114.319C171.381 115.301 171.181 116.386 170.97 117.555C170.754 118.716 170.533 119.998 169.895 121.214C169.602 121.825 169.273 122.436 169.026 123.089C168.775 123.737 168.656 124.437 168.584 125.156C168.476 126.598 168.266 128.101 167.973 129.609C167.33 132.624 166.723 135.499 166.163 138.115C165.577 140.722 165.047 143.071 164.605 145.044C164.158 147.007 163.793 148.6 163.536 149.713C163.407 150.253 163.304 150.681 163.237 150.981C163.201 151.117 163.176 151.225 163.155 151.31C163.135 151.385 163.124 151.423 163.119 151.423C163.119 151.423 163.119 151.385 163.135 151.31C163.15 151.225 163.171 151.117 163.196 150.976C163.258 150.671 163.345 150.244 163.458 149.703C163.7 148.586 164.039 146.988 164.461 145.02C164.893 143.043 165.407 140.689 165.978 138.082C166.528 135.466 167.134 132.591 167.767 129.576C168.06 128.063 168.271 126.583 168.384 125.137C168.456 124.413 168.579 123.695 168.841 123.028C169.098 122.361 169.433 121.745 169.726 121.139C170.358 119.942 170.579 118.687 170.805 117.522C171.021 116.358 171.232 115.268 171.479 114.281C171.726 113.3 171.998 112.421 172.281 111.66C172.548 110.895 172.872 110.27 173.001 109.72C173.119 109.171 173.186 108.734 173.248 108.447L173.314 108.114C173.33 108.039 173.34 108.001 173.345 108.001L173.34 108.02Z" fill="#1E62A1"/>
<path d="M96.0434 17.9777H110.683C110.683 17.9777 114.116 16.7841 113.672 13.621C113.227 10.4579 108.045 13.0938 108.045 13.0938C108.045 13.0938 109.617 8.67995 104.596 9.93325C99.5782 11.1841 99.0882 15.5606 99.0882 15.5606C99.0882 15.5606 92.4951 14.4988 96.0434 17.9802V17.9777Z" fill="white"/>
<path d="M141.814 53.1927H157.817C157.817 53.1927 161.57 51.8902 161.085 48.4388C160.599 44.9875 154.933 47.8636 154.933 47.8636C154.933 47.8636 156.649 43.0481 151.162 44.4163C145.674 45.7805 145.14 50.5549 145.14 50.5549C145.14 50.5549 137.931 49.3962 141.81 53.1927H141.814Z" fill="white"/>
<path d="M28.885 37.2764H56.6382C60.1938 37.2764 61.0506 32.752 57.6939 31.6925C57.6511 31.6786 57.6082 31.6647 57.5654 31.6536C61.2801 28.8422 53.1285 22.9107 44.2793 31.1224C44.9678 28.3861 37.1008 29.3733 34.6957 33.1079C33.842 30.6552 26.3361 34.9154 28.8911 37.2791L28.885 37.2764Z" fill="white"/>
<path d="M131.895 60.122C125.778 52.5464 117.083 47.8031 107.399 46.7703C87.4179 44.6368 69.4219 59.1573 67.2822 79.1384C65.9711 91.4017 70.937 102.91 79.5887 110.468L43.7822 151.815H52.2608L84.4371 114.054C88.9207 116.819 94.0721 118.655 99.6564 119.255C100.974 119.397 102.291 119.466 103.602 119.466C111.895 119.466 119.879 116.658 126.422 111.377C133.997 105.26 138.741 96.5655 139.773 86.881C140.806 77.2027 138.011 67.6976 131.895 60.1158V60.122ZM133.787 86.244C132.921 94.3268 128.963 101.593 122.637 106.695C116.31 111.797 108.376 114.135 100.293 113.269C83.6084 111.488 71.4812 96.4603 73.2685 79.7754C75.0495 63.0904 90.0709 50.9632 106.762 52.7505C114.845 53.6162 122.111 57.5741 127.213 63.9006C132.315 70.227 134.653 78.1613 133.787 86.244Z" fill="#003972"/>
<path d="M129.328 57.5555C123.212 49.9799 114.511 45.2366 104.833 44.2038C84.8453 42.0641 66.8493 56.5846 64.7158 76.5719C63.4047 88.8352 68.3706 100.344 77.0223 107.901L40.5034 151.93H47.2601L81.8645 111.494C86.3481 114.258 91.4995 116.095 97.0838 116.695C98.4011 116.837 99.7183 116.905 101.029 116.905C109.322 116.905 117.306 114.098 123.849 108.816C131.425 102.7 136.168 94.0051 137.201 84.3207C138.233 74.6424 135.438 65.1373 129.322 57.5555H129.328ZM131.221 83.6775C130.355 91.7603 126.397 99.0267 120.07 104.129C113.744 109.231 105.81 111.568 97.727 110.702C81.042 108.921 68.9148 93.8938 70.7021 77.2089C72.4831 60.5239 87.5045 48.3967 104.196 50.1839C112.278 51.0497 119.539 55.0076 124.647 61.334C129.749 67.6605 132.086 75.5948 131.221 83.6775Z" fill="#92B0CE"/>
<path d="M84.4187 100.189C84.4187 100.189 84.326 100.103 84.1776 99.9234C84.0291 99.7379 83.8065 99.4782 83.5468 99.1071C83.0087 98.3898 82.2852 97.3137 81.5184 95.9037C79.9661 93.1085 78.3397 88.8847 77.9253 83.9806C77.5048 79.0765 78.4015 74.6363 79.4528 71.6246C79.9785 70.1095 80.5103 68.9221 80.9123 68.1243C81.104 67.7224 81.2834 67.4255 81.4009 67.2153C81.5184 67.0112 81.5802 66.906 81.5926 66.9122C81.6049 66.9122 81.5555 67.0297 81.4565 67.2462C81.3637 67.4626 81.203 67.7656 81.0236 68.18C80.6526 68.9901 80.1578 70.1837 79.6631 71.6988C78.6674 74.7105 77.8264 79.1136 78.2345 83.9559C78.6427 88.8043 80.2197 92.9971 81.7101 95.7986C82.4522 97.2086 83.1386 98.297 83.6457 99.0329C83.8869 99.4102 84.0972 99.6823 84.227 99.8802C84.3569 100.072 84.4249 100.183 84.4187 100.189Z" fill="#5A8FD3"/>
<path d="M85.9398 62.7625C85.9954 62.8367 85.6244 63.1831 85.2533 63.6716C84.8761 64.154 84.6411 64.6054 84.5545 64.5683C84.4741 64.5436 84.5916 63.9994 84.9998 63.4737C85.4079 62.9419 85.8965 62.6883 85.946 62.7625H85.9398Z" fill="#5A8FD3"/>
<path d="M38.4814 46.0522C31.1809 47.4285 26.3338 54.4887 27.7153 61.8187C29.0911 69.1187 36.1512 73.9648 43.4818 72.5826C50.8124 71.2004 55.6237 64.1165 54.2482 56.816C52.8727 49.5154 45.7823 44.6756 38.4814 46.0522ZM39.7623 52.848C40.5795 52.694 41.424 52.7861 42.1887 53.1127C42.9534 53.4392 43.6038 53.9855 44.0576 54.6823C44.5113 55.3791 44.7479 56.195 44.7372 57.0264C44.7266 57.8578 44.4692 58.6674 43.9978 59.3524C43.5264 60.0375 42.8622 60.5671 42.0894 60.8741C41.3165 61.1811 40.47 61.2518 39.657 61.077C38.844 60.9022 38.1013 60.49 37.523 59.8925C36.9447 59.2951 36.5569 58.5393 36.4088 57.7211C35.9837 55.4657 37.5064 53.2735 39.7623 52.848ZM42.9672 69.8524C40.5436 70.3131 38.0353 69.917 35.8718 68.7318C37.3797 66.2964 39.4764 64.7025 41.9101 64.2437C44.3438 63.7848 46.9008 64.4704 49.1677 66.2249C47.5842 68.1166 45.3922 69.399 42.9672 69.8524Z" fill="#0CBBE2"/>
<path d="M135.092 124.463C130.119 122.852 124.745 125.578 123.126 130.571C121.514 135.544 124.24 140.918 129.234 142.536C134.228 144.154 139.589 141.401 141.201 136.429C142.813 131.456 140.066 126.075 135.092 124.463ZM133.592 129.093C134.149 129.273 134.639 129.615 135.001 130.074C135.363 130.534 135.581 131.091 135.626 131.674C135.672 132.258 135.542 132.841 135.256 133.351C134.969 133.861 134.537 134.274 134.014 134.538C133.492 134.803 132.903 134.906 132.323 134.835C131.742 134.764 131.195 134.522 130.752 134.14C130.309 133.758 129.989 133.253 129.833 132.689C129.678 132.125 129.693 131.527 129.877 130.972C130.375 129.435 132.055 128.595 133.592 129.093ZM129.837 140.676C128.185 140.143 126.769 139.053 125.833 137.591C127.585 136.596 129.418 136.318 131.076 136.855C132.733 137.393 134.082 138.678 134.89 140.527C133.274 141.161 131.488 141.214 129.837 140.676Z" fill="#0CBBE2"/>
<path d="M0.662598 152H183.337" stroke="#1B344C" stroke-width="0.624378" stroke-linecap="round" stroke-linejoin="round"/>
</svg>
