<svg width="194" height="160" viewBox="0 0 194 160" fill="none" xmlns="http://www.w3.org/2000/svg">
<path d="M97 0.206879C43.6085 0.206879 0.326172 43.3232 0.326172 96.5098C0.326172 120.55 9.16887 142.533 23.7909 159.407H170.209C184.831 142.533 193.674 120.55 193.674 96.5098C193.674 43.3232 150.391 0.206879 97 0.206879Z" fill="#F1F1F1"/>
<path d="M23.3123 159.729C23.3706 159.797 23.4749 159.814 23.5516 159.766C30.0945 155.781 33.9644 148.828 33.6514 141.625C33.6483 141.535 33.5654 141.464 33.4642 141.467C33.3659 141.47 33.2892 141.546 33.2923 141.639C33.5992 148.73 29.7907 155.572 23.3522 159.492C23.2693 159.543 23.2478 159.645 23.303 159.721C23.303 159.723 23.3092 159.726 23.3123 159.732V159.729Z" fill="#5C5C5C"/>
<path d="M26.2713 153.325L26.2713 153.325L26.2743 153.327C27.1184 153.87 27.1946 154.835 27.0303 155.698C26.9488 156.127 26.8093 156.521 26.6847 156.807C26.6224 156.949 26.5644 157.064 26.52 157.14C26.5006 157.174 26.4846 157.199 26.4728 157.216L26.447 157.24C26.2649 157.411 26.0798 157.579 25.8906 157.744C25.8961 157.7 25.8997 157.654 25.9016 157.606C25.9093 157.411 25.8882 157.181 25.8356 156.924C25.7304 156.41 25.4976 155.783 25.1054 155.107C24.9319 154.78 24.824 154.432 24.7846 154.112C24.745 153.79 24.7756 153.505 24.8698 153.301C24.9617 153.101 25.1122 152.98 25.3272 152.964C25.551 152.947 25.8628 153.042 26.2713 153.325Z" fill="#5A8FD3" stroke="#5C5C5C" stroke-width="0.2"/>
<path d="M29.9005 156.538C30.4088 156.527 30.8899 156.617 31.2848 156.869L26.0753 157.917C26.2617 157.775 26.4458 157.63 26.6275 157.482C26.6399 157.479 26.6523 157.475 26.6631 157.471C26.6914 157.461 26.7296 157.445 26.7744 157.426C26.8134 157.409 26.8595 157.389 26.9115 157.366C26.9201 157.362 26.9289 157.358 26.9378 157.354C27.0008 157.327 27.0721 157.295 27.1508 157.261C27.4658 157.126 27.8981 156.95 28.3802 156.806C28.8628 156.661 29.3918 156.549 29.9005 156.538Z" fill="#5A8FD3" stroke="#5C5C5C" stroke-width="0.2"/>
<path d="M28.0432 150.821L28.0436 150.82L28.0431 150.822C28.9754 151.228 29.2306 152.163 29.2321 153.033C29.2328 153.464 29.1704 153.871 29.1024 154.169C29.0685 154.318 29.0334 154.438 29.0048 154.52C28.9917 154.558 28.9805 154.586 28.9721 154.604L28.9547 154.627C28.8088 154.819 28.66 155.01 28.5082 155.2C28.505 155.155 28.4995 155.108 28.4919 155.06C28.4618 154.868 28.3969 154.647 28.2963 154.404C28.0951 153.918 27.7481 153.34 27.2367 152.737C27.0041 152.442 26.8324 152.117 26.7334 151.81C26.6338 151.5 26.6105 151.217 26.6644 151.004C26.7167 150.797 26.8401 150.657 27.0469 150.609C27.2634 150.559 27.5881 150.605 28.0432 150.821Z" fill="#5A8FD3" stroke="#5C5C5C" stroke-width="0.2"/>
<path d="M29.0554 154.821C28.8905 155.009 28.7225 155.194 28.5515 155.376C28.6033 155.363 28.6592 155.352 28.7189 155.343M29.0554 154.821L31.7085 155.727C30.2666 155.419 29.1536 155.341 28.6038 155.467C28.6423 155.426 28.6807 155.385 28.7189 155.343M29.0554 154.821C29.0818 154.845 29.1133 154.847 29.1258 154.847C29.1432 154.847 29.1573 154.843 29.164 154.841C29.1676 154.84 29.1711 154.838 29.1746 154.837M29.0554 154.821L29.1746 154.837M28.7189 155.343C28.8733 155.177 29.0252 155.008 29.1746 154.837M28.7189 155.343C28.765 155.336 28.8133 155.331 28.8637 155.326C29.0718 155.306 29.3219 155.304 29.6079 155.32C30.18 155.351 30.9019 155.452 31.7294 155.629L31.7327 155.63L31.7327 155.63C32.5285 155.828 33.462 155.5 33.9615 155.014C34.2108 154.771 34.3363 154.505 34.3061 154.26C34.2765 154.02 34.0912 153.761 33.6313 153.542M29.1746 154.837C29.186 154.832 29.197 154.827 29.2064 154.822C29.2324 154.808 29.2669 154.787 29.3072 154.761C29.3429 154.739 29.3852 154.711 29.433 154.681C29.4398 154.676 29.4466 154.672 29.4536 154.667C29.5101 154.631 29.5741 154.589 29.6448 154.545C29.9279 154.365 30.3188 154.129 30.7646 153.916C31.6636 153.486 32.7531 153.165 33.6313 153.542M33.6313 153.542C33.6319 153.543 33.6324 153.543 33.633 153.543L33.6726 153.451L33.6296 153.541C33.6302 153.542 33.6308 153.542 33.6313 153.542Z" fill="#5A8FD3" stroke="#5C5C5C" stroke-width="0.2"/>
<path d="M29.3228 148.094L29.3228 148.094L29.3258 148.095C30.3215 148.353 30.7451 149.237 30.9061 150.091C30.9861 150.515 30.9991 150.924 30.9868 151.226C30.9806 151.377 30.9682 151.501 30.9551 151.585C30.9494 151.621 30.9439 151.649 30.9392 151.667L30.9248 151.696C30.8192 151.907 30.7076 152.118 30.5922 152.326C30.5803 152.28 30.5655 152.232 30.5481 152.183C30.483 152 30.3781 151.793 30.234 151.57C29.946 151.125 29.4973 150.611 28.8824 150.097C28.5981 149.843 28.3685 149.549 28.2143 149.262C28.059 148.972 27.9843 148.698 27.9984 148.48C28.0121 148.269 28.1075 148.115 28.3011 148.037C28.5051 147.955 28.8339 147.95 29.3228 148.094Z" fill="#5A8FD3" stroke="#5C5C5C" stroke-width="0.2"/>
<path d="M31.0611 151.871C30.9347 152.079 30.804 152.285 30.6699 152.49C30.7178 152.47 30.7702 152.45 30.8265 152.433M31.0611 151.871L33.8412 152.357C32.3627 152.271 31.2515 152.364 30.7366 152.571C30.7667 152.525 30.7967 152.479 30.8265 152.433M31.0611 151.871C31.0889 151.888 31.1182 151.887 31.1315 151.885C31.1493 151.882 31.1631 151.876 31.1694 151.873C31.1733 151.871 31.1771 151.868 31.1808 151.866M31.0611 151.871L31.1808 151.866M30.8265 152.433C30.9477 152.245 31.0661 152.056 31.1808 151.866M30.8265 152.433C30.872 152.418 30.9201 152.405 30.9705 152.392C31.1713 152.341 31.417 152.301 31.7012 152.273C32.2698 152.217 32.9995 152.208 33.8471 152.258L33.8502 152.258L33.8502 152.258C34.6697 152.332 35.5276 151.867 35.9293 151.314C36.1295 151.038 36.2044 150.759 36.1298 150.522C36.0561 150.289 35.8247 150.062 35.3308 149.916M31.1808 151.866L35.3326 149.916C35.332 149.916 35.3314 149.916 35.3308 149.916M31.1808 151.866C31.1909 151.86 31.2004 151.853 31.2083 151.847C31.2314 151.83 31.2615 151.803 31.2963 151.772C31.3272 151.745 31.3636 151.712 31.4047 151.674C31.4107 151.669 31.4168 151.663 31.423 151.658C31.4719 151.613 31.5272 151.563 31.5886 151.508C31.8341 151.289 32.1754 150.998 32.5752 150.72C33.3808 150.161 34.395 149.679 35.3308 149.916M31.1808 151.866L35.3308 149.916" fill="#5A8FD3" stroke="#5C5C5C" stroke-width="0.2"/>
<path d="M30.2056 145.221V145.218C31.1679 145.365 31.7161 146.146 32.0181 146.935C32.1739 147.342 32.2609 147.743 32.3038 148.044C32.3253 148.194 32.3356 148.318 32.3382 148.404C32.3394 148.443 32.3389 148.472 32.3375 148.491L32.3299 148.517C32.2625 148.741 32.1922 148.964 32.1181 149.186C32.0979 149.142 32.0747 149.098 32.0486 149.052C31.9511 148.882 31.8098 148.694 31.6271 148.497C31.2619 148.102 30.7257 147.664 30.0258 147.253C29.6994 147.046 29.4195 146.791 29.2149 146.531C29.0089 146.269 28.885 146.008 28.8592 145.791C28.8342 145.58 28.9002 145.415 29.0752 145.309C29.2606 145.196 29.5837 145.141 30.0928 145.206L30.2056 145.221Z" fill="#5A8FD3" stroke="#5C5C5C" stroke-width="0.2"/>
<path d="M32.3598 149.255C32.308 149.281 32.2603 149.307 32.217 149.335C32.3122 149.113 32.4037 148.889 32.4894 148.664L36.3122 146.069M32.3598 149.255C32.3389 149.304 32.3177 149.354 32.2964 149.403C32.767 149.121 33.8454 148.86 35.3205 148.716C37.0422 148.606 38.4845 146.254 36.3578 145.975L36.3547 145.972L36.3541 145.979L36.3468 146.059L36.3456 146.072C36.3454 146.072 36.3453 146.072 36.3451 146.072C36.3341 146.071 36.3232 146.07 36.3122 146.069M32.3598 149.255C32.4457 149.051 32.5282 148.845 32.6059 148.638C32.6144 148.631 32.6221 148.623 32.6284 148.616C32.6481 148.595 32.6732 148.565 32.7019 148.529C32.7277 148.497 32.7582 148.458 32.7927 148.414C32.797 148.408 32.8015 148.402 32.806 148.397C32.8461 148.345 32.8915 148.287 32.942 148.224C33.1443 147.97 33.428 147.63 33.7719 147.294C34.4573 146.625 35.3576 145.998 36.3122 146.069M32.3598 149.255C32.4035 149.233 32.4502 149.211 32.4994 149.19C32.6885 149.109 32.9236 149.033 33.1987 148.962C33.7491 148.82 34.4665 148.699 35.3108 148.617L35.3141 148.617L35.3141 148.617C36.1362 148.564 36.8969 147.972 37.1924 147.365C37.3396 147.063 37.3632 146.775 37.2465 146.552C37.1305 146.331 36.8593 146.142 36.3448 146.074L36.3134 146.07L36.3122 146.069" fill="#5A8FD3" stroke="#5C5C5C" stroke-width="0.2"/>
<path d="M33.1255 145.041C33.1336 145.079 33.1383 145.107 33.1405 145.126L33.1375 145.154C33.1124 145.385 33.0829 145.616 33.0501 145.846C33.0223 145.806 32.9912 145.765 32.9572 145.724C32.8305 145.571 32.6576 145.407 32.4419 145.24C32.0108 144.906 31.4035 144.556 30.6387 144.257C30.2792 144.102 29.9567 143.893 29.7074 143.666C29.4562 143.437 29.286 143.197 29.2206 142.984C29.1569 142.776 29.1925 142.602 29.3437 142.47C29.5044 142.33 29.8112 142.224 30.3242 142.21L30.4215 142.207V142.204C31.4068 142.194 32.0967 142.889 32.5416 143.631C32.7697 144.012 32.9289 144.397 33.0261 144.689C33.0747 144.836 33.1074 144.957 33.1255 145.041Z" fill="#5A8FD3" stroke="#5C5C5C" stroke-width="0.2"/>
<path d="M33.4289 145.796C33.3829 145.825 33.3397 145.854 33.2996 145.883C33.3476 145.667 33.3918 145.45 33.432 145.23C33.4391 145.221 33.4453 145.212 33.4502 145.205C33.4659 145.181 33.4851 145.147 33.5068 145.107C33.5266 145.07 33.5497 145.026 33.5759 144.977C33.579 144.971 33.5821 144.965 33.5852 144.959C33.6154 144.902 33.6496 144.837 33.6878 144.766C33.8408 144.482 34.0583 144.1 34.336 143.713C34.8954 142.933 35.6788 142.16 36.6469 142.095C37.1647 142.082 37.4676 142.228 37.6238 142.432C37.7811 142.638 37.81 142.93 37.7205 143.253C37.5408 143.903 36.9005 144.61 36.1018 144.788L36.1018 144.788L36.0984 144.789C35.2802 145.003 34.5944 145.234 34.0773 145.461C33.8188 145.574 33.6008 145.686 33.4289 145.796Z" fill="#5A8FD3" stroke="#5C5C5C" stroke-width="0.2"/>
<path d="M33.5707 142.726C33.547 142.794 33.525 142.855 33.5051 142.908C33.4879 142.858 33.4683 142.803 33.4466 142.742C33.3548 142.486 33.224 142.139 33.0796 141.767C32.792 141.025 32.4483 140.179 32.2485 139.752C32.0876 139.322 31.9746 138.843 31.9743 138.425C31.9739 138.003 32.0873 137.669 32.3504 137.491L32.3504 137.491L32.3515 137.49C32.6165 137.305 33.0568 137.268 33.4509 137.469C33.8384 137.666 34.1859 138.096 34.2508 138.855L34.2508 138.855L34.2512 138.858C34.3439 139.637 34.143 140.719 33.9085 141.61C33.7918 142.054 33.6679 142.447 33.5707 142.726Z" fill="#5A8FD3" stroke="#5C5C5C" stroke-width="0.2"/>
<path d="M33.4901 143.205C33.4831 143.207 33.4753 143.206 33.4694 143.202L33.4587 143.188C33.4587 143.187 33.4587 143.187 33.4587 143.186V143.176L33.4567 143.166C33.4494 143.13 33.4281 143.063 33.3992 142.977C33.3693 142.89 33.329 142.776 33.2809 142.645C33.1846 142.382 33.0567 142.045 32.9183 141.69C32.6426 140.982 32.3234 140.198 32.1283 139.783C32.0462 139.561 31.8913 139.087 31.8557 138.603C31.8195 138.11 31.9088 137.646 32.273 137.4L32.273 137.4L32.2741 137.399C32.5669 137.196 33.009 137.161 33.4036 137.322C33.9429 137.544 34.2986 138.091 34.3639 138.84L34.3638 138.84L34.3642 138.843C34.4448 139.512 34.3028 140.474 34.1014 141.337C34.0012 141.767 33.8871 142.168 33.7807 142.492C33.6734 142.818 33.5765 143.057 33.5119 143.166L33.5 143.187L33.4991 143.199L33.4936 143.202L33.4901 143.205ZM33.4116 142.878L33.504 143.143L33.6 142.879C33.7362 142.505 33.9562 141.818 34.1234 141.065C34.2899 140.316 34.4066 139.49 34.3297 138.841C34.285 138.319 34.1156 137.963 33.9138 137.726C33.7355 137.514 33.5338 137.398 33.3842 137.337L33.3464 137.43L33.3847 137.337C33.0193 137.186 32.5958 137.209 32.3078 137.409C31.9897 137.624 31.8852 138.021 31.8904 138.443C31.8955 138.869 32.012 139.351 32.1693 139.777L32.1689 139.777L32.1728 139.785C32.3858 140.233 32.7404 141.115 33.0045 141.795C33.2073 142.323 33.3355 142.66 33.4116 142.878Z" fill="#5A8FD3" stroke="#5C5C5C" stroke-width="0.2"/>
<mask id="path-15-inside-1_3102_42993" fill="white">
<path d="M23.1321 159.736C25.2265 158.601 25.8286 155.153 24.9538 153.08C24.0789 151.006 22.5505 149.111 22.3138 146.902C22.1337 145.204 22.7409 143.459 22.3138 141.798C21.7272 139.556 19.3239 137.82 19.3548 135.513C19.3702 134.218 20.1782 133.003 20.1113 131.713C20.0341 130.128 18.6961 128.871 17.8727 127.477C16.6067 125.338 16.5244 122.815 16.0921 120.418C15.6598 118.021 14.6563 115.455 12.3303 114.278C11.9855 116.313 11.3988 117.707 11.5841 120.46C11.651 121.45 12.9118 123.345 13.0816 125.512C13.1845 126.807 13.2566 128.106 13.3441 129.405C13.4264 130.667 13.519 131.952 14.0131 133.134C14.3939 134.04 15.0063 134.861 15.2893 135.794C15.8194 137.553 15.1246 139.458 15.5518 141.235C15.9172 142.746 17.0596 144.04 17.2963 145.574C17.6257 147.723 16.0973 149.955 16.8795 152.01C17.2654 153.028 18.1866 153.844 18.4439 154.895C18.6446 155.711 18.4233 156.574 18.6086 157.39C18.9019 158.708 21.6654 159.736 23.1372 159.651"/>
</mask>
<path d="M23.1321 159.736C25.2265 158.601 25.8286 155.153 24.9538 153.08C24.0789 151.006 22.5505 149.111 22.3138 146.902C22.1337 145.204 22.7409 143.459 22.3138 141.798C21.7272 139.556 19.3239 137.82 19.3548 135.513C19.3702 134.218 20.1782 133.003 20.1113 131.713C20.0341 130.128 18.6961 128.871 17.8727 127.477C16.6067 125.338 16.5244 122.815 16.0921 120.418C15.6598 118.021 14.6563 115.455 12.3303 114.278C11.9855 116.313 11.3988 117.707 11.5841 120.46C11.651 121.45 12.9118 123.345 13.0816 125.512C13.1845 126.807 13.2566 128.106 13.3441 129.405C13.4264 130.667 13.519 131.952 14.0131 133.134C14.3939 134.04 15.0063 134.861 15.2893 135.794C15.8194 137.553 15.1246 139.458 15.5518 141.235C15.9172 142.746 17.0596 144.04 17.2963 145.574C17.6257 147.723 16.0973 149.955 16.8795 152.01C17.2654 153.028 18.1866 153.844 18.4439 154.895C18.6446 155.711 18.4233 156.574 18.6086 157.39C18.9019 158.708 21.6654 159.736 23.1372 159.651" fill="#DEC73F"/>
<path d="M22.3138 146.902L22.0155 146.934L22.0155 146.933L22.3138 146.902ZM22.3138 141.798L22.604 141.722L22.6044 141.724L22.3138 141.798ZM19.3548 135.513L19.6548 135.516L19.6548 135.517L19.3548 135.513ZM20.1113 131.713L19.8117 131.729L19.8116 131.728L20.1113 131.713ZM17.8727 127.477L18.1309 127.325L18.131 127.325L17.8727 127.477ZM12.3303 114.278L12.0345 114.227L12.1025 113.826L12.4658 114.01L12.3303 114.278ZM11.5841 120.46L11.2848 120.48L11.2848 120.48L11.5841 120.46ZM13.0816 125.512L12.7826 125.536L12.7825 125.535L13.0816 125.512ZM13.3441 129.405L13.6434 129.385L13.6434 129.386L13.3441 129.405ZM14.0131 133.134L13.7365 133.251L13.7363 133.25L14.0131 133.134ZM15.2893 135.794L15.5764 135.707L15.5766 135.708L15.2893 135.794ZM15.5518 141.235L15.2602 141.306L15.2601 141.305L15.5518 141.235ZM17.2963 145.574L17.5928 145.529L17.5929 145.529L17.2963 145.574ZM16.8795 152.01L17.1598 151.903L17.16 151.904L16.8795 152.01ZM18.4439 154.895L18.1526 154.967L18.1525 154.966L18.4439 154.895ZM18.6086 157.39L18.9011 157.324L18.9014 157.325L18.6086 157.39ZM22.9891 159.472C23.935 158.959 24.5733 157.904 24.8647 156.689C25.1557 155.477 25.0855 154.163 24.6774 153.196L25.2302 152.963C25.697 154.069 25.7631 155.516 25.4481 156.829C25.1336 158.141 24.4235 159.377 23.275 159.999L22.9891 159.472ZM24.6774 153.196C24.2455 152.173 23.6623 151.214 23.1279 150.179C22.6025 149.162 22.14 148.095 22.0155 146.934L22.6121 146.87C22.7244 147.918 23.1444 148.903 23.6611 149.904C24.1688 150.887 24.7872 151.913 25.2302 152.963L24.6774 153.196ZM22.0155 146.933C21.9215 146.048 22.0332 145.149 22.1076 144.309C22.1834 143.455 22.2229 142.649 22.0233 141.873L22.6044 141.724C22.8319 142.608 22.7813 143.505 22.7053 144.362C22.6279 145.235 22.526 146.058 22.6121 146.87L22.0155 146.933ZM22.0236 141.874C21.7465 140.815 21.0402 139.874 20.3533 138.847C19.6848 137.847 19.038 136.765 19.0548 135.509L19.6548 135.517C19.6407 136.568 20.18 137.508 20.8521 138.513C21.5058 139.491 22.2945 140.539 22.604 141.722L22.0236 141.874ZM19.0548 135.509C19.0631 134.809 19.2858 134.136 19.4775 133.522C19.6748 132.889 19.8419 132.312 19.8117 131.729L20.4109 131.698C20.4475 132.404 20.2441 133.079 20.0503 133.7C19.8509 134.34 19.6618 134.922 19.6548 135.516L19.0548 135.509ZM19.8116 131.728C19.7769 131.015 19.4584 130.36 19.0204 129.687C18.8015 129.351 18.5602 129.021 18.3151 128.679C18.0723 128.34 17.8275 127.991 17.6144 127.63L18.131 127.325C18.3295 127.661 18.5608 127.991 18.8029 128.329C19.0426 128.664 19.295 129.009 19.5232 129.359C19.9793 130.06 20.3684 130.825 20.4109 131.699L19.8116 131.728ZM17.6145 127.63C16.9567 126.519 16.6112 125.315 16.3753 124.102C16.2573 123.495 16.1661 122.881 16.0778 122.274C15.9892 121.665 15.9038 121.064 15.7969 120.471L16.3874 120.365C16.4965 120.97 16.5835 121.583 16.6716 122.188C16.7599 122.795 16.8494 123.396 16.9643 123.987C17.194 125.169 17.5227 126.297 18.1309 127.325L17.6145 127.63ZM15.7969 120.471C15.3687 118.097 14.3893 115.656 12.1948 114.545L12.4658 114.01C14.9234 115.254 15.951 117.945 16.3874 120.365L15.7969 120.471ZM12.6261 114.328C12.2725 116.415 11.7013 117.733 11.8834 120.44L11.2848 120.48C11.0963 117.68 11.6985 116.212 12.0345 114.227L12.6261 114.328ZM11.8834 120.44C11.897 120.64 11.9742 120.909 12.1037 121.258C12.2327 121.605 12.3965 121.989 12.5731 122.434C12.9199 123.307 13.2921 124.358 13.3807 125.488L12.7825 125.535C12.7013 124.499 12.3582 123.518 12.0154 122.655C11.8473 122.232 11.6727 121.821 11.5412 121.467C11.4101 121.114 11.3047 120.774 11.2848 120.48L11.8834 120.44ZM13.3807 125.488C13.4838 126.785 13.5563 128.091 13.6434 129.385L13.0448 129.425C12.9569 128.121 12.8853 126.828 12.7826 125.536L13.3807 125.488ZM13.6434 129.386C13.7262 130.654 13.8181 131.89 14.2899 133.019L13.7363 133.25C13.22 132.015 13.1266 130.68 13.0447 129.425L13.6434 129.386ZM14.2896 133.018C14.4726 133.453 14.7103 133.866 14.9515 134.311C15.1885 134.747 15.4254 135.209 15.5764 135.707L15.0022 135.881C14.8702 135.446 14.6594 135.03 14.4242 134.597C14.1933 134.171 13.9344 133.721 13.7365 133.251L14.2896 133.018ZM15.5766 135.708C15.8591 136.645 15.8123 137.613 15.7586 138.525C15.7039 139.456 15.6424 140.328 15.8435 141.165L15.2601 141.305C15.034 140.365 15.1064 139.396 15.1597 138.49C15.214 137.566 15.2496 136.702 15.0021 135.881L15.5766 135.708ZM15.8434 141.165C16.0158 141.878 16.3725 142.544 16.7393 143.259C17.0987 143.961 17.4661 144.708 17.5928 145.529L16.9998 145.62C16.8898 144.907 16.5677 144.24 16.2053 143.533C15.8503 142.84 15.4531 142.103 15.2602 141.306L15.8434 141.165ZM17.5929 145.529C17.7682 146.673 17.448 147.836 17.2108 148.893C16.9668 149.98 16.8043 150.969 17.1598 151.903L16.5991 152.117C16.1724 150.996 16.383 149.842 16.6254 148.762C16.8744 147.652 17.1538 146.624 16.9998 145.62L17.5929 145.529ZM17.16 151.904C17.3378 152.372 17.6396 152.797 17.959 153.273C18.2685 153.734 18.5925 154.24 18.7353 154.824L18.1525 154.966C18.038 154.499 17.7727 154.072 17.4609 153.607C17.1589 153.158 16.8072 152.666 16.599 152.116L17.16 151.904ZM18.7352 154.823C18.8463 155.275 18.839 155.733 18.832 156.148C18.8248 156.575 18.818 156.958 18.9011 157.324L18.316 157.457C18.2139 157.007 18.2251 156.55 18.2321 156.138C18.2392 155.712 18.2422 155.331 18.1526 154.967L18.7352 154.823ZM18.9014 157.325C18.9553 157.567 19.1312 157.826 19.4295 158.085C19.7246 158.341 20.1163 158.576 20.5543 158.773C21.4364 159.171 22.4462 159.39 23.12 159.352L23.1544 159.951C22.3564 159.997 21.2485 159.745 20.3076 159.32C19.8341 159.107 19.388 158.843 19.0364 158.538C18.6881 158.236 18.4086 157.873 18.3158 157.456L18.9014 157.325Z" fill="#5C5C5C" mask="url(#path-15-inside-1_3102_42993)"/>
<path d="M185.53 132.129C185.528 132.061 185.526 131.994 185.522 131.926C183.577 133.844 182.196 136.233 181.564 138.782C181.548 138.842 181.533 138.903 181.518 138.963C181.406 139.417 181.292 139.876 181.008 140.261C180.683 140.699 180.183 140.977 179.68 141.257C179.231 141.507 178.781 141.757 178.454 142.123C177.786 142.87 177.793 143.848 177.801 144.843C177.806 145.607 177.812 146.382 177.512 147.067C177.175 147.828 176.503 148.397 175.836 148.963C175.649 149.121 175.463 149.279 175.284 149.44L174.021 152.212V152.066H174.031H174.138M185.53 132.129C183.655 134.012 182.325 136.339 181.709 138.818L181.709 138.819C181.694 138.878 181.679 138.938 181.664 138.998C181.553 139.449 181.431 139.939 181.129 140.35L181.129 140.351C180.799 140.795 180.304 141.081 179.833 141.344C179.809 141.357 179.785 141.37 179.761 141.384C179.305 141.638 178.875 141.877 178.566 142.223L178.566 142.223C178.016 142.837 177.95 143.625 177.949 144.499C177.949 144.611 177.95 144.724 177.951 144.839C177.957 145.6 177.964 146.41 177.649 147.128L177.649 147.128C177.422 147.641 177.053 148.066 176.646 148.45C176.442 148.643 176.227 148.828 176.013 149.009C175.986 149.032 175.959 149.055 175.933 149.077C175.746 149.236 175.561 149.392 175.385 149.552L175.384 149.552C174.981 149.915 174.606 150.341 174.368 150.793C174.15 151.21 174.05 151.64 174.138 152.066M185.53 132.129C185.6 134.314 185.044 136.517 183.928 138.454C183.841 138.605 183.747 138.759 183.653 138.915C183.496 139.175 183.337 139.439 183.195 139.703C182.966 140.131 182.773 140.581 182.69 141.065L182.69 141.065C182.565 141.798 182.71 142.54 182.848 143.248C182.858 143.295 182.867 143.342 182.876 143.389C183.024 144.152 183.143 144.874 182.95 145.573L182.949 145.573C182.747 146.31 182.223 146.937 181.676 147.591C181.625 147.652 181.574 147.713 181.523 147.775C180.937 148.48 180.358 149.232 180.303 150.156L180.303 150.157C180.26 150.926 180.6 151.64 180.919 152.312L180.933 152.341C181.263 153.037 181.566 153.688 181.518 154.374L181.518 154.374C181.477 154.958 181.176 155.511 180.828 156.045M185.53 132.129C185.578 132.081 185.627 132.033 185.675 131.986C185.774 134.245 185.212 136.527 184.058 138.529C183.967 138.686 183.873 138.842 183.778 138.999C183.373 139.669 182.966 140.342 182.838 141.09L180.828 156.045M174.138 152.066C174.146 152.102 174.155 152.138 174.165 152.175L174.031 152.212L174.026 152.214L174.031 152.215V152.365H174.021H173.983L171.766 159.227L171.925 159.222M174.138 152.066H174.238L174.174 152.262L171.925 159.222M171.925 159.222L175.105 159.12L175.112 159.12L175.112 159.12C177.824 159.164 179.604 157.896 180.828 156.045M171.925 159.222L171.876 159.374L175.11 159.27C177.882 159.315 179.707 158.014 180.954 156.127L180.828 156.045M181.795 147.683C182.337 147.036 182.883 146.383 183.094 145.613L181.795 147.683ZM181.795 147.683C181.149 148.456 180.509 149.22 180.453 150.165L181.795 147.683Z" fill="#5A8FD3" stroke="#5C5C5C" stroke-width="0.3"/>
<path d="M171.019 159.458C171.019 159.458 170.698 159.527 170.083 159.438C169.778 159.398 169.402 159.324 168.977 159.185C168.558 159.046 168.073 158.842 167.615 158.504C167.392 158.331 167.174 158.112 167.055 157.824C166.94 157.536 166.918 157.224 166.897 156.901C166.88 156.578 166.88 156.241 166.815 155.898C166.755 155.556 166.613 155.223 166.401 154.905C165.998 154.265 165.333 153.659 165.121 152.786C164.887 151.932 165.056 151.003 165.214 150.075C165.372 149.147 165.524 148.134 165.132 147.166C164.767 146.198 164.021 145.324 163.651 144.232C163.28 143.13 163.455 141.943 163.373 140.777C163.335 140.191 163.215 139.6 162.932 139.059C162.659 138.513 162.278 137.997 161.979 137.416C161.374 136.249 161.271 134.929 161.107 133.633C161.025 132.983 160.944 132.322 160.862 131.657C160.78 130.987 160.715 130.322 160.486 129.676C160.279 129.026 159.974 128.401 159.675 127.76C159.528 127.438 159.375 127.115 159.283 126.762C159.217 126.4 159.195 126.057 159.174 125.7C159.136 124.99 159.168 124.27 159.266 123.56C159.359 122.845 159.5 122.141 159.582 121.421L159.599 121.297L159.615 121.153L159.756 121.217C160.481 121.55 161.107 122.041 161.586 122.622C162.071 123.198 162.425 123.848 162.708 124.509C163.275 125.839 163.482 127.229 163.765 128.559C164.043 129.89 164.413 131.196 165.159 132.303C165.53 132.854 165.982 133.355 166.374 133.896C166.766 134.432 167.114 135.018 167.218 135.658C167.419 136.969 166.63 138.116 166.793 139.278C166.853 139.853 167.104 140.39 167.414 140.881C167.724 141.377 168.084 141.834 168.427 142.296C168.77 142.758 169.097 143.224 169.337 143.726C169.582 144.222 169.718 144.758 169.756 145.274C169.838 146.317 169.674 147.31 169.756 148.243C169.827 149.181 170.186 150.025 170.595 150.785C171.003 151.544 171.461 152.234 171.847 152.9C172.038 153.232 172.218 153.56 172.359 153.888C172.512 154.215 172.588 154.548 172.659 154.866C172.768 155.506 172.757 156.107 172.686 156.633C172.539 157.695 172.103 158.455 171.717 158.887C171.629 159.001 171.526 159.08 171.444 159.16C171.363 159.239 171.286 159.289 171.221 159.333C171.096 159.418 171.025 159.458 171.025 159.458C171.009 159.443 171.303 159.299 171.684 158.867C172.06 158.435 172.474 157.675 172.604 156.628C172.675 156.107 172.675 155.516 172.561 154.885C172.49 154.573 172.414 154.245 172.261 153.932C172.114 153.615 171.94 153.287 171.744 152.959C171.357 152.299 170.894 151.614 170.475 150.844C170.061 150.08 169.685 149.216 169.609 148.258C169.522 147.305 169.68 146.312 169.592 145.289C169.554 144.778 169.424 144.272 169.184 143.79C168.95 143.309 168.628 142.847 168.285 142.39C167.942 141.933 167.577 141.472 167.256 140.965C166.94 140.464 166.673 139.903 166.608 139.292C166.445 138.056 167.229 136.9 167.027 135.683C166.929 135.083 166.602 134.522 166.216 133.995C165.829 133.469 165.377 132.963 164.99 132.397C164.217 131.26 163.847 129.93 163.563 128.594C163.275 127.259 163.068 125.879 162.512 124.578C162.235 123.933 161.891 123.297 161.418 122.741C160.955 122.18 160.361 121.709 159.669 121.391L159.827 121.312L159.811 121.436C159.724 122.16 159.582 122.87 159.495 123.575C159.397 124.28 159.37 124.985 159.402 125.685C159.424 126.028 159.446 126.39 159.506 126.718C159.588 127.045 159.74 127.363 159.887 127.681C160.187 128.316 160.492 128.957 160.704 129.617C160.938 130.277 161.009 130.967 161.085 131.627C161.167 132.293 161.249 132.953 161.325 133.608C161.488 134.909 161.592 136.21 162.175 137.331C162.463 137.892 162.839 138.409 163.122 138.975C163.416 139.541 163.542 140.161 163.58 140.757C163.656 141.953 163.482 143.12 163.836 144.177C164.19 145.23 164.93 146.108 165.301 147.106C165.704 148.114 165.535 149.162 165.372 150.085C165.208 151.018 165.045 151.922 165.263 152.746C165.459 153.575 166.107 154.181 166.515 154.836C166.728 155.163 166.88 155.516 166.935 155.868C166.995 156.221 166.989 156.558 167.005 156.881C167.022 157.199 167.044 157.512 167.153 157.78C167.261 158.048 167.468 158.256 167.681 158.43C168.122 158.763 168.596 158.971 169.01 159.115C169.429 159.259 169.799 159.338 170.099 159.383C170.399 159.433 170.633 159.438 170.791 159.443C170.949 159.438 171.03 159.443 171.03 159.443L171.019 159.458Z" fill="#1E62A1"/>
<path d="M160.291 123.004C160.291 123.004 160.307 123.034 160.324 123.098C160.345 123.173 160.367 123.262 160.4 123.376C160.465 123.62 160.547 123.987 160.672 124.449C160.803 124.905 161.113 125.427 161.375 126.067C161.647 126.702 161.925 127.437 162.181 128.261C162.442 129.085 162.671 130.004 162.911 130.987C163.156 131.965 163.406 133.017 164 134.01C164.278 134.511 164.594 135.023 164.839 135.579C165.095 136.135 165.231 136.745 165.329 137.356C165.492 138.582 165.737 139.828 166.059 141.099C166.739 143.636 167.387 146.048 167.976 148.248C168.58 150.437 169.125 152.413 169.582 154.081C170.029 155.729 170.394 157.069 170.65 158.018C170.77 158.469 170.862 158.832 170.928 159.09L170.993 159.368C171.009 159.432 171.015 159.462 171.009 159.467C171.009 159.467 170.993 159.437 170.971 159.373L170.884 159.1C170.808 158.842 170.699 158.484 170.563 158.037C170.29 157.094 169.904 155.759 169.43 154.116C168.956 152.452 168.395 150.482 167.774 148.292C167.181 146.093 166.522 143.676 165.835 141.139C165.514 139.868 165.263 138.602 165.105 137.381C165.013 136.775 164.882 136.189 164.637 135.648C164.397 135.107 164.087 134.601 163.809 134.089C163.21 133.082 162.965 131.994 162.725 131.021C162.491 130.038 162.273 129.125 162.023 128.301C161.778 127.477 161.511 126.742 161.249 126.107C160.999 125.471 160.699 124.945 160.574 124.473C160.454 124.002 160.394 123.639 160.34 123.391C160.318 123.277 160.302 123.183 160.285 123.108C160.275 123.044 160.269 123.009 160.275 123.009L160.291 123.004Z" fill="#1E62A1"/>
<mask id="path-20-inside-2_3102_42993" fill="white">
<path d="M170.42 159.467C168.204 158.266 167.567 154.617 168.492 152.423C169.418 150.229 171.036 148.223 171.286 145.885C171.477 144.088 170.834 142.241 171.286 140.484C171.907 138.111 174.451 136.274 174.418 133.832C174.402 132.461 173.547 131.176 173.617 129.81C173.699 128.132 175.115 126.802 175.987 125.328C177.326 123.064 177.413 120.393 177.871 117.856C178.328 115.319 179.39 112.604 181.852 111.358C182.217 113.512 182.838 114.987 182.642 117.901C182.571 118.948 181.237 120.954 181.057 123.248C180.948 124.618 180.872 125.993 180.779 127.368C180.692 128.703 180.594 130.064 180.071 131.315C179.668 132.273 179.02 133.141 178.721 134.129C178.16 135.991 178.895 138.007 178.443 139.888C178.056 141.487 176.847 142.857 176.597 144.48C176.248 146.754 177.866 149.117 177.038 151.291C176.629 152.368 175.654 153.232 175.382 154.344C175.17 155.208 175.404 156.121 175.208 156.985C174.897 158.38 171.973 159.467 170.415 159.378"/>
</mask>
<path d="M170.42 159.467C168.204 158.266 167.567 154.617 168.492 152.423C169.418 150.229 171.036 148.223 171.286 145.885C171.477 144.088 170.834 142.241 171.286 140.484C171.907 138.111 174.451 136.274 174.418 133.832C174.402 132.461 173.547 131.176 173.617 129.81C173.699 128.132 175.115 126.802 175.987 125.328C177.326 123.064 177.413 120.393 177.871 117.856C178.328 115.319 179.39 112.604 181.852 111.358C182.217 113.512 182.838 114.987 182.642 117.901C182.571 118.948 181.237 120.954 181.057 123.248C180.948 124.618 180.872 125.993 180.779 127.368C180.692 128.703 180.594 130.064 180.071 131.315C179.668 132.273 179.02 133.141 178.721 134.129C178.16 135.991 178.895 138.007 178.443 139.888C178.056 141.487 176.847 142.857 176.597 144.48C176.248 146.754 177.866 149.117 177.038 151.291C176.629 152.368 175.654 153.232 175.382 154.344C175.17 155.208 175.404 156.121 175.208 156.985C174.897 158.38 171.973 159.467 170.415 159.378" fill="#DEC73F"/>
<path d="M171.286 145.885L171.585 145.917L171.585 145.917L171.286 145.885ZM171.286 140.484L170.996 140.408L170.996 140.409L171.286 140.484ZM174.418 133.832L174.118 133.835L174.118 133.836L174.418 133.832ZM173.617 129.81L173.917 129.826L173.917 129.825L173.617 129.81ZM175.987 125.328L175.728 125.175L175.728 125.175L175.987 125.328ZM181.852 111.358L182.148 111.308L182.08 110.906L181.717 111.09L181.852 111.358ZM182.642 117.901L182.941 117.921L182.941 117.921L182.642 117.901ZM181.057 123.248L181.356 123.271L181.356 123.271L181.057 123.248ZM180.779 127.368L180.48 127.348L180.48 127.348L180.779 127.368ZM180.071 131.315L180.348 131.431L180.348 131.43L180.071 131.315ZM178.721 134.129L178.434 134.042L178.433 134.043L178.721 134.129ZM178.443 139.888L178.734 139.959L178.735 139.958L178.443 139.888ZM176.597 144.48L176.3 144.434L176.3 144.435L176.597 144.48ZM177.038 151.291L176.757 151.184L176.757 151.185L177.038 151.291ZM175.382 154.344L175.673 154.416L175.673 154.416L175.382 154.344ZM175.208 156.985L174.915 156.919L174.915 156.92L175.208 156.985ZM170.563 159.204C169.556 158.658 168.879 157.536 168.57 156.248C168.261 154.961 168.335 153.567 168.769 152.54L168.216 152.306C167.724 153.473 167.654 155.001 167.986 156.388C168.318 157.772 169.068 159.076 170.277 159.731L170.563 159.204ZM168.769 152.54C169.226 151.456 169.844 150.439 170.409 149.346C170.965 148.269 171.453 147.143 171.585 145.917L170.988 145.853C170.869 146.965 170.423 148.011 169.876 149.07C169.338 150.113 168.685 151.196 168.216 152.306L168.769 152.54ZM171.585 145.917C171.684 144.981 171.566 144.032 171.487 143.143C171.407 142.238 171.365 141.383 171.577 140.558L170.996 140.409C170.756 141.342 170.809 142.289 170.89 143.196C170.971 144.118 171.079 144.992 170.988 145.853L171.585 145.917ZM171.577 140.56C171.871 139.435 172.621 138.436 173.347 137.35C174.054 136.292 174.736 135.152 174.718 133.828L174.118 133.836C174.133 134.954 173.559 135.953 172.848 137.017C172.155 138.053 171.323 139.159 170.996 140.408L171.577 140.56ZM174.718 133.828C174.709 133.09 174.475 132.381 174.271 131.73C174.063 131.061 173.885 130.447 173.917 129.826L173.318 129.795C173.279 130.539 173.493 131.251 173.699 131.908C173.909 132.584 174.11 133.203 174.118 133.835L174.718 133.828ZM173.917 129.825C173.954 129.067 174.293 128.369 174.757 127.656C174.989 127.3 175.245 126.951 175.504 126.589C175.761 126.23 176.02 125.861 176.245 125.48L175.728 125.175C175.518 125.531 175.273 125.882 175.016 126.239C174.762 126.594 174.496 126.958 174.254 127.329C173.772 128.069 173.363 128.876 173.318 129.796L173.917 129.825ZM176.245 125.48C176.939 124.307 177.305 123.035 177.554 121.752C177.679 121.11 177.775 120.461 177.869 119.819C177.963 119.174 178.053 118.537 178.166 117.909L177.576 117.803C177.46 118.443 177.368 119.092 177.275 119.732C177.182 120.375 177.087 121.011 176.965 121.637C176.722 122.889 176.373 124.085 175.728 125.175L176.245 125.48ZM178.166 117.909C178.62 115.396 179.658 112.805 181.988 111.626L181.717 111.09C179.123 112.403 178.037 115.243 177.576 117.803L178.166 117.909ZM181.556 111.408C181.93 113.614 182.536 115.014 182.343 117.881L182.941 117.921C183.14 114.96 182.504 113.411 182.148 111.308L181.556 111.408ZM182.343 117.881C182.328 118.096 182.246 118.382 182.108 118.751C181.972 119.119 181.798 119.526 181.612 119.996C181.245 120.92 180.852 122.03 180.758 123.224L181.356 123.271C181.442 122.171 181.806 121.132 182.169 120.218C182.347 119.769 182.532 119.335 182.671 118.96C182.81 118.587 182.92 118.23 182.941 117.921L182.343 117.881ZM180.758 123.224C180.649 124.596 180.572 125.978 180.48 127.348L181.079 127.388C181.172 126.008 181.247 124.639 181.356 123.271L180.758 123.224ZM180.48 127.348C180.392 128.691 180.295 130.001 179.794 131.199L180.348 131.43C180.893 130.126 180.992 128.716 181.079 127.387L180.48 127.348ZM179.795 131.198C179.601 131.66 179.348 132.098 179.093 132.568C178.843 133.03 178.593 133.517 178.434 134.042L179.008 134.216C179.148 133.754 179.372 133.313 179.621 132.854C179.866 132.403 180.139 131.928 180.348 131.431L179.795 131.198ZM178.433 134.043C178.135 135.032 178.185 136.053 178.241 137.019C178.299 138.003 178.365 138.929 178.151 139.818L178.735 139.958C178.973 138.965 178.897 137.943 178.84 136.984C178.783 136.006 178.745 135.089 179.008 134.216L178.433 134.043ZM178.151 139.817C177.968 140.574 177.589 141.281 177.202 142.038C176.821 142.78 176.434 143.569 176.3 144.434L176.893 144.526C177.01 143.768 177.352 143.06 177.736 142.312C178.112 141.578 178.531 140.8 178.734 139.959L178.151 139.817ZM176.3 144.435C176.115 145.641 176.453 146.868 176.704 147.989C176.962 149.139 177.136 150.191 176.757 151.184L177.318 151.398C177.768 150.217 177.546 149 177.29 147.857C177.026 146.684 176.729 145.593 176.893 144.526L176.3 144.435ZM176.757 151.185C176.568 151.683 176.247 152.135 175.91 152.637C175.582 153.125 175.241 153.659 175.091 154.273L175.673 154.416C175.795 153.917 176.078 153.463 176.408 152.972C176.728 152.495 177.099 151.976 177.318 151.398L176.757 151.185ZM175.091 154.273C174.974 154.748 174.981 155.231 174.989 155.67C174.996 156.122 175.004 156.529 174.915 156.919L175.5 157.052C175.608 156.578 175.596 156.096 175.589 155.66C175.581 155.21 175.578 154.804 175.673 154.416L175.091 154.273ZM174.915 156.92C174.857 157.181 174.668 157.459 174.35 157.734C174.036 158.006 173.62 158.255 173.156 158.465C172.22 158.887 171.149 159.12 170.432 159.079L170.398 159.678C171.239 159.726 172.408 159.46 173.402 159.012C173.903 158.786 174.373 158.508 174.743 158.187C175.111 157.868 175.403 157.487 175.501 157.05L174.915 156.92Z" fill="#5C5C5C" mask="url(#path-20-inside-2_3102_42993)"/>
<path d="M99.5862 17.4398H114.984C114.984 17.4398 118.594 16.1581 118.127 12.7617C117.66 9.36533 112.209 12.1957 112.209 12.1957C112.209 12.1957 113.863 7.45618 108.582 8.80193C103.304 10.145 102.789 14.8444 102.789 14.8444C102.789 14.8444 95.8542 13.7043 99.5862 17.4425V17.4398Z" fill="white"/>
<path d="M140.814 54.5398H157.759C157.759 54.5398 161.734 53.1549 161.219 49.4853C160.705 45.8156 154.705 48.8737 154.705 48.8737C154.705 48.8737 156.523 43.7536 150.712 45.2084C144.901 46.6588 144.335 51.7351 144.335 51.7351C144.335 51.7351 136.702 50.5032 140.809 54.5398H140.814Z" fill="white"/>
<path d="M37.8766 37.8408H67.2393C71.0011 37.8408 71.9075 32.9993 68.3562 31.8656C68.3108 31.8507 68.2655 31.8358 68.2202 31.8239C72.1503 28.8155 63.526 22.4683 54.1637 31.2556C54.8921 28.3275 46.5689 29.3838 44.0243 33.3802C43.1211 30.7556 35.1799 35.3144 37.8831 37.8438L37.8766 37.8408Z" fill="white"/>
<path d="M139.15 62.0795L139.495 62.5055C145.692 70.39 148.509 80.1877 147.441 90.1617C146.355 100.325 141.363 109.45 133.39 115.869C126.503 121.412 118.101 124.358 109.373 124.358C107.993 124.358 106.606 124.287 105.22 124.137L105.22 124.137C99.3422 123.508 93.9207 121.58 89.202 118.679L89.0199 118.567L88.8811 118.73L54.8707 158.529H46.5526L84.1238 115.267L84.2875 115.079L84.0993 114.915C74.9929 106.983 69.7673 94.9051 71.147 82.0363C73.3989 61.0676 92.3388 45.828 113.369 48.0671L113.395 47.8185L113.369 48.0671C123.562 49.1511 132.712 54.1287 139.15 62.0795ZM129.694 111.313C136.447 105.882 140.673 98.1461 141.597 89.5421C142.521 80.9379 140.026 72.4906 134.579 65.7563C129.133 59.0219 121.375 54.8084 112.747 53.8869C94.929 51.9844 78.8928 64.8933 76.9913 82.6558C75.0832 100.418 88.0301 116.415 105.841 118.311C114.47 119.233 122.94 116.744 129.694 111.313Z" fill="#CDBB52" stroke="#5C5C5C" stroke-width="0.5"/>
<path d="M110.65 45.3562C120.662 46.4215 129.679 51.2479 136.097 58.9613H136.095L136.424 59.3685C142.862 67.3258 145.803 77.3001 144.716 87.4573C143.629 97.621 138.638 106.745 130.664 113.164C123.778 118.707 115.375 121.654 106.648 121.654C105.267 121.654 103.881 121.582 102.495 121.433L102.495 121.433C96.6169 120.803 91.1954 118.876 86.4768 115.975L86.295 115.863L86.1561 116.025L49.5736 158.651H43.0641L81.4086 112.552L81.5648 112.364L81.3805 112.204C72.2742 104.272 67.0486 92.1942 68.4283 79.3254L68.4283 79.3253C70.6737 58.3502 89.6135 43.1106 110.65 45.3562L110.65 45.3562ZM131.86 63.0454L131.86 63.0453C126.408 56.3111 118.656 52.0975 110.028 51.176C92.2103 49.2735 76.1741 62.1824 74.2726 79.9449C72.3645 97.7076 85.3114 113.704 103.123 115.6C111.751 116.522 120.222 114.033 126.975 108.602C133.728 103.171 137.954 95.4352 138.878 86.8313C139.803 78.227 137.307 69.7797 131.86 63.0454Z" fill="#E5D050" stroke="#5C5C5C" stroke-width="0.5"/>
<path d="M89.0532 104.246C89.0532 104.246 88.9549 104.154 88.7977 103.965C88.6404 103.769 88.4046 103.495 88.1295 103.103C87.5595 102.345 86.793 101.208 85.9807 99.7188C84.3364 96.7661 82.6135 92.3044 82.1745 87.1242C81.7291 81.9439 82.679 77.2536 83.7927 74.0723C84.3495 72.4718 84.9129 71.2176 85.3387 70.3749C85.5418 69.9503 85.7318 69.6367 85.8562 69.4146C85.9807 69.199 86.0462 69.088 86.0593 69.0945C86.0724 69.0945 86.02 69.2186 85.9152 69.4472C85.8169 69.6759 85.6466 69.996 85.4566 70.4337C85.0636 71.2894 84.5395 72.5502 84.0154 74.1506C82.9607 77.332 82.0697 81.9831 82.5021 87.098C82.9345 92.2195 84.605 96.6486 86.1838 99.6078C86.9699 101.097 87.6971 102.247 88.2343 103.024C88.4898 103.423 88.7125 103.71 88.8501 103.919C88.9877 104.122 89.0597 104.239 89.0532 104.246Z" fill="#1F3530"/>
<path d="M90.665 64.7109C90.7239 64.7893 90.3309 65.1551 89.9378 65.6711C89.5382 66.1807 89.2893 66.6576 89.1975 66.6184C89.1124 66.5922 89.2368 66.0174 89.6692 65.4621C90.1016 64.9003 90.6191 64.6325 90.6715 64.7109H90.665Z" fill="#1F3530"/>
<path d="M41.7008 53.9924L41.7008 53.9924C39.1784 54.4667 37.4731 56.9102 37.9489 59.4303C38.1148 60.3431 38.5487 61.1862 39.1957 61.8527C39.8428 62.5194 40.674 62.9794 41.5836 63.1744C42.4933 63.3694 43.4405 63.2906 44.3051 62.9481C45.1698 62.6055 45.9129 62.0147 46.4404 61.2504C46.9678 60.4861 47.2558 59.5828 47.2677 58.655C47.2796 57.7272 47.0149 56.8168 46.5071 56.0392C45.9993 55.2617 45.2714 54.652 44.4157 54.2876C43.56 53.9232 42.6151 53.8205 41.7008 53.9924ZM40.4372 47.3046L40.3906 47.0592L40.4372 47.3046C48.0356 45.876 55.4154 50.8995 56.8468 58.4752C58.2783 66.0515 53.2707 73.4039 45.641 74.8384C38.0114 76.2729 30.6635 71.2432 29.2317 63.6677C27.794 56.061 32.8386 48.7331 40.4372 47.3046ZM45.1895 72.4453C47.815 71.9556 50.1882 70.571 51.9027 68.5286L52.0698 68.3296L51.8637 68.1706C49.4143 66.2802 46.6345 65.53 43.976 66.0298C41.3152 66.5301 39.0395 68.2654 37.4134 70.8844L37.2742 71.1085L37.5062 71.2352C39.849 72.515 42.5652 72.9427 45.1895 72.4453Z" fill="#1E62A1" stroke="#5C5C5C" stroke-width="0.5"/>
<path d="M141.221 134.539L141.221 134.539C139.465 133.972 137.543 134.927 136.971 136.684C136.761 137.317 136.743 137.999 136.921 138.642C137.099 139.286 137.465 139.862 137.972 140.298C138.479 140.734 139.105 141.01 139.769 141.091C140.433 141.172 141.107 141.054 141.704 140.753C142.301 140.451 142.796 139.98 143.124 139.398C143.452 138.816 143.6 138.15 143.548 137.484C143.496 136.819 143.247 136.183 142.833 135.659C142.419 135.135 141.857 134.745 141.221 134.539ZM142.657 130.125L142.733 129.887L142.657 130.125C147.794 131.785 150.632 137.328 148.966 142.449C147.301 147.57 141.764 150.407 136.605 148.739C131.446 147.072 128.63 141.537 130.295 136.416C131.967 131.273 137.519 128.464 142.657 130.125ZM132.714 143.889C133.737 145.482 135.284 146.67 137.089 147.251C138.893 147.836 140.845 147.779 142.61 147.088L142.852 146.993L142.748 146.754C141.867 144.747 140.389 143.332 138.555 142.739C136.719 142.146 134.705 142.458 132.801 143.537L132.571 143.667L132.714 143.889Z" fill="#1E62A1" stroke="#5C5C5C" stroke-width="0.5"/>
</svg>
