<svg width="44" height="44" viewBox="0 0 44 44" fill="none" xmlns="http://www.w3.org/2000/svg">
<path d="M22.2311 9.9165C24.9183 9.91654 27.4876 11.051 29.2576 13.4876C31.2785 16.2713 31.0758 20.0973 29.6701 22.8576C28.9886 24.1958 27.0849 27.0204 25.3385 29.527C24.4679 30.7765 23.6404 31.9414 23.0305 32.794C22.7255 33.2203 22.475 33.5685 22.3008 33.81C22.2728 33.8489 22.2467 33.885 22.2227 33.9182L22.1907 33.8775C22.0387 33.6842 21.8197 33.4051 21.5514 33.0623C21.0148 32.3767 20.2812 31.4363 19.4931 30.4172C17.9152 28.3766 16.1243 26.0272 15.2556 24.7713C14.7262 24.0049 14.3225 23.2053 14.0179 22.4661C13.1426 20.3406 12.9854 17.9771 13.7028 15.8057C14.6741 12.8664 16.7957 11.3964 18.6902 10.657C19.6385 10.2869 20.5268 10.1014 21.1783 10.0087C21.5037 9.96239 21.7691 9.93933 21.9522 9.92785C22.0437 9.92211 22.1146 9.91928 22.162 9.91787C22.1857 9.91717 22.2035 9.91683 22.2152 9.91666L22.2279 9.91652L22.2307 9.91651L22.231 9.9165C22.2311 9.9165 22.2311 9.9165 22.2311 9.9165Z" stroke="#003972" stroke-width="0.5"/>
<path d="M21.9973 0.0811624C21.9973 0.0811624 21.8713 0.0691685 21.6195 0.0751655C21.3436 0.0811624 20.9778 0.0931563 20.51 0.10515C20.2641 0.117144 19.9943 0.117144 19.6944 0.141132C19.3946 0.183111 19.0707 0.231086 18.7169 0.279062C18.3631 0.333035 17.9793 0.387007 17.5775 0.44098C17.1757 0.542928 16.7499 0.644876 16.3002 0.758818C14.5071 1.22058 12.3362 2.00619 10.1173 3.45145C7.89842 4.87273 5.59559 6.91169 3.72454 9.67629C1.88947 12.4589 0.474193 15.9431 0.0963852 19.8591C0.0604035 20.8366 -0.0595356 21.8381 0.0364156 22.8456C0.0723974 23.3493 0.0604035 23.8651 0.138364 24.3748C0.216324 24.8846 0.294285 25.4003 0.372245 25.916C0.792032 27.961 1.39772 30.0479 2.44719 31.997C3.47267 33.952 4.80399 35.811 6.42317 37.4662C8.07234 39.0854 10.0034 40.4946 12.1503 41.5801C14.2912 42.6715 16.66 43.4272 19.1307 43.721C19.7424 43.8409 20.3661 43.8409 20.9898 43.8769C21.6135 43.9189 22.2431 43.9429 22.8728 43.9129C24.1322 43.8589 25.3915 43.703 26.6389 43.4391C29.3495 42.8634 31.8982 41.76 34.1411 40.2848L33.9132 40.3087C36.5159 41.3522 39.0646 42.3777 41.5533 43.3732L42.0031 43.5531L41.8712 43.0853C41.0976 40.2788 40.3479 37.5561 39.6223 34.9175L39.5863 35.1214C41.7332 32.2728 43.1005 29.0165 43.6643 25.7841C43.9461 24.1709 44.0661 22.5577 43.9641 20.9985C43.9281 20.2189 43.8921 19.4513 43.7482 18.7017C43.6882 18.3239 43.6343 17.9521 43.5743 17.5863C43.5083 17.2205 43.3944 16.8606 43.3044 16.5068C41.8292 10.7557 38.285 6.5099 34.7768 4.07513C33.0197 2.83976 31.2865 1.95221 29.7034 1.40049C29.3076 1.25657 28.9297 1.12463 28.5579 0.9927C28.1801 0.896748 27.8203 0.806794 27.4725 0.71684C27.1247 0.632882 26.7948 0.548925 26.477 0.470965C26.1592 0.410995 25.8533 0.375013 25.5655 0.333035C24.9897 0.261071 24.48 0.159123 24.0362 0.135135C23.5985 0.123141 23.2266 0.10515 22.9148 0.0991533C22.6329 0.0931563 22.4051 0.0871594 22.2311 0.0811624C22.0752 0.0811624 21.9973 0.0811624 21.9973 0.0871594C21.9973 0.0931563 22.0752 0.10515 22.2311 0.117144C22.4051 0.129138 22.6329 0.147129 22.9148 0.171117C23.2266 0.189108 23.5925 0.219092 24.0302 0.249077C24.474 0.285059 24.9718 0.393004 25.5475 0.476961C27.7963 0.890751 31.1666 1.7843 34.6149 4.30302C38.0571 6.73778 41.5054 10.9416 42.9266 16.5968C43.0106 16.9506 43.1185 17.2984 43.1845 17.6582C43.2385 18.0241 43.2924 18.3899 43.3464 18.7557C43.4844 19.4873 43.5203 20.2429 43.5503 21.0105C43.6523 22.5398 43.5263 24.117 43.2385 25.7002C42.6748 28.8665 41.3254 32.0449 39.2145 34.8335L39.1486 34.9235L39.1785 35.0314C39.8982 37.6701 40.6418 40.3987 41.4094 43.2053L41.7332 42.9174C39.2445 41.9159 36.6958 40.8904 34.0931 39.841L33.9732 39.793L33.8652 39.865C31.6704 41.3042 29.1816 42.3837 26.531 42.9474C25.3136 43.2113 24.0782 43.3612 22.8488 43.4152C22.2311 43.4451 21.6195 43.4212 21.0078 43.3792C20.3961 43.3432 19.7844 43.3432 19.1907 43.2233C16.7799 42.9354 14.4591 42.2038 12.3662 41.1363C10.2672 40.0809 8.37818 38.7076 6.759 37.1244C5.16981 35.5052 3.86847 33.6881 2.85498 31.7811C1.81751 29.874 1.21782 27.8291 0.798029 25.8261C0.720069 25.3223 0.642108 24.8186 0.564148 24.3149C0.492184 23.8171 0.498181 23.3134 0.462199 22.8156C0.366248 21.8201 0.48019 20.8426 0.510175 19.8831C0.857998 16.0391 2.2313 12.6088 4.01839 9.86819C5.84147 7.13358 8.09632 5.10661 10.2732 3.67934C12.4501 2.22807 14.585 1.42448 16.3541 0.938727C16.7979 0.818788 17.2177 0.710843 17.6135 0.602898C18.0153 0.536931 18.3931 0.476961 18.7409 0.416992C19.0887 0.357022 19.4126 0.309047 19.7124 0.255074C20.0123 0.225089 20.2821 0.213095 20.522 0.195105C20.9898 0.159123 21.3556 0.135135 21.6255 0.117144C21.8713 0.0991533 22.0033 0.0811624 22.0033 0.0751655L21.9973 0.0811624Z" fill="#003972"/>
<circle cx="22" cy="19" r="2" fill="#003972"/>
</svg>
